<svg xmlns="http://www.w3.org/2000/svg" xmlns:xlink="http://www.w3.org/1999/xlink" width="630" height="280" version="1">
  <defs>
    <path id="a" d="M70 0h20v20H70z"/>
    <path id="b" d="M70 20h10v20H70z"/>
    <path id="c" d="M70 40h10v20H70z"/>
    <path id="d" d="M200 10h10v20h-10z"/>
    <path id="e" d="M200 30h10v20h-10z"/>
    <path id="f" d="M90 0h20v10H90z"/>
    <path id="g" d="M110 0h20v10h-20z"/>
    <path id="h" d="M130 0h20v10h-20z"/>
    <path id="i" d="M150 0h20v10h-20z"/>
    <path id="j" d="M170 0h20v10h-20z"/>
    <path id="k" d="M190 0h20v10h-20z"/>
    <path id="l" d="M70 60h20v10H70z"/>
    <path id="m" d="M90 60h20v10H90z"/>
    <path id="n" d="M110 60h20v10h-20z"/>
    <path id="o" d="M130 60h20v10h-20z"/>
    <path id="p" d="M150 60h20v10h-20z"/>
    <path id="q" d="M170 60h20v10h-20z"/>
    <path id="r" d="M190 50h20v20h-20z"/>
    <path id="s" d="M210 0h20v20h-20z"/>
    <path id="t" d="M210 20h10v20h-10z"/>
    <path id="u" d="M210 40h10v20h-10z"/>
    <path id="v" d="M340 10h10v20h-10z"/>
    <path id="w" d="M340 30h10v20h-10z"/>
    <path id="x" d="M230 0h20v10h-20z"/>
    <path id="y" d="M250 0h20v10h-20z"/>
    <path id="z" d="M270 0h20v10h-20z"/>
    <path id="A" d="M290 0h20v10h-20z"/>
    <path id="B" d="M310 0h20v10h-20z"/>
    <path id="C" d="M330 0h20v10h-20z"/>
    <path id="D" d="M210 60h20v10h-20z"/>
    <path id="E" d="M230 60h20v10h-20z"/>
    <path id="F" d="M250 60h20v10h-20z"/>
    <path id="G" d="M270 60h20v10h-20z"/>
    <path id="H" d="M290 60h20v10h-20z"/>
    <path id="I" d="M310 60h20v10h-20z"/>
    <path id="J" d="M330 50h20v20h-20z"/>
    <path id="K" d="M350 0h20v20h-20z"/>
    <path id="L" d="M350 20h10v20h-10z"/>
    <path id="M" d="M350 40h10v20h-10z"/>
    <path id="N" d="M480 10h10v20h-10z"/>
    <path id="O" d="M480 30h10v20h-10z"/>
    <path id="P" d="M370 0h20v10h-20z"/>
    <path id="Q" d="M390 0h20v10h-20z"/>
    <path id="R" d="M410 0h20v10h-20z"/>
    <path id="S" d="M430 0h20v10h-20z"/>
    <path id="T" d="M450 0h20v10h-20z"/>
    <path id="U" d="M470 0h20v10h-20z"/>
    <path id="V" d="M350 60h20v10h-20z"/>
    <path id="W" d="M370 60h20v10h-20z"/>
    <path id="X" d="M390 60h20v10h-20z"/>
    <path id="Y" d="M410 60h20v10h-20z"/>
    <path id="Z" d="M430 60h20v10h-20z"/>
    <path id="aa" d="M450 60h20v10h-20z"/>
    <path id="ab" d="M470 50h20v20h-20z"/>
    <path id="ac" d="M140 70h20v20h-20z"/>
    <path id="ad" d="M140 90h10v20h-10z"/>
    <path id="ae" d="M140 110h10v20h-10z"/>
    <path id="af" d="M270 80h10v20h-10z"/>
    <path id="ag" d="M270 100h10v20h-10z"/>
    <path id="ah" d="M160 70h20v10h-20z"/>
    <path id="ai" d="M180 70h20v10h-20z"/>
    <path id="aj" d="M200 70h20v10h-20z"/>
    <path id="ak" d="M220 70h20v10h-20z"/>
    <path id="al" d="M240 70h20v10h-20z"/>
    <path id="am" d="M260 70h20v10h-20z"/>
    <path id="an" d="M140 130h20v10h-20z"/>
    <path id="ao" d="M160 130h20v10h-20z"/>
    <path id="ap" d="M180 130h20v10h-20z"/>
    <path id="aq" d="M200 130h20v10h-20z"/>
    <path id="ar" d="M220 130h20v10h-20z"/>
    <path id="as" d="M240 130h20v10h-20z"/>
    <path id="at" d="M260 120h20v20h-20z"/>
    <path id="au" d="M280 70h20v20h-20z"/>
    <path id="av" d="M280 90h10v20h-10z"/>
    <path id="aw" d="M280 110h10v20h-10z"/>
    <path id="ax" d="M410 80h10v20h-10z"/>
    <path id="ay" d="M410 100h10v20h-10z"/>
    <path id="az" d="M300 70h20v10h-20z"/>
    <path id="aA" d="M320 70h20v10h-20z"/>
    <path id="aB" d="M340 70h20v10h-20z"/>
    <path id="aC" d="M360 70h20v10h-20z"/>
    <path id="aD" d="M380 70h20v10h-20z"/>
    <path id="aE" d="M400 70h20v10h-20z"/>
    <path id="aF" d="M280 130h20v10h-20z"/>
    <path id="aG" d="M300 130h20v10h-20z"/>
    <path id="aH" d="M320 130h20v10h-20z"/>
    <path id="aI" d="M340 130h20v10h-20z"/>
    <path id="aJ" d="M360 130h20v10h-20z"/>
    <path id="aK" d="M380 130h20v10h-20z"/>
    <path id="aL" d="M400 120h20v20h-20z"/>
    <path id="aM" d="M0 70h20v20H0z"/>
    <path id="aN" d="M0 90h10v20H0z"/>
    <path id="aO" d="M0 110h10v20H0z"/>
    <path id="aP" d="M130 80h10v20h-10z"/>
    <path id="aQ" d="M130 100h10v20h-10z"/>
    <path id="aR" d="M20 70h20v10H20z"/>
    <path id="aS" d="M40 70h20v10H40z"/>
    <path id="aT" d="M60 70h20v10H60z"/>
    <path id="aU" d="M80 70h20v10H80z"/>
    <path id="aV" d="M100 70h20v10h-20z"/>
    <path id="aW" d="M120 70h20v10h-20z"/>
    <path id="aX" d="M0 130h20v10H0z"/>
    <path id="aY" d="M20 130h20v10H20z"/>
    <path id="aZ" d="M40 130h20v10H40z"/>
    <path id="ba" d="M60 130h20v10H60z"/>
    <path id="bb" d="M80 130h20v10H80z"/>
    <path id="bc" d="M100 130h20v10h-20z"/>
    <path id="bd" d="M120 120h20v20h-20z"/>
    <path id="be" d="M70 140h20v20H70z"/>
    <path id="bf" d="M70 160h10v20H70z"/>
    <path id="bg" d="M70 180h10v20H70z"/>
    <path id="bh" d="M200 150h10v20h-10z"/>
    <path id="bi" d="M200 170h10v20h-10z"/>
    <path id="bj" d="M90 140h20v10H90z"/>
    <path id="bk" d="M110 140h20v10h-20z"/>
    <path id="bl" d="M130 140h20v10h-20z"/>
    <path id="bm" d="M150 140h20v10h-20z"/>
    <path id="bn" d="M170 140h20v10h-20z"/>
    <path id="bo" d="M190 140h20v10h-20z"/>
    <path id="bp" d="M70 200h20v10H70z"/>
    <path id="bq" d="M90 200h20v10H90z"/>
    <path id="br" d="M110 200h20v10h-20z"/>
    <path id="bs" d="M130 200h20v10h-20z"/>
    <path id="bt" d="M150 200h20v10h-20z"/>
    <path id="bu" d="M170 200h20v10h-20z"/>
    <path id="bv" d="M190 190h20v20h-20z"/>
    <path id="bw" d="M210 140h20v20h-20z"/>
    <path id="bx" d="M210 160h10v20h-10z"/>
    <path id="by" d="M210 180h10v20h-10z"/>
    <path id="bz" d="M340 150h10v20h-10z"/>
    <path id="bA" d="M340 170h10v20h-10z"/>
    <path id="bB" d="M230 140h20v10h-20z"/>
    <path id="bC" d="M250 140h20v10h-20z"/>
    <path id="bD" d="M270 140h20v10h-20z"/>
    <path id="bE" d="M290 140h20v10h-20z"/>
    <path id="bF" d="M310 140h20v10h-20z"/>
    <path id="bG" d="M330 140h20v10h-20z"/>
    <path id="bH" d="M210 200h20v10h-20z"/>
    <path id="bI" d="M230 200h20v10h-20z"/>
    <path id="bJ" d="M250 200h20v10h-20z"/>
    <path id="bK" d="M270 200h20v10h-20z"/>
    <path id="bL" d="M290 200h20v10h-20z"/>
    <path id="bM" d="M310 200h20v10h-20z"/>
    <path id="bN" d="M330 190h20v20h-20z"/>
    <path id="bO" d="M350 140h20v20h-20z"/>
    <path id="bP" d="M350 160h10v20h-10z"/>
    <path id="bQ" d="M350 180h10v20h-10z"/>
    <path id="bR" d="M480 150h10v20h-10z"/>
    <path id="bS" d="M480 170h10v20h-10z"/>
    <path id="bT" d="M370 140h20v10h-20z"/>
    <path id="bU" d="M390 140h20v10h-20z"/>
    <path id="bV" d="M410 140h20v10h-20z"/>
    <path id="bW" d="M430 140h20v10h-20z"/>
    <path id="bX" d="M450 140h20v10h-20z"/>
    <path id="bY" d="M470 140h20v10h-20z"/>
    <path id="bZ" d="M350 200h20v10h-20z"/>
    <path id="ca" d="M370 200h20v10h-20z"/>
    <path id="cb" d="M390 200h20v10h-20z"/>
    <path id="cc" d="M410 200h20v10h-20z"/>
    <path id="cd" d="M430 200h20v10h-20z"/>
    <path id="ce" d="M450 200h20v10h-20z"/>
    <path id="cf" d="M470 190h20v20h-20z"/>
    <path id="cg" d="M490 140h20v20h-20z"/>
    <path id="ch" d="M490 160h10v20h-10z"/>
    <path id="ci" d="M490 180h10v20h-10z"/>
    <path id="cj" d="M620 150h10v20h-10z"/>
    <path id="ck" d="M620 170h10v20h-10z"/>
    <path id="cl" d="M510 140h20v10h-20z"/>
    <path id="cm" d="M530 140h20v10h-20z"/>
    <path id="cn" d="M550 140h20v10h-20z"/>
    <path id="co" d="M570 140h20v10h-20z"/>
    <path id="cp" d="M590 140h20v10h-20z"/>
    <path id="cq" d="M610 140h20v10h-20z"/>
    <path id="cr" d="M490 200h20v10h-20z"/>
    <path id="cs" d="M510 200h20v10h-20z"/>
    <path id="ct" d="M530 200h20v10h-20z"/>
    <path id="cu" d="M550 200h20v10h-20z"/>
    <path id="cv" d="M570 200h20v10h-20z"/>
    <path id="cw" d="M590 200h20v10h-20z"/>
    <path id="cx" d="M610 190h20v20h-20z"/>
    <path id="cy" d="M490 0h20v20h-20z"/>
    <path id="cz" d="M490 20h10v20h-10z"/>
    <path id="cA" d="M490 40h10v20h-10z"/>
    <path id="cB" d="M620 10h10v20h-10z"/>
    <path id="cC" d="M620 30h10v20h-10z"/>
    <path id="cD" d="M510 0h20v10h-20z"/>
    <path id="cE" d="M530 0h20v10h-20z"/>
    <path id="cF" d="M550 0h20v10h-20z"/>
    <path id="cG" d="M570 0h20v10h-20z"/>
    <path id="cH" d="M590 0h20v10h-20z"/>
    <path id="cI" d="M610 0h20v10h-20z"/>
    <path id="cJ" d="M490 60h20v10h-20z"/>
    <path id="cK" d="M510 60h20v10h-20z"/>
    <path id="cL" d="M530 60h20v10h-20z"/>
    <path id="cM" d="M550 60h20v10h-20z"/>
    <path id="cN" d="M570 60h20v10h-20z"/>
    <path id="cO" d="M590 60h20v10h-20z"/>
    <path id="cP" d="M610 50h20v20h-20z"/>
    <path id="cQ" d="M420 70h20v20h-20z"/>
    <path id="cR" d="M420 90h10v20h-10z"/>
    <path id="cS" d="M420 110h10v20h-10z"/>
    <path id="cT" d="M550 80h10v20h-10z"/>
    <path id="cU" d="M550 100h10v20h-10z"/>
    <path id="cV" d="M440 70h20v10h-20z"/>
    <path id="cW" d="M460 70h20v10h-20z"/>
    <path id="cX" d="M480 70h20v10h-20z"/>
    <path id="cY" d="M500 70h20v10h-20z"/>
    <path id="cZ" d="M520 70h20v10h-20z"/>
    <path id="da" d="M540 70h20v10h-20z"/>
    <path id="db" d="M420 130h20v10h-20z"/>
    <path id="dc" d="M440 130h20v10h-20z"/>
    <path id="dd" d="M460 130h20v10h-20z"/>
    <path id="de" d="M480 130h20v10h-20z"/>
    <path id="df" d="M500 130h20v10h-20z"/>
    <path id="dg" d="M520 130h20v10h-20z"/>
    <path id="dh" d="M540 120h20v20h-20z"/>
    <path id="di" d="M140 210h20v20h-20z"/>
    <path id="dj" d="M140 230h10v20h-10z"/>
    <path id="dk" d="M140 250h10v20h-10z"/>
    <path id="dl" d="M270 220h10v20h-10z"/>
    <path id="dm" d="M270 240h10v20h-10z"/>
    <path id="dn" d="M160 210h20v10h-20z"/>
    <path id="do" d="M180 210h20v10h-20z"/>
    <path id="dp" d="M200 210h20v10h-20z"/>
    <path id="dq" d="M220 210h20v10h-20z"/>
    <path id="dr" d="M240 210h20v10h-20z"/>
    <path id="ds" d="M260 210h20v10h-20z"/>
    <path id="dt" d="M140 270h20v10h-20z"/>
    <path id="du" d="M160 270h20v10h-20z"/>
    <path id="dv" d="M180 270h20v10h-20z"/>
    <path id="dw" d="M200 270h20v10h-20z"/>
    <path id="dx" d="M220 270h20v10h-20z"/>
    <path id="dy" d="M240 270h20v10h-20z"/>
    <path id="dz" d="M260 260h20v20h-20z"/>
    <path id="dA" d="M280 210h20v20h-20z"/>
    <path id="dB" d="M280 230h10v20h-10z"/>
    <path id="dC" d="M280 250h10v20h-10z"/>
    <path id="dD" d="M410 220h10v20h-10z"/>
    <path id="dE" d="M410 240h10v20h-10z"/>
    <path id="dF" d="M300 210h20v10h-20z"/>
    <path id="dG" d="M320 210h20v10h-20z"/>
    <path id="dH" d="M340 210h20v10h-20z"/>
    <path id="dI" d="M360 210h20v10h-20z"/>
    <path id="dJ" d="M380 210h20v10h-20z"/>
    <path id="dK" d="M400 210h20v10h-20z"/>
    <path id="dL" d="M280 270h20v10h-20z"/>
    <path id="dM" d="M300 270h20v10h-20z"/>
    <path id="dN" d="M320 270h20v10h-20z"/>
    <path id="dO" d="M340 270h20v10h-20z"/>
    <path id="dP" d="M360 270h20v10h-20z"/>
    <path id="dQ" d="M380 270h20v10h-20z"/>
    <path id="dR" d="M400 260h20v20h-20z"/>
    <path id="dS" d="M0 210h20v20H0z"/>
    <path id="dT" d="M0 230h10v20H0z"/>
    <path id="dU" d="M0 250h10v20H0z"/>
    <path id="dV" d="M130 220h10v20h-10z"/>
    <path id="dW" d="M130 240h10v20h-10z"/>
    <path id="dX" d="M20 210h20v10H20z"/>
    <path id="dY" d="M40 210h20v10H40z"/>
    <path id="dZ" d="M60 210h20v10H60z"/>
    <path id="ea" d="M80 210h20v10H80z"/>
    <path id="eb" d="M100 210h20v10h-20z"/>
    <path id="ec" d="M120 210h20v10h-20z"/>
    <path id="ed" d="M0 270h20v10H0z"/>
    <path id="ee" d="M20 270h20v10H20z"/>
    <path id="ef" d="M40 270h20v10H40z"/>
    <path id="eg" d="M60 270h20v10H60z"/>
    <path id="eh" d="M80 270h20v10H80z"/>
    <path id="ei" d="M100 270h20v10h-20z"/>
    <path id="ej" d="M120 260h20v20h-20z"/>
    <path id="ek" d="M420 210h20v20h-20z"/>
    <path id="el" d="M420 230h10v20h-10z"/>
    <path id="em" d="M420 250h10v20h-10z"/>
    <path id="en" d="M550 220h10v20h-10z"/>
    <path id="eo" d="M550 240h10v20h-10z"/>
    <path id="ep" d="M440 210h20v10h-20z"/>
    <path id="eq" d="M460 210h20v10h-20z"/>
    <path id="er" d="M480 210h20v10h-20z"/>
    <path id="es" d="M500 210h20v10h-20z"/>
    <path id="et" d="M520 210h20v10h-20z"/>
    <path id="eu" d="M540 210h20v10h-20z"/>
    <path id="ev" d="M420 270h20v10h-20z"/>
    <path id="ew" d="M440 270h20v10h-20z"/>
    <path id="ex" d="M460 270h20v10h-20z"/>
    <path id="ey" d="M480 270h20v10h-20z"/>
    <path id="ez" d="M500 270h20v10h-20z"/>
    <path id="eA" d="M520 270h20v10h-20z"/>
    <path id="eB" d="M540 260h20v20h-20z"/>
  </defs>
  <g fill="none" fill-rule="evenodd">
    <use fill="#9AA0A5" xlink:href="#a"/>
    <path stroke="#FFF" d="M70 0h20v20H70z"/>
    <use fill="#9AA0A5" xlink:href="#b"/>
    <path stroke="#FFF" d="M70 20h10v20H70z"/>
    <use fill="#9AA0A5" xlink:href="#c"/>
    <path stroke="#FFF" d="M70 40h10v20H70z"/>
    <use fill="#9AA0A5" xlink:href="#d"/>
    <path stroke="#FFF" d="M200 10h10v20h-10z"/>
    <use fill="#9AA0A5" xlink:href="#e"/>
    <path stroke="#FFF" d="M200 30h10v20h-10z"/>
    <use fill="#9AA0A5" xlink:href="#f"/>
    <path stroke="#FFF" d="M90 0h20v10H90z"/>
    <use fill="#9AA0A5" xlink:href="#g"/>
    <path stroke="#FFF" d="M110 0h20v10h-20z"/>
    <use fill="#9AA0A5" xlink:href="#h"/>
    <path stroke="#FFF" d="M130 0h20v10h-20z"/>
    <use fill="#9AA0A5" xlink:href="#i"/>
    <path stroke="#FFF" d="M150 0h20v10h-20z"/>
    <use fill="#9AA0A5" xlink:href="#j"/>
    <path stroke="#FFF" d="M170 0h20v10h-20z"/>
    <use fill="#9AA0A5" xlink:href="#k"/>
    <path stroke="#FFF" d="M190 0h20v10h-20z"/>
    <use fill="#9AA0A5" xlink:href="#l"/>
    <path stroke="#FFF" d="M70 60h20v10H70z"/>
    <use fill="#9AA0A5" xlink:href="#m"/>
    <path stroke="#FFF" d="M90 60h20v10H90z"/>
    <use fill="#9AA0A5" xlink:href="#n"/>
    <path stroke="#FFF" d="M110 60h20v10h-20z"/>
    <use fill="#9AA0A5" xlink:href="#o"/>
    <path stroke="#FFF" d="M130 60h20v10h-20z"/>
    <use fill="#9AA0A5" xlink:href="#p"/>
    <path stroke="#FFF" d="M150 60h20v10h-20z"/>
    <use fill="#9AA0A5" xlink:href="#q"/>
    <path stroke="#FFF" d="M170 60h20v10h-20z"/>
    <use fill="#9AA0A5" xlink:href="#r"/>
    <path stroke="#FFF" d="M190 50h20v20h-20z"/>
    <use fill="#9AA0A5" xlink:href="#s"/>
    <path stroke="#FFF" d="M210 0h20v20h-20z"/>
    <use fill="#9AA0A5" xlink:href="#t"/>
    <path stroke="#FFF" d="M210 20h10v20h-10z"/>
    <use fill="#9AA0A5" xlink:href="#u"/>
    <path stroke="#FFF" d="M210 40h10v20h-10z"/>
    <use fill="#9AA0A5" xlink:href="#v"/>
    <path stroke="#FFF" d="M340 10h10v20h-10z"/>
    <use fill="#9AA0A5" xlink:href="#w"/>
    <path stroke="#FFF" d="M340 30h10v20h-10z"/>
    <use fill="#9AA0A5" xlink:href="#x"/>
    <path stroke="#FFF" d="M230 0h20v10h-20z"/>
    <use fill="#9AA0A5" xlink:href="#y"/>
    <path stroke="#FFF" d="M250 0h20v10h-20z"/>
    <use fill="#9AA0A5" xlink:href="#z"/>
    <path stroke="#FFF" d="M270 0h20v10h-20z"/>
    <use fill="#9AA0A5" xlink:href="#A"/>
    <path stroke="#FFF" d="M290 0h20v10h-20z"/>
    <use fill="#9AA0A5" xlink:href="#B"/>
    <path stroke="#FFF" d="M310 0h20v10h-20z"/>
    <use fill="#9AA0A5" xlink:href="#C"/>
    <path stroke="#FFF" d="M330 0h20v10h-20z"/>
    <use fill="#9AA0A5" xlink:href="#D"/>
    <path stroke="#FFF" d="M210 60h20v10h-20z"/>
    <use fill="#9AA0A5" xlink:href="#E"/>
    <path stroke="#FFF" d="M230 60h20v10h-20z"/>
    <use fill="#9AA0A5" xlink:href="#F"/>
    <path stroke="#FFF" d="M250 60h20v10h-20z"/>
    <use fill="#9AA0A5" xlink:href="#G"/>
    <path stroke="#FFF" d="M270 60h20v10h-20z"/>
    <use fill="#9AA0A5" xlink:href="#H"/>
    <path stroke="#FFF" d="M290 60h20v10h-20z"/>
    <use fill="#9AA0A5" xlink:href="#I"/>
    <path stroke="#FFF" d="M310 60h20v10h-20z"/>
    <use fill="#9AA0A5" xlink:href="#J"/>
    <path stroke="#FFF" d="M330 50h20v20h-20z"/>
    <use fill="#9AA0A5" xlink:href="#K"/>
    <path stroke="#FFF" d="M350 0h20v20h-20z"/>
    <use fill="#9AA0A5" xlink:href="#L"/>
    <path stroke="#FFF" d="M350 20h10v20h-10z"/>
    <use fill="#9AA0A5" xlink:href="#M"/>
    <path stroke="#FFF" d="M350 40h10v20h-10z"/>
    <use fill="#9AA0A5" xlink:href="#N"/>
    <path stroke="#FFF" d="M480 10h10v20h-10z"/>
    <use fill="#9AA0A5" xlink:href="#O"/>
    <path stroke="#FFF" d="M480 30h10v20h-10z"/>
    <use fill="#9AA0A5" xlink:href="#P"/>
    <path stroke="#FFF" d="M370 0h20v10h-20z"/>
    <use fill="#9AA0A5" xlink:href="#Q"/>
    <path stroke="#FFF" d="M390 0h20v10h-20z"/>
    <use fill="#9AA0A5" xlink:href="#R"/>
    <path stroke="#FFF" d="M410 0h20v10h-20z"/>
    <use fill="#9AA0A5" xlink:href="#S"/>
    <path stroke="#FFF" d="M430 0h20v10h-20z"/>
    <use fill="#9AA0A5" xlink:href="#T"/>
    <path stroke="#FFF" d="M450 0h20v10h-20z"/>
    <use fill="#9AA0A5" xlink:href="#U"/>
    <path stroke="#FFF" d="M470 0h20v10h-20z"/>
    <use fill="#9AA0A5" xlink:href="#V"/>
    <path stroke="#FFF" d="M350 60h20v10h-20z"/>
    <use fill="#9AA0A5" xlink:href="#W"/>
    <path stroke="#FFF" d="M370 60h20v10h-20z"/>
    <use fill="#9AA0A5" xlink:href="#X"/>
    <path stroke="#FFF" d="M390 60h20v10h-20z"/>
    <use fill="#9AA0A5" xlink:href="#Y"/>
    <path stroke="#FFF" d="M410 60h20v10h-20z"/>
    <use fill="#9AA0A5" xlink:href="#Z"/>
    <path stroke="#FFF" d="M430 60h20v10h-20z"/>
    <use fill="#9AA0A5" xlink:href="#aa"/>
    <path stroke="#FFF" d="M450 60h20v10h-20z"/>
    <use fill="#9AA0A5" xlink:href="#ab"/>
    <path stroke="#FFF" d="M470 50h20v20h-20z"/>
    <use fill="#9AA0A5" xlink:href="#ac"/>
    <path stroke="#FFF" d="M140 70h20v20h-20z"/>
    <use fill="#9AA0A5" xlink:href="#ad"/>
    <path stroke="#FFF" d="M140 90h10v20h-10z"/>
    <use fill="#9AA0A5" xlink:href="#ae"/>
    <path stroke="#FFF" d="M140 110h10v20h-10z"/>
    <use fill="#9AA0A5" xlink:href="#af"/>
    <path stroke="#FFF" d="M270 80h10v20h-10z"/>
    <use fill="#9AA0A5" xlink:href="#ag"/>
    <path stroke="#FFF" d="M270 100h10v20h-10z"/>
    <use fill="#9AA0A5" xlink:href="#ah"/>
    <path stroke="#FFF" d="M160 70h20v10h-20z"/>
    <use fill="#9AA0A5" xlink:href="#ai"/>
    <path stroke="#FFF" d="M180 70h20v10h-20z"/>
    <use fill="#9AA0A5" xlink:href="#aj"/>
    <path stroke="#FFF" d="M200 70h20v10h-20z"/>
    <use fill="#9AA0A5" xlink:href="#ak"/>
    <path stroke="#FFF" d="M220 70h20v10h-20z"/>
    <use fill="#9AA0A5" xlink:href="#al"/>
    <path stroke="#FFF" d="M240 70h20v10h-20z"/>
    <use fill="#9AA0A5" xlink:href="#am"/>
    <path stroke="#FFF" d="M260 70h20v10h-20z"/>
    <use fill="#9AA0A5" xlink:href="#an"/>
    <path stroke="#FFF" d="M140 130h20v10h-20z"/>
    <use fill="#9AA0A5" xlink:href="#ao"/>
    <path stroke="#FFF" d="M160 130h20v10h-20z"/>
    <use fill="#9AA0A5" xlink:href="#ap"/>
    <path stroke="#FFF" d="M180 130h20v10h-20z"/>
    <use fill="#9AA0A5" xlink:href="#aq"/>
    <path stroke="#FFF" d="M200 130h20v10h-20z"/>
    <use fill="#9AA0A5" xlink:href="#ar"/>
    <path stroke="#FFF" d="M220 130h20v10h-20z"/>
    <use fill="#9AA0A5" xlink:href="#as"/>
    <path stroke="#FFF" d="M240 130h20v10h-20z"/>
    <use fill="#9AA0A5" xlink:href="#at"/>
    <path stroke="#FFF" d="M260 120h20v20h-20z"/>
    <use fill="#9AA0A5" xlink:href="#au"/>
    <path stroke="#FFF" d="M280 70h20v20h-20z"/>
    <use fill="#9AA0A5" xlink:href="#av"/>
    <path stroke="#FFF" d="M280 90h10v20h-10z"/>
    <use fill="#9AA0A5" xlink:href="#aw"/>
    <path stroke="#FFF" d="M280 110h10v20h-10z"/>
    <use fill="#9AA0A5" xlink:href="#ax"/>
    <path stroke="#FFF" d="M410 80h10v20h-10z"/>
    <use fill="#9AA0A5" xlink:href="#ay"/>
    <path stroke="#FFF" d="M410 100h10v20h-10z"/>
    <use fill="#9AA0A5" xlink:href="#az"/>
    <path stroke="#FFF" d="M300 70h20v10h-20z"/>
    <use fill="#9AA0A5" xlink:href="#aA"/>
    <path stroke="#FFF" d="M320 70h20v10h-20z"/>
    <use fill="#9AA0A5" xlink:href="#aB"/>
    <path stroke="#FFF" d="M340 70h20v10h-20z"/>
    <use fill="#9AA0A5" xlink:href="#aC"/>
    <path stroke="#FFF" d="M360 70h20v10h-20z"/>
    <use fill="#9AA0A5" xlink:href="#aD"/>
    <path stroke="#FFF" d="M380 70h20v10h-20z"/>
    <use fill="#9AA0A5" xlink:href="#aE"/>
    <path stroke="#FFF" d="M400 70h20v10h-20z"/>
    <use fill="#9AA0A5" xlink:href="#aF"/>
    <path stroke="#FFF" d="M280 130h20v10h-20z"/>
    <use fill="#9AA0A5" xlink:href="#aG"/>
    <path stroke="#FFF" d="M300 130h20v10h-20z"/>
    <use fill="#9AA0A5" xlink:href="#aH"/>
    <path stroke="#FFF" d="M320 130h20v10h-20z"/>
    <use fill="#9AA0A5" xlink:href="#aI"/>
    <path stroke="#FFF" d="M340 130h20v10h-20z"/>
    <use fill="#9AA0A5" xlink:href="#aJ"/>
    <path stroke="#FFF" d="M360 130h20v10h-20z"/>
    <use fill="#9AA0A5" xlink:href="#aK"/>
    <path stroke="#FFF" d="M380 130h20v10h-20z"/>
    <use fill="#9AA0A5" xlink:href="#aL"/>
    <path stroke="#FFF" d="M400 120h20v20h-20z"/>
    <use fill="#9AA0A5" xlink:href="#aM"/>
    <path stroke="#FFF" d="M0 70h20v20H0z"/>
    <use fill="#9AA0A5" xlink:href="#aN"/>
    <path stroke="#FFF" d="M0 90h10v20H0z"/>
    <use fill="#9AA0A5" xlink:href="#aO"/>
    <path stroke="#FFF" d="M0 110h10v20H0z"/>
    <use fill="#9AA0A5" xlink:href="#aP"/>
    <path stroke="#FFF" d="M130 80h10v20h-10z"/>
    <use fill="#9AA0A5" xlink:href="#aQ"/>
    <path stroke="#FFF" d="M130 100h10v20h-10z"/>
    <use fill="#9AA0A5" xlink:href="#aR"/>
    <path stroke="#FFF" d="M20 70h20v10H20z"/>
    <use fill="#9AA0A5" xlink:href="#aS"/>
    <path stroke="#FFF" d="M40 70h20v10H40z"/>
    <use fill="#9AA0A5" xlink:href="#aT"/>
    <path stroke="#FFF" d="M60 70h20v10H60z"/>
    <use fill="#9AA0A5" xlink:href="#aU"/>
    <path stroke="#FFF" d="M80 70h20v10H80z"/>
    <use fill="#9AA0A5" xlink:href="#aV"/>
    <path stroke="#FFF" d="M100 70h20v10h-20z"/>
    <use fill="#9AA0A5" xlink:href="#aW"/>
    <path stroke="#FFF" d="M120 70h20v10h-20z"/>
    <use fill="#9AA0A5" xlink:href="#aX"/>
    <path stroke="#FFF" d="M0 130h20v10H0z"/>
    <use fill="#9AA0A5" xlink:href="#aY"/>
    <path stroke="#FFF" d="M20 130h20v10H20z"/>
    <use fill="#9AA0A5" xlink:href="#aZ"/>
    <path stroke="#FFF" d="M40 130h20v10H40z"/>
    <use fill="#9AA0A5" xlink:href="#ba"/>
    <path stroke="#FFF" d="M60 130h20v10H60z"/>
    <use fill="#9AA0A5" xlink:href="#bb"/>
    <path stroke="#FFF" d="M80 130h20v10H80z"/>
    <use fill="#9AA0A5" xlink:href="#bc"/>
    <path stroke="#FFF" d="M100 130h20v10h-20z"/>
    <use fill="#9AA0A5" xlink:href="#bd"/>
    <path stroke="#FFF" d="M120 120h20v20h-20z"/>
    <use fill="#9AA0A5" xlink:href="#be"/>
    <path stroke="#FFF" d="M70 140h20v20H70z"/>
    <use fill="#9AA0A5" xlink:href="#bf"/>
    <path stroke="#FFF" d="M70 160h10v20H70z"/>
    <use fill="#9AA0A5" xlink:href="#bg"/>
    <path stroke="#FFF" d="M70 180h10v20H70z"/>
    <use fill="#9AA0A5" xlink:href="#bh"/>
    <path stroke="#FFF" d="M200 150h10v20h-10z"/>
    <use fill="#9AA0A5" xlink:href="#bi"/>
    <path stroke="#FFF" d="M200 170h10v20h-10z"/>
    <use fill="#9AA0A5" xlink:href="#bj"/>
    <path stroke="#FFF" d="M90 140h20v10H90z"/>
    <use fill="#9AA0A5" xlink:href="#bk"/>
    <path stroke="#FFF" d="M110 140h20v10h-20z"/>
    <use fill="#9AA0A5" xlink:href="#bl"/>
    <path stroke="#FFF" d="M130 140h20v10h-20z"/>
    <use fill="#9AA0A5" xlink:href="#bm"/>
    <path stroke="#FFF" d="M150 140h20v10h-20z"/>
    <use fill="#9AA0A5" xlink:href="#bn"/>
    <path stroke="#FFF" d="M170 140h20v10h-20z"/>
    <use fill="#9AA0A5" xlink:href="#bo"/>
    <path stroke="#FFF" d="M190 140h20v10h-20z"/>
    <use fill="#9AA0A5" xlink:href="#bp"/>
    <path stroke="#FFF" d="M70 200h20v10H70z"/>
    <use fill="#9AA0A5" xlink:href="#bq"/>
    <path stroke="#FFF" d="M90 200h20v10H90z"/>
    <use fill="#9AA0A5" xlink:href="#br"/>
    <path stroke="#FFF" d="M110 200h20v10h-20z"/>
    <use fill="#9AA0A5" xlink:href="#bs"/>
    <path stroke="#FFF" d="M130 200h20v10h-20z"/>
    <use fill="#9AA0A5" xlink:href="#bt"/>
    <path stroke="#FFF" d="M150 200h20v10h-20z"/>
    <use fill="#9AA0A5" xlink:href="#bu"/>
    <path stroke="#FFF" d="M170 200h20v10h-20z"/>
    <use fill="#9AA0A5" xlink:href="#bv"/>
    <path stroke="#FFF" d="M190 190h20v20h-20z"/>
    <use fill="#9AA0A5" xlink:href="#bw"/>
    <path stroke="#FFF" d="M210 140h20v20h-20z"/>
    <use fill="#9AA0A5" xlink:href="#bx"/>
    <path stroke="#FFF" d="M210 160h10v20h-10z"/>
    <use fill="#9AA0A5" xlink:href="#by"/>
    <path stroke="#FFF" d="M210 180h10v20h-10z"/>
    <use fill="#9AA0A5" xlink:href="#bz"/>
    <path stroke="#FFF" d="M340 150h10v20h-10z"/>
    <use fill="#9AA0A5" xlink:href="#bA"/>
    <path stroke="#FFF" d="M340 170h10v20h-10z"/>
    <use fill="#9AA0A5" xlink:href="#bB"/>
    <path stroke="#FFF" d="M230 140h20v10h-20z"/>
    <use fill="#9AA0A5" xlink:href="#bC"/>
    <path stroke="#FFF" d="M250 140h20v10h-20z"/>
    <use fill="#9AA0A5" xlink:href="#bD"/>
    <path stroke="#FFF" d="M270 140h20v10h-20z"/>
    <use fill="#9AA0A5" xlink:href="#bE"/>
    <path stroke="#FFF" d="M290 140h20v10h-20z"/>
    <use fill="#9AA0A5" xlink:href="#bF"/>
    <path stroke="#FFF" d="M310 140h20v10h-20z"/>
    <use fill="#9AA0A5" xlink:href="#bG"/>
    <path stroke="#FFF" d="M330 140h20v10h-20z"/>
    <use fill="#9AA0A5" xlink:href="#bH"/>
    <path stroke="#FFF" d="M210 200h20v10h-20z"/>
    <use fill="#9AA0A5" xlink:href="#bI"/>
    <path stroke="#FFF" d="M230 200h20v10h-20z"/>
    <use fill="#9AA0A5" xlink:href="#bJ"/>
    <path stroke="#FFF" d="M250 200h20v10h-20z"/>
    <use fill="#9AA0A5" xlink:href="#bK"/>
    <path stroke="#FFF" d="M270 200h20v10h-20z"/>
    <use fill="#9AA0A5" xlink:href="#bL"/>
    <path stroke="#FFF" d="M290 200h20v10h-20z"/>
    <use fill="#9AA0A5" xlink:href="#bM"/>
    <path stroke="#FFF" d="M310 200h20v10h-20z"/>
    <use fill="#9AA0A5" xlink:href="#bN"/>
    <path stroke="#FFF" d="M330 190h20v20h-20z"/>
    <use fill="#9AA0A5" xlink:href="#bO"/>
    <path stroke="#FFF" d="M350 140h20v20h-20z"/>
    <use fill="#9AA0A5" xlink:href="#bP"/>
    <path stroke="#FFF" d="M350 160h10v20h-10z"/>
    <use fill="#9AA0A5" xlink:href="#bQ"/>
    <path stroke="#FFF" d="M350 180h10v20h-10z"/>
    <use fill="#9AA0A5" xlink:href="#bR"/>
    <path stroke="#FFF" d="M480 150h10v20h-10z"/>
    <use fill="#9AA0A5" xlink:href="#bS"/>
    <path stroke="#FFF" d="M480 170h10v20h-10z"/>
    <use fill="#9AA0A5" xlink:href="#bT"/>
    <path stroke="#FFF" d="M370 140h20v10h-20z"/>
    <use fill="#9AA0A5" xlink:href="#bU"/>
    <path stroke="#FFF" d="M390 140h20v10h-20z"/>
    <use fill="#9AA0A5" xlink:href="#bV"/>
    <path stroke="#FFF" d="M410 140h20v10h-20z"/>
    <use fill="#9AA0A5" xlink:href="#bW"/>
    <path stroke="#FFF" d="M430 140h20v10h-20z"/>
    <use fill="#9AA0A5" xlink:href="#bX"/>
    <path stroke="#FFF" d="M450 140h20v10h-20z"/>
    <use fill="#9AA0A5" xlink:href="#bY"/>
    <path stroke="#FFF" d="M470 140h20v10h-20z"/>
    <use fill="#9AA0A5" xlink:href="#bZ"/>
    <path stroke="#FFF" d="M350 200h20v10h-20z"/>
    <use fill="#9AA0A5" xlink:href="#ca"/>
    <path stroke="#FFF" d="M370 200h20v10h-20z"/>
    <use fill="#9AA0A5" xlink:href="#cb"/>
    <path stroke="#FFF" d="M390 200h20v10h-20z"/>
    <use fill="#9AA0A5" xlink:href="#cc"/>
    <path stroke="#FFF" d="M410 200h20v10h-20z"/>
    <use fill="#9AA0A5" xlink:href="#cd"/>
    <path stroke="#FFF" d="M430 200h20v10h-20z"/>
    <use fill="#9AA0A5" xlink:href="#ce"/>
    <path stroke="#FFF" d="M450 200h20v10h-20z"/>
    <use fill="#9AA0A5" xlink:href="#cf"/>
    <path stroke="#FFF" d="M470 190h20v20h-20z"/>
    <use fill="#9AA0A5" xlink:href="#cg"/>
    <path stroke="#FFF" d="M490 140h20v20h-20z"/>
    <use fill="#9AA0A5" xlink:href="#ch"/>
    <path stroke="#FFF" d="M490 160h10v20h-10z"/>
    <use fill="#9AA0A5" xlink:href="#ci"/>
    <path stroke="#FFF" d="M490 180h10v20h-10z"/>
    <use fill="#9AA0A5" xlink:href="#cj"/>
    <path stroke="#FFF" d="M620 150h10v20h-10z"/>
    <use fill="#9AA0A5" xlink:href="#ck"/>
    <path stroke="#FFF" d="M620 170h10v20h-10z"/>
    <use fill="#9AA0A5" xlink:href="#cl"/>
    <path stroke="#FFF" d="M510 140h20v10h-20z"/>
    <use fill="#9AA0A5" xlink:href="#cm"/>
    <path stroke="#FFF" d="M530 140h20v10h-20z"/>
    <use fill="#9AA0A5" xlink:href="#cn"/>
    <path stroke="#FFF" d="M550 140h20v10h-20z"/>
    <use fill="#9AA0A5" xlink:href="#co"/>
    <path stroke="#FFF" d="M570 140h20v10h-20z"/>
    <use fill="#9AA0A5" xlink:href="#cp"/>
    <path stroke="#FFF" d="M590 140h20v10h-20z"/>
    <use fill="#9AA0A5" xlink:href="#cq"/>
    <path stroke="#FFF" d="M610 140h20v10h-20z"/>
    <use fill="#9AA0A5" xlink:href="#cr"/>
    <path stroke="#FFF" d="M490 200h20v10h-20z"/>
    <use fill="#9AA0A5" xlink:href="#cs"/>
    <path stroke="#FFF" d="M510 200h20v10h-20z"/>
    <use fill="#9AA0A5" xlink:href="#ct"/>
    <path stroke="#FFF" d="M530 200h20v10h-20z"/>
    <use fill="#9AA0A5" xlink:href="#cu"/>
    <path stroke="#FFF" d="M550 200h20v10h-20z"/>
    <use fill="#9AA0A5" xlink:href="#cv"/>
    <path stroke="#FFF" d="M570 200h20v10h-20z"/>
    <use fill="#9AA0A5" xlink:href="#cw"/>
    <path stroke="#FFF" d="M590 200h20v10h-20z"/>
    <use fill="#9AA0A5" xlink:href="#cx"/>
    <path stroke="#FFF" d="M610 190h20v20h-20z"/>
    <use fill="#9AA0A5" xlink:href="#cy"/>
    <path stroke="#FFF" d="M490 0h20v20h-20z"/>
    <use fill="#9AA0A5" xlink:href="#cz"/>
    <path stroke="#FFF" d="M490 20h10v20h-10z"/>
    <use fill="#9AA0A5" xlink:href="#cA"/>
    <path stroke="#FFF" d="M490 40h10v20h-10z"/>
    <use fill="#9AA0A5" xlink:href="#cB"/>
    <path stroke="#FFF" d="M620 10h10v20h-10z"/>
    <use fill="#9AA0A5" xlink:href="#cC"/>
    <path stroke="#FFF" d="M620 30h10v20h-10z"/>
    <use fill="#9AA0A5" xlink:href="#cD"/>
    <path stroke="#FFF" d="M510 0h20v10h-20z"/>
    <use fill="#9AA0A5" xlink:href="#cE"/>
    <path stroke="#FFF" d="M530 0h20v10h-20z"/>
    <use fill="#9AA0A5" xlink:href="#cF"/>
    <path stroke="#FFF" d="M550 0h20v10h-20z"/>
    <use fill="#9AA0A5" xlink:href="#cG"/>
    <path stroke="#FFF" d="M570 0h20v10h-20z"/>
    <use fill="#9AA0A5" xlink:href="#cH"/>
    <path stroke="#FFF" d="M590 0h20v10h-20z"/>
    <use fill="#9AA0A5" xlink:href="#cI"/>
    <path stroke="#FFF" d="M610 0h20v10h-20z"/>
    <use fill="#9AA0A5" xlink:href="#cJ"/>
    <path stroke="#FFF" d="M490 60h20v10h-20z"/>
    <use fill="#9AA0A5" xlink:href="#cK"/>
    <path stroke="#FFF" d="M510 60h20v10h-20z"/>
    <use fill="#9AA0A5" xlink:href="#cL"/>
    <path stroke="#FFF" d="M530 60h20v10h-20z"/>
    <use fill="#9AA0A5" xlink:href="#cM"/>
    <path stroke="#FFF" d="M550 60h20v10h-20z"/>
    <use fill="#9AA0A5" xlink:href="#cN"/>
    <path stroke="#FFF" d="M570 60h20v10h-20z"/>
    <use fill="#9AA0A5" xlink:href="#cO"/>
    <path stroke="#FFF" d="M590 60h20v10h-20z"/>
    <use fill="#9AA0A5" xlink:href="#cP"/>
    <path stroke="#FFF" d="M610 50h20v20h-20z"/>
    <use fill="#9AA0A5" xlink:href="#cQ"/>
    <path stroke="#FFF" d="M420 70h20v20h-20z"/>
    <use fill="#9AA0A5" xlink:href="#cR"/>
    <path stroke="#FFF" d="M420 90h10v20h-10z"/>
    <use fill="#9AA0A5" xlink:href="#cS"/>
    <path stroke="#FFF" d="M420 110h10v20h-10z"/>
    <use fill="#9AA0A5" xlink:href="#cT"/>
    <path stroke="#FFF" d="M550 80h10v20h-10z"/>
    <use fill="#9AA0A5" xlink:href="#cU"/>
    <path stroke="#FFF" d="M550 100h10v20h-10z"/>
    <use fill="#9AA0A5" xlink:href="#cV"/>
    <path stroke="#FFF" d="M440 70h20v10h-20z"/>
    <use fill="#9AA0A5" xlink:href="#cW"/>
    <path stroke="#FFF" d="M460 70h20v10h-20z"/>
    <use fill="#9AA0A5" xlink:href="#cX"/>
    <path stroke="#FFF" d="M480 70h20v10h-20z"/>
    <use fill="#9AA0A5" xlink:href="#cY"/>
    <path stroke="#FFF" d="M500 70h20v10h-20z"/>
    <use fill="#9AA0A5" xlink:href="#cZ"/>
    <path stroke="#FFF" d="M520 70h20v10h-20z"/>
    <use fill="#9AA0A5" xlink:href="#da"/>
    <path stroke="#FFF" d="M540 70h20v10h-20z"/>
    <use fill="#9AA0A5" xlink:href="#db"/>
    <path stroke="#FFF" d="M420 130h20v10h-20z"/>
    <use fill="#9AA0A5" xlink:href="#dc"/>
    <path stroke="#FFF" d="M440 130h20v10h-20z"/>
    <use fill="#9AA0A5" xlink:href="#dd"/>
    <path stroke="#FFF" d="M460 130h20v10h-20z"/>
    <use fill="#9AA0A5" xlink:href="#de"/>
    <path stroke="#FFF" d="M480 130h20v10h-20z"/>
    <use fill="#9AA0A5" xlink:href="#df"/>
    <path stroke="#FFF" d="M500 130h20v10h-20z"/>
    <use fill="#9AA0A5" xlink:href="#dg"/>
    <path stroke="#FFF" d="M520 130h20v10h-20z"/>
    <use fill="#9AA0A5" xlink:href="#dh"/>
    <path stroke="#FFF" d="M540 120h20v20h-20z"/>
    <use fill="#9AA0A5" xlink:href="#di"/>
    <path stroke="#FFF" d="M140 210h20v20h-20z"/>
    <use fill="#9AA0A5" xlink:href="#dj"/>
    <path stroke="#FFF" d="M140 230h10v20h-10z"/>
    <use fill="#9AA0A5" xlink:href="#dk"/>
    <path stroke="#FFF" d="M140 250h10v20h-10z"/>
    <use fill="#9AA0A5" xlink:href="#dl"/>
    <path stroke="#FFF" d="M270 220h10v20h-10z"/>
    <use fill="#9AA0A5" xlink:href="#dm"/>
    <path stroke="#FFF" d="M270 240h10v20h-10z"/>
    <use fill="#9AA0A5" xlink:href="#dn"/>
    <path stroke="#FFF" d="M160 210h20v10h-20z"/>
    <use fill="#9AA0A5" xlink:href="#do"/>
    <path stroke="#FFF" d="M180 210h20v10h-20z"/>
    <use fill="#9AA0A5" xlink:href="#dp"/>
    <path stroke="#FFF" d="M200 210h20v10h-20z"/>
    <use fill="#9AA0A5" xlink:href="#dq"/>
    <path stroke="#FFF" d="M220 210h20v10h-20z"/>
    <use fill="#9AA0A5" xlink:href="#dr"/>
    <path stroke="#FFF" d="M240 210h20v10h-20z"/>
    <use fill="#9AA0A5" xlink:href="#ds"/>
    <path stroke="#FFF" d="M260 210h20v10h-20z"/>
    <use fill="#9AA0A5" xlink:href="#dt"/>
    <path stroke="#FFF" d="M140 270h20v10h-20z"/>
    <use fill="#9AA0A5" xlink:href="#du"/>
    <path stroke="#FFF" d="M160 270h20v10h-20z"/>
    <use fill="#9AA0A5" xlink:href="#dv"/>
    <path stroke="#FFF" d="M180 270h20v10h-20z"/>
    <use fill="#9AA0A5" xlink:href="#dw"/>
    <path stroke="#FFF" d="M200 270h20v10h-20z"/>
    <use fill="#9AA0A5" xlink:href="#dx"/>
    <path stroke="#FFF" d="M220 270h20v10h-20z"/>
    <use fill="#9AA0A5" xlink:href="#dy"/>
    <path stroke="#FFF" d="M240 270h20v10h-20z"/>
    <use fill="#9AA0A5" xlink:href="#dz"/>
    <path stroke="#FFF" d="M260 260h20v20h-20z"/>
    <use fill="#9AA0A5" xlink:href="#dA"/>
    <path stroke="#FFF" d="M280 210h20v20h-20z"/>
    <use fill="#9AA0A5" xlink:href="#dB"/>
    <path stroke="#FFF" d="M280 230h10v20h-10z"/>
    <use fill="#9AA0A5" xlink:href="#dC"/>
    <path stroke="#FFF" d="M280 250h10v20h-10z"/>
    <use fill="#9AA0A5" xlink:href="#dD"/>
    <path stroke="#FFF" d="M410 220h10v20h-10z"/>
    <use fill="#9AA0A5" xlink:href="#dE"/>
    <path stroke="#FFF" d="M410 240h10v20h-10z"/>
    <use fill="#9AA0A5" xlink:href="#dF"/>
    <path stroke="#FFF" d="M300 210h20v10h-20z"/>
    <use fill="#9AA0A5" xlink:href="#dG"/>
    <path stroke="#FFF" d="M320 210h20v10h-20z"/>
    <use fill="#9AA0A5" xlink:href="#dH"/>
    <path stroke="#FFF" d="M340 210h20v10h-20z"/>
    <use fill="#9AA0A5" xlink:href="#dI"/>
    <path stroke="#FFF" d="M360 210h20v10h-20z"/>
    <use fill="#9AA0A5" xlink:href="#dJ"/>
    <path stroke="#FFF" d="M380 210h20v10h-20z"/>
    <use fill="#9AA0A5" xlink:href="#dK"/>
    <path stroke="#FFF" d="M400 210h20v10h-20z"/>
    <use fill="#9AA0A5" xlink:href="#dL"/>
    <path stroke="#FFF" d="M280 270h20v10h-20z"/>
    <use fill="#9AA0A5" xlink:href="#dM"/>
    <path stroke="#FFF" d="M300 270h20v10h-20z"/>
    <use fill="#9AA0A5" xlink:href="#dN"/>
    <path stroke="#FFF" d="M320 270h20v10h-20z"/>
    <use fill="#9AA0A5" xlink:href="#dO"/>
    <path stroke="#FFF" d="M340 270h20v10h-20z"/>
    <use fill="#9AA0A5" xlink:href="#dP"/>
    <path stroke="#FFF" d="M360 270h20v10h-20z"/>
    <use fill="#9AA0A5" xlink:href="#dQ"/>
    <path stroke="#FFF" d="M380 270h20v10h-20z"/>
    <use fill="#9AA0A5" xlink:href="#dR"/>
    <path stroke="#FFF" d="M400 260h20v20h-20z"/>
    <use fill="#9AA0A5" xlink:href="#dS"/>
    <path stroke="#FFF" d="M0 210h20v20H0z"/>
    <use fill="#9AA0A5" xlink:href="#dT"/>
    <path stroke="#FFF" d="M0 230h10v20H0z"/>
    <use fill="#9AA0A5" xlink:href="#dU"/>
    <path stroke="#FFF" d="M0 250h10v20H0z"/>
    <use fill="#9AA0A5" xlink:href="#dV"/>
    <path stroke="#FFF" d="M130 220h10v20h-10z"/>
    <use fill="#9AA0A5" xlink:href="#dW"/>
    <path stroke="#FFF" d="M130 240h10v20h-10z"/>
    <use fill="#9AA0A5" xlink:href="#dX"/>
    <path stroke="#FFF" d="M20 210h20v10H20z"/>
    <use fill="#9AA0A5" xlink:href="#dY"/>
    <path stroke="#FFF" d="M40 210h20v10H40z"/>
    <use fill="#9AA0A5" xlink:href="#dZ"/>
    <path stroke="#FFF" d="M60 210h20v10H60z"/>
    <use fill="#9AA0A5" xlink:href="#ea"/>
    <path stroke="#FFF" d="M80 210h20v10H80z"/>
    <use fill="#9AA0A5" xlink:href="#eb"/>
    <path stroke="#FFF" d="M100 210h20v10h-20z"/>
    <use fill="#9AA0A5" xlink:href="#ec"/>
    <path stroke="#FFF" d="M120 210h20v10h-20z"/>
    <use fill="#9AA0A5" xlink:href="#ed"/>
    <path stroke="#FFF" d="M0 270h20v10H0z"/>
    <use fill="#9AA0A5" xlink:href="#ee"/>
    <path stroke="#FFF" d="M20 270h20v10H20z"/>
    <use fill="#9AA0A5" xlink:href="#ef"/>
    <path stroke="#FFF" d="M40 270h20v10H40z"/>
    <use fill="#9AA0A5" xlink:href="#eg"/>
    <path stroke="#FFF" d="M60 270h20v10H60z"/>
    <use fill="#9AA0A5" xlink:href="#eh"/>
    <path stroke="#FFF" d="M80 270h20v10H80z"/>
    <use fill="#9AA0A5" xlink:href="#ei"/>
    <path stroke="#FFF" d="M100 270h20v10h-20z"/>
    <use fill="#9AA0A5" xlink:href="#ej"/>
    <path stroke="#FFF" d="M120 260h20v20h-20z"/>
    <use fill="#9AA0A5" xlink:href="#ek"/>
    <path stroke="#FFF" d="M420 210h20v20h-20z"/>
    <use fill="#9AA0A5" xlink:href="#el"/>
    <path stroke="#FFF" d="M420 230h10v20h-10z"/>
    <use fill="#9AA0A5" xlink:href="#em"/>
    <path stroke="#FFF" d="M420 250h10v20h-10z"/>
    <use fill="#9AA0A5" xlink:href="#en"/>
    <path stroke="#FFF" d="M550 220h10v20h-10z"/>
    <use fill="#9AA0A5" xlink:href="#eo"/>
    <path stroke="#FFF" d="M550 240h10v20h-10z"/>
    <use fill="#9AA0A5" xlink:href="#ep"/>
    <path stroke="#FFF" d="M440 210h20v10h-20z"/>
    <use fill="#9AA0A5" xlink:href="#eq"/>
    <path stroke="#FFF" d="M460 210h20v10h-20z"/>
    <use fill="#9AA0A5" xlink:href="#er"/>
    <path stroke="#FFF" d="M480 210h20v10h-20z"/>
    <use fill="#9AA0A5" xlink:href="#es"/>
    <path stroke="#FFF" d="M500 210h20v10h-20z"/>
    <use fill="#9AA0A5" xlink:href="#et"/>
    <path stroke="#FFF" d="M520 210h20v10h-20z"/>
    <use fill="#9AA0A5" xlink:href="#eu"/>
    <path stroke="#FFF" d="M540 210h20v10h-20z"/>
    <use fill="#9AA0A5" xlink:href="#ev"/>
    <path stroke="#FFF" d="M420 270h20v10h-20z"/>
    <use fill="#9AA0A5" xlink:href="#ew"/>
    <path stroke="#FFF" d="M440 270h20v10h-20z"/>
    <use fill="#9AA0A5" xlink:href="#ex"/>
    <path stroke="#FFF" d="M460 270h20v10h-20z"/>
    <use fill="#9AA0A5" xlink:href="#ey"/>
    <path stroke="#FFF" d="M480 270h20v10h-20z"/>
    <use fill="#9AA0A5" xlink:href="#ez"/>
    <path stroke="#FFF" d="M500 270h20v10h-20z"/>
    <use fill="#9AA0A5" xlink:href="#eA"/>
    <path stroke="#FFF" d="M520 270h20v10h-20z"/>
    <use fill="#9AA0A5" xlink:href="#eB"/>
    <path stroke="#FFF" d="M540 260h20v20h-20z"/>
  </g>
</svg>
