<svg width="1312" height="502" xmlns="http://www.w3.org/2000/svg"><g fill="none" stroke="#FCFCFF"><path fill="#312e6f" d="M541 1h20v10h-20z"/><path fill="#403d94" d="M571 71h10v10h-10z"/><path fill="#0e4da4" d="M381 181v20h20v-20z"/><path fill="#0075eb" d="M111 131h20v-10h-20z"/><path fill="#312e6f" d="M681 271h20v10h-20zm20-50h10v20h-10z"/><path fill="#0e4da4" d="M331 171v20h20v-20z"/><path fill="#0075eb" d="M121 81h20V71h-20z"/><path fill="#312e6f" d="M671 241h10v20h-10zm20 20h20v10h-20z"/><path fill="#0e4da4" d="M351 161v20h20v-20z"/><path fill="#0075eb" d="M111 61h20V51h-20z"/><path fill="#312e6f" d="M671 261h10v20h-10zm40 0h20v10h-20z"/><path fill="#0e4da4" d="M101 151h20v-20h-20z"/><path fill="#312e6f" d="M681 251h10v20h-10zm40 30h20v10h-20z"/><path fill="#67b0fe" d="M311 171v10h10v-10z"/><path fill="#0e4da4" d="M131 71h20V51h-20z"/><path fill="#312e6f" d="M711 291h20v10h-20zm50-70h10v20h-10z"/><path fill="#67b0fe" d="M381 171v10h10v-10z"/><path fill="#0e4da4" d="M121 121h20v-20h-20z"/><path fill="#0075eb" d="M321 191v10h20v-10z"/><path fill="#312e6f" d="M731 291h20v10h-20zm20-60h10v20h-10z"/><path fill="#0e4da4" d="M111 101h20V81h-20z"/><path fill="#0075eb" d="M341 191v10h20v-10z"/><path fill="#231f4c" d="M671 201h20v20h-20z"/><path fill="#312e6f" d="M761 241h10v20h-10z"/><path fill="#0075eb" d="M361 191v10h20v-10z"/><path fill="#231f4c" d="M671 281h20v20h-20z"/><path fill="#312e6f" d="M761 261h10v20h-10z"/><path fill="#67b0fe" d="M121 141h10v-10h-10z"/><path fill="#0075eb" d="M381 151v10h20v-10z"/><path fill="#231f4c" d="M751 281h20v20h-20z"/><path fill="#312e6f" d="M741 271h10v20h-10z"/><path fill="#67b0fe" d="M121 71h10V61h-10z"/><path fill="#0075eb" d="M141 131h10v-20h-10zm180 20v10h20v-10z"/><path fill="#231f4c" d="M741 251h20v20h-20z"/><path fill="#312e6f" d="M731 261h10v20h-10z"/><path fill="#0075eb" d="M141 111h10V91h-10zm200 40v10h20v-10z"/><path fill="#231f4c" d="M721 211h20v20h-20z"/><path fill="#312e6f" d="M541 401h20v10h-20z"/><path fill="#0075eb" d="M141 91h10V71h-10zm220 60v10h20v-10z"/><path fill="#231f4c" d="M681 231h20v20h-20z"/><path fill="#312e6f" d="M551 411h20v10h-20z"/><path fill="#0075eb" d="M101 71h10V51h-10zm200 120v10h20v-10z"/><path fill="#231f4c" d="M701 271h20v20h-20z"/><path fill="#312e6f" d="M561 401h20v10h-20z"/><path fill="#0075eb" d="M101 131h10v-20h-10zm210 50v10h20v-10z"/><path fill="#231f4c" d="M701 241h20v20h-20z"/><path fill="#312e6f" d="M581 401h20v10h-20z"/><path fill="#0075eb" d="M101 111h10V91h-10zm230 50v10h20v-10z"/><path fill="#231f4c" d="M721 241h20v20h-20z"/><path fill="#312e6f" d="M591 421h20v10h-20z"/><path fill="#0075eb" d="M101 91h10V71h-10zm250 90v10h20v-10z"/><path fill="#231f4c" d="M751 201h20v20h-20z"/><path fill="#312e6f" d="M581 431h20v10h-20z"/><path fill="#0075eb" d="M141 151h10v-20h-10zm230 10v10h20v-10z"/><path fill="#312e6f" d="M561 431h20v10h-20z"/><path fill="#403d94" d="M681 221h10v10h-10z"/><path fill="#0075eb" d="M131 141h10v-20h-10zm70 30v20h10v-20z"/><path fill="#312e6f" d="M541 491h20v10h-20z"/><path fill="#403d94" d="M691 281h10v10h-10z"/><path fill="#0075eb" d="M111 121h10v-20h-10zm110 40v20h10v-20z"/><path fill="#312e6f" d="M531 471h20v10h-20z"/><path fill="#403d94" d="M721 271h10v10h-10z"/><path fill="#0075eb" d="M131 101h10V81h-10zm140 70v20h10v-20z"/><path fill="#312e6f" d="M541 461h20v10h-20z"/><path fill="#403d94" d="M691 251h10v10h-10z"/><path fill="#0075eb" d="M111 81h10V61h-10zm180 80v20h10v-20z"/><path fill="#312e6f" d="M561 461h20v10h-20z"/><path fill="#403d94" d="M751 271h10v10h-10z"/><path fill="#0e4da4" d="M201 151v20h20v-20z"/><path fill="#0075eb" d="M301 171v20h10v-20z"/><path fill="#312e6f" d="M571 481h20v10h-20z"/><path fill="#403d94" d="M741 211h10v10h-10z"/><path fill="#0e4da4" d="M281 181v20h20v-20z"/><path fill="#0075eb" d="M321 161v20h10v-20z"/><path fill="#312e6f" d="M561 491h20v10h-20z"/><path fill="#403d94" d="M711 221h10v10h-10z"/><path fill="#0e4da4" d="M231 171v20h20v-20z"/><path fill="#0075eb" d="M371 171v20h10v-20z"/><path fill="#312e6f" d="M581 491h20v10h-20z"/><path fill="#403d94" d="M741 241h10v10h-10z"/><path fill="#0e4da4" d="M251 161v20h20v-20z"/><path fill="#0075eb" d="M391 161v20h10v-20z"/><path fill="#231f4c" d="M521 401h20v20h-20z"/><path fill="#312e6f" d="M671 221h10v20h-10z"/><path fill="#0e4da4" d="M301 151v20h20v-20z"/><path fill="#231f4c" d="M521 481h20v20h-20z"/><path fill="#312e6f" d="M691 211h10v20h-10z"/><path fill="#67b0fe" d="M211 171v10h10v-10z"/><path fill="#312e6f" d="M551 11h20v10h-20z"/><path fill="#403d94" d="M541 51h10v10h-10z"/><path fill="#0075eb" d="M171 61V51h-20v10z"/><path fill="#231f4c" d="M601 481h20v20h-20z"/><path fill="#312e6f" d="M591 471h10v20h-10z"/><path fill="#67b0fe" d="M281 171v10h10v-10z"/><path fill="#0075eb" d="M181 71V61h-20v10zm40 120v10h20v-10z"/><path fill="#231f4c" d="M591 451h20v20h-20z"/><path fill="#312e6f" d="M581 461h10v20h-10z"/><path fill="#0075eb" d="M231 101V91h-20v10zm10 90v10h20v-10z"/><path fill="#231f4c" d="M571 411h20v20h-20z"/><path fill="#e50684" d="M661 61h-20v10h20z"/><path fill="#0075eb" d="M211 101V91h-20v10zm50 90v10h20v-10z"/><path fill="#231f4c" d="M531 431h20v20h-20z"/><path fill="#e50684" d="M651 81h-20v10h20z"/><path fill="#0075eb" d="M191 101V91h-20v10zm90 50v10h20v-10z"/><path fill="#231f4c" d="M551 471h20v20h-20z"/><path fill="#e50684" d="M641 91h-20v10h20z"/><path fill="#0075eb" d="M221 151v10h20v-10zm30-90V51h-20v10z"/><path fill="#231f4c" d="M551 441h20v20h-20z"/><path fill="#e50684" d="M661 91h-20v10h20z"/><path fill="#0075eb" d="M241 71V61h-20v10zm0 80v10h20v-10z"/><path fill="#231f4c" d="M571 441h20v20h-20z"/><path fill="#e50684" d="M671 51h-20v10h20z"/><path fill="#0075eb" d="M221 91V81h-20v10zm40 60v10h20v-10z"/><path fill="#231f4c" d="M601 401h20v20h-20z"/><path fill="#e50684" d="M651 51h-20v10h20z"/><path fill="#0075eb" d="M201 91V81h-20v10zm0 100v10h20v-10z"/><path fill="#403d94" d="M531 421h10v10h-10z"/><path fill="#ff80c4" d="M651 71h-10v10h10z"/><path fill="#0075eb" d="M211 81V71h-20v10zm0 100v10h20v-10z"/><path fill="#403d94" d="M541 481h10v10h-10z"/><path fill="#e50684" d="M641 61h-10v20h10z"/><path fill="#0075eb" d="M181 101h-20v10h20zm50 60v10h20v-10z"/><path fill="#403d94" d="M571 471h10v10h-10z"/><path fill="#e50684" d="M631 71h-10v20h10z"/><path fill="#0075eb" d="M191 121h-20v10h20zm60 60v10h20v-10z"/><path fill="#403d94" d="M541 451h10v10h-10z"/><path fill="#e50684" d="M631 51h-10v20h10z"/><path fill="#0075eb" d="M181 131h-20v10h20zm90 30v10h20v-10z"/><path fill="#403d94" d="M601 471h10v10h-10z"/><path fill="#e50684" d="M671 61h-10v20h10z"/><path fill="#0075eb" d="M181 161h-20v10h20zm70-80V61h-10v20z"/><path fill="#403d94" d="M591 411h10v10h-10z"/><path fill="#e50684" d="M671 81h-10v20h10z"/><path fill="#0075eb" d="M191 171h-20v10h20zm40-80V71h-10v20z"/><path fill="#403d94" d="M561 421h10v10h-10z"/><path fill="#e50684" d="M661 71h-10v20h10z"/><path fill="#0075eb" d="M181 191h-20v10h20zm40-110V61h-10v20z"/><path fill="#403d94" d="M591 441h10v10h-10z"/><path fill="#e50684" d="M631 411h20v10h-20z"/><path fill="#0e4da4" d="M201 101h-20v20h20z"/><path fill="#0075eb" d="M191 81V61h-10v20z"/><path fill="#312e6f" d="M521 421h10v20h-10z"/><path fill="#e50684" d="M641 431h20v10h-20z"/><path fill="#0e4da4" d="M201 181h-20v20h20z"/><path fill="#0075eb" d="M181 91V71h-10v20z"/><path fill="#312e6f" d="M541 411h10v20h-10z"/><path fill="#e50684" d="M651 441h20v10h-20z"/><path fill="#0e4da4" d="M171 141h-20v20h20z"/><path fill="#0075eb" d="M161 81V61h-10v20z"/><path fill="#312e6f" d="M551 421h10v20h-10z"/><path fill="#e50684" d="M631 441h20v10h-20z"/><path fill="#0e4da4" d="M251 101V81h-20v20z"/><path fill="#312e6f" d="M521 441h10v20h-10z"/><path fill="#67b0fe" d="M181 111h-10v10h10z"/><path fill="#e50684" d="M621 401h20v10h-20z"/><path fill="#0e4da4" d="M171 101V81h-20v20z"/><path fill="#312e6f" d="M521 461h10v20h-10z"/><path fill="#67b0fe" d="M181 181h-10v10h10z"/><path fill="#e50684" d="M641 401h20v10h-20z"/><path fill="#0e4da4" d="M211 71V51h-20v20z"/><path fill="#0075eb" d="M161 121h-10v20h10z"/><path fill="#312e6f" d="M531 451h10v20h-10z"/><path fill="#ff80c4" d="M641 421h10v10h-10z"/><path fill="#0075eb" d="M161 161h-10v20h10z"/><path fill="#312e6f" d="M611 421h10v20h-10z"/><path fill="#67b0fe" d="M241 81V71h-10v10z"/><path fill="#e50684" d="M651 411h10v20h-10z"/><path fill="#0075eb" d="M161 181h-10v20h10z"/><path fill="#312e6f" d="M601 431h10v20h-10z"/><path fill="#67b0fe" d="M171 81V71h-10v10z"/><path fill="#e50684" d="M661 421h10v20h-10z"/><path fill="#0075eb" d="M171 171h-10v20h10zm60-110V51h-20v10z"/><path fill="#312e6f" d="M611 441h10v20h-10z"/><path fill="#e50684" d="M661 401h10v20h-10z"/><path fill="#0075eb" d="M191 61V51h-20v10zm10 60h-10v20h10z"/><path fill="#312e6f" d="M611 461h10v20h-10z"/><path fill="#e50684" d="M621 411h10v20h-10z"/><path fill="#312e6f" d="M561 1h20v10h-20z"/><path fill="#403d94" d="M601 71h10v10h-10z"/><path fill="#0075eb" d="M431 161h10v20h-10zm-230-20h-10v20h10zm550 190h-20v-10h20z"/><path fill="#e50684" d="M621 431h10v20h-10z"/><path fill="#0075eb" d="M411 181h10v20h-10zm-210-20h-10v20h10zm560 150h-20v-10h20z"/><path fill="#e50684" d="M631 421h10v20h-10z"/><path fill="#0e4da4" d="M771 401h-20v-20h20z"/><path fill="#0075eb" d="M411 201h10v20h-10zM161 101h-10v20h10zm580 100h20v-10h-20z"/><path fill="#0e4da4" d="M741 321h-20v-20h20z"/><path fill="#0075eb" d="M421 191h10v20h-10zm-250-80h-10v20h10zm560 70h20v-10h-20z"/><path fill="#0e4da4" d="M751 371h-20v-20h20z"/><path fill="#0075eb" d="M191 131h-10v20h10zm10 350v-20h10v20zm540-350h20v-10h-20z"/><path fill="#0e4da4" d="M761 351h-20v-20h20z"/><path fill="#0075eb" d="M191 151h-10v20h10zm30 340v-20h10v20zm510-380h20v-10h-20z"/><path fill="#0e4da4" d="M721 201h20v-20h-20z"/><path fill="#0075eb" d="M181 141h-10v20h10zm50 340v-20h10v20z"/><path fill="#67b0fe" d="M751 391h-10v-10h10z"/><path fill="#0e4da4" d="M751 121h20v-20h-20z"/><path fill="#0075eb" d="M421 151h20v10h-20zM261 481v-20h10v20z"/><path fill="#67b0fe" d="M751 321h-10v-10h10z"/><path fill="#0e4da4" d="M741 171h20v-20h-20z"/><path fill="#0075eb" d="M411 171h20v10h-20zM271 491v-20h10v20zm460-110h-10v-20h10z"/><path fill="#0e4da4" d="M731 151h20v-20h-20z"/><path fill="#0075eb" d="M421 181h20v10h-20zM291 481v-20h10v20zm440-120h-10v-20h10z"/><path fill="#0e4da4" d="M201 501v-20h20v20z"/><path fill="#0075eb" d="M421 211h20v10h-20zm310 130h-10v-20h10z"/><path fill="#67b0fe" d="M741 191h10v-10h-10z"/><path fill="#0e4da4" d="M281 501v-20h20v20z"/><path fill="#0075eb" d="M411 221h20v10h-20zm360 100h-10v-20h10z"/><path fill="#67b0fe" d="M741 121h10v-10h-10z"/><path fill="#0e4da4" d="M241 471v-20h20v20z"/><path fill="#0075eb" d="M421 241h20v10h-20zm340-60h10v-20h-10zm10 200h-10v-20h10z"/><path fill="#0e4da4" d="M401 151h20v20h-20z"/><path fill="#0075eb" d="M761 161h10v-20h-10zm10 200h-10v-20h10z"/><path fill="#67b0fe" d="M211 481v-10h10v10z"/><path fill="#0e4da4" d="M401 231h20v20h-20z"/><path fill="#0075eb" d="M761 141h10v-20h-10zm10 200h-10v-20h10z"/><path fill="#67b0fe" d="M281 481v-10h10v10z"/><path fill="#0e4da4" d="M431 191h20v20h-20z"/><path fill="#0075eb" d="M221 461v-10h20v10zm500-340h10v-20h-10zm10 280h-10v-20h10zm-470 60v-10h20v10zm460-280h10v-20h-10zm20 210h-10v-20h10z"/><path fill="#67b0fe" d="M421 161h10v10h-10z"/><path fill="#0075eb" d="M281 461v-10h20v10zm440-300h10v-20h-10zm40 210h-10v-20h10z"/><path fill="#67b0fe" d="M421 231h10v10h-10z"/><path fill="#0075eb" d="M441 171h10v20h-10zM271 471v-10h20v10zm450-330h10v-20h-10zm20 210h-10v-20h10zM441 211h10v20h-10zM221 501v-10h20v10zm540-170h-10v-20h10zm0-130h10v-20h-10zm-320 30h10v20h-10zM241 501v-10h20v10zm310-100h-20v-10h20zm200-210h10v-20h-10zm-320 30h10v20h-10zM261 501v-10h20v10zm300-120h-20v-10h20zm170-210h10v-20h-10zm-330 0h10v20h-10zM201 461v-10h20v10zm350-130h-20v-10h20zm200-180h10v-20h-10zm-350 40h10v20h-10zM211 471v-10h20v10zm350-160h-20v-10h20zm170-180h10v-20h-10z"/><path fill="#0e4da4" d="M571 401h-20v-20h20z"/><path fill="#0075eb" d="M401 211h10v20h-10zM231 491v-10h20v10zm520-90h-20v-10h20z"/><path fill="#0e4da4" d="M541 321h-20v-20h20z"/><path fill="#0075eb" d="M441 151h10v20h-10zM251 491v-10h20v10zm510-110h-20v-10h20z"/><path fill="#312e6f" d="M581 1h20v10h-20z"/><path fill="#403d94" d="M591 11h10v10h-10z"/><path fill="#0e4da4" d="M551 371h-20v-20h20z"/><path fill="#0075eb" d="M241 481v-10h20v10zM21 271h20v-10H21z"/><path fill="#67b0fe" d="M641 471v10h-10v-10z"/><path fill="#0e4da4" d="M561 351h-20v-20h20z"/><path fill="#0075eb" d="M31 301H11v10h20zm-10-60h20v-10H21zm680 250v10h-20v-10zM11 231h20v-10H11zm30 90H21v10h20zm620 170v10h-20v-10z"/><path fill="#67b0fe" d="M551 391h-10v-10h10z"/><path fill="#0075eb" d="M31 331H11v10h20zM21 211h20v-10H21zm620 280v10h-20v-10z"/><path fill="#67b0fe" d="M551 321h-10v-10h10z"/><path fill="#0e4da4" d="M1 301h20v-20H1z"/><path fill="#0075eb" d="M31 361H11v10h20zm500 20h-10v-20h10zm120 100v10h-20v-10z"/><path fill="#0e4da4" d="M1 221h20v-20H1z"/><path fill="#0075eb" d="M41 371H21v10h20zm490-10h-10v-20h10zm170 90v10h-20v-10z"/><path fill="#0e4da4" d="M31 261h20v-20H31z"/><path fill="#0075eb" d="M31 391H11v10h20zm500-50h-10v-20h10zm150 110v10h-20v-10z"/><path fill="#0e4da4" d="M51 301H31v20h20z"/><path fill="#0075eb" d="M571 321h-10v-20h10zm90 130v10h-20v-10z"/><path fill="#67b0fe" d="M21 291h10v-10H21z"/><path fill="#0e4da4" d="M51 381H31v20h20z"/><path fill="#0075eb" d="M571 381h-10v-20h10zm150 110v10h-20v-10z"/><path fill="#67b0fe" d="M21 221h10v-10H21z"/><path fill="#0e4da4" d="M21 341H1v20h20z"/><path fill="#0075eb" d="M41 281h10v-20H41zm530 80h-10v-20h10zm140 120v10h-20v-10zM41 241h10v-20H41zm530 100h-10v-20h10zm120 120v10h-20v-10z"/><path fill="#67b0fe" d="M31 311H21v10h10z"/><path fill="#0075eb" d="M41 221h10v-20H41zm490 180h-10v-20h10zm140 60v10h-20v-10z"/><path fill="#67b0fe" d="M31 381H21v10h10z"/><path fill="#0075eb" d="M31 231h10v-20H31zm510 160h-10v-20h10zM11 321H1v20h10zm670 150v10h-20v-10zM561 371h-10v-20h10zM1 281h10v-20H1zm10 80H1v20h10zm680 90h20v-10h-20zM541 351h-10v-20h10zM1 261h10v-20H1zm10 120H1v20h10zm670 50h20v-10h-20zM21 371H11v20h10zm540-40h-10v-20h10zM1 241h10v-20H1zm690 180h20v-10h-20zM41 301h10v-20H41zm10 20H41v20h10zm640 70h20v-10h-20zm30 80v20h-10v-20zM31 291h10v-20H31zm20 50H41v20h10zm630 40h20v-10h-20zm20 80v20h-10v-20zM11 271h10v-20H11zm40 90H41v20h10zm640 110v20h-10v-20zm0-110h20v-10h-20z"/><path fill="#0e4da4" d="M671 451h20v-20h-20z"/><path fill="#0075eb" d="M11 251h10v-20H11zm0 50H1v20h10zm650 170v20h-10v-20z"/><path fill="#0e4da4" d="M671 371h20v-20h-20z"/><path fill="#0075eb" d="M21 311H11v20h10zm0-50h10v-20H21zm630 200v20h-10v-20z"/><path fill="#0e4da4" d="M701 411h20v-20h-20z"/><path fill="#0075eb" d="M31 201H11v-10h20zm10 130H31v20h10zm590 140v20h-10v-20z"/><path fill="#0e4da4" d="M721 451v20h-20v-20z"/><path fill="#0075eb" d="M41 181H21v-10h20zm0 170H31v20h10z"/><path fill="#67b0fe" d="M691 441h10v-10h-10z"/><path fill="#0e4da4" d="M641 451v20h-20v-20z"/><path fill="#0075eb" d="M31 171H11v-10h20zm0 170H21v20h10z"/><path fill="#67b0fe" d="M691 371h10v-10h-10z"/><path fill="#0e4da4" d="M681 481v20h-20v-20z"/><path fill="#0075eb" d="M31 141H11v-10h20zM21 301h20v-10H21zm690 130h10v-20h-10zM11 281h20v-10H11zm30-150H21v-10h20zm670 260h10v-20h-10z"/><path fill="#67b0fe" d="M711 471v10h-10v-10z"/><path fill="#312e6f" d="M591 21h20v10h-20z"/><path fill="#403d94" d="M561 21h10v10h-10z"/><path fill="#0e4da4" d="M481 361h20v-20h-20z"/><path fill="#0075eb" d="M31 111H11v-10h20zm680 260h10v-20h-10zm10 90h10v-20h-10z"/><path fill="#0e4da4" d="M51 201H31v-20h20z"/><path fill="#0075eb" d="M701 381h10v-20h-10zm20 60h10v-20h-10z"/><path fill="#67b0fe" d="M471 391h10v-10h-10z"/><path fill="#0e4da4" d="M51 121H31v-20h20z"/><path fill="#0075eb" d="M671 431h10v-20h-10zm90 70h10v-20h-10z"/><path fill="#67b0fe" d="M471 321h10v-10h-10z"/><path fill="#0e4da4" d="M21 161H1v-20h20z"/><path fill="#0075eb" d="M491 381h10v-20h-10zm180 30h10v-20h-10zm80 80h10v-20h-10zM491 341h10v-20h-10zm180 50h10v-20h-10zm60 80h10v-20h-10z"/><path fill="#67b0fe" d="M31 191H21v-10h10z"/><path fill="#0075eb" d="M491 321h10v-20h-10zm220 130h10v-20h-10zm20 0h10v-20h-10z"/><path fill="#67b0fe" d="M31 121H21v-10h10z"/><path fill="#0075eb" d="M481 331h10v-20h-10zM11 181H1v-20h10zm690 260h10v-20h-10zm40 20h10v-20h-10zm-290-80h10v-20h-10zM11 141H1v-20h10zm640 160h-20v-10h20zm30 120h10v-20h-10zm-230-60h10v-20h-10zM11 121H1v-20h10zm650 160h-20v-10h20zm20 120h10v-20h-10zM21 131H11v-20h10zm430 210h10v-20h-10zm200-70h-20v-10h20zm40 140h10v-20h-10zM51 181H41v-20h10zm440 220h10v-20h-10zm160-160h-20v-10h20zm90 260h20v-10h-20zM51 161H41v-20h10zm430 230h10v-20h-10zm180-160h-20v-10h20zm70 250h20v-10h-20zM51 141H41v-20h10zm410 230h10v-20h-10zm190-160h-20v-10h20zm90 260h20v-10h-20z"/><path fill="#0e4da4" d="M671 301h-20v-20h20z"/><path fill="#0075eb" d="M461 351h10v-20h-10zM11 201H1v-20h10zm730 240h20v-10h-20z"/><path fill="#0e4da4" d="M671 221h-20v-20h20z"/><path fill="#0075eb" d="M21 191H11v-20h10zm450 170h10v-20h-10zm260 70h20v-10h-20z"/><path fill="#0e4da4" d="M641 261h-20v-20h20z"/><path fill="#0075eb" d="M41 171H31v-20h10zm440 30h-20v10h20zm260 210h20v-10h-20z"/><path fill="#0e4da4" d="M721 501h20v-20h-20z"/><path fill="#0075eb" d="M41 151H31v-20h10zm450 70h-20v10h20z"/><path fill="#67b0fe" d="M651 291h-10v-10h10z"/><path fill="#0e4da4" d="M721 421h20v-20h-20z"/><path fill="#0075eb" d="M31 161H21v-20h10zm450 70h-20v10h20z"/><path fill="#67b0fe" d="M651 221h-10v-10h10z"/><path fill="#0e4da4" d="M751 461h20v-20h-20z"/><path fill="#0075eb" d="M481 261h-20v10h20zm-10 140h20v-10h-20zm160-120h-10v-20h10zM461 381h20v-10h-20zm30-110h-20v10h20zm140-30h-10v-20h10z"/><path fill="#67b0fe" d="M741 491h10v-10h-10z"/><path fill="#0075eb" d="M481 291h-20v10h20zm-10 80h20v-10h-20zm160-150h-10v-20h10z"/><path fill="#67b0fe" d="M741 421h10v-10h-10z"/><path fill="#0e4da4" d="M501 201h-20v20h20z"/><path fill="#0075eb" d="M471 341h20v-10h-20zm170-110h-10v-20h10zm120 250h10v-20h-10z"/><path fill="#0e4da4" d="M501 281h-20v20h20z"/><path fill="#0075eb" d="M461 331h20v-10h-20zm210-50h-10v-20h10zm90 160h10v-20h-10z"/><path fill="#0e4da4" d="M471 241h-20v20h20z"/><path fill="#0075eb" d="M471 311h20v-10h-20zm200-50h-10v-20h10zm90 160h10v-20h-10z"/><path fill="#0e4da4" d="M451 401h20v-20h-20z"/><path fill="#0075eb" d="M671 241h-10v-20h10zm80 190h10v-20h-10z"/><path fill="#67b0fe" d="M481 211h-10v10h10z"/><path fill="#0e4da4" d="M451 321h20v-20h-20z"/><path fill="#0075eb" d="M631 301h-10v-20h10zm90 180h10v-20h-10z"/><path fill="#67b0fe" d="M481 281h-10v10h10z"/><path fill="#312e6f" d="M581 31h20v10h-20z"/><path fill="#403d94" d="M591 41h10v10h-10z"/><path fill="#0075eb" d="M481 171h10v20h-10zm-20 50h-10v20h10zm140-10h-10v-20h10zm40 80h-10v-20h10zM451 121h10v20h-10zm10 140h-10v20h10zm90 40h-20v-10h20zm110-30h-10v-20h10zM451 141h10v20h-10zm10 140h-10v20h10zm100 0h-20v-10h20zm100-30h-10v-20h10zm-210-90h10v20h-10zm20 110h-10v20h10zm80 0h-20v-10h20zm100-10h-10v-20h10zM491 101h10v20h-10zm10 120h-10v20h10zm50 20h-20v-10h20zm50 10h-20v-10h20zM481 111h10v20h-10zm20 130h-10v20h10zm60-10h-20v-10h20zm50 0h-20v-10h20zM461 131h10v20h-10zm40 130h-10v20h10zm50-50h-20v-10h20zm50 10h-20v-10h20z"/><path fill="#0e4da4" d="M571 301h-20v-20h20z"/><path fill="#0075eb" d="M461 151h10v20h-10zm0 50h-10v20h10zm140-10h-20v-10h20z"/><path fill="#0e4da4" d="M571 221h-20v-20h20z"/><path fill="#0075eb" d="M471 141h10v20h-10zm0 70h-10v20h10zm140-30h-20v-10h20z"/><path fill="#0e4da4" d="M541 261h-20v-20h20z"/><path fill="#0075eb" d="M491 231h-10v20h10zm110-70h-20v-10h20z"/><path fill="#ffba42" d="M241 221h20v20h-20z"/><path fill="#0e4da4" d="M621 251h-20v-20h20z"/><path fill="#0075eb" d="M491 251h-10v20h10z"/><path fill="#67b0fe" d="M551 291h-10v-10h10z"/><path fill="#ffba42" d="M241 261h20v20h-20z"/><path fill="#0e4da4" d="M621 171h-20v-20h20z"/><path fill="#0075eb" d="M481 241h-10v20h10z"/><path fill="#312e6f" d="M911 151h20v10h-20z"/><path fill="#67b0fe" d="M551 221h-10v-10h10z"/><path fill="#0e4da4" d="M591 211h-20v-20h20z"/><path fill="#0075eb" d="M471 101h20v10h-20zm60 180h-10v-20h10z"/><path fill="#312e6f" d="M921 161h20v10h-20z"/><path fill="#0075eb" d="M461 121h20v10h-20zm70 120h-10v-20h10z"/><path fill="#312e6f" d="M931 151h20v10h-20z"/><path fill="#67b0fe" d="M601 241h-10v-10h10z"/><path fill="#0075eb" d="M471 131h20v10h-20zm60 90h-10v-20h10z"/><path fill="#312e6f" d="M951 151h20v10h-20z"/><path fill="#67b0fe" d="M601 171h-10v-10h10z"/><path fill="#0075eb" d="M471 161h20v10h-20zm70 70h-10v-20h10zm40 0h-10v-20h10z"/><path fill="#312e6f" d="M961 171h20v10h-20z"/><path fill="#0075eb" d="M461 171h20v10h-20zm110 110h-10v-20h10zm10-90h-10v-20h10z"/><path fill="#312e6f" d="M951 181h20v10h-20z"/><path fill="#0075eb" d="M471 191h20v10h-20zm100 70h-10v-20h10zm10-90h-10v-20h10z"/><path fill="#312e6f" d="M931 181h20v10h-20z"/><path fill="#0e4da4" d="M451 101h20v20h-20z"/><path fill="#0075eb" d="M571 241h-10v-20h10zm20-60h-10v-20h10z"/><path fill="#312e6f" d="M911 241h20v10h-20z"/><path fill="#0e4da4" d="M451 181h20v20h-20z"/><path fill="#0075eb" d="M531 301h-10v-20h10zm90-70h-10v-20h10z"/><path fill="#312e6f" d="M901 221h20v10h-20z"/><path fill="#0e4da4" d="M481 141h20v20h-20z"/><path fill="#0075eb" d="M541 291h-10v-20h10zm80-80h-10v-20h10z"/><path fill="#312e6f" d="M911 211h20v10h-20z"/><path fill="#0075eb" d="M561 271h-10v-20h10zm60-80h-10v-20h10z"/><path fill="#312e6f" d="M931 211h20v10h-20z"/><path fill="#67b0fe" d="M471 111h10v10h-10z"/><path fill="#0075eb" d="M561 251h-10v-20h10zm20 0h-10v-20h10z"/><path fill="#312e6f" d="M941 231h20v10h-20z"/><path fill="#67b0fe" d="M471 181h10v10h-10z"/><path fill="#0075eb" d="M491 121h10v20h-10zm60 140h-10v-20h10zm40-20h-10v-20h10z"/><path fill="#312e6f" d="M931 241h20v10h-20z"/><path fill="#0075eb" d="M491 161h10v20h-10zm80 210v20h10v-20zm40-150h-10v-20h10z"/><path fill="#312e6f" d="M951 241h20v10h-20z"/><path fill="#0075eb" d="M491 181h10v20h-10zm100 180v20h10v-20zm20-160h-10v-20h10z"/><path fill="#231f4c" d="M891 151h20v20h-20z"/><path fill="#312e6f" d="M521 21h10v20h-10zm40 10h20v10h-20z"/><path fill="#0e4da4" d="M651 321v20h20v-20z"/><path fill="#0075eb" d="M641 371v20h10v-20z"/><path fill="#231f4c" d="M891 231h20v20h-20z"/><path fill="#312e6f" d="M981 211h10v20h-10z"/><path fill="#0e4da4" d="M671 311v20h20v-20z"/><path fill="#0075eb" d="M661 361v20h10v-20z"/><path fill="#231f4c" d="M971 231h20v20h-20z"/><path fill="#312e6f" d="M961 221h10v20h-10z"/><path fill="#0e4da4" d="M571 351v20h20v-20z"/><path fill="#231f4c" d="M961 201h20v20h-20z"/><path fill="#312e6f" d="M951 211h10v20h-10z"/><path fill="#67b0fe" d="M631 321v10h10v-10z"/><path fill="#0e4da4" d="M651 381v20h20v-20z"/><path fill="#231f4c" d="M941 161h20v20h-20z"/><path fill="#312e6f" d="M861 251h20v10h-20z"/><path fill="#67b0fe" d="M701 321v10h10v-10z"/><path fill="#0e4da4" d="M601 371v20h20v-20z"/><path fill="#0075eb" d="M641 341v10h20v-10z"/><path fill="#231f4c" d="M901 181h20v20h-20z"/><path fill="#312e6f" d="M871 261h20v10h-20z"/><path fill="#0e4da4" d="M621 361v20h20v-20z"/><path fill="#0075eb" d="M661 341v10h20v-10z"/><path fill="#231f4c" d="M921 221h20v20h-20z"/><path fill="#312e6f" d="M881 251h20v10h-20z"/><path fill="#0075eb" d="M681 341v10h20v-10z"/><path fill="#231f4c" d="M921 191h20v20h-20z"/><path fill="#312e6f" d="M901 251h20v10h-20z"/><path fill="#67b0fe" d="M581 371v10h10v-10z"/><path fill="#0075eb" d="M701 301v10h20v-10z"/><path fill="#231f4c" d="M941 191h20v20h-20z"/><path fill="#312e6f" d="M911 271h20v10h-20z"/><path fill="#67b0fe" d="M651 371v10h10v-10z"/><path fill="#0075eb" d="M591 391v10h20v-10zm50-90v10h20v-10z"/><path fill="#231f4c" d="M971 151h20v20h-20z"/><path fill="#312e6f" d="M901 281h20v10h-20z"/><path fill="#0075eb" d="M611 391v10h20v-10zm50-90v10h20v-10z"/><path fill="#312e6f" d="M881 281h20v10h-20z"/><path fill="#403d94" d="M901 171h10v10h-10z"/><path fill="#0075eb" d="M631 391v10h20v-10zm50-90v10h20v-10z"/><path fill="#312e6f" d="M861 341h20v10h-20z"/><path fill="#403d94" d="M911 231h10v10h-10z"/><path fill="#0075eb" d="M621 341v10h20v-10zm30 10v10h20v-10z"/><path fill="#312e6f" d="M851 321h20v10h-20z"/><path fill="#403d94" d="M941 221h10v10h-10z"/><path fill="#0075eb" d="M591 351v10h20v-10zm40-20v10h20v-10z"/><path fill="#312e6f" d="M861 311h20v10h-20z"/><path fill="#403d94" d="M911 201h10v10h-10z"/><path fill="#0075eb" d="M611 351v10h20v-10zm40-40v10h20v-10z"/><path fill="#312e6f" d="M881 311h20v10h-20z"/><path fill="#403d94" d="M971 221h10v10h-10z"/><path fill="#0075eb" d="M631 351v10h20v-10zm40-20v10h20v-10z"/><path fill="#312e6f" d="M891 331h20v10h-20z"/><path fill="#403d94" d="M961 161h10v10h-10z"/><path fill="#0075eb" d="M571 391v10h20v-10zm120-80v10h20v-10z"/><path fill="#312e6f" d="M881 341h20v10h-20z"/><path fill="#403d94" d="M931 171h10v10h-10z"/><path fill="#0075eb" d="M581 381v10h20v-10zM721 31V11h-10v20z"/><path fill="#312e6f" d="M901 341h20v10h-20z"/><path fill="#403d94" d="M961 191h10v10h-10z"/><path fill="#0075eb" d="M601 361v10h20v-10zM701 41V21h-10v20z"/><path fill="#231f4c" d="M841 251h20v20h-20z"/><path fill="#312e6f" d="M891 171h10v20h-10z"/><path fill="#0075eb" d="M621 381v10h20v-10zm70-350V11h-10v20z"/><path fill="#231f4c" d="M841 331h20v20h-20z"/><path fill="#312e6f" d="M911 161h10v20h-10z"/><path fill="#0075eb" d="M641 361v10h20v-10zm20-330V11h-10v20z"/><path fill="#231f4c" d="M921 331h20v20h-20z"/><path fill="#312e6f" d="M921 171h10v20h-10z"/><path fill="#0075eb" d="M621 321v20h10v-20zm30-280V21h-10v20z"/><path fill="#231f4c" d="M911 301h20v20h-20z"/><path fill="#312e6f" d="M891 191h10v20h-10z"/><path fill="#0075eb" d="M631 31V11h-10v20zm10 280v20h10v-20z"/><path fill="#231f4c" d="M891 261h20v20h-20z"/><path fill="#312e6f" d="M891 211h10v20h-10z"/><path fill="#0e4da4" d="M721 51V31h-20v20z"/><path fill="#0075eb" d="M691 321v20h10v-20z"/><path fill="#231f4c" d="M851 281h20v20h-20z"/><path fill="#312e6f" d="M901 201h10v20h-10z"/><path fill="#0e4da4" d="M641 51V31h-20v20z"/><path fill="#0075eb" d="M711 311v20h10v-20z"/><path fill="#231f4c" d="M871 321h20v20h-20z"/><path fill="#312e6f" d="M981 171h10v20h-10z"/><path fill="#0e4da4" d="M621 301v20h20v-20zm60-280V1h-20v20z"/><path fill="#231f4c" d="M871 291h20v20h-20z"/><path fill="#312e6f" d="M971 181h10v20h-10z"/><path fill="#0e4da4" d="M701 331v20h20v-20z"/><path fill="#231f4c" d="M891 291h20v20h-20z"/><path fill="#312e6f" d="M981 191h10v20h-10z"/><path fill="#67b0fe" d="M711 31V21h-10v10z"/><path fill="#312e6f" d="M541 11h10v20h-10zm0 80h20v10h-20z"/><path fill="#0075eb" d="M711 131h10v20h-10z"/><path fill="#231f4c" d="M921 251h20v20h-20z"/><path fill="#312e6f" d="M1001 431h20v10h-20z"/><path fill="#67b0fe" d="M641 31V21h-10v10z"/><path fill="#0075eb" d="M701 121h10v20h-10zm0-110V1h-20v10z"/><path fill="#312e6f" d="M981 431h20v10h-20z"/><path fill="#403d94" d="M851 271h10v10h-10z"/><path fill="#0075eb" d="M671 71h10v20h-10zm-10-60V1h-20v10z"/><path fill="#312e6f" d="M961 491h20v10h-20z"/><path fill="#403d94" d="M861 331h10v10h-10z"/><path fill="#0075eb" d="M671 91h10v20h-10zm-30-80V1h-20v10z"/><path fill="#312e6f" d="M951 471h20v10h-20z"/><path fill="#403d94" d="M891 321h10v10h-10z"/><path fill="#0075eb" d="M671 111h10v20h-10zm-20-90V11h-20v10z"/><path fill="#312e6f" d="M961 461h20v10h-20z"/><path fill="#403d94" d="M861 301h10v10h-10z"/><path fill="#0075eb" d="M711 51h10v20h-10zm-10 0V41h-20v10z"/><path fill="#312e6f" d="M981 461h20v10h-20z"/><path fill="#403d94" d="M921 321h10v10h-10z"/><path fill="#0075eb" d="M701 61h10v20h-10zm-20-10V41h-20v10z"/><path fill="#312e6f" d="M991 481h20v10h-20z"/><path fill="#403d94" d="M911 261h10v10h-10z"/><path fill="#0075eb" d="M681 81h10v20h-10zm-20-30V41h-20v10z"/><path fill="#312e6f" d="M981 491h20v10h-20z"/><path fill="#403d94" d="M881 271h10v10h-10z"/><path fill="#0075eb" d="M681 101h10v20h-10zm40-90V1h-20v10z"/><path fill="#312e6f" d="M1001 491h20v10h-20z"/><path fill="#403d94" d="M911 291h10v10h-10z"/><path fill="#0075eb" d="M691 91h10v20h-10zm20-70V11h-20v10z"/><path fill="#231f4c" d="M941 401h20v20h-20z"/><path fill="#312e6f" d="M841 271h10v20h-10z"/><path fill="#0075eb" d="M741 1h20v10h-20zm-50 40V31h-20v10z"/><path fill="#231f4c" d="M941 481h20v20h-20z"/><path fill="#312e6f" d="M861 261h10v20h-10z"/><path fill="#0075eb" d="M731 21h20v10h-20zm-60 20V31h-20v10z"/><path fill="#231f4c" d="M1021 481h20v20h-20z"/><path fill="#312e6f" d="M871 271h10v20h-10z"/><path fill="#0075eb" d="M741 31h20v10h-20zm-60 0V21h-20v10z"/><path fill="#231f4c" d="M1011 451h20v20h-20z"/><path fill="#312e6f" d="M841 291h10v20h-10z"/><path fill="#0075eb" d="M691 51h20v10h-20zm50 10h20v10h-20z"/><path fill="#231f4c" d="M991 411h20v20h-20z"/><path fill="#312e6f" d="M841 311h10v20h-10z"/><path fill="#0075eb" d="M681 71h20v10h-20zm50 0h20v10h-20z"/><path fill="#231f4c" d="M951 431h20v20h-20z"/><path fill="#312e6f" d="M851 301h10v20h-10z"/><path fill="#0075eb" d="M691 81h20v10h-20zm50 10h20v10h-20z"/><path fill="#231f4c" d="M971 471h20v20h-20z"/><path fill="#312e6f" d="M931 271h10v20h-10z"/><path fill="#0e4da4" d="M721 1h20v20h-20z"/><path fill="#0075eb" d="M691 111h20v10h-20z"/><path fill="#231f4c" d="M971 441h20v20h-20z"/><path fill="#312e6f" d="M921 281h10v20h-10z"/><path fill="#0e4da4" d="M721 81h20v20h-20z"/><path fill="#0075eb" d="M681 121h20v10h-20z"/><path fill="#231f4c" d="M991 441h20v20h-20z"/><path fill="#312e6f" d="M931 291h10v20h-10z"/><path fill="#0e4da4" d="M751 41h20v20h-20z"/><path fill="#0075eb" d="M691 141h20v10h-20z"/><path fill="#231f4c" d="M1021 401h20v20h-20z"/><path fill="#312e6f" d="M931 311h10v20h-10z"/><path fill="#0e4da4" d="M671 51h20v20h-20z"/><path fill="#312e6f" d="M911 321h10v20h-10z"/><path fill="#403d94" d="M951 421h10v10h-10z"/><path fill="#67b0fe" d="M741 11h10v10h-10z"/><path fill="#0e4da4" d="M671 131h20v20h-20z"/><path fill="#312e6f" d="M901 311h10v20h-10z"/><path fill="#403d94" d="M961 481h10v10h-10z"/><path fill="#67b0fe" d="M741 81h10v10h-10z"/><path fill="#0e4da4" d="M701 91h20v20h-20z"/><path fill="#0075eb" d="M761 21h10v20h-10z"/><path fill="#312e6f" d="M961 401h20v10h-20z"/><path fill="#403d94" d="M991 471h10v10h-10z"/><path fill="#0075eb" d="M761 61h10v20h-10z"/><path fill="#312e6f" d="M971 411h20v10h-20z"/><path fill="#403d94" d="M961 451h10v10h-10z"/><path fill="#67b0fe" d="M691 61h10v10h-10z"/><path fill="#0075eb" d="M761 81h10v20h-10z"/><path fill="#312e6f" d="M981 401h20v10h-20z"/><path fill="#403d94" d="M1021 471h10v10h-10z"/><path fill="#67b0fe" d="M691 131h10v10h-10z"/><path fill="#0075eb" d="M711 71h10v20h-10zm40 0h10v20h-10z"/><path fill="#312e6f" d="M1001 401h20v10h-20z"/><path fill="#403d94" d="M1011 411h10v10h-10z"/><path fill="#0075eb" d="M711 111h10v20h-10zm10-90h10v20h-10z"/><path fill="#312e6f" d="M1011 421h20v10h-20z"/><path fill="#403d94" d="M981 421h10v10h-10z"/><path fill="#312e6f" d="M531 71h20v10h-20zm20-50h10v20h-10z"/><path fill="#0075eb" d="M721 41h10v20h-10zM601 141v-10h20v10z"/><path fill="#312e6f" d="M851 91h20v10h-20z"/><path fill="#403d94" d="M1011 441h10v10h-10z"/><path fill="#0075eb" d="M721 61h10v20h-10zm-100 60v-10h20v10z"/><path fill="#231f4c" d="M791 1h20v20h-20z"/><path fill="#312e6f" d="M941 421h10v20h-10z"/><path fill="#0075eb" d="M761 1h10v20h-10zM641 141v-10h20v10z"/><path fill="#231f4c" d="M791 81h20v20h-20z"/><path fill="#312e6f" d="M961 411h10v20h-10z"/><path fill="#0075eb" d="M751 11h10v20h-10zM621 181v-20h10v20z"/><path fill="#231f4c" d="M871 81h20v20h-20z"/><path fill="#312e6f" d="M971 421h10v20h-10z"/><path fill="#0075eb" d="M731 31h10v20h-10zm-90 160v-20h10v20z"/><path fill="#231f4c" d="M861 51h20v20h-20z"/><path fill="#312e6f" d="M941 441h10v20h-10z"/><path fill="#0075eb" d="M731 51h10v20h-10zm-40 130v-20h10v20z"/><path fill="#231f4c" d="M841 11h20v20h-20z"/><path fill="#312e6f" d="M941 461h10v20h-10z"/><path fill="#0075eb" d="M741 41h10v20h-10zm-30 150v-20h10v20z"/><path fill="#231f4c" d="M801 31h20v20h-20z"/><path fill="#312e6f" d="M951 451h10v20h-10z"/><path fill="#0e4da4" d="M621 201v-20h20v20z"/><path fill="#0075eb" d="M571 131v-20h10v20z"/><path fill="#231f4c" d="M821 71h20v20h-20z"/><path fill="#312e6f" d="M1031 421h10v20h-10z"/><path fill="#0e4da4" d="M701 171v-20h20v20z"/><path fill="#0075eb" d="M591 141v-20h10v20z"/><path fill="#231f4c" d="M821 41h20v20h-20z"/><path fill="#312e6f" d="M1021 431h10v20h-10z"/><path fill="#0e4da4" d="M651 181v-20h20v20z"/><path fill="#0075eb" d="M641 131v-20h10v20z"/><path fill="#231f4c" d="M841 41h20v20h-20z"/><path fill="#312e6f" d="M1031 441h10v20h-10z"/><path fill="#0e4da4" d="M671 191v-20h20v20z"/><path fill="#0075eb" d="M661 141v-20h10v20z"/><path fill="#231f4c" d="M871 1h20v20h-20z"/><path fill="#312e6f" d="M1031 461h10v20h-10z"/><path fill="#0e4da4" d="M571 151v-20h20v20z"/><path fill="#312e6f" d="M1011 471h10v20h-10z"/><path fill="#403d94" d="M801 21h10v10h-10z"/><path fill="#67b0fe" d="M631 181v-10h10v10z"/><path fill="#0e4da4" d="M651 121v-20h20v20z"/><path fill="#312e6f" d="M1001 461h10v20h-10z"/><path fill="#403d94" d="M811 81h10v10h-10z"/><path fill="#67b0fe" d="M701 181v-10h10v10z"/><path fill="#0e4da4" d="M601 131v-20h20v20z"/><path fill="#0075eb" d="M641 161v-10h20v10z"/><path fill="#312e6f" d="M811 1h20v10h-20z"/><path fill="#403d94" d="M841 71h10v10h-10z"/><path fill="#0e4da4" d="M621 141v-20h20v20z"/><path fill="#0075eb" d="M661 161v-10h20v10z"/><path fill="#312e6f" d="M821 11h20v10h-20z"/><path fill="#403d94" d="M811 51h10v10h-10z"/><path fill="#0075eb" d="M681 161v-10h20v10z"/><path fill="#312e6f" d="M831 1h20v10h-20z"/><path fill="#403d94" d="M871 71h10v10h-10z"/><path fill="#67b0fe" d="M581 131v-10h10v10z"/><path fill="#0075eb" d="M701 201v-10h20v10z"/><path fill="#312e6f" d="M851 1h20v10h-20z"/><path fill="#403d94" d="M861 11h10v10h-10z"/><path fill="#67b0fe" d="M651 131v-10h10v10z"/><path fill="#0075eb" d="M591 111v-10h20v10zm50 90v-10h20v10z"/><path fill="#312e6f" d="M861 21h20v10h-20z"/><path fill="#403d94" d="M831 21h10v10h-10z"/><path fill="#0075eb" d="M611 111v-10h20v10zm50 90v-10h20v10z"/><path fill="#312e6f" d="M851 31h20v10h-20z"/><path fill="#403d94" d="M861 41h10v10h-10z"/><path fill="#0075eb" d="M631 111v-10h20v10zm50 90v-10h20v10z"/><path fill="#312e6f" d="M791 21h10v20h-10zm40 10h20v10h-20z"/><path fill="#0075eb" d="M621 161v-10h20v10zm30-10v-10h20v10z"/><path fill="#312e6f" d="M811 11h10v20h-10zm0 80h20v10h-20z"/><path fill="#0075eb" d="M591 151v-10h20v10zm40 20v-10h20v10z"/><path fill="#312e6f" d="M801 71h20v10h-20zm20-50h10v20h-10z"/><path fill="#0075eb" d="M611 151v-10h20v10zm40 40v-10h20v10z"/><path fill="#312e6f" d="M791 41h10v20h-10zm20 20h20v10h-20z"/><path fill="#0075eb" d="M631 151v-10h20v10zm40 20v-10h20v10z"/><path fill="#312e6f" d="M791 61h10v20h-10zm40 0h20v10h-20z"/><path fill="#0075eb" d="M571 111v-10h20v10zm120 80v-10h20v10z"/><path fill="#312e6f" d="M801 51h10v20h-10zm40 30h20v10h-20z"/><path fill="#0075eb" d="M541 201h20v-10h-20zm40-80v-10h20v10z"/><path fill="#312e6f" d="M831 91h20v10h-20zm50-70h10v20h-10zM521 41h10v20h-10zm20 20h20v10h-20z"/><path fill="#0e4da4" d="M591 271h-20v-20h20z"/><path fill="#0075eb" d="M531 181h20v-10h-20zm300-10h-10v20h10z"/><path fill="#312e6f" d="M871 31h10v20h-10z"/><path fill="#0e4da4" d="M601 321h-20v-20h20z"/><path fill="#0075eb" d="M541 131h20v-10h-20zm300 0v-20h10v20z"/><path fill="#312e6f" d="M881 41h10v20h-10z"/><path fill="#0e4da4" d="M611 301h-20v-20h20z"/><path fill="#0075eb" d="M531 111h20v-10h-20zm330 30v-20h10v20z"/><path fill="#312e6f" d="M881 61h10v20h-10z"/><path fill="#0e4da4" d="M521 201h20v-20h-20z"/><path fill="#0075eb" d="M911 131v-20h10v20z"/><path fill="#312e6f" d="M861 71h10v20h-10z"/><path fill="#67b0fe" d="M601 341h-10v-10h10z"/><path fill="#0e4da4" d="M551 121h20v-20h-20z"/><path fill="#0075eb" d="M931 141v-20h10v20z"/><path fill="#312e6f" d="M851 61h10v20h-10z"/><path fill="#67b0fe" d="M601 271h-10v-10h10z"/><path fill="#0e4da4" d="M541 171h20v-20h-20zm300-20v-20h20v20z"/><path fill="#0075eb" d="M581 331h-10v-20h10zm240-230h-20v10h20z"/><path fill="#0e4da4" d="M531 151h20v-20h-20zm390-30v-20h20v20z"/><path fill="#0075eb" d="M581 311h-10v-20h10zm250-190h-20v10h20z"/><path fill="#0e4da4" d="M871 131v-20h20v20z"/><path fill="#0075eb" d="M581 291h-10v-20h10zm240-120h-20v10h20z"/><path fill="#67b0fe" d="M541 191h10v-10h-10z"/><path fill="#0e4da4" d="M891 141v-20h20v20z"/><path fill="#0075eb" d="M621 271h-10v-20h10zm210-80h-20v10h20z"/><path fill="#67b0fe" d="M541 121h10v-10h-10z"/><path fill="#0e4da4" d="M841 101h-20v20h20z"/><path fill="#0075eb" d="M561 181h10v-20h-10zm60 150h-10v-20h10z"/><path fill="#67b0fe" d="M851 131v-10h10v10z"/><path fill="#0e4da4" d="M811 181h-20v20h20z"/><path fill="#0075eb" d="M561 161h10v-20h-10zm60 150h-10v-20h10z"/><path fill="#67b0fe" d="M921 131v-10h10v10z"/><path fill="#0e4da4" d="M821 131h-20v20h20z"/><path fill="#0075eb" d="M561 141h10v-20h-10zm60 150h-10v-20h10zm240-180v-10h20v10z"/><path fill="#0e4da4" d="M831 151h-20v20h20z"/><path fill="#0075eb" d="M521 121h10v-20h-10zm60 230h-10v-20h10zm300-240v-10h20v10zm-360 70h10v-20h-10zm70 160h-10v-20h10zm310-230v-10h20v10z"/><path fill="#67b0fe" d="M821 111h-10v10h10z"/><path fill="#0075eb" d="M521 161h10v-20h-10zm90 160h-10v-20h10zm310-170v-10h20v10z"/><path fill="#67b0fe" d="M821 181h-10v10h10z"/><path fill="#0075eb" d="M521 141h10v-20h-10zm70 160h-10v-20h10zm210-180h-10v20h10zm60 30v-10h20v10zm-300 50h10v-20h-10zm50 80h-10v-20h10zm190-140h-10v20h10zm80 10v-10h20v10zm-330 40h10v-20h-10zm250-30h-10v20h10zm100-10v-10h20v10z"/><path fill="#ffba42" d="M661 221h20v20h-20z"/><path fill="#0075eb" d="M531 171h10v-20h-10zm310 10h-10v20h10zm0-70v-10h20v10z"/><path fill="#ffba42" d="M661 261h20v20h-20z"/><path fill="#0075eb" d="M551 151h10v-20h-10zm290-30h-10v20h10zm10 0v-10h20v10z"/><path fill="#312e6f" d="M21 1h20v10H21z"/><path fill="#0075eb" d="M531 131h10v-20h-10zm310 10h-10v20h10zm30 0v-10h20v10z"/><path fill="#312e6f" d="M31 11h20v10H31z"/><path fill="#0075eb" d="M601 351h-20v-10h20zm240-190h-10v20h10zm50-40v-10h20v10z"/><path fill="#312e6f" d="M41 1h20v10H41z"/><path fill="#0075eb" d="M611 331h-20v-10h20zm190-230h-10v20h10zm110 40v-10h20v10z"/><path fill="#312e6f" d="M61 1h20v10H61z"/><path fill="#0075eb" d="M601 281h-20v-10h20zm210-170h-10v20h10zm80 270v-20h10v20z"/><path fill="#312e6f" d="M71 21h20v10H71z"/><path fill="#0075eb" d="M611 261h-20v-10h20zm220-130h-10v20h10zm80 260v-20h10v20z"/><path fill="#312e6f" d="M61 31h20v10H61z"/><path fill="#0e4da4" d="M621 351h-20v-20h20z"/><path fill="#0075eb" d="M811 151h-10v20h10zm150 230v-20h10v20z"/><path fill="#312e6f" d="M41 31h20v10H41zm480 30h10v20h-10zm40 0h20v10h-20z"/><path fill="#0e4da4" d="M831 251h-20v20h20z"/><path fill="#0075eb" d="M981 391v-20h10v20z"/><path fill="#312e6f" d="M21 11h10v20H21zm0 80h20v10H21z"/><path fill="#0e4da4" d="M891 401v-20h20v20z"/><path fill="#312e6f" d="M11 71h20v10H11zm20-50h10v20H31z"/><path fill="#67b0fe" d="M821 211h-10v10h10z"/><path fill="#0e4da4" d="M971 371v-20h20v20z"/><path fill="#312e6f" d="M1 41h10v20H1zm20 20h20v10H21z"/><path fill="#67b0fe" d="M821 281h-10v10h10z"/><path fill="#0e4da4" d="M921 381v-20h20v20z"/><path fill="#0075eb" d="M801 221h-10v20h10z"/><path fill="#312e6f" d="M1 61h10v20H1zm40 0h20v10H41z"/><path fill="#0e4da4" d="M941 391v-20h20v20z"/><path fill="#0075eb" d="M801 241h-10v20h10z"/><path fill="#312e6f" d="M11 51h10v20H11zm40 30h20v10H51z"/><path fill="#0075eb" d="M801 261h-10v20h10z"/><path fill="#312e6f" d="M41 91h20v10H41zm50-70h10v20H91z"/><path fill="#67b0fe" d="M901 381v-10h10v10z"/><path fill="#0075eb" d="M841 281h-10v20h10z"/><path fill="#312e6f" d="M61 91h20v10H61zm20-60h10v20H81z"/><path fill="#67b0fe" d="M971 381v-10h10v10z"/><path fill="#0075eb" d="M841 221h-10v20h10zm70 140v-10h20v10z"/><path fill="#231f4c" d="M1 1h20v20H1z"/><path fill="#312e6f" d="M91 41h10v20H91z"/><path fill="#0075eb" d="M841 241h-10v20h10zm90 120v-10h20v10z"/><path fill="#231f4c" d="M1 81h20v20H1z"/><path fill="#312e6f" d="M91 61h10v20H91z"/><path fill="#0075eb" d="M841 261h-10v20h10zm110 100v-10h20v10z"/><path fill="#231f4c" d="M81 81h20v20H81z"/><path fill="#312e6f" d="M71 71h10v20H71z"/><path fill="#0075eb" d="M801 201h-10v20h10zm170 200v-10h20v10z"/><path fill="#231f4c" d="M71 51h20v20H71z"/><path fill="#312e6f" d="M61 61h10v20H61z"/><path fill="#0075eb" d="M811 211h-10v20h10zm100 190v-10h20v10z"/><path fill="#231f4c" d="M51 11h20v20H51z"/><path fill="#312e6f" d="M421 1h20v10h-20z"/><path fill="#0075eb" d="M831 231h-10v20h10zm100 170v-10h20v10z"/><path fill="#231f4c" d="M11 31h20v20H11z"/><path fill="#312e6f" d="M431 11h20v10h-20z"/><path fill="#0075eb" d="M811 251h-10v20h10zm140 150v-10h20v10z"/><path fill="#231f4c" d="M31 71h20v20H31z"/><path fill="#312e6f" d="M441 1h20v10h-20z"/><path fill="#0075eb" d="M831 271h-10v20h10zm60 90v-10h20v10z"/><path fill="#231f4c" d="M31 41h20v20H31z"/><path fill="#312e6f" d="M461 1h20v10h-20z"/><path fill="#0075eb" d="M821 301h-20v10h20zm80 70v-10h20v10z"/><path fill="#231f4c" d="M51 41h20v20H51z"/><path fill="#312e6f" d="M471 21h20v10h-20z"/><path fill="#0075eb" d="M831 321h-20v10h20zm90 70v-10h20v10z"/><path fill="#231f4c" d="M81 1h20v20H81z"/><path fill="#312e6f" d="M461 31h20v10h-20z"/><path fill="#0075eb" d="M821 371h-20v10h20zm120 0v-10h20v10z"/><path fill="#312e6f" d="M441 31h20v10h-20z"/><path fill="#403d94" d="M11 21h10v10H11z"/><path fill="#0075eb" d="M831 391h-20v10h20zm130 0v-10h20v10z"/><path fill="#312e6f" d="M421 91h20v10h-20z"/><path fill="#403d94" d="M21 81h10v10H21z"/><path fill="#0e4da4" d="M841 301h-20v20h20z"/><path fill="#0075eb" d="M821 201h-20v10h20z"/><path fill="#312e6f" d="M411 71h20v10h-20z"/><path fill="#403d94" d="M51 71h10v10H51z"/><path fill="#0e4da4" d="M811 381h-20v20h20z"/><path fill="#0075eb" d="M831 221h-20v10h20z"/><path fill="#312e6f" d="M421 61h20v10h-20z"/><path fill="#403d94" d="M21 51h10v10H21z"/><path fill="#0e4da4" d="M821 331h-20v20h20z"/><path fill="#0075eb" d="M821 271h-20v10h20z"/><path fill="#312e6f" d="M441 61h20v10h-20z"/><path fill="#403d94" d="M81 71h10v10H81z"/><path fill="#0e4da4" d="M831 351h-20v20h20z"/><path fill="#0075eb" d="M831 291h-20v10h20z"/><path fill="#312e6f" d="M451 81h20v10h-20z"/><path fill="#403d94" d="M71 11h10v10H71z"/><path fill="#0e4da4" d="M841 201h-20v20h20z"/><path fill="#312e6f" d="M441 91h20v10h-20z"/><path fill="#403d94" d="M41 21h10v10H41z"/><path fill="#67b0fe" d="M821 311h-10v10h10z"/><path fill="#0e4da4" d="M811 281h-20v20h20z"/><path fill="#312e6f" d="M461 91h20v10h-20z"/><path fill="#403d94" d="M71 41h10v10H71z"/><path fill="#67b0fe" d="M821 381h-10v10h10z"/><path fill="#0e4da4" d="M821 231h-20v20h20z"/><path fill="#0075eb" d="M801 321h-10v20h10z"/><path fill="#231f4c" d="M401 1h20v20h-20z"/><path fill="#312e6f" d="M1 21h10v20H1zm530 30h10v20h-10zm40 30h20v10h-20z"/><path fill="#0075eb" d="M1041 141h-10v20h10zM801 341h-10v20h10z"/><path fill="#231f4c" d="M401 81h20v20h-20z"/><path fill="#312e6f" d="M491 61h10v20h-10z"/><path fill="#0075eb" d="M1041 161h-10v20h10zM801 361h-10v20h10z"/><path fill="#231f4c" d="M481 81h20v20h-20z"/><path fill="#312e6f" d="M471 71h10v20h-10z"/><path fill="#0075eb" d="M841 381h-10v20h10zm160-280h-10v20h10z"/><path fill="#231f4c" d="M471 51h20v20h-20z"/><path fill="#312e6f" d="M461 61h10v20h-10z"/><path fill="#0075eb" d="M1011 111h-10v20h10zM841 321h-10v20h10z"/><path fill="#231f4c" d="M451 11h20v20h-20z"/><path fill="#312e6f" d="M71 151h20v10H71z"/><path fill="#0075eb" d="M1031 131h-10v20h10zM841 341h-10v20h10z"/><path fill="#231f4c" d="M411 31h20v20h-20z"/><path fill="#312e6f" d="M81 161h20v10H81z"/><path fill="#0075eb" d="M1011 151h-10v20h10zM841 361h-10v20h10z"/><path fill="#231f4c" d="M431 71h20v20h-20z"/><path fill="#312e6f" d="M91 151h20v10H91z"/><path fill="#0075eb" d="M1031 171h-10v20h10zM801 301h-10v20h10z"/><path fill="#231f4c" d="M431 41h20v20h-20z"/><path fill="#312e6f" d="M111 151h20v10h-20z"/><path fill="#0075eb" d="M1021 201h-20v10h20zM811 311h-10v20h10z"/><path fill="#231f4c" d="M451 41h20v20h-20z"/><path fill="#312e6f" d="M121 171h20v10h-20z"/><path fill="#0075eb" d="M1031 221h-20v10h20zM831 331h-10v20h10z"/><path fill="#231f4c" d="M481 1h20v20h-20z"/><path fill="#312e6f" d="M111 181h20v10h-20z"/><path fill="#0075eb" d="M1021 271h-20v10h20zm-210 80h-10v20h10z"/><path fill="#312e6f" d="M91 181h20v10H91z"/><path fill="#403d94" d="M411 21h10v10h-10z"/><path fill="#0075eb" d="M1031 291h-20v10h20zm-200 80h-10v20h10z"/><path fill="#312e6f" d="M71 241h20v10H71z"/><path fill="#403d94" d="M421 81h10v10h-10z"/><path fill="#0e4da4" d="M1041 201h-20v20h20z"/><path fill="#0075eb" d="M1021 101h-20v10h20z"/><path fill="#312e6f" d="M61 221h20v10H61z"/><path fill="#403d94" d="M451 71h10v10h-10z"/><path fill="#0e4da4" d="M1011 281h-20v20h20z"/><path fill="#0075eb" d="M1031 121h-20v10h20z"/><path fill="#312e6f" d="M71 211h20v10H71z"/><path fill="#403d94" d="M421 51h10v10h-10z"/><path fill="#0e4da4" d="M1021 231h-20v20h20z"/><path fill="#0075eb" d="M1021 171h-20v10h20z"/><path fill="#312e6f" d="M91 211h20v10H91z"/><path fill="#403d94" d="M481 71h10v10h-10z"/><path fill="#0e4da4" d="M1031 251h-20v20h20z"/><path fill="#0075eb" d="M1031 191h-20v10h20z"/><path fill="#312e6f" d="M101 231h20v10h-20z"/><path fill="#403d94" d="M471 11h10v10h-10z"/><path fill="#0e4da4" d="M1041 101h-20v20h20z"/><path fill="#312e6f" d="M91 241h20v10H91z"/><path fill="#403d94" d="M441 21h10v10h-10z"/><path fill="#67b0fe" d="M1021 211h-10v10h10z"/><path fill="#0e4da4" d="M1011 181h-20v20h20z"/><path fill="#312e6f" d="M111 241h20v10h-20z"/><path fill="#403d94" d="M471 41h10v10h-10z"/><path fill="#67b0fe" d="M1021 281h-10v10h10z"/><path fill="#0e4da4" d="M1021 131h-20v20h20z"/><path fill="#0075eb" d="M1001 221h-10v20h10z"/><path fill="#231f4c" d="M51 151h20v20H51z"/><path fill="#312e6f" d="M401 21h10v20h-10z"/><path fill="#0e4da4" d="M1031 151h-20v20h20z"/><path fill="#0075eb" d="M1001 241h-10v20h10z"/><path fill="#231f4c" d="M51 231h20v20H51z"/><path fill="#312e6f" d="M421 11h10v20h-10z"/><path fill="#0075eb" d="M1001 261h-10v20h10z"/><path fill="#231f4c" d="M131 231h20v20h-20z"/><path fill="#312e6f" d="M431 21h10v20h-10z"/><path fill="#67b0fe" d="M1021 111h-10v10h10z"/><path fill="#0075eb" d="M1041 281h-10v20h10z"/><path fill="#231f4c" d="M121 201h20v20h-20z"/><path fill="#312e6f" d="M401 41h10v20h-10z"/><path fill="#67b0fe" d="M1021 181h-10v10h10z"/><path fill="#0075eb" d="M1041 221h-10v20h10zm-40-100h-10v20h10z"/><path fill="#231f4c" d="M101 161h20v20h-20z"/><path fill="#312e6f" d="M401 61h10v20h-10z"/><path fill="#0075eb" d="M1041 241h-10v20h10zm-40-100h-10v20h10z"/><path fill="#231f4c" d="M61 181h20v20H61z"/><path fill="#312e6f" d="M411 51h10v20h-10z"/><path fill="#0075eb" d="M1041 261h-10v20h10zm-40-100h-10v20h10z"/><path fill="#231f4c" d="M81 221h20v20H81z"/><path fill="#312e6f" d="M491 21h10v20h-10z"/><path fill="#0075eb" d="M1041 181h-10v20h10zm-40 20h-10v20h10z"/><path fill="#231f4c" d="M81 191h20v20H81z"/><path fill="#312e6f" d="M481 31h10v20h-10z"/><path fill="#0075eb" d="M1011 211h-10v20h10zm30-90h-10v20h10z"/><path fill="#231f4c" d="M101 191h20v20h-20z"/><path fill="#312e6f" d="M491 41h10v20h-10zm70 50h20v10h-20zm50-70h10v20h-10z"/><path fill="#0075eb" d="M951 71h20v10h-20zm80 160h-10v20h10z"/><path fill="#231f4c" d="M131 151h20v20h-20z"/><path fill="#312e6f" d="M211 231h20v10h-20z"/><path fill="#0075eb" d="M961 81h20v10h-20zm50 170h-10v20h10z"/><path fill="#312e6f" d="M191 231h20v10h-20z"/><path fill="#403d94" d="M61 171h10v10H61z"/><path fill="#0075eb" d="M961 111h20v10h-20zm70 160h-10v20h10z"/><path fill="#312e6f" d="M171 291h20v10h-20z"/><path fill="#403d94" d="M71 231h10v10H71z"/><path fill="#0075eb" d="M951 121h20v10h-20zm70 180h-20v10h20z"/><path fill="#312e6f" d="M161 271h20v10h-20z"/><path fill="#403d94" d="M101 221h10v10h-10z"/><path fill="#0075eb" d="M961 141h20v10h-20zm70 180h-20v10h20z"/><path fill="#312e6f" d="M171 261h20v10h-20z"/><path fill="#403d94" d="M71 201h10v10H71z"/><path fill="#0e4da4" d="M941 51h20v20h-20z"/><path fill="#0075eb" d="M1021 371h-20v10h20z"/><path fill="#312e6f" d="M191 261h20v10h-20z"/><path fill="#403d94" d="M131 221h10v10h-10z"/><path fill="#0e4da4" d="M941 131h20v20h-20z"/><path fill="#0075eb" d="M1031 391h-20v10h20z"/><path fill="#312e6f" d="M201 281h20v10h-20z"/><path fill="#403d94" d="M121 161h10v10h-10z"/><path fill="#0e4da4" d="M971 91h20v20h-20zm70 210h-20v20h20z"/><path fill="#312e6f" d="M191 291h20v10h-20z"/><path fill="#403d94" d="M91 171h10v10H91z"/><path fill="#0e4da4" d="M1011 381h-20v20h20z"/><path fill="#312e6f" d="M211 291h20v10h-20z"/><path fill="#403d94" d="M121 191h10v10h-10z"/><path fill="#67b0fe" d="M961 61h10v10h-10z"/><path fill="#0e4da4" d="M1021 331h-20v20h20z"/><path fill="#231f4c" d="M151 201h20v20h-20z"/><path fill="#312e6f" d="M51 171h10v20H51z"/><path fill="#67b0fe" d="M961 131h10v10h-10z"/><path fill="#0e4da4" d="M1031 351h-20v20h20z"/><path fill="#0075eb" d="M981 71h10v20h-10z"/><path fill="#231f4c" d="M151 281h20v20h-20z"/><path fill="#312e6f" d="M71 161h10v20H71z"/><path fill="#0075eb" d="M981 111h10v20h-10z"/><path fill="#231f4c" d="M231 281h20v20h-20z"/><path fill="#312e6f" d="M81 171h10v20H81z"/><path fill="#67b0fe" d="M1021 311h-10v10h10z"/><path fill="#0075eb" d="M981 131h10v20h-10z"/><path fill="#231f4c" d="M221 251h20v20h-20z"/><path fill="#312e6f" d="M51 191h10v20H51z"/><path fill="#67b0fe" d="M1021 381h-10v10h10z"/><path fill="#0075eb" d="M971 121h10v20h-10zm30 200h-10v20h10z"/><path fill="#231f4c" d="M201 211h20v20h-20z"/><path fill="#312e6f" d="M51 211h10v20H51z"/><path fill="#0075eb" d="M941 71h10v20h-10zm60 270h-10v20h10z"/><path fill="#231f4c" d="M161 231h20v20h-20z"/><path fill="#312e6f" d="M61 201h10v20H61z"/><path fill="#0075eb" d="M941 91h10v20h-10zm60 270h-10v20h10z"/><path fill="#231f4c" d="M181 271h20v20h-20z"/><path fill="#312e6f" d="M141 171h10v20h-10z"/><path fill="#0075eb" d="M941 111h10v20h-10zm100 270h-10v20h10z"/><path fill="#231f4c" d="M181 241h20v20h-20z"/><path fill="#312e6f" d="M131 181h10v20h-10z"/><path fill="#0075eb" d="M981 51h10v20h-10zm60 270h-10v20h10z"/><path fill="#231f4c" d="M201 241h20v20h-20z"/><path fill="#312e6f" d="M141 191h10v20h-10z"/><path fill="#0075eb" d="M971 61h10v20h-10zm70 280h-10v20h10z"/><path fill="#231f4c" d="M231 201h20v20h-20z"/><path fill="#312e6f" d="M141 211h10v20h-10z"/><path fill="#0075eb" d="M951 81h10v20h-10zm90 280h-10v20h10z"/><path fill="#312e6f" d="M121 221h10v20h-10z"/><path fill="#403d94" d="M161 221h10v10h-10z"/><path fill="#0075eb" d="M951 101h10v20h-10zm50 200h-10v20h10z"/><path fill="#312e6f" d="M111 211h10v20h-10z"/><path fill="#403d94" d="M171 281h10v10h-10z"/><path fill="#0075eb" d="M961 91h10v20h-10zm50 220h-10v20h10z"/><path fill="#312e6f" d="M171 201h20v10h-20z"/><path fill="#403d94" d="M201 271h10v10h-10z"/><path fill="#0075eb" d="M961 51h20v10h-20zm70 280h-10v20h10z"/><path fill="#312e6f" d="M181 211h20v10h-20z"/><path fill="#403d94" d="M171 251h10v10h-10z"/><path fill="#0075eb" d="M951 71h20v10h-20zm60 280h-10v20h10z"/><path fill="#312e6f" d="M191 201h20v10h-20z"/><path fill="#403d94" d="M231 271h10v10h-10z"/><path fill="#0075eb" d="M961 81h20v10h-20zm70 290h-10v20h10z"/><path fill="#312e6f" d="M211 201h20v10h-20z"/><path fill="#403d94" d="M221 211h10v10h-10z"/><path fill="#0075eb" d="M961 111h20v10h-20zm0-60h20v10h-20z"/><path fill="#312e6f" d="M221 221h20v10h-20z"/><path fill="#403d94" d="M191 221h10v10h-10z"/><path fill="#312e6f" d="M581 91h20v10h-20zm20-60h10v20h-10z"/><path fill="#0e4da4" d="M891 431h-20v20h20z"/><path fill="#0075eb" d="M951 121h20v10h-20z"/><path fill="#312e6f" d="M311 291h20v10h-20z"/><path fill="#403d94" d="M221 241h10v10h-10z"/><path fill="#0e4da4" d="M861 391h-20v20h20z"/><path fill="#0075eb" d="M961 141h20v10h-20z"/><path fill="#231f4c" d="M251 201h20v20h-20z"/><path fill="#312e6f" d="M151 221h10v20h-10z"/><path fill="#0e4da4" d="M941 51h20v20h-20z"/><path fill="#231f4c" d="M251 281h20v20h-20z"/><path fill="#312e6f" d="M171 211h10v20h-10z"/><path fill="#67b0fe" d="M871 361h-10v10h10z"/><path fill="#0e4da4" d="M941 131h20v20h-20z"/><path fill="#231f4c" d="M331 281h20v20h-20z"/><path fill="#312e6f" d="M181 221h10v20h-10z"/><path fill="#67b0fe" d="M871 431h-10v10h10z"/><path fill="#0e4da4" d="M971 91h20v20h-20z"/><path fill="#0075eb" d="M851 371h-10v20h10z"/><path fill="#231f4c" d="M321 251h20v20h-20z"/><path fill="#312e6f" d="M151 241h10v20h-10z"/><path fill="#0075eb" d="M851 411h-10v20h10z"/><path fill="#231f4c" d="M301 211h20v20h-20z"/><path fill="#312e6f" d="M151 261h10v20h-10z"/><path fill="#67b0fe" d="M961 61h10v10h-10z"/><path fill="#0075eb" d="M851 431h-10v20h10z"/><path fill="#231f4c" d="M261 231h20v20h-20z"/><path fill="#312e6f" d="M161 251h10v20h-10z"/><path fill="#67b0fe" d="M961 131h10v10h-10z"/><path fill="#0075eb" d="M981 71h10v20h-10zM861 421h-10v20h10z"/><path fill="#231f4c" d="M281 271h20v20h-20z"/><path fill="#312e6f" d="M241 221h10v20h-10z"/><path fill="#0075eb" d="M981 111h10v20h-10zm-90 260h-10v20h10z"/><path fill="#231f4c" d="M281 241h20v20h-20z"/><path fill="#312e6f" d="M231 231h10v20h-10z"/><path fill="#0075eb" d="M981 131h10v20h-10zm-90 260h-10v20h10z"/><path fill="#231f4c" d="M301 241h20v20h-20z"/><path fill="#312e6f" d="M241 241h10v20h-10z"/><path fill="#0075eb" d="M971 121h10v20h-10zm-80 290h-10v20h10z"/><path fill="#231f4c" d="M331 201h20v20h-20z"/><path fill="#312e6f" d="M241 261h10v20h-10z"/><path fill="#0075eb" d="M941 71h10v20h-10zm-90 280h-10v20h10z"/><path fill="#312e6f" d="M221 271h10v20h-10z"/><path fill="#403d94" d="M261 221h10v10h-10z"/><path fill="#0075eb" d="M941 91h10v20h-10zm-80 270h-10v20h10z"/><path fill="#312e6f" d="M211 261h10v20h-10z"/><path fill="#403d94" d="M271 281h10v10h-10z"/><path fill="#0075eb" d="M941 111h10v20h-10zm-60 270h-10v20h10z"/><path fill="#312e6f" d="M271 201h20v10h-20z"/><path fill="#403d94" d="M301 271h10v10h-10z"/><path fill="#0075eb" d="M981 51h10v20h-10zM881 401h-10v20h10z"/><path fill="#312e6f" d="M281 211h20v10h-20z"/><path fill="#403d94" d="M271 251h10v10h-10z"/><path fill="#0075eb" d="M971 61h10v20h-10zM871 391h-10v20h10z"/><path fill="#312e6f" d="M291 201h20v10h-20z"/><path fill="#403d94" d="M331 271h10v10h-10z"/><path fill="#0075eb" d="M951 81h10v20h-10zm-80 70h-20v10h20z"/><path fill="#312e6f" d="M311 201h20v10h-20z"/><path fill="#403d94" d="M321 211h10v10h-10z"/><path fill="#0075eb" d="M951 101h10v20h-10zm-70 70h-20v10h20z"/><path fill="#312e6f" d="M321 221h20v10h-20z"/><path fill="#403d94" d="M291 221h10v10h-10z"/><path fill="#0075eb" d="M961 91h10v20h-10zm-90 90h-20v10h20z"/><path fill="#312e6f" d="M311 231h20v10h-20z"/><path fill="#403d94" d="M321 241h10v10h-10z"/><path fill="#0075eb" d="M871 211h-20v10h20zm0 140h-20v10h20z"/><path fill="#312e6f" d="M251 221h10v20h-10zm40 10h20v10h-20z"/><path fill="#0075eb" d="M881 221h-20v10h20zm0 150h-20v10h20z"/><path fill="#312e6f" d="M271 211h10v20h-10zm0 80h20v10h-20z"/><path fill="#0075eb" d="M871 241h-20v10h20zm0 140h-20v10h20z"/><path fill="#312e6f" d="M261 271h20v10h-20zm20-50h10v20h-10z"/><path fill="#0e4da4" d="M891 151h-20v20h20z"/><path fill="#0075eb" d="M871 411h-20v10h20z"/><path fill="#312e6f" d="M251 241h10v20h-10zm20 20h20v10h-20z"/><path fill="#0e4da4" d="M891 231h-20v20h20z"/><path fill="#0075eb" d="M881 421h-20v10h20z"/><path fill="#312e6f" d="M251 261h10v20h-10zm40 0h20v10h-20z"/><path fill="#0e4da4" d="M861 191h-20v20h20z"/><path fill="#0075eb" d="M871 441h-20v10h20z"/><path fill="#312e6f" d="M261 251h10v20h-10zm40 30h20v10h-20z"/><path fill="#0e4da4" d="M891 351h-20v20h20z"/><path fill="#312e6f" d="M291 291h20v10h-20zm50-70h10v20h-10z"/><path fill="#67b0fe" d="M871 161h-10v10h10z"/><path fill="#231f4c" d="M521 1h20v20h-20z"/><path fill="#312e6f" d="M611 41h10v20h-10z"/><path fill="#0075eb" d="M981 331h10v20h-10z"/><path fill="#231f4c" d="M281 91h20v20h-20z"/><path fill="#312e6f" d="M331 231h10v20h-10z"/><path fill="#67b0fe" d="M871 231h-10v10h10z"/><path fill="#0075eb" d="M971 321h10v20h-10zM851 171h-10v20h10z"/><path fill="#231f4c" d="M301 91h20v20h-20z"/><path fill="#312e6f" d="M341 241h10v20h-10z"/><path fill="#0075eb" d="M941 271h10v20h-10zm-90-60h-10v20h10z"/><path fill="#231f4c" d="M331 51h20v20h-20z"/><path fill="#312e6f" d="M341 261h10v20h-10z"/><path fill="#0075eb" d="M941 291h10v20h-10zm-90-60h-10v20h10z"/><path fill="#312e6f" d="M321 271h10v20h-10z"/><path fill="#403d94" d="M261 71h10v10h-10z"/><path fill="#0075eb" d="M941 311h10v20h-10zm-80-90h-10v20h10z"/><path fill="#312e6f" d="M311 261h10v20h-10z"/><path fill="#403d94" d="M271 131h10v10h-10z"/><path fill="#0075eb" d="M981 251h10v20h-10zm-90-80h-10v20h10z"/><path fill="#312e6f" d="M271 51h20v10h-20z"/><path fill="#403d94" d="M301 121h10v10h-10z"/><path fill="#0075eb" d="M971 261h10v20h-10zm-80-70h-10v20h10z"/><path fill="#312e6f" d="M281 61h20v10h-20z"/><path fill="#403d94" d="M271 101h10v10h-10z"/><path fill="#0075eb" d="M951 281h10v20h-10zm-60-70h-10v20h10z"/><path fill="#312e6f" d="M291 51h20v10h-20z"/><path fill="#403d94" d="M331 121h10v10h-10z"/><path fill="#0075eb" d="M951 301h10v20h-10zM851 151h-10v20h10z"/><path fill="#312e6f" d="M311 51h20v10h-20z"/><path fill="#403d94" d="M321 61h10v10h-10z"/><path fill="#0075eb" d="M961 291h10v20h-10zM861 161h-10v20h10z"/><path fill="#312e6f" d="M321 71h20v10h-20z"/><path fill="#403d94" d="M291 71h10v10h-10z"/><path fill="#0075eb" d="M1011 1h20v10h-20zM881 181h-10v20h10z"/><path fill="#312e6f" d="M311 81h20v10h-20z"/><path fill="#403d94" d="M321 91h10v10h-10z"/><path fill="#0075eb" d="M1001 21h20v10h-20zM881 201h-10v20h10z"/><path fill="#312e6f" d="M251 71h10v20h-10zm40 10h20v10h-20z"/><path fill="#0075eb" d="M1011 31h20v10h-20zM871 191h-10v20h10z"/><path fill="#312e6f" d="M271 141h20v10h-20zm0-80h10v20h-10z"/><path fill="#0075eb" d="M1011 61h20v10h-20zm-50 190h20v10h-20z"/><path fill="#312e6f" d="M261 121h20v10h-20zm20-50h10v20h-10z"/><path fill="#0075eb" d="M1001 71h20v10h-20zm-50 200h20v10h-20z"/><path fill="#312e6f" d="M251 91h10v20h-10zm20 20h20v10h-20z"/><path fill="#0075eb" d="M1011 91h20v10h-20zm-50 190h20v10h-20z"/><path fill="#312e6f" d="M251 111h10v20h-10zm40 0h20v10h-20z"/><path fill="#0e4da4" d="M991 1h20v20h-20z"/><path fill="#0075eb" d="M961 311h20v10h-20z"/><path fill="#312e6f" d="M261 101h10v20h-10zm40 30h20v10h-20z"/><path fill="#0e4da4" d="M991 81h20v20h-20z"/><path fill="#0075eb" d="M951 321h20v10h-20z"/><path fill="#312e6f" d="M291 141h20v10h-20zm50-70h10v20h-10z"/><path fill="#0e4da4" d="M1021 41h20v20h-20z"/><path fill="#0075eb" d="M961 341h20v10h-20z"/><path fill="#312e6f" d="M311 141h20v10h-20zm20-60h10v20h-10z"/><path fill="#0e4da4" d="M941 251h20v20h-20z"/><path fill="#231f4c" d="M251 51h20v20h-20z"/><path fill="#312e6f" d="M341 91h10v20h-10z"/><path fill="#67b0fe" d="M1011 11h10v10h-10z"/><path fill="#0e4da4" d="M941 331h20v20h-20z"/><path fill="#231f4c" d="M251 131h20v20h-20z"/><path fill="#312e6f" d="M341 111h10v20h-10z"/><path fill="#67b0fe" d="M1011 81h10v10h-10z"/><path fill="#0e4da4" d="M971 291h20v20h-20z"/><path fill="#0075eb" d="M1031 21h10v20h-10z"/><path fill="#231f4c" d="M331 131h20v20h-20z"/><path fill="#312e6f" d="M321 121h10v20h-10z"/><path fill="#0075eb" d="M1031 61h10v20h-10z"/><path fill="#231f4c" d="M321 101h20v20h-20z"/><path fill="#312e6f" d="M311 111h10v20h-10z"/><path fill="#67b0fe" d="M961 261h10v10h-10z"/><path fill="#0075eb" d="M1031 81h10v20h-10z"/><path fill="#231f4c" d="M301 61h20v20h-20z"/><path fill="#312e6f" d="M371 251h20v10h-20z"/><path fill="#67b0fe" d="M961 331h10v10h-10z"/><path fill="#0075eb" d="M1021 71h10v20h-10zm-40 200h10v20h-10z"/><path fill="#231f4c" d="M261 81h20v20h-20z"/><path fill="#312e6f" d="M381 261h20v10h-20z"/><path fill="#0075eb" d="M981 311h10v20h-10zm10-290h10v20h-10z"/><path fill="#231f4c" d="M281 121h20v20h-20z"/><path fill="#312e6f" d="M391 251h20v10h-20z"/><path fill="#231f4c" d="M521 81h20v20h-20z"/><path fill="#312e6f" d="M611 61h10v20h-10z"/><path fill="#0075eb" d="M991 41h10v20h-10zM811 411h-10v20h10z"/><path fill="#312e6f" d="M411 251h20v10h-20z"/><path fill="#403d94" d="M421 261h10v10h-10z"/><path fill="#0075eb" d="M991 61h10v20h-10zM831 431h-10v20h10z"/><path fill="#312e6f" d="M421 271h20v10h-20z"/><path fill="#403d94" d="M391 271h10v10h-10z"/><path fill="#0075eb" d="M1031 1h10v20h-10zM831 451h-10v20h10z"/><path fill="#312e6f" d="M411 281h20v10h-20z"/><path fill="#403d94" d="M421 291h10v10h-10z"/><path fill="#0075eb" d="M1021 11h10v20h-10zM821 441h-10v20h10z"/><path fill="#312e6f" d="M351 271h10v20h-10zm40 10h20v10h-20z"/><path fill="#0075eb" d="M1001 31h10v20h-10zM841 471v20h10v-20z"/><path fill="#312e6f" d="M371 261h10v20h-10zm0 80h20v10h-20z"/><path fill="#0075eb" d="M1001 51h10v20h-10zM861 461v20h10v-20z"/><path fill="#312e6f" d="M361 321h20v10h-20zm20-50h10v20h-10z"/><path fill="#0075eb" d="M1011 41h10v20h-10zM871 471v20h10v-20z"/><path fill="#312e6f" d="M351 291h10v20h-10zm20 20h20v10h-20z"/><path fill="#0075eb" d="M821 401h-20v10h20zm80 70v20h10v-20z"/><path fill="#312e6f" d="M351 311h10v20h-10zm40 0h20v10h-20z"/><path fill="#0075eb" d="M831 421h-20v10h20zm80 40v20h10v-20z"/><path fill="#312e6f" d="M361 301h10v20h-10zm40 30h20v10h-20z"/><path fill="#0075eb" d="M821 431h-20v10h20zm110 40v20h10v-20z"/><path fill="#312e6f" d="M391 341h20v10h-20zm50-70h10v20h-10z"/><path fill="#0e4da4" d="M841 451v20h20v-20z"/><path fill="#0075eb" d="M821 461h-20v10h20z"/><path fill="#312e6f" d="M411 341h20v10h-20zm20-60h10v20h-10z"/><path fill="#0e4da4" d="M921 451v20h20v-20z"/><path fill="#0075eb" d="M831 471h-20v10h20z"/><path fill="#231f4c" d="M351 251h20v20h-20z"/><path fill="#312e6f" d="M441 291h10v20h-10z"/><path fill="#0e4da4" d="M881 481v20h20v-20z"/><path fill="#0075eb" d="M821 491h-20v10h20z"/><path fill="#231f4c" d="M351 331h20v20h-20z"/><path fill="#312e6f" d="M441 311h10v20h-10z"/><path fill="#0e4da4" d="M841 401h-20v20h20z"/><path fill="#231f4c" d="M431 331h20v20h-20z"/><path fill="#312e6f" d="M421 321h10v20h-10z"/><path fill="#67b0fe" d="M851 471v10h10v-10z"/><path fill="#0e4da4" d="M841 481h-20v20h20z"/><path fill="#231f4c" d="M421 301h20v20h-20z"/><path fill="#312e6f" d="M411 311h10v20h-10z"/><path fill="#67b0fe" d="M921 471v10h10v-10z"/><path fill="#0e4da4" d="M811 441h-20v20h20z"/><path fill="#0075eb" d="M861 491v10h20v-10z"/><path fill="#231f4c" d="M401 261h20v20h-20z"/><path fill="#312e6f" d="M171 351h20v10h-20z"/><path fill="#0075eb" d="M901 491v10h20v-10z"/><path fill="#231f4c" d="M361 281h20v20h-20z"/><path fill="#312e6f" d="M181 361h20v10h-20z"/><path fill="#67b0fe" d="M821 411h-10v10h10z"/><path fill="#0075eb" d="M921 491v10h20v-10z"/><path fill="#231f4c" d="M381 321h20v20h-20z"/><path fill="#312e6f" d="M191 351h20v10h-20z"/><path fill="#67b0fe" d="M821 481h-10v10h10z"/><path fill="#0075eb" d="M801 421h-10v20h10zm110 60v10h20v-10z"/><path fill="#231f4c" d="M381 291h20v20h-20z"/><path fill="#312e6f" d="M211 351h20v10h-20z"/><path fill="#0075eb" d="M801 461h-10v20h10zm60-10v10h20v-10z"/><path fill="#231f4c" d="M401 291h20v20h-20z"/><path fill="#312e6f" d="M221 371h20v10h-20z"/><path fill="#0075eb" d="M801 481h-10v20h10zm80-30v10h20v-10z"/><path fill="#231f4c" d="M431 251h20v20h-20z"/><path fill="#312e6f" d="M211 381h20v10h-20z"/><path fill="#0075eb" d="M811 471h-10v20h10zm90-20v10h20v-10z"/><path fill="#312e6f" d="M191 381h20v10h-20z"/><path fill="#403d94" d="M361 271h10v10h-10z"/><path fill="#0075eb" d="M841 421h-10v20h10zm0 70v10h20v-10z"/><path fill="#312e6f" d="M171 441h20v10h-20z"/><path fill="#403d94" d="M371 331h10v10h-10z"/><path fill="#0075eb" d="M841 441h-10v20h10zm10 40v10h20v-10z"/><path fill="#312e6f" d="M161 421h20v10h-20z"/><path fill="#403d94" d="M401 321h10v10h-10z"/><path fill="#0075eb" d="M841 461h-10v20h10zm30 0v10h20v-10z"/><path fill="#312e6f" d="M171 411h20v10h-20z"/><path fill="#403d94" d="M371 301h10v10h-10z"/><path fill="#0075eb" d="M801 401h-10v20h10zm90 60v10h20v-10z"/><path fill="#312e6f" d="M191 411h20v10h-20z"/><path fill="#403d94" d="M431 321h10v10h-10z"/><path fill="#231f4c" d="M601 81h20v20h-20z"/><path fill="#312e6f" d="M591 71h10v20h-10z"/><path fill="#0075eb" d="M881 471v10h20v-10z"/><path fill="#312e6f" d="M161 401h10v20h-10zm40 30h20v10h-20z"/><path fill="#e50684" d="M911 91h-20v10h20z"/><path fill="#0075eb" d="M891 31V11h10v20z"/><path fill="#312e6f" d="M191 441h20v10h-20zm50-70h10v20h-10z"/><path fill="#e50684" d="M931 91h-20v10h20z"/><path fill="#0075eb" d="M911 41V21h10v20z"/><path fill="#312e6f" d="M211 441h20v10h-20zm20-60h10v20h-10z"/><path fill="#e50684" d="M941 51h-20v10h20z"/><path fill="#0075eb" d="M921 31V11h10v20z"/><path fill="#231f4c" d="M151 351h20v20h-20z"/><path fill="#312e6f" d="M241 391h10v20h-10z"/><path fill="#e50684" d="M921 51h-20v10h20z"/><path fill="#0075eb" d="M951 31V11h10v20z"/><path fill="#231f4c" d="M151 431h20v20h-20z"/><path fill="#312e6f" d="M241 411h10v20h-10z"/><path fill="#ff80c4" d="M921 71h-10v10h10z"/><path fill="#0075eb" d="M961 41V21h10v20z"/><path fill="#231f4c" d="M231 431h20v20h-20z"/><path fill="#312e6f" d="M221 421h10v20h-10z"/><path fill="#e50684" d="M911 61h-10v20h10z"/><path fill="#0075eb" d="M981 31V11h10v20z"/><path fill="#231f4c" d="M221 401h20v20h-20z"/><path fill="#312e6f" d="M211 411h10v20h-10z"/><path fill="#e50684" d="M901 71h-10v20h10z"/><path fill="#0e4da4" d="M891 51V31h20v20z"/><path fill="#231f4c" d="M201 361h20v20h-20z"/><path fill="#312e6f" d="M21 401h20v10H21z"/><path fill="#e50684" d="M901 51h-10v20h10z"/><path fill="#0e4da4" d="M971 51V31h20v20z"/><path fill="#231f4c" d="M161 381h20v20h-20z"/><path fill="#312e6f" d="M31 411h20v10H31z"/><path fill="#e50684" d="M941 61h-10v20h10z"/><path fill="#0e4da4" d="M931 21V1h20v20z"/><path fill="#231f4c" d="M181 421h20v20h-20z"/><path fill="#312e6f" d="M41 401h20v10H41z"/><path fill="#e50684" d="M941 81h-10v20h10z"/><path fill="#231f4c" d="M181 391h20v20h-20z"/><path fill="#312e6f" d="M61 401h20v10H61z"/><path fill="#67b0fe" d="M901 31V21h10v10z"/><path fill="#e50684" d="M931 71h-10v20h10z"/><path fill="#231f4c" d="M201 391h20v20h-20z"/><path fill="#312e6f" d="M71 421h20v10H71z"/><path fill="#67b0fe" d="M971 31V21h10v10z"/><path fill="#e50684" d="M931 411h-20v10h20z"/><path fill="#0075eb" d="M911 11V1h20v10z"/><path fill="#231f4c" d="M231 351h20v20h-20z"/><path fill="#312e6f" d="M61 431h20v10H61z"/><path fill="#e50684" d="M921 431h-20v10h20z"/><path fill="#0075eb" d="M951 11V1h20v10z"/><path fill="#312e6f" d="M41 431h20v10H41z"/><path fill="#403d94" d="M161 371h10v10h-10z"/><path fill="#e50684" d="M911 441h-20v10h20z"/><path fill="#0075eb" d="M971 11V1h20v10z"/><path fill="#312e6f" d="M21 491h20v10H21z"/><path fill="#403d94" d="M171 431h10v10h-10z"/><path fill="#e50684" d="M931 441h-20v10h20z"/><path fill="#0075eb" d="M961 21V11h20v10z"/><path fill="#312e6f" d="M11 471h20v10H11z"/><path fill="#403d94" d="M201 421h10v10h-10z"/><path fill="#e50684" d="M941 401h-20v10h20z"/><path fill="#0075eb" d="M911 51V41h20v10z"/><path fill="#312e6f" d="M21 461h20v10H21z"/><path fill="#403d94" d="M171 401h10v10h-10z"/><path fill="#e50684" d="M921 401h-20v10h20z"/><path fill="#0075eb" d="M931 51V41h20v10z"/><path fill="#312e6f" d="M41 461h20v10H41z"/><path fill="#403d94" d="M231 421h10v10h-10z"/><path fill="#ff80c4" d="M921 421h-10v10h10z"/><path fill="#0075eb" d="M951 51V41h20v10z"/><path fill="#312e6f" d="M51 481h20v10H51z"/><path fill="#403d94" d="M221 361h10v10h-10z"/><path fill="#e50684" d="M911 411h-10v20h10z"/><path fill="#0075eb" d="M891 11V1h20v10z"/><path fill="#312e6f" d="M41 491h20v10H41z"/><path fill="#403d94" d="M191 371h10v10h-10z"/><path fill="#e50684" d="M901 421h-10v20h10z"/><path fill="#0075eb" d="M901 21V11h20v10z"/><path fill="#312e6f" d="M61 491h20v10H61z"/><path fill="#403d94" d="M221 391h10v10h-10z"/><path fill="#e50684" d="M901 401h-10v20h10z"/><path fill="#0075eb" d="M921 41V31h20v10z"/><path fill="#231f4c" d="M1 401h20v20H1z"/><path fill="#312e6f" d="M151 371h10v20h-10z"/><path fill="#e50684" d="M941 411h-10v20h10z"/><path fill="#0075eb" d="M941 41V31h20v10z"/><path fill="#231f4c" d="M1 481h20v20H1z"/><path fill="#312e6f" d="M171 361h10v20h-10z"/><path fill="#e50684" d="M941 431h-10v20h10z"/><path fill="#0075eb" d="M931 31V21h20v10z"/><path fill="#231f4c" d="M81 481h20v20H81z"/><path fill="#312e6f" d="M181 371h10v20h-10z"/><path fill="#e50684" d="M931 421h-10v20h10z"/><path fill="#231f4c" d="M71 451h20v20H71z"/><path fill="#312e6f" d="M151 391h10v20h-10z"/><path fill="#ffba42" d="M881 171h20v20h-20z"/><path fill="#e50684" d="M931 61h-20v10h20z"/><path fill="#231f4c" d="M51 411h20v20H51z"/><path fill="#312e6f" d="M151 411h10v20h-10z"/><path fill="#ffba42" d="M881 211h20v20h-20z"/><path fill="#e50684" d="M921 81h-20v10h20z"/><path fill="#231f4c" d="M591 51h20v20h-20z"/><path fill="#312e6f" d="M581 61h10v20h-10z"/><path fill="#0075eb" d="M1091 246h-20v10h20z"/><path fill="#231f4c" d="M11 431h20v20H11z"/><path fill="#312e6f" d="M431 411h20v10h-20z"/><path fill="#ffba42" d="M931 271h20v20h-20z"/><path fill="#0075eb" d="M1101 266h-20v10h20z"/><path fill="#231f4c" d="M31 471h20v20H31z"/><path fill="#312e6f" d="M441 401h20v10h-20z"/><path fill="#ffba42" d="M931 311h20v20h-20z"/><path fill="#0e4da4" d="M1111 176h-20v20h20z"/><path fill="#0075eb" d="M1291 226h-20v10h20z"/><path fill="#231f4c" d="M31 441h20v20H31z"/><path fill="#312e6f" d="M461 401h20v10h-20z"/><path fill="#0e4da4" d="M1081 256h-20v20h20z"/><path fill="#0075eb" d="M1301 246h-20v10h20z"/><path fill="#231f4c" d="M51 441h20v20H51z"/><path fill="#312e6f" d="M471 421h20v10h-20z"/><path fill="#0e4da4" d="M1091 206h-20v20h20z"/><path fill="#0075eb" d="M1291 296h-20v10h20z"/><path fill="#231f4c" d="M81 401h20v20H81z"/><path fill="#312e6f" d="M461 431h20v10h-20z"/><path fill="#0e4da4" d="M1101 226h-20v20h20z"/><path fill="#0075eb" d="M1301 316h-20v10h20z"/><path fill="#312e6f" d="M441 431h20v10h-20z"/><path fill="#403d94" d="M11 421h10v10H11z"/><path fill="#0e4da4" d="M1311 226h-20v20h20z"/><path fill="#312e6f" d="M421 491h20v10h-20z"/><path fill="#403d94" d="M21 481h10v10H21z"/><path fill="#67b0fe" d="M1091 186h-10v10h10z"/><path fill="#0e4da4" d="M1281 306h-20v20h20z"/><path fill="#312e6f" d="M411 471h20v10h-20z"/><path fill="#403d94" d="M51 471h10v10H51z"/><path fill="#67b0fe" d="M1091 256h-10v10h10z"/><path fill="#0e4da4" d="M1291 256h-20v20h20z"/><path fill="#0075eb" d="M1071 196h-10v20h10z"/><path fill="#312e6f" d="M421 461h20v10h-20z"/><path fill="#403d94" d="M21 451h10v10H21z"/><path fill="#0e4da4" d="M1301 276h-20v20h20z"/><path fill="#0075eb" d="M1071 216h-10v20h10z"/><path fill="#312e6f" d="M441 461h20v10h-20z"/><path fill="#403d94" d="M81 471h10v10H81z"/><path fill="#0075eb" d="M1071 236h-10v20h10z"/><path fill="#312e6f" d="M451 481h20v10h-20z"/><path fill="#403d94" d="M71 411h10v10H71z"/><path fill="#67b0fe" d="M1291 236h-10v10h10z"/><path fill="#0075eb" d="M1111 256h-10v20h10z"/><path fill="#312e6f" d="M441 491h20v10h-20z"/><path fill="#403d94" d="M41 421h10v10H41z"/><path fill="#67b0fe" d="M1291 306h-10v10h10z"/><path fill="#0075eb" d="M1111 196h-10v20h10zm160 50h-10v20h10z"/><path fill="#312e6f" d="M461 491h20v10h-20z"/><path fill="#403d94" d="M71 441h10v10H71z"/><path fill="#0075eb" d="M1111 216h-10v20h10zm160 50h-10v20h10z"/><path fill="#231f4c" d="M401 401h20v20h-20z"/><path fill="#312e6f" d="M1 421h10v20H1z"/><path fill="#0075eb" d="M1111 236h-10v20h10zm160 50h-10v20h10z"/><path fill="#231f4c" d="M401 481h20v20h-20z"/><path fill="#312e6f" d="M21 411h10v20H21z"/><path fill="#0075eb" d="M1071 176h-10v20h10zm240 130h-10v20h10z"/><path fill="#231f4c" d="M481 481h20v20h-20z"/><path fill="#312e6f" d="M31 421h10v20H31z"/><path fill="#0075eb" d="M1081 186h-10v20h10zm230 60h-10v20h10z"/><path fill="#231f4c" d="M471 451h20v20h-20z"/><path fill="#312e6f" d="M1 441h10v20H1z"/><path fill="#0075eb" d="M1101 206h-10v20h10zm210 60h-10v20h10z"/><path fill="#231f4c" d="M451 411h20v20h-20z"/><path fill="#312e6f" d="M1 461h10v20H1z"/><path fill="#0075eb" d="M1081 226h-10v20h10zm230 60h-10v20h10z"/><path fill="#231f4c" d="M411 431h20v20h-20z"/><path fill="#312e6f" d="M11 451h10v20H11z"/><path fill="#0075eb" d="M1101 246h-10v20h10zm170-20h-10v20h10z"/><path fill="#231f4c" d="M431 471h20v20h-20z"/><path fill="#312e6f" d="M91 421h10v20H91z"/><path fill="#0075eb" d="M1111 346v20h10v-20zm170-110h-10v20h10z"/><path fill="#231f4c" d="M431 441h20v20h-20z"/><path fill="#312e6f" d="M81 431h10v20H81z"/><path fill="#0075eb" d="M1131 336v20h10v-20zm170-80h-10v20h10z"/><path fill="#231f4c" d="M451 441h20v20h-20z"/><path fill="#312e6f" d="M91 441h10v20H91z"/><path fill="#0075eb" d="M1181 346v20h10v-20zm100-70h-10v20h10z"/><path fill="#231f4c" d="M481 401h20v20h-20z"/><path fill="#312e6f" d="M91 461h10v20H91z"/><path fill="#0075eb" d="M1201 336v20h10v-20zm100-40h-10v20h10z"/><path fill="#312e6f" d="M71 471h10v20H71z"/><path fill="#403d94" d="M411 421h10v10h-10z"/><path fill="#0e4da4" d="M1111 326v20h20v-20z"/><path fill="#0075eb" d="M1091 176h-20v10h20z"/><path fill="#312e6f" d="M61 461h10v20H61z"/><path fill="#403d94" d="M421 481h10v10h-10z"/><path fill="#0e4da4" d="M1191 356v20h20v-20z"/><path fill="#0075eb" d="M1101 196h-20v10h20z"/><path fill="#312e6f" d="M421 401h20v10h-20z"/><path fill="#403d94" d="M451 471h10v10h-10z"/><path fill="#231f4c" d="M571 11h20v20h-20z"/><path fill="#312e6f" d="M691 201h20v10h-20z"/><path fill="#0e4da4" d="M1141 346v20h20v-20z"/><path fill="#403d94" d="M421 451h10v10h-10z"/><path fill="#67b0fe" d="M1241 296v10h10v-10zM71 381v-10H61v10z"/><path fill="#0e4da4" d="M1161 336v20h20v-20z"/><path fill="#0075eb" d="M1181 316v10h20v-10zM131 361v-10h-20v10z"/><path fill="#403d94" d="M481 471h10v10h-10z"/><path fill="#0075eb" d="M111 361v-10H91v10zm1110-45v10h20v-10z"/><path fill="#403d94" d="M471 411h10v10h-10z"/><path fill="#67b0fe" d="M1121 346v10h10v-10z"/><path fill="#0075eb" d="M1241 316v10h20v-10zM91 361v-10H71v10z"/><path fill="#403d94" d="M441 421h10v10h-10z"/><path fill="#67b0fe" d="M1191 346v10h10v-10z"/><path fill="#0075eb" d="M1131 366v10h20v-10zm100-60v10h20v-10zM71 401v-10H51v10z"/><path fill="#403d94" d="M471 441h10v10h-10z"/><path fill="#0075eb" d="M1151 366v10h20v-10zm30-90v10h20v-10zM131 401v-10h-20v10z"/><path fill="#312e6f" d="M401 421h10v20h-10z"/><path fill="#0075eb" d="M111 401v-10H91v10zm1060-35v10h20v-10zm30-90v10h20v-10z"/><path fill="#312e6f" d="M421 411h10v20h-10z"/><path fill="#0075eb" d="M1191 326v10h20v-10zm30-50v10h20v-10zM91 401v-10H71v10z"/><path fill="#312e6f" d="M431 421h10v20h-10z"/><path fill="#0075eb" d="M1131 326v10h20v-10zm30-10v10h20v-10zM151 361v-10h-20v10z"/><path fill="#312e6f" d="M401 441h10v20h-10z"/><path fill="#0075eb" d="M1151 326v10h20v-10zm20-20v10h20v-10zM141 371v-10h-20v10z"/><path fill="#312e6f" d="M401 461h10v20h-10z"/><path fill="#0075eb" d="M121 391v-10h-20v10zm1050-65v10h20v-10zm20-40v10h20v-10z"/><path fill="#312e6f" d="M411 451h10v20h-10z"/><path fill="#0075eb" d="M1111 366v10h20v-10zm100-80v10h20v-10zM101 371v-10H81v10z"/><path fill="#312e6f" d="M491 421h10v20h-10z"/><path fill="#0075eb" d="M1121 356v10h20v-10zm80-60v10h20v-10zM81 391v-10H61v10z"/><path fill="#312e6f" d="M481 431h10v20h-10z"/><path fill="#0075eb" d="M1141 336v10h20v-10zm70 10v20h10v-20zm-830 5h-20v10h20z"/><path fill="#312e6f" d="M491 441h10v20h-10z"/><path fill="#0075eb" d="M1161 356v10h20v-10zm70-20v20h10v-20zm-840 35h-20v10h20z"/><path fill="#312e6f" d="M491 461h10v20h-10z"/><path fill="#0075eb" d="M1181 336v10h20v-10zm60 10v20h10v-20zm-860 75h-20v10h20z"/><path fill="#312e6f" d="M471 471h10v20h-10z"/><path fill="#0075eb" d="M1161 296v20h10v-20zm110 50v20h10v-20zm-880 95h-20v10h20z"/><path fill="#312e6f" d="M461 461h10v20h-10z"/><path fill="#0e4da4" d="M401 351h-20v20h20z"/><path fill="#0075eb" d="M1181 286v20h10v-20zm100 50v20h10v-20zM151 381v-20h-10v20z"/><path fill="#0e4da4" d="M371 431h-20v20h20z"/><path fill="#0075eb" d="M1191 296v20h10v-20zM131 391v-20h-10v20zm1170-45v20h10v-20z"/><path fill="#0e4da4" d="M1211 326v20h20v-20zm-830 55h-20v20h20z"/><path fill="#0075eb" d="M1221 296v20h10v-20zM81 381v-20H71v20z"/><path fill="#0e4da4" d="M1291 326v20h20v-20zm-900 75h-20v20h20z"/><path fill="#0075eb" d="M1231 286v20h10v-20zM61 391v-20H51v20z"/><path fill="#0e4da4" d="M1251 356v20h20v-20zM151 401v-20h-20v20z"/><path fill="#0075eb" d="M1251 296v20h10v-20z"/><path fill="#67b0fe" d="M381 361h-10v10h10z"/><path fill="#0e4da4" d="M1161 276v20h20v-20zM71 371v-20H51v20z"/><path fill="#67b0fe" d="M1221 346v10h10v-10zm-840 85h-10v10h10z"/><path fill="#0e4da4" d="M121 381v-20h-20v20zm1120-105v20h20v-20z"/><path fill="#0075eb" d="M361 371h-10v20h10z"/><path fill="#67b0fe" d="M1291 346v10h10v-10z"/><path fill="#0e4da4" d="M1201 306v20h20v-20zM101 391v-20H81v20z"/><path fill="#0075eb" d="M1231 366v10h20v-10zm-870 25h-10v20h10zm910-25v10h20v-10zm-910 45h-10v20h10z"/><path fill="#67b0fe" d="M1171 296v10h10v-10zM141 381v-10h-10v10z"/><path fill="#231f4c" d="M531 31h20v20h-20z"/><path fill="#312e6f" d="M701 211h20v10h-20z"/><path fill="#0075eb" d="M1211 236h10v-20h-10zm80 130v10h20v-10zM201 311v-10h-20v10zm200 120h-10v20h10zm810-215h10v-20h-10zm70 140v10h20v-10zM191 321v-10h-20v10zm210 50h-10v20h10zm830-45v10h20v-10zm20-50h10v-20h-10zM171 341v-10h-20v10zm230 50h-10v20h10zm840-125h10v-20h-10zm10 60v10h20v-10zm-1100-5v-10h-20v10zm250 90h-10v20h10zm-270-70v-10h-20v10zm1090-95h10v-20h-10zm50 80v10h20v-10zm-910 25h-10v20h10zm850 15v10h20v-10zm10-140h10v-20h-10zM301 331v-20h-10v20zm70 30h-10v20h10zm850-5v10h20v-10zm10-120h10v-20h-10zM281 341v-20h-10v20zm110 40h-10v20h10zm850-45v10h20v-10zm40-110h20v-10h-20zM231 331v-20h-10v20zm140 70h-10v20h10zm890-65v10h20v-10zm10-130h20v-10h-20zM211 341v-20h-10v20zm180 80h-10v20h10z"/><path fill="#0e4da4" d="M301 351v-20h-20v20z"/><path fill="#0075eb" d="M1251 346v10h20v-10zm30-150h20v-10h-20zM201 331v-20h-10v20z"/><path fill="#0e4da4" d="M221 321v-20h-20v20z"/><path fill="#0075eb" d="M1231 276h20v-10h-20zm50-110h20v-10h-20zM181 341v-20h-10v20z"/><path fill="#0e4da4" d="M271 331v-20h-20v20z"/><path fill="#0075eb" d="M1221 256h20v-10h-20zM131 331v-20h-10v20zm1140-175h20v-10h-20z"/><path fill="#0e4da4" d="M251 341v-20h-20v20z"/><path fill="#0075eb" d="M111 341v-20h-10v20zm1120-95h20v-10h-20zm50-110h20v-10h-20z"/><path fill="#0e4da4" d="M1261 226h20v-20h-20zM201 351v-20h-20v20z"/><path fill="#0075eb" d="M1231 216h20v-10h-20z"/><path fill="#67b0fe" d="M291 331v-10h-10v10z"/><path fill="#0e4da4" d="M121 321v-20h-20v20zm1140-175h20v-20h-20z"/><path fill="#0075eb" d="M1221 206h20v-10h-20z"/><path fill="#67b0fe" d="M221 331v-10h-10v10z"/><path fill="#0e4da4" d="M1291 186h20v-20h-20zM171 331v-20h-20v20z"/><path fill="#0075eb" d="M1231 186h20v-10h-20zM281 311v-10h-20v10z"/><path fill="#0e4da4" d="M1211 276h20v-20h-20zM151 341v-20h-20v20z"/><path fill="#0075eb" d="M261 311v-10h-20v10z"/><path fill="#67b0fe" d="M1281 216h10v-10h-10z"/><path fill="#0e4da4" d="M1211 196h20v-20h-20z"/><path fill="#0075eb" d="M241 311v-10h-20v10z"/><path fill="#67b0fe" d="M1281 146h10v-10h-10zM191 331v-10h-10v10z"/><path fill="#0e4da4" d="M1241 236h20v-20h-20z"/><path fill="#0075eb" d="M1301 206h10v-20h-10zM221 351v-10h-20v10z"/><path fill="#67b0fe" d="M121 331v-10h-10v10z"/><path fill="#0075eb" d="M1301 166h10v-20h-10zM181 311v-10h-20v10zm100 40v-10h-20v10z"/><path fill="#67b0fe" d="M1231 266h10v-10h-10z"/><path fill="#0075eb" d="M1301 146h10v-20h-10zM161 311v-10h-20v10zm100 40v-10h-20v10z"/><path fill="#67b0fe" d="M1231 196h10v-10h-10z"/><path fill="#0075eb" d="M1251 256h10v-20h-10zm40-100h10v-20h-10zM141 311v-10h-20v10zm100 40v-10h-20v10zm-120 0v-10h-20v10zm1130-135h10v-20h-10zm10-10h10v-20h-10zM301 311v-10h-20v10zm950-115h10v-20h-10zm10-10h10v-20h-10zM181 351v-10h-20v10zm110-30v-10h-20v10zm950-115h10v-20h-10zm20-40h10v-20h-10zM161 351v-10h-20v10zm110-10v-10h-20v10zm940-85h10v-20h-10zm90-30h10v-20h-10zM141 351v-10h-20v10zm110-30v-10h-20v10z"/><path fill="#231f4c" d="M551 71h20v20h-20z"/><path fill="#312e6f" d="M711 201h20v10h-20z"/><path fill="#0075eb" d="M1291 216h10v-20h-10zM231 341v-10h-20v10zM371 31V11h-10v20z"/><path fill="#67b0fe" d="M1201 206v-10h-10v10z"/><path fill="#0075eb" d="M1271 196h10v-20h-10zM201 31V11h-10v20zm140 0V11h-10v20z"/><path fill="#67b0fe" d="M1131 206v-10h-10v10z"/><path fill="#0075eb" d="M1191 186v-10h-20v10zm80-10h10v-20h-10zM181 41V21h-10v20zm150 0V21h-10v20zm820 145v-10h-20v10zm130 0h10v-20h-10zM171 31V11h-10v20zm140 0V11h-10v20z"/><path fill="#0e4da4" d="M401 51V31h-20v20z"/><path fill="#0075eb" d="M1131 186v-10h-20v10zM141 31V11h-10v20z"/><path fill="#e50684" d="M1171 236h20v10h-20z"/><path fill="#0e4da4" d="M321 51V31h-20v20z"/><path fill="#0075eb" d="M1141 196v-10h-20v10zM131 41V21h-10v20z"/><path fill="#e50684" d="M1181 256h20v10h-20z"/><path fill="#0e4da4" d="M361 21V1h-20v20z"/><path fill="#0075eb" d="M111 31V11h-10v20zm1080 195v-10h-20v10z"/><path fill="#e50684" d="M1191 266h20v10h-20z"/><path fill="#0e4da4" d="M201 51V31h-20v20z"/><path fill="#0075eb" d="M1171 226v-10h-20v10z"/><path fill="#67b0fe" d="M391 31V21h-10v10z"/><path fill="#e50684" d="M1171 266h20v10h-20z"/><path fill="#0e4da4" d="M121 51V31h-20v20z"/><path fill="#0075eb" d="M1151 226v-10h-20v10z"/><path fill="#67b0fe" d="M321 31V21h-10v10z"/><path fill="#e50684" d="M1161 226h20v10h-20z"/><path fill="#0e4da4" d="M161 21V1h-20v20z"/><path fill="#0075eb" d="M1211 186v-10h-20v10zM381 11V1h-20v10z"/><path fill="#e50684" d="M1181 226h20v10h-20z"/><path fill="#0075eb" d="M1201 196v-10h-20v10zM341 11V1h-20v10z"/><path fill="#67b0fe" d="M191 31V21h-10v10z"/><path fill="#ff80c4" d="M1181 246h10v10h-10z"/><path fill="#0075eb" d="M1181 216v-10h-20v10zM321 11V1h-20v10z"/><path fill="#67b0fe" d="M121 31V21h-10v10z"/><path fill="#e50684" d="M1191 236h10v20h-10z"/><path fill="#0075eb" d="M1161 216v-10h-20v10zM181 11V1h-20v10zm150 10V11h-20v10z"/><path fill="#e50684" d="M1201 246h10v20h-10z"/><path fill="#0075eb" d="M1171 206v-10h-20v10zM141 11V1h-20v10zm240 40V41h-20v10z"/><path fill="#e50684" d="M1201 226h10v20h-10z"/><path fill="#0075eb" d="M121 11V1h-20v10zm1040 145v-20h-10v20zM361 51V41h-20v10z"/><path fill="#e50684" d="M1161 236h10v20h-10z"/><path fill="#0075eb" d="M1141 166v-20h-10v20zM131 21V11h-20v10zm210 30V41h-20v10z"/><path fill="#e50684" d="M1161 256h10v20h-10z"/><path fill="#0075eb" d="M1131 156v-20h-10v20zM181 51V41h-20v10zm220-40V1h-20v10z"/><path fill="#e50684" d="M1171 246h10v20h-10z"/><path fill="#0075eb" d="M1101 156v-20h-10v20zm110 50v-20h-10v20zM161 51V41h-20v10zm230-30V11h-20v10zm700 145v-20h-10v20zm100 50v-20h-10v20zM141 51V41h-20v10zm230-10V31h-20v10zm700 115v-20h-10v20zm110 50v-20h-10v20zM201 11V1h-20v10zm150 30V31h-20v10z"/><path fill="#0e4da4" d="M1161 176v-20h-20v20z"/><path fill="#0075eb" d="M1151 206v-20h-10v20zM191 21V11h-20v10zm170 10V21h-20v10z"/><path fill="#0e4da4" d="M1081 176v-20h-20v20z"/><path fill="#0075eb" d="M1141 216v-20h-10v20zM171 41V31h-20v10z"/><path fill="#e50684" d="M61 111h20v10H61z"/><path fill="#0e4da4" d="M1121 146v-20h-20v20z"/><path fill="#0075eb" d="M1121 206v-20h-10v20zM151 41V31h-20v10z"/><path fill="#e50684" d="M71 131h20v10H71z"/><path fill="#0e4da4" d="M1211 226v-20h-20v20z"/><path fill="#0075eb" d="M161 31V21h-20v10z"/><path fill="#67b0fe" d="M1151 156v-10h-10v10z"/><path fill="#e50684" d="M81 141h20v10H81z"/><path fill="#0e4da4" d="M1131 226v-20h-20v20z"/><path fill="#0075eb" d="M401 31V11h-10v20z"/><path fill="#67b0fe" d="M1081 156v-10h-10v10z"/><path fill="#e50684" d="M61 141h20v10H61z"/><path fill="#0e4da4" d="M1171 196v-20h-20v20z"/><path fill="#0075eb" d="M1141 136v-10h-20v10zM381 41V21h-10v20z"/><path fill="#e50684" d="M51 101h20v10H51z"/><path fill="#231f4c" d="M551 41h20v20h-20z"/><path fill="#312e6f" d="M731 201h20v10h-20z"/><path fill="#0075eb" d="M1101 136v-10h-20v10zm60 110h-10v20h10z"/><path fill="#e50684" d="M121 401h20v10h-20zM71 101h20v10H71z"/><path fill="#0075eb" d="M1081 136v-10h-20v10zm80 130h-10v20h10z"/><path fill="#ff80c4" d="M121 421h10v10h-10zM71 121h10v10H71z"/><path fill="#0075eb" d="M1091 146v-10h-20v10zm70 140h-10v20h10z"/><path fill="#e50684" d="M131 411h10v20h-10zM81 111h10v20H81z"/><path fill="#0075eb" d="M1121 226h-10v20h10zm20-50v-10h-20v10z"/><path fill="#e50684" d="M141 421h10v20h-10zM91 121h10v20H91z"/><path fill="#0075eb" d="M1121 176v-10h-20v10zm10 60h-10v20h10z"/><path fill="#e50684" d="M141 401h10v20h-10zM91 101h10v20H91z"/><path fill="#0075eb" d="M1101 176v-10h-20v10zm50 80h-10v20h10z"/><path fill="#e50684" d="M101 411h10v20h-10zM51 111h10v20H51z"/><path fill="#0075eb" d="M1151 276h-10v20h10zm10-140v-10h-20v10z"/><path fill="#e50684" d="M101 431h10v20h-10zM51 131h10v20H51z"/><path fill="#0075eb" d="M1141 266h-10v20h10zm10-120v-10h-20v10z"/><path fill="#e50684" d="M111 421h10v20h-10zM61 121h10v20H61z"/><path fill="#0075eb" d="M1091 276h-20v10h20zm40-110v-10h-20v10z"/><path fill="#e50684" d="M361 61h20v10h-20zm50 300h20v10h-20z"/><path fill="#0075eb" d="M1101 296h-20v10h20zm10-130v-10h-20v10z"/><path fill="#e50684" d="M371 81h20v10h-20zm50 300h20v10h-20z"/><path fill="#0075eb" d="M1091 306h-20v10h20zm30-150v-10h-20v10z"/><path fill="#e50684" d="M381 91h20v10h-20zm50 300h20v10h-20z"/><path fill="#0075eb" d="M1091 336h-20v10h20zm50-110h-20v10h20z"/><path fill="#e50684" d="M361 91h20v10h-20zm50 300h20v10h-20z"/><path fill="#0075eb" d="M1101 346h-20v10h20zm50-100h-20v10h20z"/><path fill="#e50684" d="M351 51h20v10h-20zm50 300h20v10h-20z"/><path fill="#0075eb" d="M1091 366h-20v10h20zm50-110h-20v10h20z"/><path fill="#e50684" d="M371 51h20v10h-20zm50 300h20v10h-20z"/><path fill="#0e4da4" d="M1111 276h-20v20h20z"/><path fill="#0075eb" d="M1141 286h-20v10h20z"/><path fill="#ff80c4" d="M371 71h10v10h-10zm50 300h10v10h-10z"/><path fill="#0e4da4" d="M1111 356h-20v20h20z"/><path fill="#0075eb" d="M1151 296h-20v10h20z"/><path fill="#e50684" d="M381 61h10v20h-10zm50 300h10v20h-10z"/><path fill="#0e4da4" d="M1081 316h-20v20h20z"/><path fill="#0075eb" d="M1141 316h-20v10h20z"/><path fill="#e50684" d="M391 71h10v20h-10zm50 300h10v20h-10z"/><path fill="#0e4da4" d="M1161 226h-20v20h20z"/><path fill="#67b0fe" d="M1091 286h-10v10h10z"/><path fill="#e50684" d="M391 51h10v20h-10zm50 300h10v20h-10z"/><path fill="#0e4da4" d="M1161 306h-20v20h20z"/><path fill="#67b0fe" d="M1091 356h-10v10h10z"/><path fill="#e50684" d="M351 61h10v20h-10zm50 300h10v20h-10z"/><path fill="#0e4da4" d="M1131 266h-20v20h20z"/><path fill="#0075eb" d="M1071 296h-10v20h10z"/><path fill="#e50684" d="M351 81h10v20h-10zm50 300h10v20h-10z"/><path fill="#0075eb" d="M1071 336h-10v20h10z"/><path fill="#67b0fe" d="M1141 236h-10v10h10z"/><path fill="#e50684" d="M361 71h10v20h-10zm50 300h10v20h-10z"/><path fill="#0075eb" d="M1071 356h-10v20h10z"/><path fill="#67b0fe" d="M1141 306h-10v10h10z"/><path fill="#e50684" d="M111 411h20v10h-20zm250-200h20v10h-20z"/><path fill="#0075eb" d="M1081 346h-10v20h10zm40-100h-10v20h10z"/><path fill="#e50684" d="M121 431h20v10h-20zm250-200h20v10h-20z"/><path fill="#0075eb" d="M1111 296h-10v20h10zm10-10h-10v20h10z"/><path fill="#e50684" d="M131 441h20v10h-20zm250-200h20v10h-20z"/><path fill="#0075eb" d="M1111 316h-10v20h10zm10-10h-10v20h10z"/><path fill="#e50684" d="M111 441h20v10h-20zm250-200h20v10h-20z"/><path fill="#0075eb" d="M1111 336h-10v20h10zm20-40h-10v20h10z"/><path fill="#e50684" d="M101 401h20v10h-20zm250-200h20v10h-20z"/><path fill="#231f4c" d="M571 41h20v20h-20z"/><path fill="#312e6f" d="M741 221h20v10h-20z"/><path fill="#0075eb" d="M1071 276h-10v20h10zm160-140v10h20v-10z"/><path fill="#e50684" d="M221 101h20v10h-20zm150 100h20v10h-20z"/><path fill="#0075eb" d="M1081 286h-10v20h10z"/><path fill="#ff80c4" d="M221 121h10v10h-10zm150 100h10v10h-10z"/><path fill="#0075eb" d="M1101 306h-10v20h10z"/><path fill="#e50684" d="M231 111h10v20h-10zm150 100h10v20h-10z"/><path fill="#0075eb" d="M1101 326h-10v20h10z"/><path fill="#e50684" d="M241 121h10v20h-10zm150 100h10v20h-10z"/><path fill="#0075eb" d="M1091 316h-10v20h10z"/><path fill="#e50684" d="M241 101h10v20h-10zm150 100h10v20h-10z"/><path fill="#0075eb" d="M1161 146v20h10v-20z"/><path fill="#e50684" d="M201 111h10v20h-10zm150 100h10v20h-10z"/><path fill="#0075eb" d="M1181 136v20h10v-20z"/><path fill="#e50684" d="M201 131h10v20h-10zm150 100h10v20h-10z"/><path fill="#0075eb" d="M1231 146v20h10v-20z"/><path fill="#e50684" d="M211 121h10v20h-10zm150 100h10v20h-10z"/><path fill="#0075eb" d="M1251 136v20h10v-20z"/><path fill="#e50684" d="M111 261h20v10h-20zm150 100h20v10h-20z"/><path fill="#0e4da4" d="M1161 126v20h20v-20z"/><path fill="#e50684" d="M121 281h20v10h-20zm150 100h20v10h-20z"/><path fill="#0e4da4" d="M1241 156v20h20v-20z"/><path fill="#e50684" d="M131 291h20v10h-20zm150 100h20v10h-20z"/><path fill="#0e4da4" d="M1191 146v20h20v-20z"/><path fill="#e50684" d="M111 291h20v10h-20zm150 100h20v10h-20z"/><path fill="#0e4da4" d="M1211 136v20h20v-20z"/><path fill="#e50684" d="M101 251h20v10h-20zm150 100h20v10h-20z"/><path fill="#67b0fe" d="M1171 146v10h10v-10z"/><path fill="#e50684" d="M121 251h20v10h-20zm150 100h20v10h-20z"/><path fill="#67b0fe" d="M1241 146v10h10v-10z"/><path fill="#ff80c4" d="M121 271h10v10h-10zm150 100h10v10h-10z"/><path fill="#0075eb" d="M1181 166v10h20v-10z"/><path fill="#e50684" d="M131 261h10v20h-10zm150 100h10v20h-10z"/><path fill="#0075eb" d="M1201 166v10h20v-10z"/><path fill="#e50684" d="M141 271h10v20h-10zm150 100h10v20h-10z"/><path fill="#0075eb" d="M1221 166v10h20v-10z"/><path fill="#e50684" d="M141 251h10v20h-10zm150 100h10v20h-10z"/><path fill="#0075eb" d="M1241 126v10h20v-10z"/><path fill="#e50684" d="M101 261h10v20h-10zm150 100h10v20h-10z"/><path fill="#0075eb" d="M1181 126v10h20v-10z"/><path fill="#e50684" d="M101 281h10v20h-10zm150 100h10v20h-10z"/><path fill="#0075eb" d="M1201 126v10h20v-10z"/><path fill="#e50684" d="M111 271h10v20h-10zm150 100h10v20h-10z"/><path fill="#0075eb" d="M1221 126v10h20v-10zM301 21v20h-10V21z"/><path fill="#e50684" d="M211 111h20v10h-20z"/><path fill="#0075eb" d="M1161 166v10h20v-10zM281 11v20h-10V11z"/><path fill="#e50684" d="M221 131h20v10h-20z"/><path fill="#0075eb" d="M1171 156v10h20v-10zM271 21v20h-10V21z"/><path fill="#e50684" d="M231 141h20v10h-20z"/><path fill="#0075eb" d="M1191 136v10h20v-10zM241 21v20h-10V21z"/><path fill="#e50684" d="M211 141h20v10h-20z"/><path fill="#0075eb" d="M1211 156v10h20v-10zM231 11v20h-10V11z"/><path fill="#e50684" d="M201 101h20v10h-20z"/><path fill="#231f4c" d="M601 1h20v20h-20z"/><path fill="#312e6f" d="M731 231h20v10h-20z"/><path fill="#0e4da4" d="M141 481v20h20v-20z"/><path fill="#0075eb" d="M211 21v20h-10V21z"/><path fill="#0e4da4" d="M301 1v20h-20V1z"/><path fill="#67b0fe" d="M111 471v10h10v-10z"/><path fill="#0e4da4" d="M221 1v20h-20V1z"/><path fill="#67b0fe" d="M181 471v10h10v-10z"/><path fill="#0e4da4" d="M261 31v20h-20V31z"/><path fill="#0075eb" d="M121 491v10h20v-10zm40 0v10h20v-10z"/><path fill="#67b0fe" d="M291 21v10h-10V21z"/><path fill="#0075eb" d="M181 491v10h20v-10z"/><path fill="#67b0fe" d="M221 21v10h-10V21z"/><path fill="#0075eb" d="M171 481v10h20v-10zM281 41v10h-20V41zM121 451v10h20v-10zM241 41v10h-20V41zM141 451v10h20v-10zm80-410v10h-20V41zm-60 410v10h20v-10zm70-420v10h-20V31zM101 491v10h20v-10zM281 1v10h-20V1zM111 481v10h20v-10zM261 1v10h-20V1zM131 461v10h20v-10zM241 1v10h-20V1zm-90 460v10h20v-10zM301 41v10h-20V41zM141 471v10h20v-10zM291 31v10h-20V31zm-20-20v10h-20V11zm30 460v20h10v-20zM251 11v10h-20V11zm70 450v20h10v-20zM261 21v10h-20V21zm70 450v20h10v-20zm-230 0v20h10v-20zm260 0v20h10v-20zm-240-10v20h10v-20zm250 0v20h10v-20zm-240 10v20h10v-20zm260 0v20h10v-20z"/><path fill="#0e4da4" d="M301 451v20h20v-20z"/><path fill="#0075eb" d="M161 471v20h10v-20z"/><path fill="#0e4da4" d="M381 451v20h20v-20z"/><path fill="#0075eb" d="M171 461v20h10v-20z"/><path fill="#0e4da4" d="M341 481v20h20v-20z"/><path fill="#0075eb" d="M191 471v20h10v-20z"/><path fill="#0e4da4" d="M101 451v20h20v-20z"/><path fill="#67b0fe" d="M311 471v10h10v-10z"/><path fill="#0e4da4" d="M181 451v20h20v-20z"/><path fill="#67b0fe" d="M381 471v10h10v-10z"/><path fill="#312e6f" d="M711 231h20v10h-20z"/><path fill="#403d94" d="M531 21h10v10h-10z"/><path fill="#0075eb" d="M321 431v10h20v-10zm0 60v10h20v-10zm-50-90v10h20v-10zm90 90v10h20v-10zm-70-90v10h20v-10zm90 90v10h20v-10zm-70-90v10h20v-10zm60 80v10h20v-10zm-120-40v10h20v-10zm70 10v10h20v-10zm-60-20v10h20v-10zm80 20v10h20v-10zm-60-40v10h20v-10zm80 40v10h20v-10zm-60-40v10h20v-10zm0 80v10h20v-10zm-10-70v10h20v-10zm20 60v10h20v-10zm10-80h20v-10h-20zm10 60v10h20v-10zm-20-80h20v-10h-20zm40 80v10h20v-10zm-30-90h20v-10h-20zm20 100v10h20v-10zm-90-50v20h10v-20zm70-80h20v-10h-20zm-50 70v20h10v-20zm40-80h20v-10h-20zm-30 90v20h10v-20zm40-110h20v-10h-20z"/><path fill="#0e4da4" d="M301 401h20v-20h-20z"/><path fill="#0075eb" d="M311 421v20h10v-20z"/><path fill="#0e4da4" d="M301 321h20v-20h-20z"/><path fill="#0075eb" d="M321 411v20h10v-20z"/><path fill="#0e4da4" d="M331 361h20v-20h-20z"/><path fill="#0075eb" d="M341 421v20h10v-20z"/><path fill="#0e4da4" d="M251 401v20h20v-20z"/><path fill="#67b0fe" d="M321 391h10v-10h-10z"/><path fill="#0e4da4" d="M331 401v20h20v-20z"/><path fill="#67b0fe" d="M321 321h10v-10h-10z"/><path fill="#0e4da4" d="M291 431v20h20v-20z"/><path fill="#0075eb" d="M341 381h10v-20h-10zm0-40h10v-20h-10z"/><path fill="#67b0fe" d="M261 421v10h10v-10z"/><path fill="#0075eb" d="M341 321h10v-20h-10z"/><path fill="#67b0fe" d="M331 421v10h10v-10z"/><path fill="#0075eb" d="M271 441v10h20v-10zm60-110h10v-20h-10zm-30 50h10v-20h-10zm10 60v10h20v-10zm-10-80h10v-20h-10zm30 80v10h20v-10z"/><path fill="#312e6f" d="M691 291h20v10h-20z"/><path fill="#403d94" d="M541 81h10v10h-10z"/><path fill="#0075eb" d="M301 341h10v-20h-10zM91 321H81v-20h10zm250 80h10v-20h-10zM91 301H81v-20h10zm240 90h10v-20h-10zM81 311H71v-20h10zm230 60h10v-20h-10zm40-250v20h10v-20zm-40 230h10v-20h-10zm60-240v20h10v-20zm-50 250h10v-20h-10zm100-240v20h10v-20zm20-10v20h10v-20zM81 351H61v-10h20z"/><path fill="#0e4da4" d="M351 101v20h20v-20z"/><path fill="#0075eb" d="M91 331H71v-10h20z"/><path fill="#0e4da4" d="M431 131v20h20v-20z"/><path fill="#0075eb" d="M81 321H61v-10h20z"/><path fill="#0e4da4" d="M381 121v20h20v-20z"/><path fill="#0075eb" d="M81 291H61v-10h20z"/><path fill="#0e4da4" d="M401 111v20h20v-20z"/><path fill="#0075eb" d="M91 281H71v-10h20zm-10-20H61v-10h20z"/><path fill="#67b0fe" d="M361 121v10h10v-10z"/><path fill="#0e4da4" d="M101 351H81v-20h20z"/><path fill="#67b0fe" d="M431 121v10h10v-10z"/><path fill="#0e4da4" d="M101 271H81v-20h20z"/><path fill="#0075eb" d="M371 141v10h20v-10z"/><path fill="#0e4da4" d="M71 311H51v-20h20z"/><path fill="#0075eb" d="M391 141v10h20v-10zm20 0v10h20v-10z"/><path fill="#67b0fe" d="M81 341H71v-10h10z"/><path fill="#0075eb" d="M431 101v10h20v-10z"/><path fill="#67b0fe" d="M81 271H71v-10h10z"/><path fill="#0075eb" d="M371 101v10h20v-10zM61 331H51v-20h10zm330-230v10h20v-10zM61 291H51v-20h10zm350-190v10h20v-10zM61 271H51v-20h10zm290-130v10h20v-10zM71 281H61v-20h10zm290-150v10h20v-10zM101 331H91v-20h10zm280-220v10h20v-10zM101 311H91v-20h10zm300-180v10h20v-10zM101 291H91v-20h10zm320-180v10h20v-10zM61 351H51v-20h10zm60-200h20v-10h-20zM71 341H61v-20h10z"/></g></svg>
