<svg xmlns="http://www.w3.org/2000/svg" width="802" height="288" version="1"><g fill="none" stroke="#f5f2fc"><path fill="#0075eb" d="M687 101h57v29h-57z"/><path fill="#0075eb" d="M715 158h57v29h-57z"/><path  d="M715 158h57v29h-57z"/><path fill="#0075eb" d="M744 187h57v29h-57z"/><path fill="#0075eb" d="M687 187h57v29h-57z"/><path fill="#0075eb" d="M658 73h57v28h-57z"/><path fill="#0075eb" d="M715 73h57v28h-57z"/><path fill="#e50684" d="M715 130h29v28h-29z"/><path fill="#0075eb" d="M744 101h28v57h-28z"/><path fill="#0075eb" d="M772 130h29v57h-29z"/><path fill="#0075eb" d="M772 73h29v57h-29z"/><path fill="#0075eb" d="M658 101h29v57h-29z"/><path fill="#0075eb" d="M658 158h29v58h-29z"/><path fill="#0075eb" d="M687 130h28v57h-28z"/><path fill="#0075eb" d="M544 1h57v29h-57z"/><path fill="#0075eb" d="M515 58h57v29h-57z"/><path fill="#0075eb" d="M544 201h57v29h-57z"/><path fill="#0075eb" d="M515 259h57v28h-57z"/><path fill="#312e6f" d="M487 1h57v57h-57z"/><path fill="#312e6f" d="M572 230h58v57h-58z"/><path fill="#312e6f" d="M544 87h57v57h-57z"/><path fill="#312e6f" d="M515 144h57v57h-57z"/><path fill="#e50684" d="M544 30h28v28h-28z"/><path fill="#e50684" d="M544 230h28v29h-28z"/><path fill="#0075eb" d="M601 58h29v58h-29z"/><path fill="#0075eb" d="M601 116h29v57h-29z"/><path fill="#0075eb" d="M601 173h29v57h-29z"/><path fill="#0075eb" d="M487 230h28v57h-28z"/><path fill="#0075eb" d="M487 58h28v58h-28z"/><path fill="#0075eb" d="M487 116h28v57h-28z"/><path fill="#0075eb" d="M487 173h28v57h-28z"/><path fill="#0075eb" d="M601 1h29v57h-29z"/><path fill="#0075eb" d="M572 30h29v57h-29z"/><path fill="#0075eb" d="M515 87h29v57h-29z"/><path fill="#0075eb" d="M572 144h29v57h-29z"/><path fill="#0075eb" d="M515 201h29v58h-29z"/><path fill="#0075eb" d="M372 1h58v29h-58z"/><path fill="#0075eb" d="M344 58h57v29h-57z"/><path fill="#0075eb" d="M372 87h58v29h-58z"/><path fill="#0075eb" d="M372 173h58v28h-58z"/><path fill="#0075eb" d="M344 201h57v29h-57z"/><path fill="#0075eb" d="M372 259h58v28h-58z"/><path fill="#312e6f" d="M315 1h57v57h-57z"/><path fill="#312e6f" d="M315 230h57v57h-57z"/><path fill="#312e6f" d="M401 116h57v57h-57z"/><path fill="#e50684" d="M372 30h29v28h-29z"/><path fill="#e50684" d="M372 230h29v29h-29z"/><path fill="#0075eb" d="M430 58h28v58h-28z"/><path fill="#0075eb" d="M430 173h28v57h-28z"/><path fill="#0075eb" d="M430 230h28v57h-28z"/><path fill="#0075eb" d="M401 201h29v58h-29z"/><path fill="#0075eb" d="M315 58h29v58h-29z"/><path fill="#0075eb" d="M315 116h29v57h-29z"/><path fill="#0075eb" d="M315 173h29v57h-29z"/><path fill="#0075eb" d="M430 1h28v57h-28z"/><path fill="#0075eb" d="M401 30h29v57h-29z"/><path fill="#0075eb" d="M344 87h28v57h-28z"/><path fill="#0075eb" d="M344 144h28v57h-28z"/><path fill="#0075eb" d="M372 116h29v57h-29z"/><path fill="#0075eb" d="M58 1h57v29H58z"/><path fill="#0075eb" d="M87 30h57v28H87z"/><path fill="#0075eb" d="M115 1h57v29h-57z"/><path fill="#0075eb" d="M172 1h58v29h-58z"/><path fill="#0075eb" d="M201 58h57v29h-57z"/><path fill="#0075eb" d="M172 87h58v29h-58z"/><path fill="#0075eb" d="M115 87h57v29h-57z"/><path fill="#0075eb" d="M58 259h57v28H58z"/><path fill="#0075eb" d="M30 201h57v29H30z"/><path fill="#0075eb" d="M58 173h57v28H58z"/><path fill="#0075eb" d="M115 173h57v28h-57z"/><path fill="#0075eb" d="M144 230h57v29h-57z"/><path fill="#0075eb" d="M115 259h57v28h-57z"/><path fill="#0075eb" d="M172 259h58v28h-58z"/><path fill="#312e6f" d="M1 1h57v57H1z"/><path fill="#312e6f" d="M1 230h57v57H1z"/><path fill="#312e6f" d="M230 230h57v57h-57z"/><path fill="#312e6f" d="M201 144h57v57h-57z"/><path fill="#312e6f" d="M144 30h57v57h-57z"/><path fill="#312e6f" d="M30 87h57v57H30z"/><path fill="#312e6f" d="M87 201h57v58H87z"/><path fill="#312e6f" d="M87 116h57v57H87z"/><path fill="#312e6f" d="M144 116h57v57h-57z"/><path fill="#312e6f" d="M230 1h57v57h-57z"/><path fill="#e50684" d="M30 58h28v29H30z"/><path fill="#e50684" d="M58 230h29v29H58z"/><path fill="#e50684" d="M144 201h28v29h-28z"/><path fill="#e50684" d="M58 144h29v29H58z"/><path fill="#e50684" d="M230 201h28v29h-28z"/><path fill="#e50684" d="M201 30h29v28h-29z"/><path fill="#e50684" d="M115 58h29v29h-29z"/><path fill="#e50684" d="M201 116h29v28h-29z"/><path fill="#0075eb" d="M1 58h29v58H1z"/><path fill="#0075eb" d="M58 30h29v57H58z"/><path fill="#0075eb" d="M87 58h28v58H87z"/><path fill="#0075eb" d="M1 116h29v57H1z"/><path fill="#0075eb" d="M1 173h29v57H1z"/><path fill="#0075eb" d="M30 144h28v57H30z"/><path fill="#0075eb" d="M258 58h29v58h-29z"/><path fill="#0075eb" d="M230 87h28v57h-28z"/><path fill="#0075eb" d="M258 116h29v57h-29z"/><path fill="#0075eb" d="M258 173h29v57h-29z"/><path fill="#0075eb" d="M201 201h29v58h-29z"/><path fill="#0075eb" d="M172 173h29v57h-29z"/></g></svg>
