<svg xmlns="http://www.w3.org/2000/svg" viewBox="0 0 500 500">
  <defs/>
  <g fill="none" fill-rule="evenodd" stroke="#3D0029" stroke-width="8">
    <path fill="#A90464" d="M247 401c-48 58-135 38-135 38s-53-77-4-139c-75-27-78-116-78-116s48-70 130-48c0-77 87-110 87-110s86 33 86 110c82-16 131 48 131 48s-8 99-78 116c44 58-5 139-5 139s-92 22-134-38z"/>
    <path fill="#F353A9" d="M382 211c73 34 75 111 75 111s-62 73-127 46c-26-64 3-138 52-157z"/>
    <path fill="#FF80C4" d="M247 111c44-61 130-38 130-38s48 76 4 137c-22 28-97-33-134-99z"/>
    <path fill="#FFADDC" d="M111 210c-43-63 5-135 5-135s79-28 131 37c-5 77-54 84-136 98z"/>
    <path fill="#E50684" d="M163 368c68-56 91-36 167 0 1 71-83 108-83 108s-86-36-84-108z"/>
    <path fill="#F353A9" d="M164 368c-71 20-128-46-128-46s2-91 76-112c86 52 36 105 52 158z"/>
    <path fill="#E50684" d="M169 371c28 5 109-27 67-45-41-19-105-119-124-115-12 32 6 74 10 87s19 67 47 73z"/>
    <path fill="#FF80C4" d="M330 367c3-12 8-82 9-87 1-6-30-54-23-6 8 47-141 32-153 94 41 19 151 8 167-1z"/>
    <path fill="#E50684" d="M330 368c26-11 51-122 52-157 0-2-5-15-14-27-10-13-73-5-74 5 27 86 16 91 36 179z"/>
    <path fill="#FFADDC" d="M161 202c26-11 116-32 220 9-2-45-99-93-134-99-24 5-61 30-62 36s-56 71-24 54z"/>
    <path fill="#FF80C4" d="M172 268c-3-19 67-153 74-156-36-10-130 79-136 99 8-2 52 48 62 57z"/>
  </g>
</svg>
