<svg xmlns="http://www.w3.org/2000/svg" viewBox="0 0 400 250"><path fill="#52278d" d="M82.567 125.549v10.224l8.855-5.112v-10.225Z"/><path fill="#6c3cb4" d="m82.567 176.672-8.855-5.113v10.225l8.855 5.112Z"/><path fill="#40a8ff" d="m38.293 99.987 35.419 20.449 8.855-5.112-35.419-20.449Z"/><path fill="#2950bf" d="M82.567 135.773v40.899l8.855-5.113v-40.898Z"/><path fill="#9c6bde" d="m126.841 89.762-8.855 5.113 8.855 5.112 8.854-5.112ZM82.567 64.201l-8.855 5.112 8.855 5.112 8.855-5.112Z"/><path fill="#6c3cb4" d="m82.567 125.549-8.855-5.113v10.225l8.855 5.112Z"/><path fill="#40a8ff" d="m117.986 94.875-35.419 20.449 8.855 5.112 35.419-20.449Z"/><path fill="#6c3cb4" d="m38.293 99.987-8.855-5.112v10.224l8.855 5.113Z"/><path fill="#0075eb" d="M29.438 105.099v40.899l8.855 5.112v-40.898Z"/><path fill="#40a8ff" d="M73.712 69.313 38.293 89.762l8.855 5.113 35.419-20.45Z"/><path fill="#6c3cb4" d="m38.293 151.11-8.855-5.112v10.224l8.855 5.113Z"/><path fill="#40a8ff" d="m82.567 74.425 35.419 20.45 8.855-5.113-35.419-20.449Z"/><path fill="#52278d" d="M126.841 99.987v10.225l8.854-5.113V94.875Z"/><path fill="#2950bf" d="M126.841 110.212v40.898l8.854-5.112v-40.899Z"/><path fill="#52278d" d="M82.567 176.672v10.224l8.855-5.112v-10.225Z"/><path fill="#2950bf" d="m126.841 151.11-35.419 20.449v10.225l35.419-20.449Z"/><path fill="#fd4fa5" d="m82.567 74.425-35.419 20.45 35.419 20.449 35.419-20.449Z"/><path fill="#0075eb" d="m38.293 161.335 35.419 20.449v-10.225L38.293 151.11Z"/><path fill="#2950bf" d="m126.841 99.987-35.419 20.449v10.225l35.419-20.449Z"/><path fill="#52278d" d="M126.841 151.11v10.225l8.854-5.113v-10.224Z"/><path fill="#0075eb" d="M73.712 130.661v40.898l8.855 5.113v-40.899Z"/><path fill="#9c6bde" d="m82.567 115.324-8.855 5.112 8.855 5.113 8.855-5.113ZM38.293 89.762l-8.855 5.113 8.855 5.112 8.855-5.112Z"/><path fill="#b50069" d="m126.841 110.212-35.419 20.449v40.898l35.419-20.449Z"/><path fill="#0075eb" d="m38.293 110.212 35.419 20.449v-10.225L38.293 99.987Z"/><path fill="#e50684" d="M38.293 110.212v40.898l35.419 20.449v-40.898Z"/><path fill="#9c6bde" d="m281.48 114.768-8.855 5.112 8.855 5.112 8.854-5.112Z"/><path fill="#6c3cb4" d="m281.48 124.992-8.855-5.112v10.225l8.855 5.112Z"/><path fill="#0075eb" d="m308.044 109.655-8.855-5.112v10.225l8.855 5.112Z"/><path fill="#6c3cb4" d="m281.48 217.014-8.855-5.112v10.224l8.855 5.113Z"/><path fill="#52278d" d="M201.787 171.003v10.225l8.854-5.113v-10.224Z"/><path fill="#40a8ff" d="m281.48 145.442-8.855 5.112 8.855 5.112 8.854-5.112Z"/><path fill="#9c6bde" d="m361.173 68.757-8.855 5.112 8.855 5.113 8.854-5.113Z"/><path fill="#e50684" d="m272.625 160.779-8.855-5.113v10.225l8.855 5.112Z"/><path fill="#52278d" d="M281.48 124.992v10.225l8.854-5.112V119.88Z"/><path fill="#2950bf" d="M281.48 155.666v40.899l8.854-5.113v-40.898ZM361.173 109.655v40.899l8.854-5.112v-40.899Z"/><path fill="#6c3cb4" d="m361.173 78.982-8.855-5.113v10.225l8.855 5.112Z"/><path fill="#1b7f56" d="M316.899 124.992v-10.224l-8.855 5.112-8.855-5.112-8.855 5.112v10.225l-8.854 5.112v10.225l8.854 5.112v10.225l8.855-5.113v-20.449Z"/><path fill="#2950bf" d="M254.915 201.677v10.225l8.855-5.113v-10.224Z"/><path fill="#e50684" d="m246.06 84.094 35.42 20.449V94.319l-35.42-20.45Z"/><path fill="#40a8ff" d="m334.608 84.094-35.419 20.449 8.855 5.112 35.419-20.449Z"/><path fill="#52278d" d="M281.48 32.971v10.224l8.854-5.112V27.859Z"/><path fill="#9c6bde" d="m201.787 160.779-8.855 5.112 8.855 5.112 8.854-5.112Z"/><path fill="#fd4fa5" d="m334.608 114.768-35.419 20.449 8.855 5.112 35.419-20.449Z"/><path fill="#b50069" d="M316.899 114.768v10.224l8.854-5.112v-10.225Z"/><path fill="#6c3cb4" d="m356.745 173.559-8.855-5.112v10.225l8.855 5.112Z"/><path fill="#2950bf" d="m343.463 89.206-35.419 20.449v10.225l35.419-20.449Z"/><path fill="#e50684" d="M299.189 135.217v40.898l8.855 5.113v-40.899Z"/><path fill="#40a8ff" d="m201.787 99.431-8.855 5.112 8.855 5.112 8.854-5.112Z"/><path fill="#9c6bde" d="m356.745 163.335-8.855 5.112 8.855 5.112 8.855-5.112Z"/><path fill="#40a8ff" d="m219.496 89.206 35.419 20.449 8.855-5.112-35.419-20.449Z"/><path fill="#6c3cb4" d="m201.787 171.003-8.855-5.112v10.224l8.855 5.113ZM201.787 78.982l-8.855-5.113v10.225l8.855 5.112Z"/><path fill="#fd4fa5" d="m254.915 89.206-8.855 5.113 8.855 5.112 8.855-5.112Z"/><path fill="#40a8ff" d="m219.496 181.228 35.419 20.449 8.855-5.112-35.419-20.45Z"/><path fill="#6c3cb4" d="m281.48 32.971-8.855-5.112v10.224l8.855 5.112Z"/><path fill="#52278d" d="M361.173 78.982v10.224l8.854-5.112V73.869Z"/><path fill="#0075eb" d="m219.496 99.431 35.419 20.449v-10.225l-35.419-20.449Z"/><path fill="#54bf92" d="m299.189 94.319-17.709 10.224-17.71-10.224-8.855 5.112 8.855 5.112v10.225l8.855 5.112 8.855-5.112 8.854 5.112 8.855-5.112v-10.225l8.855-5.112Z"/><path fill="#40a8ff" d="m334.608 176.115-35.419 20.45 8.855 5.112 35.419-20.449Z"/><path fill="#52278d" d="M201.787 78.982v10.224l8.854-5.112V73.869Z"/><path fill="#9c6bde" d="m281.48 206.789-8.855 5.113 8.855 5.112 8.854-5.112Z"/><path fill="#b50069" d="M290.334 160.779v10.224l8.855-5.112v-10.225Z"/><path fill="#0075eb" d="m219.496 191.452 35.419 20.45v-10.225l-35.419-20.449Z"/><path fill="#1da575" d="m281.48 135.217-8.855-5.112V119.88l-8.855-5.112-8.855 5.112-8.855-5.112v10.224l17.71 10.225v20.449l8.855 5.113v-10.225l8.855-5.112Z"/><path fill="#0075eb" d="M352.318 104.543v40.899l8.855 5.112v-40.899ZM308.044 201.677l-8.855-5.112v10.224l8.855 5.113Z"/><path fill="#b50069" d="m316.899 73.869-35.419 20.45v10.224l35.419-20.449Z"/><path fill="#40a8ff" d="m299.189 43.195 35.419 20.45 8.855-5.113-35.419-20.449ZM361.173 99.431l-8.855 5.112 8.855 5.112 8.854-5.112Z"/><path fill="#e50684" d="M219.496 119.88v40.899l35.419 20.449v-40.899Z"/><path fill="#40a8ff" d="m254.915 38.083-35.419 20.449 8.855 5.113 35.419-20.45Z"/><path fill="#52278d" d="M281.48 217.014v10.225l8.854-5.113v-10.224Z"/><path fill="#0075eb" d="M192.932 104.543v40.899l8.855 5.112v-40.899Z"/><path fill="#9c6bde" d="m201.787 68.757-8.855 5.112 8.855 5.113 8.854-5.113Z"/><path fill="#2950bf" d="m343.463 181.228-35.419 20.449v10.225l35.419-20.45Z"/><path fill="#fd4fa5" d="m281.48 53.42-35.42 20.449 35.42 20.45 35.419-20.45Z"/><path fill="#2950bf" d="M334.608 63.645v10.224l8.855-5.112V58.532ZM263.77 43.195l-35.419 20.45v10.224L263.77 53.42Z"/><path fill="#fd4fa5" d="m219.496 119.88 35.419 20.449 8.855-5.112-35.419-20.449ZM308.044 89.206l-8.855 5.113 8.855 5.112 8.855-5.112Z"/><path fill="#e50684" d="m246.06 114.768-8.854-5.113v10.225l8.854 5.112Z"/><path fill="#b50069" d="m343.463 119.88-35.419 20.449v40.899l35.419-20.449ZM254.915 140.329v40.899l8.855-5.113v-40.898Z"/><path fill="#2950bf" d="M201.787 109.655v40.899l8.854-5.112v-40.899Z"/><path fill="#0075eb" d="M272.625 150.554v40.898l8.855 5.113v-40.899ZM228.351 63.645l-8.855-5.113v10.225l8.855 5.112Z"/><path fill="#52278d" d="M356.745 173.559v10.225l8.855-5.112v-10.225Z"/><path fill="#9c6bde" d="m281.48 22.746-8.855 5.113 8.855 5.112 8.854-5.112Z"/><path fill="#2950bf" d="M254.915 109.655v10.225l8.855-5.112v-10.225Z"/><path fill="#0075eb" d="m299.189 53.42 35.419 20.449V63.645l-35.419-20.45Z"/></svg>