<svg xmlns="http://www.w3.org/2000/svg" width="630" height="280"><g fill="#9a99b2" fill-rule="evenodd"><path d="M520 279h19v-9h-19ZM500 279h19v-9h-19ZM480 279h19v-9h-19ZM460 279h19v-9h-19ZM440 279h19v-9h-19ZM420 269h9v-19h-9ZM420 249h9v-19h-9ZM550 259h9v-19h-9ZM550 239h9v-19h-9ZM420 279h19v-9h-19ZM540 219h19v-9h-19ZM520 219h19v-9h-19ZM500 219h19v-9h-19ZM480 219h19v-9h-19ZM460 219h19v-9h-19ZM440 219h19v-9h-19ZM540 279h19v-19h-19ZM420 229h19v-19h-19Z"/></g><g fill="#9a99b2" fill-rule="evenodd"><path d="M380 279h19v-9h-19ZM360 279h19v-9h-19ZM340 279h19v-9h-19ZM320 279h19v-9h-19ZM300 279h19v-9h-19ZM280 269h9v-19h-9ZM280 249h9v-19h-9ZM410 259h9v-19h-9ZM410 239h9v-19h-9ZM280 279h19v-9h-19ZM400 219h19v-9h-19ZM380 219h19v-9h-19ZM360 219h19v-9h-19ZM340 219h19v-9h-19ZM320 219h19v-9h-19ZM300 219h19v-9h-19ZM400 279h19v-19h-19ZM280 229h19v-19h-19Z"/></g><g fill="#9a99b2" fill-rule="evenodd"><path d="M240 279h19v-9h-19ZM220 279h19v-9h-19ZM200 279h19v-9h-19ZM180 279h19v-9h-19ZM160 279h19v-9h-19ZM140 269h9v-19h-9ZM140 249h9v-19h-9ZM270 259h9v-19h-9ZM270 239h9v-19h-9ZM140 279h19v-9h-19ZM260 219h19v-9h-19ZM240 219h19v-9h-19ZM220 219h19v-9h-19ZM200 219h19v-9h-19ZM180 219h19v-9h-19ZM160 219h19v-9h-19ZM260 279h19v-19h-19ZM140 229h19v-19h-19Z"/></g><g fill="#9a99b2" fill-rule="evenodd"><path d="M100 279h19v-9h-19ZM80 279h19v-9H80ZM60 279h19v-9H60ZM40 279h19v-9H40ZM20 279h19v-9H20ZM0 269h9v-19H0ZM0 249h9v-19H0ZM130 259h9v-19h-9ZM130 239h9v-19h-9ZM0 279h19v-9H0ZM120 219h19v-9h-19ZM100 219h19v-9h-19ZM80 219h19v-9H80ZM60 219h19v-9H60ZM40 219h19v-9H40ZM20 219h19v-9H20ZM120 279h19v-19h-19ZM0 229h19v-19H0Z"/></g><g fill="#9a99b2" fill-rule="evenodd"><path d="M590 209h19v-9h-19ZM570 209h19v-9h-19ZM550 209h19v-9h-19ZM530 209h19v-9h-19ZM510 209h19v-9h-19ZM490 199h9v-19h-9ZM490 179h9v-19h-9ZM620 189h9v-19h-9ZM620 169h9v-19h-9ZM490 209h19v-9h-19ZM610 149h19v-9h-19ZM590 149h19v-9h-19ZM570 149h19v-9h-19ZM550 149h19v-9h-19ZM530 149h19v-9h-19ZM510 149h19v-9h-19ZM610 209h19v-19h-19ZM490 159h19v-19h-19Z"/></g><g fill="#9a99b2" fill-rule="evenodd"><path d="M450 209h19v-9h-19ZM430 209h19v-9h-19ZM410 209h19v-9h-19ZM390 209h19v-9h-19ZM370 209h19v-9h-19ZM350 199h9v-19h-9ZM350 179h9v-19h-9ZM480 189h9v-19h-9ZM480 169h9v-19h-9ZM350 209h19v-9h-19ZM470 149h19v-9h-19ZM450 149h19v-9h-19ZM430 149h19v-9h-19ZM410 149h19v-9h-19ZM390 149h19v-9h-19ZM370 149h19v-9h-19ZM470 209h19v-19h-19ZM350 159h19v-19h-19Z"/></g><g fill="#9a99b2" fill-rule="evenodd"><path d="M310 209h19v-9h-19ZM290 209h19v-9h-19ZM270 209h19v-9h-19ZM250 209h19v-9h-19ZM230 209h19v-9h-19ZM210 199h9v-19h-9ZM210 179h9v-19h-9ZM340 189h9v-19h-9ZM340 169h9v-19h-9ZM210 209h19v-9h-19ZM330 149h19v-9h-19ZM310 149h19v-9h-19ZM290 149h19v-9h-19ZM270 149h19v-9h-19ZM250 149h19v-9h-19ZM230 149h19v-9h-19ZM330 209h19v-19h-19ZM210 159h19v-19h-19Z"/></g><g fill="#9a99b2" fill-rule="evenodd"><path d="M170 209h19v-9h-19ZM150 209h19v-9h-19ZM130 209h19v-9h-19ZM110 209h19v-9h-19ZM90 209h19v-9H90ZM70 199h9v-19h-9ZM70 179h9v-19h-9ZM200 189h9v-19h-9ZM200 169h9v-19h-9ZM70 209h19v-9H70ZM190 149h19v-9h-19ZM170 149h19v-9h-19ZM150 149h19v-9h-19ZM130 149h19v-9h-19ZM110 149h19v-9h-19ZM90 149h19v-9H90ZM190 209h19v-19h-19ZM70 159h19v-19H70Z"/></g><g fill="#9a99b2" fill-rule="evenodd"><path d="M520 139h19v-9h-19ZM500 139h19v-9h-19ZM480 139h19v-9h-19ZM460 139h19v-9h-19ZM440 139h19v-9h-19ZM420 129h9v-19h-9ZM420 109h9V90h-9ZM550 119h9v-19h-9ZM550 99h9V80h-9ZM420 139h19v-9h-19ZM540 79h19v-9h-19ZM520 79h19v-9h-19ZM500 79h19v-9h-19ZM480 79h19v-9h-19ZM460 79h19v-9h-19ZM440 79h19v-9h-19ZM540 139h19v-19h-19ZM420 89h19V70h-19Z"/></g><g fill="#9a99b2" fill-rule="evenodd"><path d="M380 139h19v-9h-19ZM360 139h19v-9h-19ZM340 139h19v-9h-19ZM320 139h19v-9h-19ZM300 139h19v-9h-19ZM280 129h9v-19h-9ZM280 109h9V90h-9ZM410 119h9v-19h-9ZM410 99h9V80h-9ZM280 139h19v-9h-19ZM400 79h19v-9h-19ZM380 79h19v-9h-19ZM360 79h19v-9h-19ZM340 79h19v-9h-19ZM320 79h19v-9h-19ZM300 79h19v-9h-19ZM400 139h19v-19h-19ZM280 89h19V70h-19Z"/></g><g fill="#9a99b2" fill-rule="evenodd"><path d="M240 139h19v-9h-19ZM220 139h19v-9h-19ZM200 139h19v-9h-19ZM180 139h19v-9h-19ZM160 139h19v-9h-19ZM140 129h9v-19h-9ZM140 109h9V90h-9ZM270 119h9v-19h-9ZM270 99h9V80h-9ZM140 139h19v-9h-19ZM260 79h19v-9h-19ZM240 79h19v-9h-19ZM220 79h19v-9h-19ZM200 79h19v-9h-19ZM180 79h19v-9h-19ZM160 79h19v-9h-19ZM260 139h19v-19h-19ZM140 89h19V70h-19Z"/></g><g fill="#9a99b2" fill-rule="evenodd"><path d="M100 139h19v-9h-19ZM80 139h19v-9H80ZM60 139h19v-9H60ZM40 139h19v-9H40ZM20 139h19v-9H20ZM0 129h9v-19H0ZM0 109h9V90H0ZM130 119h9v-19h-9ZM130 99h9V80h-9ZM0 139h19v-9H0ZM120 79h19v-9h-19ZM100 79h19v-9h-19ZM80 79h19v-9H80ZM60 79h19v-9H60ZM40 79h19v-9H40ZM20 79h19v-9H20ZM120 139h19v-19h-19ZM0 89h19V70H0Z"/></g><g fill="#9a99b2" fill-rule="evenodd"><path d="M590 69h19v-9h-19ZM570 69h19v-9h-19ZM550 69h19v-9h-19ZM530 69h19v-9h-19ZM510 69h19v-9h-19ZM490 59h9V40h-9ZM490 39h9V20h-9ZM620 49h9V30h-9ZM620 29h9V10h-9ZM490 69h19v-9h-19ZM610 9h19V0h-19ZM590 9h19V0h-19ZM570 9h19V0h-19ZM550 9h19V0h-19ZM530 9h19V0h-19ZM510 9h19V0h-19ZM610 69h19V50h-19ZM490 19h19V0h-19Z"/></g><g fill="#9a99b2" fill-rule="evenodd"><path d="M450 69h19v-9h-19ZM430 69h19v-9h-19ZM410 69h19v-9h-19ZM390 69h19v-9h-19ZM370 69h19v-9h-19ZM350 59h9V40h-9ZM350 39h9V20h-9ZM480 49h9V30h-9ZM480 29h9V10h-9ZM350 69h19v-9h-19ZM470 9h19V0h-19ZM450 9h19V0h-19ZM430 9h19V0h-19ZM410 9h19V0h-19ZM390 9h19V0h-19ZM370 9h19V0h-19ZM470 69h19V50h-19ZM350 19h19V0h-19Z"/></g><g fill="#9a99b2" fill-rule="evenodd"><path d="M310 69h19v-9h-19ZM290 69h19v-9h-19ZM270 69h19v-9h-19ZM250 69h19v-9h-19ZM230 69h19v-9h-19ZM210 59h9V40h-9ZM210 39h9V20h-9ZM340 49h9V30h-9ZM340 29h9V10h-9ZM210 69h19v-9h-19ZM330 9h19V0h-19ZM310 9h19V0h-19ZM290 9h19V0h-19ZM270 9h19V0h-19ZM250 9h19V0h-19ZM230 9h19V0h-19ZM330 69h19V50h-19ZM210 19h19V0h-19Z"/></g><g fill="#9a99b2" fill-rule="evenodd"><path d="M170 69h19v-9h-19ZM150 69h19v-9h-19ZM130 69h19v-9h-19ZM110 69h19v-9h-19ZM90 69h19v-9H90ZM70 59h9V40h-9ZM70 39h9V20h-9ZM200 49h9V30h-9ZM200 29h9V10h-9ZM70 69h19v-9H70ZM190 9h19V0h-19ZM170 9h19V0h-19ZM150 9h19V0h-19ZM130 9h19V0h-19ZM110 9h19V0h-19ZM90 9h19V0H90ZM190 69h19V50h-19ZM70 19h19V0H70Z"/></g></svg>