<svg height="288" version="1" width="802" xmlns="http://www.w3.org/2000/svg" >
  <g fill="none" stroke="#f9fbff">
    <path d="M687 101h57v29h-57z" fill="#007aff" />
    <path d="M715 158h57v29h-57z" fill="#007aff" />
    <path d="M715 158h57v29h-57z" />
    <path d="M744 187h57v29h-57z" fill="#007aff" />
    <path d="M687 187h57v29h-57z" fill="#007aff" />
    <path d="M658 73h57v28h-57z" fill="#007aff" />
    <path d="M715 73h57v28h-57z" fill="#007aff" />
    <path d="M715 130h29v28h-29z" fill="#e50088" />
    <path d="M744 101h28v57h-28z" fill="#007aff" />
    <path d="M772 130h29v57h-29z" fill="#007aff" />
    <path d="M772 73h29v57h-29z" fill="#007aff" />
    <path d="M658 101h29v57h-29z" fill="#007aff" />
    <path d="M658 158h29v58h-29z" fill="#007aff" />
    <path d="M687 130h28v57h-28z" fill="#007aff" />
    <path d="M544 1h57v29h-57z" fill="#007aff" />
    <path d="M515 58h57v29h-57z" fill="#007aff" />
    <path d="M544 201h57v29h-57z" fill="#007aff" />
    <path d="M515 259h57v28h-57z" fill="#007aff" />
    <path d="M487 1h57v57h-57z" fill="#4d0074" />
    <path d="M572 230h58v57h-58z" fill="#4d0074" />
    <path d="M544 87h57v57h-57z" fill="#4d0074" />
    <path d="M515 144h57v57h-57z" fill="#4d0074" />
    <path d="M544 30h28v28h-28z" fill="#e50088" />
    <path d="M544 230h28v29h-28z" fill="#e50088" />
    <path d="M601 58h29v58h-29z" fill="#007aff" />
    <path d="M601 116h29v57h-29z" fill="#007aff" />
    <path d="M601 173h29v57h-29z" fill="#007aff" />
    <path d="M487 230h28v57h-28z" fill="#007aff" />
    <path d="M487 58h28v58h-28z" fill="#007aff" />
    <path d="M487 116h28v57h-28z" fill="#007aff" />
    <path d="M487 173h28v57h-28z" fill="#007aff" />
    <path d="M601 1h29v57h-29z" fill="#007aff" />
    <path d="M572 30h29v57h-29z" fill="#007aff" />
    <path d="M515 87h29v57h-29z" fill="#007aff" />
    <path d="M572 144h29v57h-29z" fill="#007aff" />
    <path d="M515 201h29v58h-29z" fill="#007aff" />
    <path d="M372 1h58v29h-58z" fill="#007aff" />
    <path d="M344 58h57v29h-57z" fill="#007aff" />
    <path d="M372 87h58v29h-58z" fill="#007aff" />
    <path d="M372 173h58v28h-58z" fill="#007aff" />
    <path d="M344 201h57v29h-57z" fill="#007aff" />
    <path d="M372 259h58v28h-58z" fill="#007aff" />
    <path d="M315 1h57v57h-57z" fill="#4d0074" />
    <path d="M315 230h57v57h-57z" fill="#4d0074" />
    <path d="M401 116h57v57h-57z" fill="#4d0074" />
    <path d="M372 30h29v28h-29z" fill="#e50088" />
    <path d="M372 230h29v29h-29z" fill="#e50088" />
    <path d="M430 58h28v58h-28z" fill="#007aff" />
    <path d="M430 173h28v57h-28z" fill="#007aff" />
    <path d="M430 230h28v57h-28z" fill="#007aff" />
    <path d="M401 201h29v58h-29z" fill="#007aff" />
    <path d="M315 58h29v58h-29z" fill="#007aff" />
    <path d="M315 116h29v57h-29z" fill="#007aff" />
    <path d="M315 173h29v57h-29z" fill="#007aff" />
    <path d="M430 1h28v57h-28z" fill="#007aff" />
    <path d="M401 30h29v57h-29z" fill="#007aff" />
    <path d="M344 87h28v57h-28z" fill="#007aff" />
    <path d="M344 144h28v57h-28z" fill="#007aff" />
    <path d="M372 116h29v57h-29z" fill="#007aff" />
    <path d="M58 1h57v29H58z" fill="#007aff" />
    <path d="M87 30h57v28H87z" fill="#007aff" />
    <path d="M115 1h57v29h-57z" fill="#007aff" />
    <path d="M172 1h58v29h-58z" fill="#007aff" />
    <path d="M201 58h57v29h-57z" fill="#007aff" />
    <path d="M172 87h58v29h-58z" fill="#007aff" />
    <path d="M115 87h57v29h-57z" fill="#007aff" />
    <path d="M58 259h57v28H58z" fill="#007aff" />
    <path d="M30 201h57v29H30z" fill="#007aff" />
    <path d="M58 173h57v28H58z" fill="#007aff" />
    <path d="M115 173h57v28h-57z" fill="#007aff" />
    <path d="M144 230h57v29h-57z" fill="#007aff" />
    <path d="M115 259h57v28h-57z" fill="#007aff" />
    <path d="M172 259h58v28h-58z" fill="#007aff" />
    <path d="M1 1h57v57H1z" fill="#4d0074" />
    <path d="M1 230h57v57H1z" fill="#4d0074" />
    <path d="M230 230h57v57h-57z" fill="#4d0074" />
    <path d="M201 144h57v57h-57z" fill="#4d0074" />
    <path d="M144 30h57v57h-57z" fill="#4d0074" />
    <path d="M30 87h57v57H30z" fill="#4d0074" />
    <path d="M87 201h57v58H87z" fill="#4d0074" />
    <path d="M87 116h57v57H87z" fill="#4d0074" />
    <path d="M144 116h57v57h-57z" fill="#4d0074" />
    <path d="M230 1h57v57h-57z" fill="#4d0074" />
    <path d="M30 58h28v29H30z" fill="#e50088" />
    <path d="M58 230h29v29H58z" fill="#e50088" />
    <path d="M144 201h28v29h-28z" fill="#e50088" />
    <path d="M58 144h29v29H58z" fill="#e50088" />
    <path d="M230 201h28v29h-28z" fill="#e50088" />
    <path d="M201 30h29v28h-29z" fill="#e50088" />
    <path d="M115 58h29v29h-29z" fill="#e50088" />
    <path d="M201 116h29v28h-29z" fill="#e50088" />
    <path d="M1 58h29v58H1z" fill="#007aff" />
    <path d="M58 30h29v57H58z" fill="#007aff" />
    <path d="M87 58h28v58H87z" fill="#007aff" />
    <path d="M1 116h29v57H1z" fill="#007aff" />
    <path d="M1 173h29v57H1z" fill="#007aff" />
    <path d="M30 144h28v57H30z" fill="#007aff" />
    <path d="M258 58h29v58h-29z" fill="#007aff" />
    <path d="M230 87h28v57h-28z" fill="#007aff" />
    <path d="M258 116h29v57h-29z" fill="#007aff" />
    <path d="M258 173h29v57h-29z" fill="#007aff" />
    <path d="M201 201h29v58h-29z" fill="#007aff" />
    <path d="M172 173h29v57h-29z" fill="#007aff" />
  </g>
</svg>
