<?xml version="1.0" encoding="UTF-8"?>
<!-- Generated by Pixelmator Pro 3.6 -->
<svg width="1800" height="450" viewBox="0 0 1800 450" xmlns="http://www.w3.org/2000/svg">
    <path id="Rectangle" fill="#f4a8c7" fill-rule="evenodd" stroke="none" d="M 0 450 L 1800 450 L 1800 0 L 0 0 Z"/>
    <g id="evo4">
        <path id="Path" fill="#fefefe" stroke="none" opacity="0.001" d="M 1420.435425 77.982056 L 1669.474854 60.373199 L 1606.58606 294.319336 L 1415.404297 176.088501 L 1775.12793 35.217712 L 1576.399536 88.04425 Z"/>
        <path id="path1" fill="#e03951" stroke="none" opacity="0.969389" d="M 1588.977295 7.546661 L 1767.581299 125.777496 L 1747.456909 143.386353 L 1390.248779 95.590912 L 1785.190186 113.199738 L 1528.604004 70.435394 Z"/>
        <path id="path2" fill="#fdffff" stroke="none" opacity="0.214844" d="M 1800.283447 103.137543 L 1624.194946 422.612396 L 1609.101685 17.608856 L 1621.679443 25.155487 L 1473.261963 339.599243 L 1410.373169 67.919861 Z"/>
        <path id="path3" fill="#ffffff" stroke="none" d="M 1629.226074 321.990417 L 1460.684204 274.194946 L 1568.852905 201.244003 L 1611.617188 7.546661 L 1548.728394 7.546661 L 1682.052612 135.839691 Z"/>
        <path id="path4" fill="#0485c6" stroke="none" d="M 1749.972412 228.915054 L 1606.58606 62.888763 L 1556.275146 367.270294 L 1526.088501 425.12796 L 1382.702148 289.288269 L 1689.599243 344.630341 Z"/>
        <path id="path5" fill="#ffffff" stroke="none" opacity="0.757813" d="M 1576.399536 37.733246 L 1697.145874 35.217712 L 1380.186646 274.194946 L 1777.643555 173.572937 L 1707.20813 0 L 1639.288208 384.87915 Z"/>
        <path id="path6" fill="#029ad2" stroke="none" d="M 1475.777466 412.550201 L 1405.342041 329.537048 L 1772.612427 108.16864 L 1596.523926 354.692566 L 1478.293091 193.697357 L 1724.816895 274.194946 Z"/>
        <path id="path7" fill="#039ed6" stroke="none" d="M 1425.466553 352.177002 L 1541.181763 384.87915 L 1417.9198 70.435394 L 1367.608887 98.106445 L 1498.41748 422.612396 L 1699.661499 236.4617 Z"/>
        <path id="path8" fill="#741100" stroke="none" opacity="0.859375" d="M 1732.363647 274.194946 L 1490.87085 201.244003 L 1405.342041 246.523895 L 1551.244019 367.270294 L 1674.505981 327.021484 L 1382.702148 67.919861 Z"/>
        <path id="path9" fill="#029fd7" stroke="none" opacity="0.839048" d="M 1397.79541 354.692566 L 1438.044189 103.137543 L 1719.785889 304.381531 L 1360.062256 57.857635 L 1417.9198 226.399506 L 1747.456909 213.821747 Z"/>
        <path id="path10" fill="#f8374d" stroke="none" opacity="0.910156" d="M 1352.515503 241.492798 L 1531.119629 342.114807 L 1777.643555 181.119598 L 1538.66626 347.145905 L 1765.065796 125.777496 L 1385.217651 259.101654 Z"/>
        <path id="path11" fill="#fefefe" stroke="none" opacity="0.001" d="M 1596.523926 309.412659 L 1747.456909 32.702148 L 1438.044189 65.404297 L 1689.599243 349.661438 L 1795.252319 128.29306 L 1365.093262 362.239197 Z"/>
        <path id="path12" fill="#6ad8fe" stroke="none" opacity="0.070722" d="M 1475.777466 216.337296 L 1654.381592 266.648315 L 1485.839722 382.363586 L 1687.08374 324.505951 L 1450.621948 332.052612 L 1737.394653 221.368393 Z"/>
        <path id="path13" fill="#ffffff" stroke="none" d="M 1350 228.915054 L 1410.373169 332.052612 L 1490.87085 168.54184 L 1365.093262 42.764343 L 1802.79895 274.194946 L 1528.604004 198.728455 Z"/>
        <path id="path14" fill="#001a01" stroke="none" opacity="0.910156" d="M 1470.74646 231.430603 L 1573.883911 93.075348 L 1624.194946 332.052612 L 1495.901855 334.568146 L 1707.20813 339.599243 L 1669.474854 118.230835 Z"/>
        <path id="path15" fill="#2b031b" stroke="none" opacity="0.00931" d="M 1526.088501 337.083679 L 1435.528687 332.052612 L 1609.101685 22.639954 L 1538.66626 402.488007 L 1355.031128 93.075348 L 1387.733276 57.857635 Z"/>
        <path id="path16" fill="#07e9f5" stroke="none" opacity="0.999032" d="M 1732.363647 337.083679 L 1634.257202 77.982056 L 1802.79895 138.355255 L 1485.839722 405.00354 L 1744.941406 274.194946 L 1621.679443 324.505951 Z"/>
        <path id="path17" fill="#fefefe" stroke="none" opacity="0.001" d="M 1621.679443 417.581299 L 1430.497559 284.257141 L 1498.41748 238.977249 L 1757.519043 186.150696 L 1357.546631 83.013153 L 1588.977295 354.692566 Z"/>
        <path id="path18" fill="#ffffff" stroke="none" opacity="0.996094" d="M 1694.630371 296.8349 L 1508.479614 20.12439 L 1591.492798 30.186615 L 1422.950928 83.013153 L 1782.674561 244.008347 L 1729.848022 83.013153 Z"/>
        <path id="path19" fill="#ed405a" stroke="none" opacity="0.941617" d="M 1508.479614 286.772705 L 1661.928223 294.319336 L 1682.052612 133.324158 L 1548.728394 211.306198 L 1664.443726 88.04425 L 1649.350464 32.702148 Z"/>
        <path id="path20" fill="#fefefe" stroke="none" opacity="0.001" d="M 1689.599243 407.519104 L 1649.350464 75.466492 L 1649.350464 349.661438 L 1611.617188 238.977249 L 1621.679443 294.319336 L 1624.194946 324.505951 Z"/>
        <path id="path21" fill="#ffffff" stroke="none" opacity="0.746094" d="M 1563.821777 238.977249 L 1440.559814 72.950958 L 1485.839722 145.901886 L 1360.062256 55.342102 L 1443.075317 447.767883 L 1357.546631 62.888763 Z"/>
        <path id="path22" fill="#0062bd" stroke="none" opacity="0.557673" d="M 1755.00354 105.653107 L 1692.114746 251.554993 L 1513.510742 364.754761 L 1734.87915 332.052612 L 1631.741577 85.528687 L 1707.20813 95.590912 Z"/>
        <path id="path23" fill="#ffffff" stroke="none" d="M 1654.381592 138.355255 L 1430.497559 183.635162 L 1412.888794 399.972443 L 1350 208.790649 L 1646.834839 120.746399 L 1780.159058 440.221252 Z"/>
        <path id="path24" fill="#ffffff" stroke="none" opacity="0.617188" d="M 1455.653076 221.368393 L 1503.448608 62.888763 L 1724.816895 203.759552 L 1440.559814 236.4617 L 1594.008301 309.412659 L 1679.536987 2.515564 Z"/>
        <path id="path25" fill="#ffffff" stroke="none" opacity="0.644531" d="M 1556.275146 450.283447 L 1588.977295 445.25235 L 1410.373169 289.288269 L 1679.536987 435.190155 L 1614.13269 196.212906 L 1780.159058 103.137543 Z"/>
        <path id="path26" fill="#fffffe" stroke="none" opacity="0.671875" d="M 1536.150757 198.728455 L 1505.964111 228.915054 L 1599.039429 218.852844 L 1757.519043 226.399506 L 1674.505981 294.319336 L 1624.194946 183.635162 Z"/>
        <path id="path27" fill="#fefefe" stroke="none" opacity="0.001" d="M 1641.803833 279.226044 L 1453.137573 7.546661 L 1377.671021 349.661438 L 1782.674561 274.194946 L 1463.199707 440.221252 L 1543.697388 389.910248 Z"/>
        <path id="path28" fill="#c9071f" stroke="none" opacity="0.763129" d="M 1591.492798 52.826538 L 1606.58606 203.759552 L 1523.572998 67.919861 L 1541.181763 256.586121 L 1533.635132 171.057404 L 1609.101685 143.386353 Z"/>
        <path id="path29" fill="#ffffff" stroke="none" opacity="0.999284" d="M 1707.20813 357.208099 L 1802.79895 128.29306 L 1382.702148 249.039444 L 1543.697388 163.510742 L 1677.021484 193.697357 L 1802.79895 402.488007 Z"/>
        <path id="path30" fill="#dc2740" stroke="none" opacity="0.832031" d="M 1649.350464 67.919861 L 1480.808594 256.586121 L 1594.008301 311.928192 L 1669.474854 40.24881 L 1558.790649 27.671051 L 1646.834839 203.759552 Z"/>
        <path id="path31" fill="#ffffff" stroke="none" d="M 1727.33252 299.350464 L 1596.523926 191.181793 L 1729.848022 304.381531 L 1749.972412 118.230835 L 1536.150757 208.790649 L 1433.013184 50.311005 Z"/>
        <path id="path32" fill="#71bedd" stroke="none" opacity="0.003552" d="M 1656.897095 7.546661 L 1581.430542 60.373199 L 1666.959351 394.941345 L 1380.186646 251.554993 L 1689.599243 120.746399 L 1465.715332 27.671051 Z"/>
        <path id="path33" fill="#fefefe" stroke="none" opacity="0.001" d="M 1749.972412 369.785858 L 1566.33728 286.772705 L 1576.399536 80.497589 L 1727.33252 83.013153 L 1508.479614 17.608856 L 1614.13269 246.523895 Z"/>
        <path id="path34" fill="#000000" stroke="none" opacity="0.001" d="M 1639.288208 188.66626 L 1445.590942 352.177002 L 1747.456909 437.705688 L 1558.790649 150.933014 L 1714.754761 118.230835 L 1352.515503 374.816956 Z"/>
        <path id="path35" fill="#000000" stroke="none" opacity="0.001" d="M 1709.723633 377.332489 L 1604.070557 15.093292 L 1591.492798 362.239197 L 1573.883911 352.177002 L 1780.159058 42.764343 L 1737.394653 271.679382 Z"/>
    </g>
    <g id="evo2">
        <path id="path36" fill="#fefefe" stroke="none" opacity="0.001" d="M 526.301392 78.420166 L 776.73999 60.712372 L 713.497925 295.972839 L 521.242065 177.077759 L 882.986633 35.415558 L 683.141724 88.538879 Z"/>
        <path id="path37" fill="#e3394d" stroke="none" opacity="0.974712" d="M 698.319824 10.118744 L 860.219482 136.602844 L 829.863281 154.310608 L 523.771729 86.009186 L 898.164734 129.013794 L 640.137146 70.831116 Z"/>
        <path id="path38" fill="#fefefe" stroke="none" opacity="0.001" d="M 738.794739 118.895081 L 759.032166 450.283447 L 490.885864 53.123322 L 817.214905 10.118744 L 538.949829 134.073151 L 488.356201 288.383789 Z"/>
        <path id="path39" fill="#fefefe" stroke="none" opacity="0.933948" d="M 612.310608 288.383789 L 604.721558 399.689789 L 675.552673 245.379181 L 710.968201 10.118744 L 650.255859 0 L 723.616638 134.073151 Z"/>
        <path id="path40" fill="#f640cb" stroke="none" opacity="0.940065" d="M 784.329041 121.424744 L 718.557251 65.771729 L 728.676025 10.118744 L 665.43396 260.557281 L 812.155518 209.963623 L 506.063965 346.566467 Z"/>
        <path id="path41" fill="#fefefe" stroke="none" opacity="0.523929" d="M 708.438538 43.004608 L 829.863281 15.178101 L 680.612061 270.676025 L 888.045959 123.954437 L 814.685181 0 L 802.036804 407.278839 Z"/>
        <path id="path42" fill="#326dc0" stroke="none" opacity="0.743128" d="M 624.959045 404.749176 L 511.123322 316.210266 L 837.452332 338.977417 L 513.653015 351.625854 L 657.84491 263.086975 L 827.333618 217.552673 Z"/>
        <path id="path43" fill="#089dd1" stroke="none" opacity="0.987821" d="M 683.141724 346.566467 L 657.84491 341.507111 L 521.242065 83.479523 L 475.707764 96.12793 L 581.954407 430.04599 L 865.27887 215.022995 Z"/>
        <path id="path44" fill="#f91d29" stroke="none" opacity="0.755439" d="M 531.360779 245.379181 L 877.927246 177.077759 L 503.534271 247.908859 L 652.785522 364.274231 L 802.036804 328.858704 L 807.09613 222.612045 Z"/>
        <path id="path45" fill="#04a0d8" stroke="none" opacity="0.993873" d="M 508.593658 374.392975 L 561.71698 25.296814 L 817.214905 285.854095 L 460.529694 58.182678 L 533.890442 207.433945 L 817.214905 217.552673 Z"/>
        <path id="path46" fill="#f5374b" stroke="none" opacity="0.901493" d="M 473.178101 207.433945 L 619.899658 356.685211 L 794.447754 73.360779 L 536.420166 53.123322 L 900.694397 121.424744 L 746.383789 113.835693 Z"/>
        <path id="path47" fill="#fefefe" stroke="none" opacity="0.001" d="M 703.379211 311.15094 L 855.160095 32.885864 L 544.009216 65.771729 L 796.977417 351.625854 L 903.22406 129.013794 L 470.648407 364.274231 Z"/>
        <path id="path48" fill="#ecf7f3" stroke="none" opacity="0.025902" d="M 617.369995 336.447754 L 812.155518 35.415558 L 612.310608 32.885864 L 888.045959 326.32901 L 564.246643 333.91806 L 867.808533 250.438553 Z"/>
        <path id="path49" fill="#fffefe" stroke="none" opacity="0.979254" d="M 485.826508 268.146301 L 513.653015 333.91806 L 607.251282 172.018402 L 473.178101 40.474915 L 799.50708 295.972839 L 584.484131 149.251251 Z"/>
        <path id="path50" fill="#1b2507" stroke="none" opacity="0.937032" d="M 579.424744 232.730774 L 604.721558 172.018402 L 627.488708 182.137115 L 728.676025 283.324402 L 804.566467 212.493317 L 791.918091 83.479523 Z"/>
        <path id="path51" fill="#211008" stroke="none" opacity="0.00931" d="M 609.780945 308.621246 L 655.315247 344.036804 L 733.735352 7.58905 L 642.666809 435.105347 L 458 80.949829 L 495.945221 63.242065 Z"/>
        <path id="path52" fill="#05f3f7" stroke="none" opacity="0.999032" d="M 852.630432 346.566467 L 743.854126 75.890472 L 905.753784 136.602844 L 584.484131 407.278839 L 855.160095 278.265045 L 743.854126 328.858704 Z"/>
        <path id="path53" fill="#fefefe" stroke="none" opacity="0.001" d="M 728.676025 419.927246 L 536.420166 285.854095 L 604.721558 240.319824 L 865.27887 187.196503 L 463.059357 83.479523 L 695.790161 356.685211 Z"/>
        <path id="path54" fill="#fefefe" stroke="none" opacity="0.998922" d="M 799.50708 303.56189 L 609.780945 12.648407 L 554.12793 27.826508 L 513.653015 88.538879 L 751.443115 245.379181 L 845.041382 111.30603 Z"/>
        <path id="path55" fill="#f33b80" stroke="none" opacity="0.908405" d="M 589.543457 275.735352 L 751.443115 306.091553 L 880.45697 121.424744 L 544.009216 232.730774 L 736.265076 93.598236 L 791.918091 40.474915 Z"/>
        <path id="path56" fill="#fefefe" stroke="none" opacity="0.001" d="M 796.977417 409.808533 L 756.502502 75.890472 L 756.502502 351.625854 L 718.557251 240.319824 L 728.676025 295.972839 L 731.205688 326.32901 Z"/>
        <path id="path57" fill="#fefefe" stroke="none" opacity="0.680826" d="M 675.552673 240.319824 L 632.548096 131.543488 L 622.429321 139.132538 L 473.178101 58.182678 L 460.529694 15.178101 L 460.529694 65.771729 Z"/>
        <path id="path58" fill="#015cba" stroke="none" opacity="0.56126" d="M 855.160095 101.187286 L 802.036804 252.968231 L 614.840332 366.803925 L 845.041382 338.977417 L 723.616638 80.949829 L 817.214905 96.12793 Z"/>
        <path id="path59" fill="#fefefe" stroke="none" opacity="0.979155" d="M 764.091553 144.191895 L 533.890442 247.908859 L 521.242065 440.164703 L 460.529694 207.433945 L 751.443115 123.954437 L 872.86792 389.571075 Z"/>
        <path id="path60" fill="#fefefe" stroke="none" opacity="0.605368" d="M 609.780945 177.077759 L 597.132507 63.242065 L 822.274231 194.785538 L 566.776367 237.790131 L 698.319824 318.73999 L 794.447754 0 Z"/>
        <path id="path61" fill="#fffefe" stroke="none" opacity="0.546931" d="M 660.374573 447.753754 L 698.319824 440.164703 L 508.593658 290.913452 L 839.982056 442.694397 L 645.196472 207.433945 L 895.63501 98.657623 Z"/>
        <path id="path62" fill="#fefffe" stroke="none" opacity="0.938366" d="M 726.146301 275.735352 L 761.56189 159.369995 L 817.214905 156.840302 L 893.105347 230.201096 L 779.269653 290.913452 L 726.146301 177.077759 Z"/>
        <path id="path63" fill="#fefefe" stroke="none" opacity="0.001" d="M 748.913452 280.794739 L 559.187317 7.58905 L 483.296814 351.625854 L 890.575684 275.735352 L 569.30603 442.694397 L 650.255859 392.100769 Z"/>
        <path id="path64" fill="#020305" stroke="none" opacity="0.005198" d="M 786.858704 349.096161 L 713.497925 53.123322 L 624.959045 174.548065 L 657.84491 235.260452 L 458 151.780945 L 602.191895 260.557281 Z"/>
        <path id="path65" fill="#fefefe" stroke="none" opacity="0.994945" d="M 814.685181 356.685211 L 908.283447 116.365387 L 506.063965 250.438553 L 597.132507 159.369995 L 746.383789 182.137115 L 893.105347 381.982025 Z"/>
        <path id="path66" fill="#dc2739" stroke="none" opacity="0.826898" d="M 764.091553 30.356201 L 592.073181 273.205688 L 716.027588 318.73999 L 789.388367 48.063965 L 662.904236 30.356201 L 764.091553 207.433945 Z"/>
        <path id="path67" fill="#fefefe" stroke="none" opacity="0.9922" d="M 837.452332 285.854095 L 718.557251 182.137115 L 834.922668 308.621246 L 875.397583 111.30603 L 698.319824 194.785538 L 483.296814 58.182678 Z"/>
        <path id="path68" fill="#78dff0" stroke="none" opacity="0.003552" d="M 761.56189 65.771729 L 890.575684 156.840302 L 784.329041 422.45694 L 528.831116 227.671402 L 774.210266 255.49791 L 723.616638 55.653015 Z"/>
        <path id="path69" fill="#fefefe" stroke="none" opacity="0.001" d="M 857.689819 371.863281 L 673.02301 288.383789 L 683.141724 80.949829 L 834.922668 83.479523 L 614.840332 17.707764 L 721.086975 247.908859 Z"/>
        <path id="path70" fill="#000000" stroke="none" opacity="0.001" d="M 746.383789 189.726166 L 551.598267 354.155518 L 855.160095 440.164703 L 665.43396 151.780945 L 822.274231 118.895081 L 458 376.922668 Z"/>
        <path id="path71" fill="#000000" stroke="none" opacity="0.001" d="M 817.214905 379.452332 L 710.968201 15.178101 L 698.319824 364.274231 L 680.612061 354.155518 L 888.045959 43.004608 L 845.041382 273.205688 Z"/>
    </g>
    <g id="evo3">
        <path id="path72" fill="#fefefe" stroke="none" opacity="0.001" d="M 975.919861 77.982056 L 1224.959351 60.373199 L 1162.070557 294.319336 L 970.888733 176.088501 L 1330.612427 35.217712 L 1131.883911 88.04425 Z"/>
        <path id="path73" fill="#de3952" stroke="none" opacity="0.969389" d="M 1146.977295 10.062195 L 1315.519043 125.777496 L 1287.848022 153.448547 L 973.404297 85.528687 L 1345.705688 113.199738 L 1089.119629 70.435394 Z"/>
        <path id="path74" fill="#fef9fb" stroke="none" opacity="0.040929" d="M 1187.226074 118.230835 L 1358.283447 264.132751 L 1119.306152 52.826538 L 1227.474854 10.062195 L 988.49762 284.257141 L 938.186584 10.062195 Z"/>
        <path id="path75" fill="#fefefe" stroke="none" opacity="0.996674" d="M 1184.710449 321.990417 L 1016.16864 274.194946 L 1124.33728 226.399506 L 1159.555054 10.062195 L 1099.181763 7.546661 L 1172.13269 133.324158 Z"/>
        <path id="path76" fill="#82030d" stroke="none" opacity="0.963319" d="M 1262.692505 108.16864 L 1167.101685 65.404297 L 1101.697388 342.114807 L 1119.306152 150.933014 L 983.466492 266.648315 L 1232.505981 344.630341 Z"/>
        <path id="path77" fill="#fefefe" stroke="none" opacity="0.62161" d="M 1136.915039 35.217712 L 1265.20813 37.733246 L 930.639954 274.194946 L 1313.00354 155.964111 L 1262.692505 0 L 1209.865967 319.474854 Z"/>
        <path id="path78" fill="#0094c2" stroke="none" opacity="0.972765" d="M 1023.715271 410.034637 L 960.826538 329.537048 L 1167.101685 113.199738 L 1051.386353 415.065735 L 993.528687 284.257141 L 1275.270264 246.523895 Z"/>
        <path id="path79" fill="#069dd9" stroke="none" opacity="0.994364" d="M 1001.075378 354.692566 L 1106.728394 339.599243 L 968.37323 83.013153 L 923.093323 98.106445 L 1053.901855 427.643494 L 1277.785889 233.946152 Z"/>
        <path id="path80" fill="#d91b2a" stroke="none" opacity="0.821249" d="M 1295.394653 342.114807 L 1046.355225 196.212906 L 938.186584 246.523895 L 1101.697388 362.239197 L 1235.021484 327.021484 L 1121.821777 25.155487 Z"/>
        <path id="path81" fill="#03a0d8" stroke="none" opacity="0.8003" d="M 958.310974 357.208099 L 1011.137573 90.559814 L 1255.145874 231.430603 L 915.546631 57.857635 L 968.37323 216.337296 L 1290.363647 213.821747 Z"/>
        <path id="path82" fill="#f7374b" stroke="none" opacity="0.904906" d="M 923.093323 206.275101 L 1068.995239 344.630341 L 1333.12793 188.66626 L 1081.572998 349.661438 L 1302.941406 128.29306 L 940.702148 259.101654 Z"/>
        <path id="path83" fill="#fefefe" stroke="none" opacity="0.001" d="M 1152.008301 309.412659 L 1302.941406 32.702148 L 993.528687 65.404297 L 1245.08374 349.661438 L 1350.736816 128.29306 L 920.577759 362.239197 Z"/>
        <path id="path84" fill="#0ec8f3" stroke="none" opacity="0.070722" d="M 1119.306152 279.226044 L 1217.412598 271.679382 L 1033.777466 387.394714 L 1189.741577 324.505951 L 1008.622009 332.052612 L 1295.394653 221.368393 Z"/>
        <path id="path85" fill="#fffffe" stroke="none" opacity="0.985794" d="M 935.671021 266.648315 L 963.342102 332.052612 L 1051.386353 171.057404 L 918.062195 40.24881 L 1265.20813 296.8349 L 1033.777466 178.604034 Z"/>
        <path id="path86" fill="#0c1f02" stroke="none" opacity="0.987028" d="M 1028.74646 231.430603 L 1131.883911 98.106445 L 1164.58606 332.052612 L 1031.261963 334.568146 L 1277.785889 339.599243 L 1217.412598 83.013153 Z"/>
        <path id="path87" fill="#2c0303" stroke="none" opacity="0.00931" d="M 1136.915039 306.897095 L 1192.257202 286.772705 L 1141.946167 148.41745 L 1091.635132 432.674591 L 908 80.497589 L 945.733276 62.888763 Z"/>
        <path id="path88" fill="#05eff7" stroke="none" opacity="0.999032" d="M 1300.425781 339.599243 L 1192.257202 75.466492 L 1353.252319 135.839691 L 1041.324097 405.00354 L 1302.941406 276.71051 L 1192.257202 327.021484 Z"/>
        <path id="path89" fill="#fefefe" stroke="none" opacity="0.001" d="M 1177.163818 417.581299 L 985.982056 284.257141 L 1053.901855 238.977249 L 1313.00354 186.150696 L 913.031128 83.013153 L 1144.46167 354.692566 Z"/>
        <path id="path90" fill="#fefefe" stroke="none" opacity="0.998922" d="M 1247.599243 301.865997 L 1058.932983 12.577759 L 1104.212891 27.671051 L 963.342102 88.04425 L 1214.897095 249.039444 L 1292.87915 110.684204 Z"/>
        <path id="path91" fill="#f34572" stroke="none" opacity="0.921967" d="M 1038.808594 274.194946 L 1209.865967 299.350464 L 1250.114746 120.746399 L 1116.790649 231.430603 L 1184.710449 105.653107 L 1224.959351 40.24881 Z"/>
        <path id="path92" fill="#fefefe" stroke="none" opacity="0.001" d="M 1245.08374 407.519104 L 1204.834839 75.466492 L 1204.834839 349.661438 L 1167.101685 238.977249 L 1177.163818 294.319336 L 1179.679443 324.505951 Z"/>
        <path id="path93" fill="#fefefe" stroke="none" opacity="0.685675" d="M 1124.33728 238.977249 L 1081.572998 5.031097 L 1038.808594 138.355255 L 915.546631 57.857635 L 925.608826 108.16864 L 910.515564 65.404297 Z"/>
        <path id="path94" fill="#015cba" stroke="none" opacity="0.56126" d="M 1302.941406 100.622009 L 1250.114746 251.554993 L 1063.964111 364.754761 L 1292.87915 337.083679 L 1177.163818 75.466492 L 1265.20813 95.590912 Z"/>
        <path id="path95" fill="#fefefe" stroke="none" opacity="0.99218" d="M 1212.381592 143.386353 L 985.982056 183.635162 L 970.888733 392.425781 L 908 206.275101 L 1204.834839 123.261963 L 1323.065796 437.705688 Z"/>
        <path id="path96" fill="#fefefe" stroke="none" opacity="0.605368" d="M 1013.653076 208.790649 L 1046.355225 62.888763 L 1287.848022 193.697357 L 1016.16864 236.4617 L 1152.008301 314.443726 L 1242.568115 0 Z"/>
        <path id="path97" fill="#fffffe" stroke="none" opacity="0.593703" d="M 1109.244019 450.283447 L 1146.977295 437.705688 L 958.310974 289.288269 L 1265.20813 440.221252 L 1149.492798 198.728455 L 1343.190186 98.106445 Z"/>
        <path id="path98" fill="#fffffe" stroke="none" opacity="0.810666" d="M 1126.852905 196.212906 L 1285.33252 231.430603 L 1265.20813 281.741577 L 1340.674561 218.852844 L 1227.474854 289.288269 L 1174.648315 178.604034 Z"/>
        <path id="path99" fill="#fefefe" stroke="none" opacity="0.001" d="M 1197.288208 279.226044 L 1008.622009 7.546661 L 933.155518 349.661438 L 1338.159058 274.194946 L 1018.684204 440.221252 L 1099.181763 389.910248 Z"/>
        <path id="path100" fill="#ca0721" stroke="none" opacity="0.763129" d="M 1146.977295 57.857635 L 1162.070557 196.212906 L 1076.54187 67.919861 L 1106.728394 218.852844 L 1091.635132 178.604034 L 1169.617188 166.026306 Z"/>
        <path id="path101" fill="#fefeff" stroke="none" opacity="0.994945" d="M 1262.692505 354.692566 L 1355.767944 120.746399 L 950.764343 249.039444 L 1046.355225 163.510742 L 1219.928223 181.119598 L 1340.674561 402.488007 Z"/>
        <path id="path102" fill="#dc273d" stroke="none" opacity="0.826898" d="M 1212.381592 40.24881 L 1041.324097 274.194946 L 1164.58606 314.443726 L 1229.990356 37.733246 L 1111.759521 30.186615 L 1212.381592 206.275101 Z"/>
        <path id="path103" fill="#fffffe" stroke="none" opacity="0.9922" d="M 1285.33252 279.226044 L 1167.101685 206.275101 L 1282.816895 306.897095 L 1330.612427 118.230835 L 1111.759521 193.697357 L 973.404297 57.857635 Z"/>
        <path id="path104" fill="#73bee3" stroke="none" opacity="0.003552" d="M 1237.536987 15.093292 L 1141.946167 75.466492 L 1237.536987 440.221252 L 948.248779 236.4617 L 1280.301392 118.230835 L 1124.33728 40.24881 Z"/>
        <path id="path105" fill="#fefefe" stroke="none" opacity="0.001" d="M 1305.456909 369.785858 L 1121.821777 286.772705 L 1131.883911 80.497589 L 1282.816895 83.013153 L 1063.964111 17.608856 L 1169.617188 246.523895 Z"/>
        <path id="path106" fill="#000000" stroke="none" opacity="0.001" d="M 1194.772705 188.66626 L 1001.075378 352.177002 L 1302.941406 437.705688 L 1114.275146 150.933014 L 1270.239258 118.230835 L 908 374.816956 Z"/>
        <path id="path107" fill="#000000" stroke="none" opacity="0.001" d="M 1265.20813 377.332489 L 1159.555054 15.093292 L 1146.977295 362.239197 L 1129.368408 352.177002 L 1335.643555 42.764343 L 1292.87915 271.679382 Z"/>
    </g>
    <g id="evo1">
        <path id="path108" fill="#fefefe" stroke="none" opacity="0.001" d="M 69.4515 72.023773 L 324.106995 54.017822 L 259.800049 293.239685 L 64.306946 172.342621 L 432.14267 28.295044 L 228.932724 82.312897 Z"/>
        <path id="path109" fill="#fefefe" stroke="none" opacity="0.001" d="M 231.505005 2.572266 L 244.366394 213.499054 L 18.005945 236.649551 L 97.746559 128.613892 L 360.118896 295.811951 L 149.192108 383.269409 Z"/>
        <path id="path110" fill="#fefefe" stroke="none" opacity="0.001" d="M 285.522827 113.180237 L 306.101044 450.148621 L 33.439613 46.300995 L 365.263458 2.572266 L 82.312889 128.613892 L 30.867334 285.522827 Z"/>
        <path id="path111" fill="#fefefe" stroke="none" opacity="0.001" d="M 221.215897 300.956482 L 174.914886 223.788162 L 164.625778 48.873291 L 30.867334 424.425842 L 429.570404 159.481232 L 275.233734 138.903015 Z"/>
        <path id="path112" fill="#fefefe" stroke="none" opacity="0.001" d="M 331.823822 432.14267 L 151.764389 442.431793 L 380.697113 25.722778 L 28.295055 216.071335 L 15.433667 254.655502 L 136.330719 249.510941 Z"/>
        <path id="path113" fill="#fefefe" stroke="none" opacity="0.001" d="M 254.655502 115.752502 L 365.263458 226.360443 L 437.287231 401.27533 L 69.4515 156.908936 L 406.419891 442.431793 L 426.998108 419.281281 Z"/>
        <path id="path114" fill="#fe1dfe" stroke="none" opacity="0.486362" d="M 264.944611 290.667389 L 159.481216 131.186157 L 90.029724 275.233704 L 141.475281 349.829773 L 259.800049 169.770325 L 123.469337 213.499054 Z"/>
        <path id="path115" fill="#087ed1" stroke="none" opacity="0.967066" d="M 223.788162 28.295044 L 203.209946 352.402069 L 64.306946 77.168335 L 18.005945 133.758453 L 126.041611 429.570404 L 218.643616 200.637665 Z"/>
        <path id="path116" fill="#f9430e" stroke="none" opacity="0.809757" d="M 378.124847 228.932724 L 105.463387 318.962463 L 126.041611 48.873291 L 198.065384 378.124847 L 198.065384 326.679291 L 308.67334 239.221832 Z"/>
        <path id="path117" fill="#1f1b95" stroke="none" opacity="0.206819" d="M 48.87328 372.980286 L 108.035667 118.324768 L 362.691162 18.005951 L 2.572278 79.740601 L 128.613892 203.209946 L 226.360443 149.192108 Z"/>
        <path id="path118" fill="#eb3482" stroke="none" opacity="0.787967" d="M 15.433667 203.209946 L 164.625778 439.859497 L 365.263458 43.728729 L 38.584167 46.300995 L 450.148621 115.752502 L 293.239655 108.035675 Z"/>
        <path id="path119" fill="#fefefe" stroke="none" opacity="0.001" d="M 249.510941 308.67334 L 403.847626 25.722778 L 87.457443 59.162384 L 344.685211 349.829773 L 452.720886 123.46933 L 12.861389 362.691162 Z"/>
        <path id="path120" fill="#fefefe" stroke="none" opacity="0.001" d="M 5.144556 59.162384 L 367.835724 108.035675 L 74.596054 10.289124 L 249.510941 439.859497 L 100.318832 316.390167 L 342.112946 28.295044 Z"/>
        <path id="path121" fill="#fefefe" stroke="none" opacity="0.858443" d="M 28.295055 156.908936 L 54.017834 318.962463 L 151.764389 182.631714 L 15.433667 33.439606 L 421.853546 370.40802 L 33.439613 144.047546 Z"/>
        <path id="path122" fill="#fefefe" stroke="none" opacity="0.001" d="M 123.469337 246.938675 L 272.661438 275.233704 L 408.992157 56.590118 L 318.962433 280.378296 L 144.047562 100.318848 L 329.251556 56.590118 Z"/>
        <path id="path123" fill="#fefefe" stroke="none" opacity="0.001" d="M 154.33667 306.101074 L 339.54068 36.011902 L 311.245605 182.631714 L 203.209946 390.986237 L 46.300999 0 L 38.584167 84.885162 Z"/>
        <path id="path124" fill="#54fefe" stroke="none" opacity="0.741438" d="M 383.269379 344.685242 L 92.601997 87.457458 L 457.865448 131.186157 L 128.613892 406.419891 L 406.419891 288.095093 L 401.27533 270.089172 Z"/>
        <path id="path125" fill="#fefefe" stroke="none" opacity="0.001" d="M 275.233734 419.281281 L 79.740608 282.950562 L 149.192108 236.649551 L 414.136719 182.631714 L 5.144556 77.168335 L 241.794113 354.974335 Z"/>
        <path id="path126" fill="#fefefe" stroke="none" opacity="0.947754" d="M 311.245605 303.528778 L 154.33667 5.144562 L 95.174278 20.578217 L 56.590111 64.306946 L 231.505005 298.384216 L 432.14267 318.962463 Z"/>
        <path id="path127" fill="#feedf1" stroke="none" opacity="0.027062" d="M 149.192108 264.944611 L 424.425842 262.372314 L 457.865448 36.011902 L 7.716834 295.811951 L 298.384216 295.811951 L 306.101044 33.439606 Z"/>
        <path id="path128" fill="#fefefe" stroke="none" opacity="0.001" d="M 344.685211 408.992188 L 303.528778 69.451508 L 303.528778 349.829773 L 264.944611 236.649551 L 275.233734 293.239685 L 277.806 324.106995 Z"/>
        <path id="path129" fill="#fefefe" stroke="none" opacity="0.461282" d="M 228.932724 236.649551 L 445.004059 182.631714 L 167.198059 61.73468 L 18.005945 411.564453 L 226.360443 33.439606 L 408.992157 390.986237 Z"/>
        <path id="path130" fill="#054f9b" stroke="none" opacity="0.607944" d="M 403.847626 87.457458 L 280.378296 236.649551 L 54.017834 365.263458 L 390.986237 336.968384 L 270.089172 105.463379 L 344.685211 84.885162 Z"/>
        <path id="path131" fill="#fefefe" stroke="none" opacity="0.979155" d="M 311.245605 138.903015 L 77.168335 244.366394 L 38.584167 401.27533 L 23.150499 205.782227 L 298.384216 74.596069 L 442.431793 388.41394 Z"/>
        <path id="path132" fill="#fefefe" stroke="none" opacity="0.258655" d="M 59.162388 172.342621 L 118.324776 84.885162 L 367.835724 190.348572 L 28.295055 234.077286 L 244.366394 306.101074 L 30.867334 28.295044 Z"/>
        <path id="path133" fill="#fefefe" stroke="none" opacity="0.474738" d="M 228.932724 447.576324 L 190.348557 421.853546 L 54.017834 288.095093 L 388.41394 424.425842 L 216.071335 195.493118 L 445.004059 15.433655 Z"/>
        <path id="path134" fill="#fefefe" stroke="none" opacity="0.926739" d="M 432.14267 61.73468 L 406.419891 30.86734 L 311.245605 182.631714 L 442.431793 90.029724 L 326.679291 303.528778 L 272.661438 174.914886 Z"/>
        <path id="path135" fill="#fefefe" stroke="none" opacity="0.001" d="M 295.811951 277.806 L 102.891113 0 L 25.722778 349.829773 L 439.859497 272.661438 L 113.180222 442.431793 L 195.493118 390.986237 Z"/>
        <path id="path136" fill="#fefefe" stroke="none" opacity="0.001" d="M 138.903 347.257507 L 429.570404 20.578217 L 15.433667 401.27533 L 151.764389 231.505005 L 437.287231 187.776276 L 334.396118 259.800049 Z"/>
        <path id="path137" fill="#fefefe" stroke="none" opacity="0.121972" d="M 239.221832 254.655502 L 457.865448 110.607941 L 195.493118 146.619843 L 138.903 23.150513 L 393.558502 167.198059 L 442.431793 30.86734 Z"/>
        <path id="path138" fill="#d82d32" stroke="none" opacity="0.758343" d="M 311.245605 23.150513 L 118.324776 270.089172 L 262.372345 334.396118 L 336.968384 43.728729 L 208.354507 38.584167 L 311.245605 33.439606 Z"/>
        <path id="path139" fill="#fefefe" stroke="none" opacity="0.760741" d="M 372.980286 282.950562 L 293.239655 25.722778 L 383.269379 306.101074 L 360.118896 87.457458 L 267.516907 198.065384 L 28.295055 51.445557 Z"/>
        <path id="path140" fill="#fefefe" stroke="none" opacity="0.001" d="M 308.67334 439.859497 L 408.992157 298.384216 L 331.823822 421.853546 L 72.023781 223.788162 L 195.493118 252.083221 L 210.926773 48.873291 Z"/>
        <path id="path141" fill="#fefefe" stroke="none" opacity="0.001" d="M 406.419891 370.40802 L 218.643616 285.522827 L 228.932724 74.596069 L 383.269379 77.168335 L 159.481216 10.289124 L 267.516907 244.366394 Z"/>
        <path id="path142" fill="#000000" stroke="none" opacity="0.001" d="M 293.239655 185.20401 L 95.174278 352.402069 L 403.847626 439.859497 L 210.926773 146.619843 L 370.40799 113.180237 L 0 375.552551 Z"/>
        <path id="path143" fill="#000000" stroke="none" opacity="0.001" d="M 365.263458 378.124847 L 257.227783 7.716827 L 244.366394 362.691162 L 226.360443 352.402069 L 437.287231 36.011902 L 393.558502 270.089172 Z"/>
    </g>
</svg>
