<?xml version="1.0" encoding="UTF-8"?>
<!-- Generated by Pixelmator Pro 3.6.11 -->
<svg width="1600" height="900" viewBox="0 0 1600 900" xmlns="http://www.w3.org/2000/svg">
    <path id="Rectangle" fill="#71675b" fill-rule="evenodd" stroke="none" d="M 0 900 L 1600 900 L 1600 0 L 0 0 Z"/>
    <path id="Rectangle-copy-6" fill="#ebe4c3" fill-rule="evenodd" stroke="#000000" stroke-width="15" d="M 600 250 L 1000 250 L 1000 50 L 600 50 Z"/>
    <path id="Rectangle-copy-7" fill="#ebe4c3" fill-rule="evenodd" stroke="#000000" stroke-width="15" d="M 600 850 L 1000 850 L 1000 650 L 600 650 Z"/>
    <path id="path1" fill="#ebe4c3" fill-rule="evenodd" stroke="#000000" stroke-width="15" d="M 800 650 L 1000 650 L 1000 250 L 800 250 Z"/>
    <path id="Rectangle-copy-2" fill="#ebe4c3" fill-rule="evenodd" stroke="#000000" stroke-width="15" d="M 1000 450 L 1200 450 L 1200 50 L 1000 50 Z"/>
    <path id="Rectangle-copy-3" fill="#ebe4c3" fill-rule="evenodd" stroke="#000000" stroke-width="15" d="M 1000 850 L 1200 850 L 1200 450 L 1000 450 Z"/>
    <path id="Rectangle-copy" fill="#ebe4c3" fill-rule="evenodd" stroke="#000000" stroke-width="15" d="M 600 650 L 800 650 L 800 250 L 600 250 Z"/>
    <path id="Rectangle-copy-5" fill="#ebe4c3" fill-rule="evenodd" stroke="#000000" stroke-width="15" d="M 400 450 L 600 450 L 600 50 L 400 50 Z"/>
    <path id="Rectangle-copy-4" fill="#ebe4c3" fill-rule="evenodd" stroke="#000000" stroke-width="15" d="M 400 850 L 600 850 L 600 450 L 400 450 Z"/>
</svg>
