<svg xmlns="http://www.w3.org/2000/svg" width="8.3125in" height="4.375in" viewBox="-100 -100 2328 1321">
  <g stroke-linecap="round">
    <path fill="#cbcae1" fill-rule="evenodd" stroke="#ca2a7a" stroke-linejoin="round" d="M0 289c0-35.347 28.654-64 64-64h16.213v-80h.002l-.002-.213c0-79.529 64.376-144 143.787-144l.426.002V.787H879.93c79.725 0 144.355 64.471 144.355 144 0 3.06-.285 80.213-.285 80.213h448c8.836 0 16 7.163 16 16v25c0 48.54 39.563 87.853 88.105 87.853S1664 314.502 1664 265.96V241c0-8.837 7.164-16 16-16h448v752c0 17.673-14.327 32-32 32-17.673 0-28.519-14.648-32-32l-16-80s.285 76.943.285 80c0 79.527-64.633 144-144.357 144l-.14-.002v.002h-655.362v-.004c-.143 0-.284.004-.426.004-79.41 0-143.787-64.473-143.787-144l.002-.213h-.002V897H1104l-16 80c-3.481 17.351-14.327 32-32 32-17.673 0-32-14.328-32-32v-80H64c-35.346 0-64-28.654-64-64Z"/>
    <path fill="none" stroke="#41b0f6" d="M80 226v670-670Zm1-81h942H81Zm0 80h942H81Zm943 1v670-670Zm80-1v671-671Zm0 752h944-944Zm1-80h942-942Zm943-671v670-670Z"/>
  </g>
</svg>
