<svg xmlns="http://www.w3.org/2000/svg" viewBox="0 0 400 250">
  <path fill="#00c669" d="M137.592 120.249v40.899l35.419 20.449v-40.898Z" />
  <path fill="#009751" d="m208.43 120.249-35.419 20.45v40.898l35.419-20.449Z" />
  <path fill="#00da84" d="m173.011 99.8-35.419 20.449 35.419 20.45 35.419-20.45Z" />
  <path fill="#a755f0" d="m63.036 105.469-8.855 5.112 8.855 5.112 8.854-5.112Z" />
  <path fill="#0055d4" d="m80.745 141.255 4.428-2.556v-5.113l-8.855 5.113v5.112l4.427 2.556Z" />
  <path fill="#6a00a8" d="m67.463 118.249 4.427-2.556v-5.112l-8.854 5.112v5.112l4.427 2.557Z" />
  <path fill="#2d9dff" d="m45.326 100.356-17.71 10.225 8.855 5.112 17.71-10.224Z" />
  <path fill="#a755f0" d="m63.036 90.132-8.855 5.112 8.855 5.112 8.854-5.112ZM89.6 105.469l-8.855 5.112 8.855 5.112 8.855-5.112Z" />
  <path fill="#8613d1" d="M63.036 120.805v-5.112l-8.855-5.112v5.112l4.427 2.556v5.113ZM76.318 113.137v-5.112l-8.855-5.113v5.113l4.427 2.556v5.112Z" />
  <path fill="#a755f0" d="m49.753 113.137-8.854 5.112 8.854 5.113 8.855-5.113Z" />
  <path fill="#8613d1" d="M76.318 133.586v-10.224l-8.855-5.113v5.113l4.427 2.556v5.112Z" />
  <path fill="#2d9dff" d="M54.181 136.142v-5.112l-4.428 2.556-4.427-2.556-4.427 2.556 8.854 5.113Z" />
  <path fill="#0055d4" d="M45.326 146.367v-5.112l-8.855 5.112v20.449l4.428-2.556v-15.337Z" />
  <path fill="#2d9dff" d="m49.753 143.811-8.854 5.112 8.854 5.112 8.855-5.112ZM36.471 136.142l-8.855 5.113 8.855 5.112 8.855-5.112Z" />
  <path fill="#a755f0" d="m63.036 120.805-8.855 5.113 8.855 5.112 8.854-5.112Z" />
  <path fill="#007aff" d="M67.463 148.923v5.112l4.427 2.557v15.337l4.428 2.556v-20.45Z" />
  <path fill="#0055d4" d="M58.608 154.035v-5.112l-8.855 5.112v20.45l4.428-2.556v-15.337Z" />
  <path fill="#6a00a8" d="m58.608 118.249-8.855 5.113v10.224l4.428-2.556v-5.112l4.427-2.556Z" />
  <path fill="#2d9dff" d="m63.036 151.479-8.855 5.113 8.855 5.112 8.854-5.112Z" />
  <path fill="#6a00a8" d="M89.6 115.693v10.225l8.855-5.113v-10.224Z" />
  <path fill="#0055d4" d="M63.036 161.704v20.449l8.854-5.112v-20.449Z" />
  <path fill="#8613d1" d="m49.753 123.362-8.854-5.113v10.225l8.854 5.112Z" />
  <path fill="#0055d4" d="m67.463 148.923 4.427-2.556v-5.112l-8.854 5.112v5.112l4.427 2.556Z" />
  <path fill="#8613d1" d="m63.036 131.03-8.855-5.112v10.224l8.855 5.113Z" />
  <path fill="#0055d4" d="M76.318 154.035v20.45l8.855-5.113v-20.449Z" />
  <path fill="#007aff" d="M54.181 156.592v20.449l8.855 5.112v-20.449ZM76.318 143.811v-5.112l-4.428-2.557-4.427 2.557 4.427 2.556v5.112Z" />
  <path fill="#0055d4" d="M54.181 115.693v-10.224l-17.71 10.224v10.225l4.428-2.556v-5.113l8.854-5.112ZM89.6 146.367v20.449l8.855-5.112v-20.449Z" />
  <path fill="#8613d1" d="M89.6 125.918v-10.225l-8.855-5.112v5.112l4.428 2.556v5.113Z" />
  <path fill="#6a00a8" d="m80.745 110.581 4.428-2.556v-5.113l-8.855 5.113v5.112l4.427 2.556Z" />
  <path fill="#2d9dff" d="m76.318 143.811-8.855 5.112 8.855 5.112 8.855-5.112Z" />
  <path fill="#007aff" d="M80.745 141.255v5.112l4.428 2.556v15.337l4.427 2.556v-20.449Z" />
  <path fill="#8613d1" d="M63.036 105.469v-5.113l-8.855-5.112v10.225l4.427 2.556Z" />
  <path fill="#0055d4" d="m54.181 141.255 4.427-2.556-4.427-2.557-4.428 2.557v5.112l4.428 2.556Z" />
  <path fill="#a755f0" d="m76.318 97.8-8.855 5.112 8.855 5.113 8.855-5.113Z" />
  <path fill="#007aff" d="M49.753 143.811v-5.112l-8.854-5.113v5.113l4.427 2.556v5.112Z" />
  <path fill="#2d9dff" d="m71.89 141.255-4.427-2.556-4.427 2.556-4.428-2.556-4.427 2.556 8.855 5.112ZM89.6 136.142l-8.855 5.113 8.855 5.112 8.855-5.112Z" />
  <path fill="#6a00a8" d="m67.463 102.912 4.427-2.556v-5.112l-8.854 5.112v5.113l4.427 2.556Z" />
  <path fill="#a755f0" d="m76.318 113.137-8.855 5.112 8.855 5.113 8.855-5.113Z" />
  <path fill="#6a00a8" d="M63.036 131.03v10.225l8.854-5.113v-10.224Z" />
  <path fill="#007aff" d="m36.471 115.693-8.855-5.112v10.224l8.855 5.113ZM40.899 148.923v20.449l8.854 5.113v-20.45Z" />
  <path fill="#2d9dff" d="m85.173 133.586-4.428-2.556-4.427 2.556-4.428-2.556v5.112l4.428 2.557Z" />
  <path fill="#007aff" d="M27.616 141.255v20.449l8.855 5.112v-20.449Z" />
  <path fill="#6a00a8" d="M76.318 123.362v10.224l8.855-5.112v-10.225Z" />
  <path fill="#007aff" d="M63.036 151.479v-5.112l-8.855-5.112v5.112l4.427 2.556v5.112ZM335.915 110.485l-8.855-5.113v10.225l8.855 5.112Z" />
  <path fill="#0055d4" d="M282.787 133.49v10.225l8.854-5.113v-10.224Z" />
  <path fill="#e50088" d="m291.641 115.597-2.213 1.278 11.068 6.39v-2.556l6.641-3.834-15.496-8.946Z" />
  <path fill="#ff50a5" d="m342.556 121.987-33.205 19.172-17.71-10.225v2.556l17.71 10.225 35.419-20.45Z" />
  <path fill="#b5006b" d="M318.206 151.383v10.225l8.854-5.113v-10.224ZM344.77 74.699l-35.419 20.449v10.224l35.419-20.449Z" />
  <path fill="#ff50a5" d="m329.274 116.875-11.068 6.39v2.557l13.282-7.669Z" />
  <path fill="#e50088" d="M327.06 136.046v40.899l8.855 5.112v-40.898ZM291.641 153.939v2.556l8.855 5.113v-10.225l-8.855-5.112v5.112l-2.213 1.278ZM287.214 118.153l-4.427 2.556-8.855-5.112v2.556l17.709 10.225v2.556l17.71 10.225v-5.113l-8.855-5.112v-5.112Z" />
  <path fill="#2d9dff" d="m247.367 125.822 35.42 20.449 8.854-5.112-2.213-1.279-6.641 3.835-33.206-19.171Z" />
  <path fill="#0055d4" d="M282.787 171.832v10.225l8.854-5.112V166.72Z" />
  <path fill="#2d9dff" d="m247.367 113.041 35.42 20.449 8.854-5.112-35.419-20.449Z" />
  <path fill="#ff50a5" d="m315.992 150.105 2.214 1.278 8.854-5.112v-2.556Z" />
  <path fill="#2d9dff" d="m309.351 146.271-8.855 5.112 8.855 5.112 8.855-5.112Z" />
  <path fill="#007aff" d="m247.367 148.827 35.42 20.449v-10.224l-35.42-20.45Z" />
  <path fill="#ff50a5" d="m309.351 54.249-35.419 20.45 35.419 20.449 35.419-20.449Z" />
  <path fill="#0055d4" d="M282.787 110.485v10.224l8.854-5.112v-10.225Z" />
  <path fill="#e50088" d="m273.932 84.923 35.419 20.449V95.148l-35.419-20.449Z" />
  <path fill="#b5006b" d="m344.77 115.597-8.855 5.112-4.427-2.556-13.282 7.669v5.112l-8.855 5.112v5.113l35.419-20.45Z" />
  <path fill="#2d9dff" d="m247.367 90.035 35.42 20.45 8.854-5.113-35.419-20.449ZM362.48 84.923l-35.42 20.449 8.855 5.113 35.419-20.45ZM247.367 138.602l35.42 20.45 8.854-5.113-2.213-1.278-6.641 3.834-33.206-19.171Z" />
  <path fill="#b5006b" d="m327.06 136.046 17.71-10.224v-2.557l-35.419 20.45v2.556l6.641 3.834 11.068-6.39Z" />
  <path fill="#2d9dff" d="m247.367 151.383 35.42 20.449 8.854-5.112-2.213-1.278-6.641 3.834-33.206-19.171Z" />
  <path fill="#e50088" d="m291.641 138.602-2.213 1.278 2.213 1.279v2.556l11.069 6.39 6.641-3.834v-2.556l-17.71-10.225Z" />
  <path fill="#007aff" d="m247.367 136.046 35.42 20.449v-10.224l-35.42-20.449Z" />
  <path fill="#ff50a5" d="m342.556 96.426-8.854-5.112-24.351 14.058L285 91.314l-8.855 5.112 15.496 8.946v2.557l15.496 8.946 2.214-1.278 2.214 1.278 15.495-8.946v-2.557Z" />
  <path fill="#0055d4" d="m371.334 90.035-35.419 20.45v10.224l35.419-20.449Z" />
  <path fill="#b5006b" d="m311.565 116.875 6.641 3.834v2.556l11.068-6.39-2.214-1.278v-7.668Z" />
  <path fill="#a755f0" d="m309.351 115.597-8.855 5.112 8.855 5.113 8.855-5.113Z" />
  <path fill="#0055d4" d="M282.787 159.052v10.224l8.854-5.112v-10.225Z" />
  <path fill="#ff50a5" d="m362.48 115.597-35.42 20.449 8.855 5.113 35.419-20.45ZM291.641 146.271l8.855 5.112 2.214-1.278-11.069-6.39Z" />
  <path fill="#007aff" d="m247.367 123.265 35.42 20.45V133.49l-35.42-20.449Z" />
  <path fill="#6a00a8" d="M309.351 125.822v10.224l8.855-5.112v-10.225Z" />
  <path fill="#0055d4" d="M309.351 156.495v40.899l8.855-5.112v-40.899Z" />
  <path fill="#007aff" d="m247.367 161.608 35.42 20.449v-10.225l-35.42-20.449ZM247.367 100.26l35.42 20.449v-10.224l-35.42-20.45ZM300.496 151.383v40.899l8.855 5.112v-40.899Z" />
  <path fill="#0055d4" d="M282.787 146.271v10.224l8.854-5.112v-10.224Z" />
  <path fill="#ff50a5" d="m287.214 118.153 13.282 7.669v-2.557l-11.068-6.39Z" />
  <path fill="#8613d1" d="m309.351 125.822-8.855-5.113v10.225l8.855 5.112Z" />
  <path fill="#b5006b" d="m371.334 120.709-35.419 20.45v40.898l35.419-20.449Z" />
</svg>
