<svg xmlns="http://www.w3.org/2000/svg" width="800" height="450">
  <g fill="none" fill-rule="evenodd">
    <path fill="#FFF" d="M0 0h800v450H0z"/>
    <path fill="#FFF" d="M445.24 413.2c13.85-3.57 18.87-9.06 19.34-21.48.24-7.16-1.2-13.13-4.06-17.67-3.34-5-4.53-11.46-4.77-24.83 0-16.96.24-18.15 5-18.87 4.07-.7 6.22 1.2 9.1 7.88 1.9 5.02 6.2 12.18 9.54 16.48 14.8 18.2 22.6 30.6 22.6 35.9 0 6.5.4 6.7 28.4 14.8l20 6 6.2-5.9c3.3-3.1 10-6.4 14.5-7.4 4.5-.9 13.1-4.3 19.1-7.4 5.9-2.8 14.5-6.9 19.1-8.8 7.4-3.1 9-5.5 15.3-22.2 3.8-10.3 7.6-19.8 8.5-20.8.9-1.2-.3-5.9-2.4-10.7-2.4-4.8-5.5-14.1-7-20.5-1.7-6.2-7-17.4-12.2-24.8-5.3-7.2-9.6-14.6-9.6-16.2s2.8-7.1 6.2-12.2l6.2-9-1.2-50.4c-1.2-54.9-2.2-59.4-16-70.9-10.3-8.8-18.9-9.8-68.8-8.1-39.9 1.4-43.7 1.2-45.2-2.6-2.4-7.1-11-14.8-16-14.8-6 0-21.5 7.9-30.8 15.8-5.8 4.8-9.6 5.7-22.2 5.7-10.3 0-15.8-.9-16.5-2.8-.5-1.7-2.2-15.3-3.6-30.3-2.2-23.4-2.2-27.7 1.2-31.2 4.3-4.8 4.8-14.6.7-18.6-1.7-1.6-5.7-2.8-9.1-2.8-3.4 0-7.4 1.2-9.1 2.9-4.1 4-3.6 15 .9 18.6 3.1 2.6 3.3 7.6 1.9 32-.7 16-2.4 29.6-3.1 30.8-1 1-10.5 2.4-21.5 3.3-18.6 1.4-19.6 1.2-21-3.6-.7-3.3-4.8-6.2-12.4-8.6-27-8.3-34.2-7.4-40.9 5.8l-4.6 8.9-42 1.4c-48.5 1.7-55.4 4.1-66.4 22.2-6.2 10.3-6.5 12.2-6.5 42.3 0 17.5.9 32.7 2.1 33.9 1.2 1.5 2.6 10.1 3.1 19.6.9 18.4 4.5 25.8 17.2 35.1 6.2 4.8 9.8 5 73 5 36.5 0 67.1.8 68 1.7 1 .7-2.4 4.3-7.6 7.7-25.1 16.7-29.9 49-8.6 59.2 6.2 3.1 6.4 3.8 6.4 23.7.2 17.2.9 21.7 5 26 5.7 6.2 11.9 9.8 21.5 12.2 10 2.4 91.2 1.9 101.9-.5z"/>
    <g fill="#B7ACB1">
      <path d="M541.23 413.45c-3.58-1.43-5-3.82-4.53-8.12.47-3.34-.24-5.5-1.44-4.77-1.2.72-1.9 2.63-1.67 4.06.4 1.67-.5 3.1-1.7 3.58-1.5.24-2.7-.48-2.7-1.9-.3-1.2-.7-3.1-1-4.07-.3-1.2-.5-2.87-.3-3.82.2-1.1-.7-1.4-2.2-.4-1.9 1.2-1.9 2.7 0 4.8 4.5 5.5-1.5 6.2-14.8 1.7-11.5-4-12.7-5-13.9-12.6-1.2-7.9-8.1-19.3-23.2-38.2-8.9-11-11.7-18.4-8.4-21.7 1.7-1.6 3.6.3 6.2 6.2 2.2 5 4.8 8.4 6.2 7.4 1.4-.9.7-3.8-2.4-7.6-6.9-8.8-6.2-22.4 1.4-31.5 4.1-5 5-7.4 2.9-7.4-1.9 0-4.5 1.2-5.7 2.4-1.9 1.9-3.6 1.5-5.7-1.2-2.4-2.8-2.4-4.5-.5-6.4 1.7-1.6 2.9-1.9 2.9-.9s4.3-1.7 9.5-5.7c7.9-6.2 9.8-6.9 11-3.8.7 2.2 3.3 3.8 5.7 3.8 2.2 0 6.9 2.2 10.3 4.8 23.2 18.1 15 58.7-13.1 65.7-6.2 1.7-6.5 1.9-3.1 8.1 8.1 14.8 14.1 18.9 37.2 24.4 31.8 7.4 40.8 7.2 59.5-2.1 12.9-6.4 16.9-10.2 24.3-21.5 13.1-20.5 15.7-41.8 7.6-63.7-2.4-6.7-13.6-22.7-16-22.7-1.2 0-1.5 1-.7 1.9 2.6 4.3-13.9 13.4-23.7 13.4-17.9 0-25.3-3.3-33.2-14.8-5.5-8.1-6.5-15.8-4.1-28.7.2-.2 2.4.5 5 1.9 2.6 1.5 4.8 4.8 4.8 7.4 0 3.1 1.2 4.6 3.1 3.8 1.6-.7 5.7 1 9 3.4 6.2 4.8 22.4 6.2 24.8 2.2.9-1.4 2.6-1.9 3.8-.9 1.2.7 1.4 2.6.5 4-1 1.7.2 1.5 2.6-.4 2.1-1.9 3.6-4.8 2.8-6.4-.5-1.4 1.4-5.3 4.8-8.4 3.1-3.1 1.9 10 9.1 18.6 12.9 15.3 21.5 40.6 21.2 62.1 0 10.5-8.6 34.9-14.6 41.8-1.9 2.4-7.4 5.5-12 7-4.8 1.7-11.9 4.8-16 7.4-3.8 2.4-11.5 5.5-16.7 6.9-5.3 1.4-12.9 5.3-17.2 8.4-8.4 6.2-9.1 6.45-16.5 3.34zm-42.98-86.92c5.02-13.85-8.83-27.7-16.95-16.7-4.78 6.44-4.06 24.1 1.2 26.97 5.25 3.1 12.9-1.67 15.75-10.27zm12.9 6.93c-.72-.72-2.15.48-2.87 2.86-1.43 3.35-1.2 3.6 1.2 1.44 1.67-1.67 2.38-3.6 1.67-4.3zm80.47-48.95c.7-1.4-.24-1.6-2.15-.9-4.3 1.7-5.02 3.4-1.67 3.4 1.43 0 3.1-.9 3.82-2.4zm-32.24-3.1c0-.4-2.4-2.8-5-5.5-5.27-4.5-5.27-4.5-2.4 1 2.4 4.3 7.4 7.4 7.4 4.6z"/>
      <path d="M549.6 380.26c-10.52-11.22-12.9-18.15-10.52-30.56 2.15-11.47 16.96-26.27 28.42-28.18 11.22-2.15 24.12 4.3 32.7 16.48 7.42 9.8 7.9 14.8 1.45 14.32-2.87-.24-3.35 1.44-2.4 7.64 1.2 6.93 0 9.32-7.4 16.72-7.16 7.16-10.02 8.6-16.7 7.64-4.55-.48-8.13.24-7.9 1.43.25 1.2-1.42 2.87-3.8 3.35-2.87.47-7.9-2.63-13.86-8.84zm38.44-7.4c2.62-2.63 4.77-7.88 4.77-11.94s-2.1-9.3-4.7-11.94c-10.7-10.75-28.6-2.63-28.6 12.9 0 14.32 18.4 21.25 28.7 10.98zm-20.3-41.3c4.54-.97 4.54-1.2-.24-1.44-5.73-.24-17.67 8.1-17.67 12.4 0 1.45 2.87-.23 6.7-3.57 3.57-3.34 8.58-6.7 11.2-7.4zm18.16-71.16c-5.98-4.8-22.7-6.22-25.32-2.16-.96 1.43-2.63 1.9-3.83.95-1.43-1-.7-3.4 1.68-6 6.44-7.2 20.77-6 29.84 2.1 8.6 7.6 6.45 12.2-2.38 5z"/>
    </g>
    <path fill="#D1E344" d="M205.98 279.25c-.95-42.02.24-146.38 1.9-148.05 1.2-1.2 11.23-1.9 22.22-1.43l20.06.72v148l-21.97.7c-12.2.2-22.3.2-22.3 0zm323.55-25.8c-.7-1.2-1.2-13.6-.95-27.2.24-13.6-.48-26.04-1.2-27.47-.95-1.43-.95-2.63 0-2.63.96 0-.23-1.43-2.86-3.34-4.3-3.3-4.3-3.5-.24-5 3.58-1.4 4.06-5.5 4.06-32.4 0-16.9-.72-30.5-1.67-30.3-1.2.5-2.15-.2-2.63-1.6-.24-1.4 8.84-2.4 23.88-2.4h24.6v123.7l-7.17 2.4c-3.82 1.2-10.5 3.6-14.8 5.5-8.6 3.9-18.87 4.3-21.02 1zM377.9 130.95c-1.43-14.8-.95-40.33.48-41.3 1.2-.94 1.9-7.15 1.67-14.3-.7-14.34 1.68-18.4 10.03-17.2 4.78.7 5.73 1.9 5.02 8.35-.48 4.3 0 9.05 1.2 10.73.95 1.67 2.14 7.88 2.38 13.85 0 5.96.72 14.3 1.2 18.6 1.2 7.65-2.4 17.92-5.74 17.68-.95 0-5 .72-9.07 1.9-3.82 1.2-7.16 1.92-7.16 1.68z"/>
    <g fill="#BBD53B">
      <path d="M355.22 337.52c-.48-.72.24-3.35 1.67-6.2 1.6-2.64 3.1-6.7 3.3-8.6.4-1.92 2.4-4.78 4.5-6.22 2.4-1.9 2.8-3.34 1.4-4.53-3.1-1.67-7.9.7-6.5 3.34.7 1-.5 4.3-2.7 7.2l-3.6 5.5-6.9-6.7c-3.6-3.5-6.2-7.4-5.5-8.6.7-1.2.2-1.6-1-1.4-1.5.5-2.7-.2-2.9-1.6-.3-1.2-1.9-4-3.8-6.2-1.9-2.1-2.7-4.5-1.7-5.7 1.2-.9 0-1.2-2.2-.5-2.4.8-4.8.5-5.5-.7-1.7-2.6 6.2-6.9 10.3-5.5 1.6.7 5.2-.7 7.6-2.8 3.1-2.8 5.9-3.6 8.8-2.4 2.4 1.2 5 1.9 5.9 1.7 1.9-.4 6.2 6.7 6.2 10.3 0 1.5-1 3.6-2.2 5.3-3.1 3.6 2.1 6.9 5.7 3.3 1.9-1.9 1.9-4.5 0-9.8-3.1-8.1-1.9-10 5-8.3 8.6 2.2 37 2.6 35.8 1-1.9-3.3 4-5 7.4-2.1 2.4 2.2 4.5 1.9 8.8-.2 7.8-4.3 11-4.5 14.1-.7 3.3 4.1 7.1 4.3 6.2.5-.3-1.4 2.8-2.9 7.8-2.9 6-.2 8.1.8 7.6 3.1-.3 1.7.4 4.6 1.9 6.2 1.4 1.7 1.9 4.8.9 7-.7 2.2-.2 5.5 1.2 7.2 1.7 2.2 1.9 4.1.5 4.8-2.4 1.7-2.4 5.8.5 10.3 1 1.4.7 3.6-.7 4.3-3.1 1.9-10-3.3-8.4-6 .8-1.2.3-2.6-1.1-3.6-1.5-.9-1.9 2.4-1.5 8.2.7 9.8-3.6 17.7-7 12.2-1.9-3.1-55.4-3.3-57.3 0-1.9 3.1-14.8 3.1-16.7 0-1-1.4-2.9-1.6-4.3-.7-3.4 1.9-10.8 2.9-12.4 1.2zm95.28-33.2c-.24-3.8-.48-7.4-.72-8.1-.24-.97-1.9-2.16-3.82-3.12-3.1-1.2-3.34-.47-.24 5.26 1.67 3.58 2.63 7.88 2.15 9.55-.72 1.5 0 2.9 1.2 2.9s1.9-2.8 1.43-6.4zm-259.32-26.74c-16.96-9.55-19.34-15.76-21.73-57.55-3.58-64.7-.96-75.22 20.53-86.44 9.08-4.8 13.85-5.3 48.24-5.5h38.2l.72 9 .72 9.1 5.96-3.8c15.53-10.3 37.73-16 64.95-17.5l26.75-1.2v-11.2c0-6.2.7-11.7 1.43-12.7.72-.8 1.43-9.8 1.43-20.1 0-20.3.72-23.2 5.02-20.6 1.67.9 5 1.9 7.64 1.9 4.06 0 4.77 1.7 4.77 10.2 0 10.7-4.2 14.1-5.4 4-1.4-10.3-5.2-4.1-5.2 8.3 0 6.4-.7 12.1-1.6 12.6-1.2.7-1.4 7.1-1.2 14.5 1 12.4 1.2 13.1 6.7 12.9 3.1-.3 6-2.2 6-4.3.5-7.2 1-8.4 3.3-9.1 1.5-.3 2.7 1.6 2.7 4.3.3 2.6.7 5.2 1.2 5.7s13.4 1.4 28.4 2.1c18.2.7 32.3 2.9 41.8 6l14.3 4.8 1.2-6.5c1.2-6 1.9-6.2 20.3-7.1 10.5-.7 32-1.2 47.8-1.2 28-.2 28.9 0 37.5 6.4 14.1 11 15.5 16.5 17.5 69.7 1.5 45.4 1.2 48.2-3.3 55.6-5.7 8.8-7.7 9.3-16.3 3.3-3.5-2.2-9.8-5-13.6-6.5l-7.4-2.4-.7-60.2-.5-60.4h-35.6L533 161c-.5 20.58-.2 37.5.3 38s.7 12.2.5 25.8c-.4 21 0 25.1 3.4 26.5 5.5 1.9 2.2 6.2-4.8 6.2-5.9 0-24.1 8.4-26.5 12.2-.7 1.2-6.4 1.7-12.6 1-6.4-.7-14.3-.3-17.6.9-4.8 1.9-6.7 1.46-9.1-1.4-2.6-3.1-2.4-4.04.9-6.7 2.4-1.64 5.3-6.2 6.2-9.76 2.9-10.75 8.4-12.66 19.4-6.2 5.3 2.86 9.5 4.3 9.5 3.1 0-3.35-12.2-12.4-14.8-10.75-3.6 2.1-8.8-3.8-7.9-8.9 1.4-7.4 3.8-9.8 8.1-8.3 2.7.9 2.4.2-.9-2.2-5-4.1-7.1-14.6-3.8-19.1 1.2-1.2 1.4-6.2 1-10.8l-1.2-8.6-26.5-4.1c-44.7-6.9-83.1-5.3-146.6 5.7l-15.3 2.6.9 13.6c1.5 17.5 3.8 24.6 7.9 23.2 3.8-1.4 9.3 7.2 6 9.3-1.4.7-3.3-.7-4.74-2.8-2.4-4.1-2.4-4.1-2.6 0 0 4.1-3.1 6.2-10.3 7.4-1.9.2-5.03 1.7-6.94 3.3-1.9 1.4-4.3 2.2-5 1.2-1-.7-1.7-.2-1.7 1.4 0 2.2 1.4 2.7 4.3 1.5 2.1-1 5.93-1.9 8.3-2.4 2.4-.5 6.5-1.7 8.6-2.4 5-1.4 8.87 2.2 11 11.2 1.2 4.8.5 6.9-3.1 8.8-2.6 1.4-5.23 1.9-5.7 1.15-.74-.7-5.04 3.1-9.6 8.4l-8.3 9.8-41.5 1.2c-38.7 1.2-42.3.93-50.4-3.37zm55.4-73.07v-70.4H209.3l.48 6.7c.24 3.6.72 35.1.72 70.5l.24 63.8h35.8v-70.5zm34.14 11.7c3.58-.9 6.45-2.6 6.45-3.8 0-1.2-2.4-1.4-5.26-.5-3.1 1-7.4 1.7-9.5 1.5-2.1 0-5.5 1.7-7.1 3.6-2.6 3.6-2.4 3.8 2.9 2.2 3.4-.7 8.9-2.1 12.7-2.8zm234.96-21.7c-4.77-.5-12.4-.5-16.7 0-4.07.5 0 1 9.06 1 9.32 0 12.66-.5 7.64-.9z"/>
      <path d="M290.75 277.34c-1.2-1.9 16.95-15.04 21.97-15.76 1.67-.24 4.77 2.15 6.92 5.73 3.82 5.8 3.82 6.3-.24 9.1-4.53 3.4-26.74 4.1-28.65 1zM544.1 253.7c-.96-1.2-.48-2.86.72-3.58 1.2-.95 2.86-.48 3.58.72.95 1.2.47 2.86-.72 3.58-1.2.95-2.86.48-3.58-.72zm9.55-4.77c-.95-1.2-.48-2.87.72-3.6 1.2-.94 2.86-.46 3.58.73.95 1.2.48 2.87-.72 3.58-1.2.96-2.86.48-3.58-.7zm9.55-2.4c-.95-1.2-.48-2.86.72-3.57 1.2-.96 2.86-.48 3.58.7.96 1.2.48 2.88-.72 3.6-1.2.95-2.86.47-3.58-.72zm-170-146.6c-1.68-4.78-.5-11.23 2.6-11.95 3.36-.72 4.55 10.27 1.45 13.37-1.67 1.68-2.87 1.44-4.06-1.43z"/>
    </g>
    <path fill="#807869" d="M548.87 411.3c-.95-1.43-.47-4.53 1.2-6.44 2.4-2.87 1.9-4.06-1.67-6.7-2.4-1.9-5.26-2.85-6.2-2.38-.97.72-8.85-.47-17.44-2.62-18.15-4.06-20.54-4.3-15.05-1.2 2.2 1.44 3.6 3.82 3.4 5.5-.2 2.86-4 5.5-3.6 2.38 0-.95-2.1-2.4-4.8-3.58-3.5-1.2-5-3.82-5-8.6 0-3.82-1.7-8.6-3.8-10.26-2.1-1.9-6.7-7.65-10-12.9-3.1-5.25-8.3-12.42-11.7-15.76-9.1-9.8-2.1-10.74 7.4-.95l8.4 8.3 10.3-5.8c15.1-8.4 20.8-29.9 12.5-46.6-7.4-14.6-18.4-16-31.7-3.6-8.8 7.6-12.2 15.2-13.3 28.4-.2 2.6-1.4 4.5-2.6 4s-1.9-2.4-1.4-4.3c1-4.6 1.7-14.6-1.9-18.9-1.9-2.2-1.9-3.6 0-4.8 1.2-.7 2.4-.7 2.6.4 0 1 1-.5 2.4-3.6 1.2-3.1 3.1-5.1 4.3-4.1 1.2.7 3.1 0 3.8-1.5 1-1.2 3.4-1.9 5.3-1.2s2.6.5 1.9-.7c-.7-1.2-.2-2.9 1.2-3.8 3.3-2.2 7.9-11 5-10.3-1.2.5-1.9-.3-1.7-1.7 0-1.2 1.9-1.9 3.6-1.7 3.1.7 3.1.2.5-2.9-1.9-2.2-2.8-3.8-2.4-4.1.5 0 4.1-.8 8.1-1.2 3.8-.7 8.8-2.7 10.8-4.3 3.6-3.1 11.3-7 15.6-7.4 1.4-.3 4-1.2 6.2-2.2 2.1-1 6.4-1.9 9.5-2.4 3.1-.2 9.1-2.4 13.4-4.5 4.3-2.4 8.6-3.9 9.6-3.9 1 .2 3.8-.3 6.2-1.2 2.2-1.2 6-1.2 8.4 0 2.1.9 5 1.4 5.9 1.2 1 0 5.8 2.4 10.8 5.7 9.8 6.7 13.6 7.6 11.7 2.8-1.4-4-.7 18.2 10 32.5 5.5 7.2 10.8 17.4 12.5 24.4 1.4 6.7 3.5 14.1 4.5 16.7 4.3 11.9-5.7 45.6-12.7 42.7-4.7-1.7-7.4 3.3-4 7.4 2.4 2.9 2.2 3.8-1.4 5-2.6.9-12.2 5-21.3 9.3-9.3 4.5-19.8 8.8-23.6 9.8-3.8.9-9.3 4.3-12.2 7.6-3.5 4.3-5.7 5.2-6.9 3.1zm11.23-20.53c-8.36-3.58-22.7-20.06-21.25-24.36.7-1.6 0-3.5-1.2-4.5-2.4-1.4-1.67-11.7 1.67-22.4.48-2.1 6.45-7.9 12.9-12.9 10.74-8.1 13.13-9 21.73-7.9 15.76 2.2 29.13 13.4 32 26.8.23 1.5 1.2 4.3 2.14 6.5 2.3 5.3.9 12-2.9 13.4-1.5.5-3.8-1.6-5-4.8-1.5-2.8-2.4-4.5-2.4-3.6-.3 1.2-1.5 1.2-2.9.3-1.9-1.2-1.2-2.8 2.1-5.5l5-3.8-4.8-7.6c-14.6-23.1-46.6-17.2-53.5 10.1-2.9 11.5-2.7 12.2 3.8 21.8 7.8 11.7 10.5 12.9 27.2 12.9 10.7 0 13.8-.9 19.6-6.7 3.5-3.8 8.3-7.4 10.2-8.1 6.4-2.4 15.3-23.6 16.2-38.9.7-10.5-.5-17.9-4.1-27.9-6.7-17.4-10.3-20.5-16.7-14.1-12.7 12.7-36.3 11.5-52.1-3.1-6.9-6.2-8.8-9.8-8.8-16.4-.3-5-.5-8.8-.7-8.8-4.8 0-27.7 11.2-33.5 16.5l-7.4 6.7 5.5 2.7c6.7 3.1 16.4 15.8 19.6 25.6 4.7 15.1-4.1 34.6-20.3 44.4-4.8 2.9-9.1 5.8-9.6 6-.5.3.9 3.4 3.1 6.7 4.5 6.9 24.4 17.2 37.7 19.6 4.7.7 9.3 2.2 9.8 3.1.4.7 6.2 1.7 12.4 1.7 11.2.5 11.2.5 4-2.6zm35.58-106.26c4.53-5.7 4.3-19.3-.48-25-8.12-9.8-28.9-15-33.9-8.8-1.44 1.5-1.68 2.9-.72 2.9.95 0 .47 1.7-1.2 3.6-1.67 1.9-2.15 3.6-1.43 3.6.95 0 .95 1.2.24 2.4-1 1.4-2.7 1.9-3.9 1-1.5-.9-1.5-2.6.2-4.5 1.6-1.9 1.6-3.5.2-4.5-2.9-1.9-9.8 7.7-9.8 13.4 0 4.6 13.8 21.5 16.5 20.1.7-.5 3.5 0 6.2 1.2 7.9 3.4 23.4.7 27.9-5z"/>
    <g fill="#9D1865">
      <path d="M524.28 406.77c-35.1-11.46-32.47-19.1 2.87-8.84 22.68 6.7 26.5 8.84 24.1 12.9-2.14 3.58-4.3 3.1-26.97-4.06zm25.07-10.03c-30.08-5.26-51.8-16-58.98-29.37-3.34-6.45-1.9-15.05 2.15-12.42 4.06 2.63 18.4-7.88 22.45-16.72 8.6-17.9 2.86-37.72-13.6-48.23l-9.56-5.97 10.1-9.3c11.2-10.03 35.3-20.55 39.1-16.73 1.2 1.2 2.7 6.2 2.9 11.22.7 10.75 8.6 18.63 22.9 22.45 12.2 3.34 21.7 1.43 30.8-6.45 4.1-3.34 8.6-5.5 10.5-4.77 5.7 2.15 16.5 27.7 17.7 41.3 1.2 14.8-2.8 32.48-10 42.27-8.6 11.7-28.6 25.55-37 25.55-4.3 0-7.1.96-6.2 2.15 1.2 2.4-6.2 7.64-10 7.17-.9-.3-6.9-1.2-13.1-2.2zm6.7-16.96c-11-13.13-11-24.6-.25-37.5 10.98-13.12 32.7-11.93 42.74 2.4 3.1 4.3 3.82 4.54 3.82 1.43 0-2.1-3.58-7.6-7.88-12.1-9.8-10.5-22.2-13.4-33.43-8.1-22.2 10.5-26.74 35.4-10.03 53.3 9.56 10.1 13.38 10.8 5.02.7zm33.18-5.73c11.94-11.7 3.58-32.23-13.13-32.23-4.54 0-9.56 2.15-13.14 5.97-3.82 3.5-5.97 8.5-5.97 13.1 0 4.5 2.1 9.5 5.9 13.1 3.6 3.8 8.6 5.9 13.1 5.9s9.5-2.2 13.1-6zm-258.6-9.8c-9.08-4.05-8.12-7.87 1.67-7.63 5 .24 9.07-1.9 13.85-6.92l6.68-7.4 47.76-.72 47.7-.96v26.28l-13.6.7c-11.7.72-13.9 0-17.2-4.77-4.8-6.7-5.3-6.7-9.8 0-3.6 5-5.3 5.25-36.6 5-22.9 0-35.1-1.18-40.6-3.57z"/>
      <path d="M471.75 343.25c-5.97-5.25-6.7-7.4-6.7-20.78.25-13.85.73-15.28 8.37-21.5 9.3-7.87 17.9-8.82 26.03-3.1 13.37 9.56 14.08 30.8 1.2 44.18-8.37 8.84-19.6 9.32-28.9 1.2zm23.88-7.4c5.5-5.26 7.4-17.2 4.06-25.32-3.9-8.83-14.6-9.8-20.1-1.67-4.6 6.45-5 23.64-1 27.7 4 4.06 12.9 3.58 16.9-.7zm69.47-54.7c-9.06-4.05-17.66-14.55-17.66-21.96 0-7.2 12.42-15.3 23.4-15.3 14.8 0 32.72 13.8 31.04 24.1-.95 6.9-14.8 16.5-23.16 16.5-3.34-.3-9.55-1.7-13.6-3.4zm21.5-7.63c5.5-2.15 4.54-11.94-1.43-16.24-7.4-5.25-22.45-5-25.55.24-5.73 10.5 12.9 21.5 26.98 16zM375.76 56.22c-2.87-3.58-5.02-8.36-5.02-10.98 0-5.97 10.5-16.24 16.72-16.24 6.2 0 16.7 10.27 16.7 16.24 0 2.62-2.14 7.4-5 10.98-6.7 8.36-16.72 8.36-23.4 0z"/>
    </g>
    <g fill="#203719">
      <path d="M354.03 418.23c-22.45-2.4-35.34-10.03-39.4-23.88-.96-3.34-1.67-12.9-1.67-21.5.24-14.8 0-15.75-6.93-19.57-8.83-5.26-14.8-18.87-12.9-29.13 2.4-10.75 11.95-24.36 22.93-32.24l9.55-7.1-6.6-.7c-3.6-.5-29.8.3-58 1.2-64 2.4-68.5 1.9-81.2-10.5-5.2-5.2-10.7-12.2-11.9-15.5-1.4-3.3-2.4-29.1-2.4-57.5v-51.6l6.2-8.3c10.5-13.6 20.8-16.4 65-18.3l38.9-1.6 4.6-9c2.7-5 6.2-9.5 8.4-10.5 11.5-4.3 40.6 2.6 48.3 11.7 4.8 5.5 7 6 23.2 6 16.7 0 23.9 2.4 18.2 6-1.2.7-13.8 1.9-27.9 2.7-27.9 1.2-43.2 4.8-59.7 14.1-5.9 3.3-11.7 5.2-12.9 4.5-1.2-.7-2.1-4.8-2.1-8.8V131l-40.8 1.3c-39.4 1.42-40.6 1.7-48.9 8.1-4.7 3.6-9.8 9.1-10.9 12.65-2.8 7.4-2.6 90.72.5 101.5 1.2 4.3 5.5 10.95 9.6 15l7.2 6.9 45.9.5c42.8.2 45.9 0 47.5-4.1 1-2.7 6.2-7.4 12-11 5.8-3.6 10.5-6.7 11-6.9.5-.5-.7-3.1-2.4-6-2.4-4.1-4.5-4.8-10.2-3.6-25.3 5.2-27.5-2.2-3.1-10.8 5.5-1.9 6.2-2.9 4.5-8.9-1.9-7.4-5.2-7.86-23.6-4.5-11.7 2.14-17.4-.73-11.5-5.5 4.1-3.35 19.1-7.9 26.1-7.65 3.6 0 4-1.9 3.6-12.4l-.8-12.44 12-1.4c6.7-1 22.7-3.4 35.8-5.5 13.1-2.13 38-4.52 54.9-5.5 26.3-1.2 35.6-.5 59.7 4.08 28.4 5.2 35.6 8.8 33 15.7-1.4 3.6 5.3 4.8 7.4 1.5.8-1.2 7.9-1.9 16.3-1.9 12.9.2 15 .94 15 4.5 0 3.6-2.4 4.56-15.5 5.04-20.5 1.2-23.9 2.9-23.9 11.2 0 6.9.2 6.9 14.1 6.9 9.5 0 15 1.2 16.9 3.6 4.1 5 0 6.2-18.9 5.5-14.8-.7-15.3-.5-16.2 5.5-.7 5.28 0 6.2 5 6.48 6 0 20.6 8.8 20.6 12.4 0 4.07-3.6 4.3-13.1.96-12.6-4.3-15.5-4.3-15.5 1 0 2.36-2.6 6.9-6 10-8.3 7.88-7.4 10 2.6 5.7 4.8-1.9 10.5-2.82 12.7-1.9 2.2 1 4.6 1.9 5.5 1.9 5.3.7 6 5.5 1.7 11s-4.8 5.76-7.9 1.9c-1.7-2.4-3.8-4.3-5-4.3-1 0-4.1 1.9-6.7 4.3-4.1 3.1-5 6.2-4.5 13.9.7 10.7-3.1 23.4-6.5 21.47-1.2-1-2.8-6-3.8-11.7-2.4-16-3.6-18.4-8.8-18.4-3.6 0-4.3 1-3.3 4.3 9.8 25.8 12.7 31.5 15.1 31.5 5.5 0 6.2 5.5 1.2 9.8-7.2 5.7-7.4 31.5-.5 40.3 6.45 8.1 6.45 27 .25 33.2-9.8 9.8-16.95 11.4-56.35 12.6-21 .7-45.18.5-53.77-.5zm51.1-11.94c8.6-3.1 12.4-12.2 9.55-22l-2.4-7.9-34.37-.3c-19.1-.3-39.1-1.5-44.6-2.9l-10.3-2.4v7.9c0 17.6 6.7 24.8 26.3 27.7 17 2.4 49.2 2.4 55.9-.3zm44.65-2.7c7.64-4.1 9.8-12.9 5.73-22.9-2.8-7-4.5-8.1-8.8-7-3.1.7-9.5 1.4-14.3 1.4h-8.6l2.2 8.1c1.5 5.2 1.5 10.2-.2 14.5-1.2 3.3-2.4 6.7-2.4 7.4 0 2.1 22 .9 26.5-1.7zm-43.22-42.5c0-7.4 4.3-8.1 8.6-1.5 3.82 5.7 5.25 6.2 18.62 5.5l14.57-.8.7-11.7.73-11.7-39.16 1.2c-36.77 1.4-48.95 0-45.85-5.3.72-1 19.82-2.2 42.27-2.4 29.37 0 41.78-.9 42.98-3.1 2.62-3.8.7-11.7-7.17-29.8l-6.44-15.1-15.5 1.6c-8.6.9-21.9 2.1-29.8 2.3-7.9.2-16 .7-18.1.7-2.8.2-3.8 3.1-4.3 11.5-.2 6.2-2.4 14.8-5.2 19.3-2.6 4.5-4.5 10.5-4 13.3.5 3.6-.7 5.2-4.5 5.7-3.1.5-5.5 2.1-5.5 3.8s-2.6 5.5-5.7 8.4c-4.7 4.3-7.4 5.3-13.3 3.8-5.7-1.2-7.4-1-6 1.2 3.3 5.4 12.4 6.9 47.3 6.9 33.2.2 35.1 0 35.1-4.3zm-67.8-16.3c.7-2.4 2.6-6.7 4.04-9.8 2.4-5 1.2-6.9-11.22-19.1l-13.6-13.6-5.98 7.1c-6.92 8.8-9.55 21-5.97 28.9 1.9 4.5 4.3 5.7 11.46 5.7 5 0 10.7 1.2 12.6 2.4 5.2 3.3 7.1 2.8 8.6-1.7zM358.8 302c0-13.6-6.68-16.24-23.16-9.3l-8.83 3.8 12.9 12.9c12.9 12.9 12.9 13.14 16 7.65 1.7-2.84 2.9-9.8 3.1-15zm-42.02-33.43l-3.82-5.5-8.12 5.26-7.88 5.25 6.44 1.2c3.6.7 8.84.95 11.7.47 5.02-.97 5.02-1.45 1.68-6.7zm110.55 4.77c10.03-1.9 23.4-6.2 29.6-9.3 11.47-5.96 11.24-5.7 15.53-27 .24-1.9 1.2-3.8 1.9-4.5.5-.74.25-3.84-.94-6.95-1.43-3.6-1.2-6.2.24-7.2 1.43-1 2.15-5 1.43-9.3-.8-4.1-.5-9.1.7-10.8 5.2-8.6-4.1-13.2-34.7-16.5-40.4-4.8-74.8-3.1-122.3 6.2-18.4 3.6-19.8 4.3-19.8 9.5 0 3.1 2.8 8.3 6.2 11.4 5.2 5 5.5 5.7 2.1 7.8-3.8 1.9-3.8 2.8.2 10.2 2.4 4.5 4.5 9.3 4.5 10.5.7 7.4 4.3 13.4 7.6 12.2 6.2-2.4 8.4 1.2 4.1 5.9-4.1 4.5-4.1 5 .7 9.8 2.8 2.6 10.2 6.2 16.7 8.1 16.2 4.3 64 4 85.9-.5zm-118.9-146.8c7.15-2.63 15.27-4.54 17.9-4.78 6.2 0-19.1-8.88-26.5-9.1-6.22-.25-12.66 8.1-12.66 16 0 4.52.95 5.5 4.3 4.04 2.14-.96 9.8-3.8 16.95-6.2z"/>
      <path d="M382.44 247.97c-8.6-4.3-8.12-16.24.96-19.34 10.27-3.82 19.58.72 19.58 9.3 0 8.85-11.22 14.58-20.54 10.04zm10.75-8.6c.7-.95.7-2.62 0-3.34-2-1.9-8.2.72-8.2 3.34 0 2.63 6.4 2.87 8.1 0zm-68.8-7.17c-8.4-9.3 0-26.5 10-20.3 5.9 3.83 5.5 17.45-1 21.5-4.3 3.1-5.5 2.87-9.1-1.2zm113.9-5.48c-4.8-6.2-5-13.85-.7-19.34 3.5-4.3 5.2-4.78 8.8-2.63 7.4 4.54 9.5 14.33 4.3 20.06-5 5.5-9.1 6.3-12.4 2zm160.4 33.9c-.7-1.43.7-5.25 3.3-8.6 4.5-5.72 5-9.54 5-42.5-.3-19.8-1.2-44.17-2.4-53.96-1.9-16.48-2.7-18.4-10.8-25.55-5.8-5-12-7.8-17.7-8.3-13.6-1.2-81 1.5-82.6 3.4-1 .7-1.9 3.4-2.2 6-1 5.3-6.7 5.3-26.3-.4-8.6-2.4-24.4-4.1-40.6-4.3-21.7-.5-26.5-1.2-26.5-4.1s3.8-3.8 16.2-4.3c15-.7 17.4-1.4 28.2-10 19.1-15 32.9-15 41.8 0l4.3 6.9 48-.4 48-.5 10 6.7c17 11.2 18.9 17.7 20.8 72.6l1.9 48.3L611 252c-6.45 11-9.3 13.14-12.18 8.6zm-120.6-137.3c0-3.6-7.7-15.52-9.8-15.52-5 0-18.9 7.64-17.5 9.8.7 1.2 4 2.14 7.6 2.14 3.6 0 8.1 1.2 10 2.4 3.8 2.62 9.5 3.1 9.5 1.18z"/>
    </g>
  </g>
</svg>
