<svg xmlns="http://www.w3.org/2000/svg" width="329" height="192"><g fill="none" fill-rule="evenodd"><g fill="#0b74de" stroke="#232527" stroke-width="3" transform="translate(2 1.508)"><rect width="50" height="50" x="274.1" y="137.5" rx="10"/><rect width="50" height="50" x="205.6" y=".5" rx="10"/><rect width="50" height="50" x="68.5" y=".5" rx="10"/><rect width="50" height="50" y="69" rx="10"/><rect width="50" height="50" y="137.5" rx="10"/><rect width="50" height="50" x="137" y="137.5" rx="10"/></g><g fill="#0b74de" stroke="#232527" stroke-width="3" transform="translate(207.51 2)"><rect width="50" height="50" y="137" rx="10"/><rect width="50" height="50" x="68.6" rx="10"/></g><g fill="#0b74de" stroke="#232527" stroke-width="3" transform="translate(2 2.016)"><rect width="50" height="50" x="274.1" y="68.5" rx="10"/><rect width="50" height="50" x="137" rx="10"/><rect width="50" height="50" rx="10"/><rect width="50" height="50" x="68.5" y="137" rx="10"/></g><path stroke="#70777d" stroke-width="2" d="M274.6 26.5H258m-52 0h-16.6m-51.8 0H121m-52 137H52.5m85 0H121m-52-137H52.5m222 137H258m42.5-42.5v16.6m0-85.2V69m-274 52v16.6m0-85.2V69M206 163.5h-16.6" stroke-linecap="square"/></g></svg>
