<?xml version="1.0" encoding="utf-8"?>
<!DOCTYPE svg PUBLIC "-//W3C//DTD SVG 1.1//EN" "http://www.w3.org/Graphics/SVG/1.1/DTD/svg11.dtd">
<svg xmlns="http://www.w3.org/2000/svg"
xmlns:xlink="http://www.w3.org/1999/xlink" xmlns:ev="http://www.w3.org/2001/xml-events"
version="1.1" baseProfile="full"
width="800mm" height="600mm">
<polygon points="54 21 58 62 35 35 56 59 41 45 63 63 " fill="rgb(130,134,133)" opacity="0.41827735754115214" />
<polygon points="25 4 16 12 31 25 20 17 26 37 50 22 " fill="rgb(254,254,254)" opacity="0.001" />
<polygon points="1 19 54 38 54 47 8 19 42 25 33 9 " fill="rgb(254,254,254)" opacity="0.001" />
<polygon points="54 0 0 0 0 64 60 56 15 4 55 57 " fill="rgb(0,0,4)" opacity="0.9910695463686015" />
<polygon points="62 62 7 63 62 41 59 55 57 50 52 61 " fill="rgb(243,165,93)" opacity="0.989183030764964" />
<polygon points="57 51 43 12 62 62 59 44 57 56 23 13 " fill="rgb(1,1,1)" opacity="0.9926670156199153" />
<polygon points="52 52 58 61 44 4 51 41 4 64 43 36 " fill="rgb(44,15,19)" opacity="0.9797885485806483" />
<polygon points="64 61 63 64 63 58 1 26 51 57 47 10 " fill="rgb(169,44,27)" opacity="0.7320813238993785" />
<polygon points="49 14 28 52 46 43 50 61 61 52 56 51 " fill="rgb(254,222,46)" opacity="0.6176570181087223" />
<polygon points="53 41 62 53 64 64 64 0 0 0 9 55 " fill="rgb(0,0,0)" opacity="0.9986867785516864" />
<polygon points="29 0 60 11 47 47 63 28 16 63 6 6 " fill="rgb(89,14,255)" opacity="0.9959822311731987" />
<polygon points="25 12 63 58 64 0 0 2 0 64 54 64 " fill="rgb(0,0,0)" opacity="0.9981493101539349" />
<polygon points="64 60 19 0 38 41 53 63 33 6 60 43 " fill="rgb(0,0,0)" opacity="0.99894002871739" />
<polygon points="14 36 60 64 64 63 50 59 9 31 64 50 " fill="rgb(0,0,0)" opacity="0.9999203157223316" />
<polygon points="58 8 3 19 34 31 43 51 4 10 6 28 " fill="rgb(179,200,255)" opacity="0.9944690187468911" />
<polygon points="3 31 12 59 34 60 45 4 41 53 51 17 " fill="rgb(236,240,255)" opacity="0.9523532703948997" />
<polygon points="2 62 3 52 17 51 50 57 33 14 52 27 " fill="rgb(254,254,254)" opacity="0.001" />
<polygon points="19 5 46 28 2 34 45 40 8 61 3 50 " fill="rgb(254,254,254)" opacity="0.001" />
<polygon points="8 7 5 59 13 56 51 54 9 22 63 8 " fill="rgb(0,0,0)" opacity="0.9984073999220298" />
<polygon points="47 18 7 16 13 18 61 29 13 64 55 61 " fill="rgb(254,254,254)" opacity="0.001" />
<polygon points="3 11 15 0 4 41 63 64 3 64 62 25 " fill="rgb(0,0,0)" opacity="0.9996353360514756" />
<polygon points="2 43 28 14 14 48 37 61 28 63 16 4 " fill="rgb(243,252,251)" opacity="0.9669327493475142" />
<polygon points="64 14 8 53 3 4 54 37 29 46 58 41 " fill="rgb(254,254,254)" opacity="0.001" />
<polygon points="55 37 48 15 14 40 10 57 53 29 6 37 " fill="rgb(242,168,55)" opacity="0.9995650421696559" />
<polygon points="3 48 5 61 24 36 15 29 4 9 62 51 " fill="rgb(254,254,254)" opacity="0.001" />
<polygon points="8 36 57 43 35 55 9 13 12 31 12 14 " fill="rgb(254,254,254)" opacity="0.001" />
<polygon points="60 43 42 59 8 32 54 35 7 57 42 36 " fill="rgb(254,254,254)" opacity="0.001" />
<polygon points="38 42 26 62 64 64 63 57 62 62 2 64 " fill="rgb(0,0,0)" opacity="0.9990776853753264" />
<polygon points="25 36 31 22 48 27 6 48 1 55 53 17 " fill="rgb(254,254,254)" opacity="0.001" />
<polygon points="53 42 46 41 39 40 49 42 2 41 47 60 " fill="rgb(254,254,254)" opacity="0.001" />
<polygon points="19 60 4 47 38 31 52 62 9 5 38 46 " fill="rgb(254,254,254)" opacity="0.001" />
<polygon points="17 27 9 46 41 33 47 51 35 19 14 6 " fill="rgb(254,254,254)" opacity="0.001" />
<polygon points="60 61 40 15 51 60 11 33 20 36 49 33 " fill="rgb(254,254,254)" opacity="0.001" />
<polygon points="34 6 20 15 11 56 17 60 48 15 57 53 " fill="rgb(254,220,68)" opacity="0.6644779492569328" />
<polygon points="43 53 25 60 47 6 55 48 50 50 40 23 " fill="rgb(209,158,41)" opacity="0.9458111970413967" />
<polygon points="20 40 7 40 14 16 11 43 38 11 8 19 " fill="rgb(242,245,244)" opacity="0.8556575532888511" />
<polygon points="42 15 0 60 36 59 57 55 54 41 18 0 " fill="rgb(254,254,254)" opacity="0.001" />
<polygon points="5 56 18 4 24 59 6 38 52 32 32 59 " fill="rgb(254,254,254)" opacity="0.001" />
<polygon points="38 2 12 25 47 33 20 52 61 53 31 25 " fill="rgb(254,254,254)" opacity="0.001" />
<polygon points="57 17 17 41 4 47 42 1 16 1 5 32 " fill="rgb(0,0,0)" opacity="0.9983947861688344" />
<polygon points="18 9 50 41 23 2 35 40 16 28 17 13 " fill="rgb(252,251,255)" opacity="0.9968072631423672" />
<polygon points="49 51 23 4 12 35 23 56 60 25 13 51 " fill="rgb(254,254,254)" opacity="0.001" />
<polygon points="59 44 14 55 1 36 62 45 47 10 10 58 " fill="rgb(5,118,56)" opacity="0.0035427831239902563" />
<polygon points="31 62 26 48 44 63 45 12 18 50 17 50 " fill="rgb(0,0,0)" opacity="0.998483030314825" />
<polygon points="40 26 29 29 62 52 7 27 24 58 52 6 " fill="rgb(254,254,254)" opacity="0.001" />
<polygon points="41 53 25 59 28 46 4 11 7 38 9 24 " fill="rgb(254,228,137)" opacity="0.4309546201858555" />
<polygon points="42 61 21 58 44 7 16 38 28 12 40 39 " fill="rgb(254,254,254)" opacity="0.001" />
<polygon points="57 21 0 51 23 15 7 23 35 14 17 63 " fill="rgb(254,254,254)" opacity="0.001" />
<polygon points="42 37 27 62 30 25 15 28 1 36 56 20 " fill="rgb(252,202,64)" opacity="0.9744304396357606" />
<polygon points="32 12 35 16 43 42 57 18 22 26 3 37 " fill="rgb(242,243,254)" opacity="0.8483916355815" />
<polygon points="41 12 17 12 48 17 28 10 14 27 58 31 " fill="rgb(254,254,254)" opacity="0.001" />
<polygon points="52 54 52 9 17 34 12 39 15 3 1 48 " fill="rgb(254,254,254)" opacity="0.001" />
<polygon points="60 16 58 28 43 27 53 37 55 37 55 52 " fill="rgb(254,254,254)" opacity="0.001" />
<polygon points="49 15 38 44 56 18 50 11 16 11 47 5 " fill="rgb(249,253,250)" opacity="0.991883099212363" />
<polygon points="27 20 4 6 51 36 12 17 7 34 39 63 " fill="rgb(254,254,254)" opacity="0.001" />
<polygon points="29 59 24 32 28 36 47 33 39 60 1 16 " fill="rgb(254,254,254)" opacity="0.001" />
<polygon points="49 40 33 13 43 60 17 8 56 35 49 24 " fill="rgb(245,249,117)" opacity="0.13250044233382263" />
<polygon points="1 64 16 33 33 15 58 50 48 2 16 14 " fill="rgb(1,0,1)" opacity="0.4945274883131838" />
<polygon points="19 40 0 60 28 16 41 51 35 34 42 39 " fill="rgb(254,254,254)" opacity="0.001" />
<polygon points="53 27 54 44 16 27 20 8 30 0 34 49 " fill="rgb(254,186,47)" opacity="0.6767194870933508" />
<polygon points="33 14 42 6 18 6 22 38 17 48 12 59 " fill="rgb(120,28,227)" opacity="0.9014624547461086" />
<polygon points="21 45 39 52 11 52 12 38 40 9 24 8 " fill="rgb(254,254,254)" opacity="0.001" />
<polygon points="53 19 6 1 24 7 10 55 45 61 51 4 " fill="rgb(254,254,254)" opacity="0.001" />
<polygon points="60 33 53 23 45 35 43 55 61 14 28 11 " fill="rgb(254,254,254)" opacity="0.001" />
<polygon points="35 2 23 32 10 24 32 0 8 35 24 1 " fill="rgb(133,44,240)" opacity="0.9992367184079347" />
<polygon points="17 63 59 47 54 38 6 35 31 2 9 51 " fill="rgb(254,254,254)" opacity="0.001" />
<polygon points="16 11 46 12 48 19 50 51 28 0 16 10 " fill="rgb(238,217,254)" opacity="0.3957827696888667" />
<polygon points="52 25 50 26 34 24 55 15 46 40 29 49 " fill="rgb(248,247,255)" opacity="0.6451788734509405" />
<polygon points="21 30 54 16 34 5 49 6 31 64 36 38 " fill="rgb(255,227,116)" opacity="0.2620019676681379" />
<polygon points="62 7 1 34 26 3 16 37 19 9 38 23 " fill="rgb(254,254,254)" opacity="0.001" />
<polygon points="20 57 47 37 58 26 1 29 55 46 23 35 " fill="rgb(254,254,254)" opacity="0.001" />
<polygon points="27 49 46 24 17 51 25 14 22 28 42 42 " fill="rgb(248,200,64)" opacity="0.9398377341400478" />
<polygon points="14 20 16 30 6 37 14 6 37 60 28 8 " fill="rgb(5,4,4)" opacity="0.09999067258023575" />
<polygon points="12 54 30 35 40 50 27 57 43 59 29 42 " fill="rgb(192,121,20)" opacity="0.5380103872697386" />
<polygon points="8 28 28 61 58 60 49 52 48 44 62 27 " fill="rgb(254,254,254)" opacity="0.001" />
</svg>
