<?xml version="1.0" encoding="UTF-8"?> <svg xmlns="http://www.w3.org/2000/svg" viewBox="0 0 400 150"><path fill="#52278d" d="M106.446 68.608 79.882 83.945v10.224l26.564-15.337Z"></path><path fill="#0075eb" d="m62.173 73.72-8.855-5.112v30.674l26.564 15.337v-20.45L62.173 83.945Z"></path><path fill="#40a8ff" d="M71.027 58.383 53.318 68.608l8.855 5.112 17.709-10.225Z"></path><path fill="#2950bf" d="M106.446 78.832 79.882 94.169v20.45l26.564-15.337Z"></path><path fill="#9c6bde" d="m79.882 53.271-8.855 5.112 8.855 5.112L62.173 73.72l17.709 10.225 26.564-15.337Z"></path><path fill="#6c3cb4" d="m62.173 83.945 17.709 10.224V83.945L62.173 73.72Z"></path><path fill="#1da575" d="M146.592 59.249v40.899l35.419 20.449V79.699Z"></path><path fill="#1b7f56" d="m217.43 59.249-35.419 20.45v40.898l35.419-20.449Z"></path><path fill="#54bf92" d="m182.011 38.8-35.419 20.449 35.419 20.45 35.419-20.45Z"></path><path fill="#6c3cb4" d="m300.712 75.057-8.855-5.112v10.224l8.855 5.113Z"></path><path fill="#b50069" d="m344.986 59.72-35.419 20.449v40.899l35.419-20.449Z"></path><path fill="#52278d" d="M300.712 75.057v10.225l8.855-5.113V69.945Z"></path><path fill="#2950bf" d="M300.712 85.282v40.898l8.855-5.112V80.169Z"></path><path fill="#fd4fa5" d="m300.712 23.934-35.419 20.449 35.419 20.449 35.419-20.449Z"></path><path fill="#40a8ff" d="m256.438 49.495 35.419 20.45 8.855-5.113-35.419-20.449ZM336.131 44.383l-35.419 20.449 8.855 5.113 35.419-20.45Z"></path><path fill="#2950bf" d="m344.986 49.495-35.419 20.45v10.224l35.419-20.449Z"></path><path fill="#0075eb" d="M291.857 80.169V69.945l-35.419-20.45v51.124l44.274 25.561V85.282Z"></path><path fill="#9c6bde" d="m300.712 64.832-8.855 5.113 8.855 5.112 8.855-5.112Z"></path></svg> 