<svg width="1000" height="375" version="1" xmlns="http://www.w3.org/2000/svg" xmlns:xlink="http://www.w3.org/1999/xlink">
  <defs>
    <path id="a" d="M0 0h25v25H0z"/>
  </defs>
  <g fill="none" fill-rule="evenodd">
    <path d="M235 11h25v25h-25V11zm0 50h25v25h-25V61zm75 0h25v25h-25V61zm-75 175h25v25h-25v-25zm100 0h25v25h-25v-25zM10 111h25v25H10v-25zm275-50h25v25h-25V61zm0 50h25v25h-25v-25zM60 311h25v25H60v-25zm0-200h25v25H60v-25zm100 0h25v25h-25v-25zM60 211h25v25H60v-25zm25 100h25v25H85v-25zm75 0h25v25h-25v-25z" fill="#C7D0DA"/>
    <path fill="#C7D0DA" d="M110 61h25v25h-25z"/>
    <path d="M285 136h25v100h-25V136zm25-50h25v75h-25V86zm-50-25h25v25h-25V61z" fill="#e50684"/>
    <path fill="#FA56A8" d="M235 36h25v25h-25z"/>
    <path fill="#B2055C" d="M135 61h100v25H135z"/>
    <path fill="#ff80c4" d="M10 86h25v25H10z"/>
    <path d="M10 61h100v25H10V61zm100 25h25v25h-25V86z" fill="#e50684"/>
    <path fill="#B2055C" d="M85 111h75v25H85z"/>
    <path d="M60 136h25v75H60v-75zm0 100h25v75H60v-75zm50 75h50v25h-50v-25z" fill="#FA56A8"/>
    <path fill="#e50684" d="M160 136h25v175h-25z"/>
    <path fill="#800442" d="M185 111h100v25H185z"/>
    <path d="M235 136h25v100h-25V136zm25 100h75v25h-75v-25z" fill="#FA56A8"/>
    <path fill="#6CB1F8" d="M510 236h25v25h-25z"/>
    <path d="M485 211h25v25h-25v-25zm25-25h75v25h-75v-25z" fill="#0075eb"/>
    <path fill="#0052bd" d="M435 136h25v100h-25z"/>
    <path d="M435 236h25v75h-25v-75zm0 75h50v25h-50v-25zm50 25h50v25h-50v-25zm50 0h50v25h-50v-25z" fill="#58A7F7"/>
    <path fill="#0075eb" d="M585 261h25v100h-25z"/>
    <path fill="#04284C" d="M585 161h25v75h-25z"/>
    <path fill="#06417D" d="M585 11h25v125h-25z"/>
    <path fill="#67b0fe" d="M535 61h50v25h-50z"/>
    <path d="M510 11h75v25h-75V11zm-50 0h25v50h-25V11z" fill="#58A7F7"/>
    <path d="M435 61h25v50h-25V61zm25 50h50v25h-50v-25z" fill="#0075eb"/>
    <path fill="#0052bd" d="M535 136h50v25h-50z"/>
    <path fill="#06417D" d="M610 136h50v25h-50z"/>
    <path d="M635 11h25v125h-25V11zm50 0h25v100h-25V11z" fill="#58A7F7"/>
    <path fill="#0075eb" d="M710 86h75v25h-75z"/>
    <path d="M735 111h25v25h-25v-25zm-75 25h100v25H660v-25z" fill="#58A7F7"/>
    <path fill="#0075eb" d="M810 86h75v50h-75z"/>
    <path d="M885 86h50v50h-50V86zm-75 50h75v75h-75v-75z" fill="#58A7F7"/>
    <path fill="#0075eb" d="M885 136h50v75h-50z"/>
    <path d="M885 211h75v25h-75v-25zm0 25h50v25h-50v-25zm-50 0h50v25h-50v-25zm-50 0h50v25h-50v-25zm-75 0h50v25h-50v-25zm-50 0h50v25h-50v-25z" fill="#58A7F7"/>
    <path fill="#0075eb" d="M610 236h50v25h-50z"/>
    <path d="M510 111h25v25h-25v-25zm0 25h25v25h-25v-25zm-50 200h25v25h-25v-25zm0-125h25v25h-25v-25zm50 0h25v25h-25v-25zm0 50h25v25h-25v-25zm75-125h25v25h-25v-25zm75-125h25v25h-25V11zm-75 225h25v25h-25v-25zm175 0h25v25h-25v-25zm200-25h25v25h-25v-25zm-50-100h25v25h-25v-25zm-75 50h25v25h-25v-25zm-50-75h25v25h-25V86zm-350 25h25v25h-25v-25zm0-75h25v25h-25V36zm50-25h25v25h-25V11zm25 50h25v25h-25V61z" fill="#DBDDDE"/>
  </g>
</svg>
