<svg xmlns="http://www.w3.org/2000/svg" width="500" height="500">
  <g fill="none" fill-rule="evenodd" transform="translate(32 18)">
    <path fill="#BB0661" d="M250.3 3c16-6 37.3.3 47.6 14l139 183c10 13.6 11 36 1 50L307 444.3c-9.6 14.2-30.7 21.8-47 17.2L41 399.2c-16.5-4.5-30.4-22-31-39L0 126.7c-.3-17 12-35.4 28-41.3L250.3 3z"/>
    <ellipse cx="209.6" cy="220.7" fill="#FDB9DB" rx="67.5" ry="64.3"/>
    <path fill="#FA6AB2" fill-rule="nonzero" d="M183.5 276.8l-115.5 5 85.5-62.6c11.2 22 30 57.6 30 57.6z"/>
    <path fill="#BB0661" fill-rule="nonzero" d="M110.2 122.4l43.3 96.8s28-25.8 57.7-50.5c-4.6-8.3-101-46.3-101-46.3z"/>
    <path fill="#E30775" fill-rule="nonzero" d="M291.4 117.3l-80.2 51.4c33.8 21.5 51.5 38 51.5 38l28.7-89.4z"/>
    <path fill="#94054C" fill-rule="nonzero" d="M291.5 117.3c-5 7.7-80.3 51.4-80.3 51.4-23-13.4-81-35.7-101.2-47.3 0-.5 181.5-4 181.5-4z"/>
    <path fill="#F9429E" fill-rule="nonzero" d="M208 384l-24.6-107.2c-8.5 0-115.4 5-115.4 5l140 102z"/>
    <path fill="#FC92C7" fill-rule="nonzero" d="M354.4 288L246 273l-38 111c38.2-25.6 116.8-80 146.4-96z"/>
    <path fill="#FA6AB2" fill-rule="nonzero" d="M183.5 276.8c6 36.6 24.6 107 24.6 107 1 0 33-81.3 38-110.8-15 2-62 3.8-62 3.8z"/>
    <path fill="#F9429E" fill-rule="nonzero" d="M354.4 288c-13.7-2-85-70.4-91.7-81.2 6.8-26.8 18.8-67.7 28.8-89.5l63 170.8z"/>
    <path fill="#E30775" fill-rule="nonzero" d="M68 282s35.6-113 42.2-159.6c1.4-3.2 40.8 92.2 43.3 96.8L68 282z"/>
    <path fill="#FA6AB2" fill-rule="nonzero" d="M246 273c48 7 108.4 15 108.4 15s-68.4-56-91.7-81c-7.2 32.2-16.7 66-16.7 66z"/>
    <path fill="#E30775" d="M260 461.4L41 399.2c-3-.8-5.7-2-8.4-3.5-3-2-6-4.2-8.7-6.5C15 373.8 62 286 68 282c5.4-4 140 102 140 102 2.6 5.2 56 72 67.3 78.4-5.3.6-10.6.3-15.4-1zM298 17l138.6 182.8 2.4 3.4c3 5.2 5 11.3 5.8 17.6-5.8 23.4-60.6 49.8-90.4 67.3-14-24-56.5-145-63-170-6.2-26-14.2-115-14.2-115 8.4 2.6 16 7.4 21 14z"/>
    <path fill="#FC92C7" d="M250.3 3L27.8 85.5c-9.3 3.3-17.4 11-22.3 20.5 25.4 0 100.7 15 104.7 16.4 11 4.4 177.4-1.3 181.3-5 4.7-4.6 0-108.2-10.5-113l-1-.6C270.2 0 259.3-.4 250.2 3z"/>
  </g>
</svg>
