<svg xmlns="http://www.w3.org/2000/svg" width="224" height="234">
  <g fill="none" fill-rule="evenodd">
    <path fill="#B8275E" d="M124.8 7.3c8-2.7 18.2.5 23 7.2l65.4 89.2c5 6.7 5 17.6.2 24.4l-64.8 92c-4.8 7-15 10.7-23 8L21 196.7c-8-2.4-14.5-11-14.7-19.3L3.5 65c-.2-8.3 6-17.2 13.8-20L124.8 7.3z"/>
    <path fill="#F499BC" d="M137.6 7.4c-4.2-1.3-8.8-1.5-12.8 0L20.2 44l-4 1.4c-3 1.4-5.8 3.6-8 6.4l48.8 8h86l-5.4-52.4z"/>
    <path fill="#E8357A" d="M137 7.2c4.3 1.3 8.3 3.8 10.8 7.3l65.4 89.2c2.7 3.7 4 8.7 3.7 13.6L175 145l-32-85-6-53zm.5 220.6c-4 1.2-8.2 1.4-12 .3L21 196.7c-4-1.2-7.7-4-10.4-7.6L34 144l70 48 33.5 36z"/>
    <path fill="#F499BC" d="M34 144l43-34 11 32"/>
    <path fill="#E8357A" d="M104 192l-16-50 34-2"/>
    <path fill="#F499BC" d="M57 60l45 29-25 21"/>
    <path fill="#E8357A" d="M143 60l-13 48-28-19"/>
    <path fill="#F499BC" d="M175 145l-71 47 18-52"/>
    <path fill="#E8357A" d="M57 60l-23 84 43-34"/>
    <path fill="#F499BC" d="M175 145l-32-85-13 48"/>
    <path fill="#F8CCDD" d="M77 110l25-21 28 19-8 32-34 2"/>
  </g>
</svg>
