<?xml version="1.0" encoding="UTF-8" standalone="no"?>
<svg width="283px" height="326px" viewBox="0 0 283 326" version="1.1" xmlns="http://www.w3.org/2000/svg" xmlns:xlink="http://www.w3.org/1999/xlink" xmlns:sketch="http://www.bohemiancoding.com/sketch/ns">
    <!-- Generator: Sketch 3.3.3 (12072) - http://www.bohemiancoding.com/sketch -->
    <title>Untitled</title>
    <desc>Created with Sketch.</desc>
    <defs></defs>
    <g id="Page-1" stroke="none" stroke-width="1" fill="none" fill-rule="evenodd" sketch:type="MSPage">
        <g id="4C-africa" sketch:type="MSLayerGroup">
            <path d="M111.8,161.4 L111.8,159.4 L117.8,159.4 L117.8,163.4 L111.8,163.4 L111.8,161.4 L111.8,161.4 Z M30.2111817,143.4 C26.5593262,140.953222 22.8984375,137.787598 22.8984375,137.787598 C22.8984375,137.787598 27.1064451,132.799317 27.1064451,129.908691 C33.9379881,134.375 30.1078461,136.191793 31.2622938,135.947906 C32.7986827,135.623331 34.4091402,135.412598 36.0009764,135.412598 C34.3969725,139.4 39.4458015,143.4 39.4458015,143.4 L38.6762703,148.087891 C38.6762703,148.087891 33.8630372,145.846777 30.2111817,143.4 L30.2111817,143.4 Z M3.8,70.1 C3.8,69.4 5.1,67 6.7,64.8 C8.3,62.6 10.4,59.3 11.3,57.4 C12.2,55.5 14.4,51.9 16.2,49.3 L19.3,44.5 L28,44.4 L36.8,44.4 L36.8,50.4 L22.8,50.4 L22.8,63 L20.3,64.1 L17.8,65.2 L17.8,71.4 L3.8,71.4 L3.8,70.1 L3.8,70.1 Z M50.2,16.3 C47,15.2 46.6,13.9 48.7,11.3 L50.5,9.1 L58.1,10.4 L65.8,11.7 L65.8,14.3 L60,15.4 C56.8,16 53.8,16.7 53.2,16.8 C52.6,17 51.2,16.8 50.1,16.3 L50.2,16.3 L50.2,16.3 Z M211.3,134.7 C213.2,135.6 214.8,137 214.8,137.7 C214.8,139.8 222,147 226.8,149.8 L226.9,149.7 C232.2,152.8 231.8,152.7 236.9,150.7 L241,149.1 L243.2,150.1 L245.4,151.1 L247.9,149.4 C249.3,148.5 252.1,147.4 254.2,147 L258,146.3 L260.2,143.7 C261.4,142.2 263.9,139.4 265.7,137.3 C269.4,133.1 269.4,133.1 261.9,131.4 C255.2,129.9 249.3,126.3 248.3,123.2 C247.9,121.9 246.5,119.9 245.1,118.6 L242.6,116.3 L244.3,114.4 L246,112.5 L242,108.5 L238,104.5 L233.4,103.8 L228.8,103.1 L225.6,104 L222.4,104.9 L222,106.9 C221.8,108 220.5,110.7 219,112.9 C217.6,115.1 215.6,118.7 214.6,120.8 L212.8,124.7 L213.4,126.6 L214,128.5 L210.9,130.2 C207,132.4 207,132.7 211.3,134.7 L211.3,134.7 L211.3,134.7 Z M129.8,60.8 L125.3,58.6 L123.1,60.1 L120.9,61.6 L120.6,58.3 L120.3,54.9 L116,54.6 L111.8,54.3 L111.8,50.9 L117.9,47 L124,43.1 L117.8,36.9 L111.6,30.7 L112.7,30 C113.3,29.6 113.8,28.4 113.8,27.4 C113.8,26.4 115.2,24.1 116.9,22.4 L120,19.3 L122.6,19.9 C124,20.2 126.8,20.9 128.7,21.4 L132.2,22.3 L133.9,25.2 L135.6,28.1 L139.3,28.8 C141.3,29.2 144.3,30.2 145.9,31 L148.8,32.5 L151.2,30.2 L153.6,27.9 L153,26.1 C152.7,25.1 152.9,23.4 153.5,22.3 L154.9,20.4 L157.8,20.4 C159.4,20.4 163.2,21.6 166.3,23.1 L171.9,25.8 L171.6,33.8 L171.3,41.9 L166.3,42 L161.3,42.1 L158.6,40.3 C153.9,37 146.8,41.3 143.8,49.4 C142.3,53.3 139.6,57.5 136.4,60.8 L134.3,62.9 L129.8,60.8 L129.8,60.8 Z M242.1,107.9 L237.9,103.6 L233.4,102.9 C230.9,102.5 227.6,102.5 225.9,102.9 L222.9,103.6 L222.3,101.9 C221.9,101 222.1,98.6 222.7,96.5 L223.7,92.8 L226.6,90.6 L229.5,88.4 L230.5,89.6 C231,90.3 231.8,92.2 232.1,94 L232.8,97.1 L238.6,101.7 C241.8,104.2 245.4,107.7 246.6,109.3 L248.8,112.3 L247.5,112.2 C246.8,112.1 244.4,110.2 242.1,107.8 L242.1,107.9 L242.1,107.9 Z M250,165.2 C249.4,164.5 248.7,161.7 248.3,159 L247.7,154 L248.7,151.4 L249.7,148.8 L253.8,148.1 C258.1,147.4 259,146.7 265.2,139.1 C267.3,136.5 270.1,134 271.4,133.5 C274,132.5 274.3,131.1 272.9,127.3 C272.4,126 272.2,123.7 272.5,122.2 L273,119.4 L275.6,118.5 C277,118 279,117.1 279.9,116.6 L281.6,115.6 L282.3,119.5 L283,123.4 L275.2,138.4 L267.4,153.4 L261.9,157.7 C258.9,160.1 255.2,163 253.8,164.2 L251.2,166.3 L250.2,165 L250,165.2 L250,165.2 Z" id="Unclaimed" fill="#D1DAE0" sketch:type="MSShapeGroup"></path>
            <path d="M203.9,291.8 L204.9,294.5 L202.3,296.4 C200.9,297.4 199.1,299.5 198.3,300.9 C197.5,302.4 193.6,307 189.6,311.2 L182.3,318.8 L177.2,321.4 L172.1,324 L168.3,323 L164.5,322 L158.2,323.6 C150.3,325.6 151.2,325.7 148.1,322.6 L149.3,323.4 L146.7,320.8 L147.3,317.3 L147.9,313.8 L145.4,310.2 C142.9,307.6 141.8,305.4 141.8,304.8 C141.8,304.2 140.9,302.5 139.8,301.1 L137.8,298.5 L138.8,297.9 C139.3,297.6 141.2,298 143,298.9 L146.2,300.5 L149.5,298.9 L152.8,297.3 L152.8,282.3 L153.8,282.3 C154.8,282.3 155.1,283.5 155.2,288.3 L155.3,290.8 L157.7,290.5 C160.5,290.2 163.8,287.6 163.8,285.7 C163.8,283.5 165.6,283.2 168.8,284.8 L171.8,286.4 L173.7,285.4 C174.8,284.8 175.9,283.5 176.2,282.5 C176.5,281.5 177.9,280.1 179.3,279.5 C180.7,278.9 181.8,277.9 181.8,277.4 C181.8,276.9 183.8,274.8 186.3,272.8 L190.8,269.1 L195.1,269.7 L199.4,270.3 L199.4,273.5 C199.4,275.3 199.7,278.5 200.2,280.7 L201,284.7 L198.7,285.7 C197.4,286.3 196.2,287.6 196.1,288.8 L195.8,290.9 L198.3,292 L200.8,293.1 L201.9,291.8 L203.9,291.8 L203.9,291.8 Z M187.8,305.4 C188.9,304.3 189.8,302.7 189.8,301.9 C189.8,301.1 188.9,300 187.8,299.4 L185.8,298.3 L184,299.3 C183,299.8 181.6,301 180.9,301.9 L179.6,303.5 L181.4,305.5 C183.7,308 185.4,308 187.9,305.5 L187.8,305.4 L187.8,305.4 Z M187.435294,304.988235 C188.405882,304.017647 189.2,302.605882 189.2,301.9 C189.2,301.194118 188.405882,300.223529 187.435294,299.694118 L185.670588,298.723529 L184.082353,299.605882 C183.2,300.047059 181.964706,301.105882 181.347059,301.9 L180.2,303.311765 L181.788235,305.076471 C183.817647,307.282353 185.317647,307.282353 187.523529,305.076471 L187.435294,304.988235 L187.435294,304.988235 Z M198.3,291 L196.5,289.7 L197.1,288.1 C197.5,287.1 198.4,286.4 199.2,286.4 L200.6,286.4 L201.1,288.9 C201.7,292 200.7,292.7 198.3,291 L198.3,291 L198.3,291 Z M156.2,286.8 L156.2,283.2 L154.5,282 L152.8,280.8 L152.8,277.7 C152.8,276 153.9,272 155.3,268.9 L157.8,263.2 L157.8,252.6 L161.8,251.9 C164,251.5 166.6,251.5 167.6,251.8 C168.6,252.1 170.6,251.7 172.2,250.9 L175,249.5 L176.9,252.7 C179.7,257.5 184.1,263.3 187.1,266.2 L189.8,268.8 L184.1,274.1 C180.9,277 178,279.4 177.5,279.4 C177.1,279.4 176.2,280.5 175.6,281.8 C174.1,285.1 172.2,285.6 168.6,283.8 L165.6,282.2 L164.2,283.4 C163.4,284.1 162.8,285.2 162.8,285.9 C162.8,287.4 161,288.9 158.3,289.8 L156.3,290.4 L156.3,286.8 L156.2,286.8 L156.2,286.8 Z M193.4,268.7 C190.7,268.3 188.9,267.3 186.8,264.9 C183.9,261.7 179.9,256.4 178.2,253.3 L176.2,249.8 L183.2,249.8 L187.5,245.1 L191.8,240.4 L196.1,241.6 C202.3,243.3 205.4,245.1 206.6,247.9 L207.7,250.4 L206.2,256.2 C204.5,262.5 202.2,267.7 200.5,268.8 C199.4,269.6 198.4,269.6 193.5,268.8 L193.4,268.7 L193.4,268.7 Z M214.1,242.5 C213.4,242.1 213,240.5 213.1,238.9 L213.3,236 L210.1,233.8 C208.3,232.6 207.1,231.4 207.3,231.1 C207.5,230.9 208.2,228.3 208.8,225.4 L209.8,220.1 L208.8,218.1 C207.5,216 208.4,212.4 210.2,212.4 C213,212.4 214.7,218.8 213.4,224.2 L212.6,227.5 L215.1,230.2 C216.5,231.7 217.9,234.4 218.3,236.4 L218.9,239.9 L217.1,241.6 L215.3,243.3 L214.1,242.6 L214.1,242.5 L214.1,242.5 Z M195.5,235.6 C195.3,235.2 194.8,233.6 194.4,232 L193.7,229.2 L195,227.7 L196.3,226.2 L194.3,224.7 C193.2,223.9 191.7,222.9 190.9,222.4 L189.5,221.6 L189.6,217.3 C189.7,214.9 189.8,212 189.9,210.8 L190.1,208.6 L192.7,207.6 C194.2,207.1 196,206.4 196.9,206.1 L198.5,205.6 L202.9,208.9 L207.3,212.2 L207.6,215.5 C208.1,222.3 208.1,223.9 207.5,227.3 L206.8,230.8 L201.9,233.6 C196.6,236.6 196.1,236.7 195.5,235.6 L195.5,235.6 L195.5,235.6 Z M230.9,187.1 C229.8,185.2 228.8,183.2 228.8,182.6 C228.8,182 224.5,179.4 219.3,176.9 L209.8,172.2 L205.3,172.9 C202.8,173.3 200.6,174 200.3,174.5 C199.3,176.1 197,174.4 195.9,171.3 L194.9,168.3 L197.9,163 L200.9,157.7 L200.3,155.3 L199.7,152.9 L206,152.2 C209.5,151.8 212.8,151 213.3,150.3 C213.9,149.6 215.7,148.6 217.4,148 L220.5,146.9 L222.4,148.3 C223.5,149.1 226.1,150.6 228.2,151.7 L232.1,153.7 L236.6,152 L241.1,150.3 L243.4,151.3 L245.7,152.3 L246.6,151.4 L247.5,150.5 L247.6,156.9 L247.7,163.3 L249.4,165.1 L251.1,166.9 L248.9,169.8 C247.7,171.4 244.2,175.4 241.3,178.7 C238.3,182 235.3,186 234.6,187.6 L233.4,190.5 L231.3,187 L230.9,187.1 L230.9,187.1 Z M196.1,149.7 L193.1,147.4 L190.4,148.6 L187.7,149.8 L185.9,147.4 C184.9,146.1 184.3,144.5 184.6,143.8 C184.9,143.1 184,141.8 182.6,140.9 C181.2,140 179,137.5 177.6,135.4 C176.2,133.3 174.2,131.3 173.1,130.9 L171.2,130.3 L170,125.3 L168.8,120.3 L167.2,119.3 C166.3,118.8 165.9,118.3 166.3,118.3 C166.7,118.3 166.1,116.4 165,114.1 L162.9,110 L163.6,106.4 C164.1,102 166.4,98.4 168.3,98.4 L169.8,98.4 L169.8,80.6 L160.6,75.3 L151.4,70 L185.8,69.7 L220.2,69.4 L221.6,70.5 C222.4,71.1 223,73.2 223,75.1 C223,78.9 224.2,81.8 227.3,85.2 L229.4,87.5 L225.7,90.9 C223.7,92.8 222,95.1 221.9,96.1 C221.8,97.1 221.7,100.3 221.6,103 L221.4,108.1 L218.3,112.5 C214.3,118.3 211.9,124.3 212.6,126.5 L213.2,128.3 L210.1,129.9 C206.2,131.9 206.3,133.1 210.5,135.1 C212.4,136 214,137.3 214,138 C214,138.7 215.4,140.7 217.1,142.4 L220.2,145.6 L218.9,146.5 C218.2,147 216.8,147.4 215.9,147.4 C215,147.4 213.8,148.1 213.4,148.8 L212.6,150.2 L206,151.1 L199.4,152 L196.4,149.7 L196.1,149.7 L196.1,149.7 Z M94.5,145.6 L93.9,142.5 L89.8,140.4 C87.5,139.2 85,138.5 84.3,138.8 L82.9,139.3 L82.9,134.8 C82.9,132.3 83.8,127.6 84.9,124.2 L86.9,118.1 L85.8,116.7 L84.7,115.3 L86.9,111.4 C88.1,109.2 90.2,107 91.5,106.4 L93.9,105.3 L97.6,107.2 C99.6,108.2 103.3,109.6 105.8,110.1 L110.3,111.1 L113.2,109.6 L116.1,108.1 L118.5,109.2 L120.9,110.3 L123.5,109.1 L126.1,107.9 L128,110.2 L129.9,112.5 L126.4,118.7 C124.5,122.1 122.9,125.9 122.9,127.1 C122.9,132.2 117.1,137.8 114,135.8 C113.4,135.4 111.6,136.1 110,137.3 L107,139.4 L105.9,143.3 L104.8,147.2 L103,147.2 C102,147.2 99.8,147.5 98.2,147.8 L95.2,148.4 L94.6,145.3 L94.5,145.6 L94.5,145.6 Z M59,142.1 L57.9,137.7 L58.9,132.6 C59.4,129.8 59.7,125.7 59.4,123.5 L58.8,119.4 L67.6,119.4 L68.3,126.6 C69.1,134.5 70.7,138.7 73.4,139.8 L75.1,140.5 L74.2,141.4 C73.3,142.3 62.3,146.4 60.8,146.4 C60.4,146.4 59.6,144.4 59,142 L59,142.1 L59,142.1 Z M19.4,134.3 C14.3,128.3 19.4,120 24.8,125.4 C27.2,127.8 27.3,128.6 25.2,133 C23,137.7 22.4,137.8 19.4,134.3 L19.4,134.3 L19.4,134.3 Z M268.4,132.4 C268.1,132 265.3,131.1 262.1,130.4 C258.9,129.7 254.9,128.3 253.1,127.2 L249.9,125.3 L248.9,122.4 L247.9,119.5 L249.3,118.3 L250.7,117.1 L250.7,118.2 C250.7,118.8 252.1,120 253.8,120.9 L256.9,122.5 L263.8,120.9 C267.6,120.1 270.9,119.4 271.2,119.4 C271.5,119.4 271.7,120.9 271.6,122.6 C271.5,124.4 271.8,127.2 272.2,129 L272.9,132.1 L270.8,132.6 C269.6,132.9 268.5,132.8 268.2,132.4 L268.4,132.4 L268.4,132.4 Z M5.5,107.1 L8.8,106.1 L10.9,107.1 L13,108.1 L2.2,108.1 L5.5,107.1 L5.5,107.1 Z M147.1,67.3 C146.5,66.7 143.6,65.4 140.7,64.5 L135.5,62.8 L137.5,60.9 C140.3,58.2 143.2,53.6 144.8,49.5 C147.8,41.8 153.8,38.2 158.5,41.2 C161.3,43 166.8,43.8 170.5,43 L172.7,42.5 L172.7,34.5 C172.7,30.1 173,26.5 173.5,26.5 C173.9,26.5 177.7,27.2 181.9,28 L189.5,29.5 L193.2,28.5 L196.9,27.5 L200.2,28.6 C202,29.2 204.2,29.4 205,29.1 L206.5,28.5 L208.2,33.3 C209.2,35.7 210.2,39 210.4,40.4 L210.9,42.9 L207,38.5 L203.1,34.1 L202.4,35.2 C202,35.8 203.6,39.3 205.9,43.1 C208.2,46.8 212.2,54.1 214.8,59.2 L219.5,68.4 L148.2,68.4 L147.1,67.3 L147.1,67.3 Z M193.8,233.6 L192.8,229.7 L190.3,228.6 C188.9,228 187,226.3 186.1,224.9 L184.4,222.3 L183,222.8 C182.2,223.1 180.3,222.7 178.7,221.9 C177.1,221.1 174.7,220.4 173.3,220.4 L170.8,220.4 L170.8,223.2 C170.8,226.7 169.2,228.4 165.7,228.4 L163,228.4 L162.4,230 C162.1,230.9 161.8,233.8 161.8,236.4 L161.8,241.2 L163.8,243.7 C164.9,245.1 165.8,246.6 165.8,247 L173.641,248.17 C173.801,248.251 173.982,248.327 174.189,248.4 L173.815,248.196 L179.2,249 L183.2,248.8 L187.3,244.1 C189.5,241.5 191.9,239.4 192.5,239.4 C194.5,239.4 194.9,237.6 193.8,233.6 L193.8,233.6 L193.8,233.6 Z" id="British-Empire" fill="#FF297E" sketch:type="MSShapeGroup"></path>
            <path d="M144,298.5 C142.6,297.7 140.7,297.3 139.8,297.6 L138.1,298.1 L136.6,295.8 C135.8,294.5 134.8,290.6 134.5,287 C133.5,277 130.3,266.2 126,258.4 C120.1,247.7 121.1,245.8 131.6,248 L137.1,249.1 L141.1,248.4 L145.1,247.7 L152,249.4 L158.9,251.1 L164,250 C165.6,248.9 169.3,248.4 171,248.4 L174.2,248.4 L173.1,249.5 C172.5,250.1 170.7,250.6 169.1,250.6 C167.5,250.6 164.1,250.8 161.5,251.1 L156.7,251.6 L156.7,263.2 L154.2,268.9 L151.7,274.6 L151.7,297.2 L149.2,298.4 C146.1,299.8 145.8,299.8 142.7,298.1 L144,298.5 L144,298.5 Z M237.7,217.8 C237.5,217.6 234.6,218.3 231.4,219.4 L225.5,221.4 L220.3,220.7 L215.1,220 L215.1,218.1 C215.1,217 214.4,215.1 213.5,213.7 L211.9,211.2 L210.3,211.5 C209.4,211.7 206.7,210.4 204.4,208.8 L200.1,205.8 L197.2,200.1 C195.1,197 193.8,193.3 193.8,192 C193.8,190.6 193.3,188.4 192.7,187 L191.6,184.5 L192.7,183.1 L193.8,181.7 L192.7,180.6 L191.6,179.5 L192.2,177.5 C192.9,175.2 195.8,174.2 198.1,175.4 L199.7,176.3 L200.3,175.3 C200.6,174.8 202.9,174 205.3,173.7 L209.8,173 L218.8,177.4 C223.8,179.8 227.8,182.2 227.8,182.8 C227.8,183.4 228.9,185.4 230.2,187.4 L232.6,191 L232.1,197 L231.6,203 L235.2,210.8 L238.8,218.6 L237.7,217.8 L237.7,217.8 Z M140.6,170.9 C139.6,169.6 138.8,167.9 138.8,167.2 C138.8,166.4 137.9,165 136.7,163.9 L134.6,162 L131.4,163.4 C129.6,164.2 126.2,164.8 123.7,164.9 L119.2,165 L118.9,161.8 L118.6,158.6 L111.8,158.6 L111.8,156.7 C111.8,154.1 108.6,148.6 107,148.6 C105.5,148.6 105.5,148.1 106.8,143.4 L107.8,139.8 L110.3,138.2 C111.7,137.3 113.3,136.8 113.8,137.2 C117.1,139.2 123.7,132.7 123.7,127.5 C123.7,126.3 125.3,122.5 127.2,119.1 L130.7,112.9 L128.6,110.2 L126.5,107.5 L129.8,107.8 L133.1,108.1 L135.7,112.6 C137.1,115.1 139.1,119.8 140.1,123.1 C142,129.6 144.5,134.8 148.7,141.2 L151.4,145.3 L149.8,146.3 C148.9,146.9 147.5,148.8 146.6,150.7 C141.5,161.1 141.3,162.7 144.5,165.3 L146,166.5 L144.7,169.6 C143,173.7 142.5,173.8 140.4,171.1 L140.6,170.9 L140.6,170.9 Z M75.4,139.9 C75.1,139.1 74.2,138.4 73.5,138.4 C71.5,138.4 70.1,134.1 69.3,126.2 L68.6,119.4 L69.6,119.4 C70.2,119.4 71.3,119.2 72.1,118.9 L73.5,118.4 L75.1,122.7 C77.8,130.1 78.2,147 75.5,140 L75.4,139.9 L75.4,139.9 Z" id="German-Colonies" fill="#FAB53E" sketch:type="MSShapeGroup"></path>
            <path d="M202,288.5 C201.9,287.4 201.6,284.5 201.4,282 C200.3,271.5 200.3,269 201.1,269 C202.4,269 205.7,262 207.3,255.6 L208.8,249.7 L207.3,246.8 L205.8,243.9 L201.6,242 C199.3,241 196.6,240.1 195.6,240.1 C192.9,240.1 194.3,238.6 200.5,235.1 L206.1,232 L209.3,233.9 L212.5,235.8 L212.3,238.9 L212.1,242 L214,243 L215.9,244 L218.1,241.6 L220.3,239.2 L219.6,235.9 C219.2,234.1 217.8,231.4 216.4,229.9 L213.9,227.2 L214.6,224 L215.3,220.8 L220.5,221.5 L225.7,222.2 L232.4,219.8 L239.1,217.4 L238.5,220.5 C238.2,222.2 238.4,225.8 239,228.4 L240.1,233.2 L238.2,236.9 C235.8,241.6 233.9,243.2 227.3,246.5 C224.4,247.9 222.1,249.6 222.1,250.1 C222.1,250.6 220.1,253.3 217.6,256.1 C212.4,261.9 212.4,261.9 215.2,267.2 L217.3,271.2 L216.7,274.1 C216,277.2 213,280 208.4,282 L205.5,283.2 L204,286.9 L202.5,290.6 L202.3,288.6 L202,288.5 L202,288.5 Z M124.1,246.2 L119.9,246.2 L119.9,244.3 C119.9,241.2 122.9,232.4 126.1,226.2 L129.1,220.4 L127.4,215.4 L125.7,210.4 L126.3,208 L126.9,205.6 L124.5,200.8 C123.2,198.1 122.617187,196.928223 122.617187,196.928223 L131,196 L139.7,196.3 L140.8,199.6 C141.4,201.4 142.7,203.7 143.7,204.6 L145.5,206.3 L148.2,205.6 L150.9,204.9 L152,202.5 L153.1,200.1 L156.2,200.8 C160.7,201.8 160.8,201.9 160.8,207 C160.8,209.6 161.4,213.3 162.1,215.2 L163.3,218.7 L170.3,218.7 L170,222.2 C169.5,226.8 169.2,227.2 165.8,227.2 L162.9,227.2 L161.9,229.1 C161.3,230.4 160.8,233.5 160.8,236.1 L160.8,241 L163.3,244.4 L165.8,247.8 L163,248.4 C158.9,249.3 155.6,249.2 152.2,248.1 C149.6,247.3 135.4,246.3 124.1,246.2 L124.1,246.2 Z M123.3,190.6 C123,190.3 121,188.505078 120.3,189.205078 L121.131348,191.8 L122.1,191.8 C123.1,191.4 123.6,190.9 123.3,190.6 L123.3,190.6 L123.3,190.6 Z M6.3,115.6 L3.3,114.1 L6.3,112.8 C7.9,112.1 10.6,111.5 12.1,111.5 L14.9,111.4 L13.8,113.4 C13.2,114.5 12,115.8 11,116.2 L9.3,117.1 L6.3,115.6 L6.3,115.6 Z" id="Portugese-Empire" fill="#12B819" sketch:type="MSShapeGroup"></path>
            <path d="M188.5,225.4 L185.2,221.8 L184.1,222.4 C183.5,222.8 181.7,222.4 180.1,221.5 C177.2,220.1 174.8,219.4 173.4,219.4 C172,219.4 170.6,218.9 170.3,218.3 L169.6,217.2 L166.8,217.8 L164,218.4 L162.9,214.6 C162.3,212.5 161.8,208.7 161.8,206.1 L161.8,201.4 L157.6,200.3 L153.4,199.2 L152.1,200.9 C151.4,201.9 150.7,203 150.5,203.5 C150.3,204 148.9,204.5 147.2,204.6 L144.3,204.9 L142,200.1 L139.7,195.3 L130.7,195.6 L121.7,195.9 L121.7,194.2 C121.7,192 125.2,190.1 127.7,190.9 L129.6,191.5 L132.5,190 C135.7,188.3 138.3,184.9 139.2,181.1 C139.5,179.7 141.4,176.2 143.3,173.2 L146.7,167.9 L146.1,165.3 L145.5,162.7 L147.6,157.8 L149.7,152.9 L149.1,150.1 L148.5,147.3 L149.9,146.8 C150.7,146.5 153.6,147.3 156.4,148.5 L161.6,150.7 L167.3,148.9 C170.4,147.9 174.6,147.1 176.5,147 C178.4,146.9 180.6,146.5 181.4,146 L182.8,145.1 L185.1,147.9 L187.4,150.7 L190.1,149.5 L192.8,148.3 L195.6,150.3 C197.1,151.4 198.7,153.5 199.1,154.9 L199.8,157.5 L196.8,162.9 L193.8,168.3 L194.8,170.9 C196.1,174.3 196.1,174.4 194.3,174.4 C193.5,174.4 192.3,175.5 191.7,176.9 L190.6,179.4 L191.7,180.8 L192.8,182.2 L191.7,183.3 L190.6,184.4 L191.8,187 C192.4,188.4 193,190.7 193,192.1 C193,193.5 194.1,196.8 195.5,199.5 C198.5,205.4 198.5,205.5 196.3,205.5 C195.3,205.5 193.4,206.2 192.1,206.9 L189.6,208.3 L189.3,211.1 C189.1,212.7 188.9,215.7 188.9,217.8 L188.8,221.7 L190.7,223.1 C191.8,223.9 193.3,225 194.1,225.5 L195.6,226.4 L194.1,227.4 C191.8,229 191.1,228.7 187.6,224.8 L188.5,225.4 L188.5,225.4 Z" id="Belgian-Congo" fill="#333B45" sketch:type="MSShapeGroup"></path>
            <path d="M249.8,115.3 L249.8,113.4 L247.9,113.4 C246.9,113.4 245.5,114 245,114.8 L243.8,116.2 L245.4,117.8 L245.4,117.9 L247,119.5 L248.4,118.3 C249.2,117.7 249.8,116.3 249.8,115.3 L249.8,115.3 L249.8,115.3 Z M175.8,134.4 C175.8,133.8 174.5,132.7 172.9,131.9 L170,130.4 L168.8,125.4 L167.6,120.4 L166,119.8 C165.1,119.5 164.7,118.9 165,118.6 C165.4,118.3 164.7,116.2 163.6,114 L161.6,110 L162.3,106.4 C163.1,101.9 165.8,97.3 167.5,97.3 L168.8,97.3 L168.8,80.9 L156.2,73.5 C149.3,69.5 141.7,65.6 139.3,64.9 L134.9,63.6 L133.7,65.1 L132.5,66.6 L134.5,70.8 L136.5,75 L136.2,82.9 L135.9,90.8 L132,96.4 C129.9,99.4 127.8,103 127.4,104.2 L126.7,106.4 L132.5,106.4 L134,108.2 C136.7,111.5 139.4,117 141.2,123 C143.1,129.4 145.5,134.4 150.1,141.5 L153,146 L156.7,147.6 L156.8,147.6 C161.7,149.8 163,149.8 170,147.4 C173.3,146.3 177,145.6 178.2,145.9 L180.4,146.4 L182.2,145 L184,143.6 L179.9,139.5 C177.6,137.2 175.8,134.9 175.8,134.4 L175.8,134.4 L175.8,134.4 Z M277.1,233.5 C276.7,231.6 276,229.2 275.4,228.1 L274.4,226.2 L272.8,229.3 C270.5,233.7 261.7,241.2 258,242 L254.8,242.7 L253.6,245.6 L252.4,248.5 L253.1,254 L253.8,259.5 L250.7,264.6 L247.6,269.7 L248.3,274.9 C249.1,280.8 249.5,281.6 252.3,283.2 L252.1,283.2 C254.5,284.6 254.1,284.6 258.6,283.3 L262.4,282.2 L263.9,278.6 C264.8,276.6 266.1,272.3 266.9,269 C267.7,265.7 270.5,257.1 273.1,250 L277.8,237 L277.1,233.5 L277.1,233.5 Z M106.8,7.3 L104.6,11.8 L102.4,16.3 L105.6,20.6 C107.4,22.9 109.3,26.1 109.9,27.6 C111.1,30.6 112.8,30.4 112.8,27.2 C112.8,26.1 114.2,23.9 115.9,22.3 L119,19.4 L116.3,16.6 L113.6,13.8 L114.7,11 L115.8,8.2 L114.8,6.9 C114.3,6.2 114.1,5 114.4,4.1 L115,2.5 L113,1.4 L111,0.3 L108,1.4 L105,2.5 L105.9,4.9 L106.8,7.3 L106.8,7.3 Z M67.7,21.9 L66.6,23.2 L65.5,24.5 L63.7,23.9 C62.7,23.6 61,23.9 59.8,24.5 L57.7,25.6 L58.2,26.9 L58.7,28.2 L53.7,31.3 C50.9,33 48,34.4 47.2,34.4 C46.4,34.4 43.9,35.3 41.8,36.4 L37.8,38.4 L37.8,45 L61.3,62.4 C74.2,72 84.8,80.2 84.8,80.6 C84.8,81 86.8,81.4 89.3,81.4 L93.8,81.4 L106.7,71.6 L119.7,61.9 L119.7,55.5 L115.5,55.2 L111.3,54.9 L111,52.8 L110.7,50.7 L116.7,46.8 L122.7,42.9 L116.3,36.4 C112.8,32.9 109.4,28.7 108.6,27.2 C107.8,25.7 105.9,22.6 104.3,20.4 L101.4,16.3 L103.5,12 L105.6,7.7 L105.1,5.7 L104.6,3.7 L95,3.2 L85.4,2.7 L80.7,3.9 C78.1,4.6 73.7,6.4 71,7.9 L66.1,10.7 L66.9,16.3 L67.7,21.9 L67.7,21.9 Z M135,90.7 L135.3,82.8 L135.6,74.9 L133.7,71.2 L129.8,61.6 L125.3,59.7 L121.3,62.2 C119.1,63.6 112,68.7 105.5,73.6 L93.8,82.4 L83.8,82.4 L83.8,81.2 C83.8,80.5 73.5,72.3 61,63.1 L38.3,46.3 L37.9,48.9 L37.6,51.4 L23.8,51.4 L23.8,63.4 L21.3,64.7 L18.8,65.8 L18.8,72.4 L10.8,72.4 C6.4,72.4 2.8,72.6 2.8,72.9 C2.8,73.3 3.5,74.9 4.4,76.6 L6,79.6 L6.2,85.2 C6.3,92 6.1,92.9 3.1,97.1 L0.8,100.3 L2.3,103.3 L3.8,106.3 L6.7,105.7 L9.6,105.1 L11.8,106.3 C14.9,108 13.6,108.8 7.7,109 C2.2,109.2 0.9,109.8 2.6,111.5 L3.7,112.6 L6.9,111.5 C14.6,108.8 17.6,110.8 12.9,115.5 L9.8,118.6 L13.1,122.9 L16.4,127.2 L18.6,124.8 C21.7,121.4 27.9,124 27.9,128.6 C27.9,129.4 28.8,130.5 29.9,131.2 C31,131.9 31.9,133.1 31.9,133.8 L31.9,135.1 L34.1,135 L36.3,134.9 L36.3,137 C36.3,138.2 37.1,140.1 38.2,141.3 L40.1,143.4 L39.6,145.9 L39.5,145.9 C39.3,147.3 39.2,148.4 39.4,148.4 C39.6,148.4 43.2,147.5 47.4,146.2 L54.9,144.1 L56.9,144.7 L58.9,145.3 L58.1,142.5 C57.7,141 57.4,138.6 57.5,137.2 C57.6,135.8 57.8,131.2 58,127 C58.4,117.7 57.7,118.5 66.7,118.1 L74.1,117.8 L75.9,121.8 C76.8,124 77.7,127.6 77.7,129.9 C77.8,132.2 78.1,135.4 78.4,137.1 L79,140.2 L80.4,139.7 L81.8,139.2 L81.8,134.8 C81.8,132.3 82.7,127.6 83.9,124.3 L85.9,118.2 L84.8,116.8 L83.7,115.4 L86,111.3 C87.3,109 89.6,106.5 91.1,105.7 L93.9,104.3 L97.6,106.2 C99.7,107.2 103.3,108.5 105.8,109.1 L110.3,110.1 L113.2,108.6 L116.1,107.1 L118.4,108.2 L120.7,109.3 L123.5,108.1 L126.3,106.9 L126.6,104.6 C126.7,103.3 128.7,99.7 130.9,96.5 L135,90.7 L135,90.7 Z M22.8,41.7 C24.1,40.8 26.6,40 28.3,39.9 L31.3,39.9 L31.3,37.7 C31.3,36.5 31.9,34.9 32.5,34.2 C33.3,33.5 33.8,32 33.8,30.7 C33.8,29.4 34.5,26.6 35.4,24.5 L37,20.5 L41.6,17.5 L46.2,14.5 L48,16.1 C50,17.9 53.2,18 60.2,16.4 C65.9,15.1 65.7,15 66,19.4 L66.3,22.9 L63.9,22.6 C61.1,22.3 56.5,25 57.1,26.7 C57.6,28.1 49.6,33.4 47,33.4 C46.1,33.4 43.5,34.4 41.3,35.7 L37.3,38 L37,40.7 L36.7,43.4 L20.3,43.4 L22.7,41.7 L22.8,41.7 L22.8,41.7 Z M143.6,162.6 C143.1,160.8 143.8,158.6 147.2,151.5 L148.3,149.1 L148.6,151 C148.8,152.1 147.8,155.6 146.5,158.8 L144.1,164.7 L143.6,162.7 L143.6,162.6 L143.6,162.6 Z M119.9,188 L115.8,184 C113.5,181.8 111,178.7 110.2,177.2 L108.7,174.4 L109.9,169.5 L111.1,164.6 L114.9,164.6 C117,164.6 119,165.1 119.4,165.6 C120.4,167.2 126.5,166.8 130.4,164.9 L134,163.2 L135.7,164.3 C136.6,164.9 137.6,166.2 137.8,167.3 C138,168.3 139,170.2 140,171.5 L141.8,173.8 L139.8,178.5 C136.3,186.7 135.6,187.8 132.7,189.4 L129.9,190.9 L126.5,189.8 L119.9,188 L119.9,188 Z" id="French-Empire" fill="#0098E9" sketch:type="MSShapeGroup"></path>
        </g>
    </g>
</svg>