<svg xmlns="http://www.w3.org/2000/svg" width="300" height="350">
  <g fill="none" fill-rule="nonzero">
    <path fill="#C7D0DA" d="M120.8 173.4v-2h6v4h-6v-2zm-81.6-18c-3.64-2.45-7.3-5.6-7.3-5.6s4.2-5 4.2-7.9c6.84 4.47 3 6.3 4.16 6.05 1.54-.33 3.15-.54 4.74-.54-1.6 4 3.45 8 3.45 8l-.77 4.7s-4.82-2.23-8.47-4.7l-.01-.01zM12.8 82.1c0-.7 1.3-3.1 2.9-5.3 1.6-2.2 3.7-5.5 4.6-7.4.9-1.9 3.1-5.5 4.9-8.1l3.1-4.8 8.7-.1h8.8v6h-14V75l-2.5 1.1-2.5 1.1v6.2h-14v-1.3zm46.4-53.8c-3.2-1.1-3.6-2.4-1.5-5l1.8-2.2 7.6 1.3 7.7 1.3v2.6L69 27.4c-3.2.6-6.2 1.3-6.8 1.4-.6.2-2 0-3.1-.5h.1zm161.1 118.4c1.9.9 3.5 2.3 3.5 3 0 2.1 7.2 9.3 12 12.1l.1-.1c5.3 3.1 4.9 3 10 1l4.1-1.6 2.2 1 2.2 1 2.5-1.7c1.4-.9 4.2-2 6.3-2.4l3.8-.7 2.2-2.6c1.2-1.5 3.7-4.3 5.5-6.4 3.7-4.2 3.7-4.2-3.8-5.9-6.7-1.5-12.6-5.1-13.6-8.2-.4-1.3-1.8-3.3-3.2-4.6l-2.5-2.3 1.7-1.9 1.7-1.9-4-4-4-4-4.6-.7-4.6-.7-3.2.9-3.2.9-.4 2c-.2 1.1-1.5 3.8-3 6-1.4 2.2-3.4 5.8-4.4 7.9l-1.8 3.9.6 1.9.6 1.9-3.1 1.7c-3.9 2.2-3.9 2.5.4 4.5zm-81.5-73.9l-4.5-2.2-2.2 1.5-2.2 1.5-.3-3.3-.3-3.4-4.3-.3-4.2-.3v-3.4l6.1-3.9 6.1-3.9-6.2-6.2-6.2-6.2 1.1-.7c.6-.4 1.1-1.6 1.1-2.6s1.4-3.3 3.1-5l3.1-3.1 2.6.6c1.4.3 4.2 1 6.1 1.5l3.5.9 1.7 2.9 1.7 2.9 3.7.7c2 .4 5 1.4 6.6 2.2l2.9 1.5 2.4-2.3 2.4-2.3-.6-1.8c-.3-1-.1-2.7.5-3.8l1.4-1.9h2.9c1.6 0 5.4 1.2 8.5 2.7l5.6 2.7-.3 8-.3 8.1-5 .1-5 .1-2.7-1.8c-4.7-3.3-11.8 1-14.8 9.1-1.5 3.9-4.2 8.1-7.4 11.4l-2.1 2.1-4.5-2.1zm112.3 47.1l-4.2-4.3-4.5-.7c-2.5-.4-5.8-.4-7.5 0l-3 .7-.6-1.7c-.4-.9-.2-3.3.4-5.4l1-3.7 2.9-2.2 2.9-2.2 1 1.2c.5.7 1.3 2.6 1.6 4.4l.7 3.1 5.8 4.6c3.2 2.5 6.8 6 8 7.6l2.2 3-1.3-.1c-.7-.1-3.1-2-5.4-4.4v.1zm7.9 57.3c-.6-.7-1.3-3.5-1.7-6.2l-.6-5 1-2.6 1-2.6 4.1-.7c4.3-.7 5.2-1.4 11.4-9 2.1-2.6 4.9-5.1 6.2-5.6 2.6-1 2.9-2.4 1.5-6.2-.5-1.3-.7-3.6-.4-5.1l.5-2.8 2.6-.9c1.4-.5 3.4-1.4 4.3-1.9l1.7-1 .7 3.9.7 3.9-7.8 15-7.8 15-5.5 4.3c-3 2.4-6.7 5.3-8.1 6.5l-2.6 2.1-1-1.3-.2.2z"/>
    <path fill="#E30775" d="M212.9 303.8l1 2.7-2.6 1.9c-1.4 1-3.2 3.1-4 4.5-.8 1.5-4.7 6.1-8.7 10.3l-7.3 7.6-5.1 2.6-5.1 2.6-3.8-1-3.8-1-6.3 1.6c-7.9 2-7 2.1-10.1-1l1.2.8-2.6-2.6.6-3.5.6-3.5-2.5-3.6c-2.5-2.6-3.6-4.8-3.6-5.4 0-.6-.9-2.3-2-3.7l-2-2.6 1-.6c.5-.3 2.4.1 4.2 1l3.2 1.6 3.3-1.6 3.3-1.6v-15h1c1 0 1.3 1.2 1.4 6l.1 2.5 2.4-.3c2.8-.3 6.1-2.9 6.1-4.8 0-2.2 1.8-2.5 5-.9l3 1.6 1.9-1c1.1-.6 2.2-1.9 2.5-2.9.3-1 1.7-2.4 3.1-3 1.4-.6 2.5-1.6 2.5-2.1s2-2.6 4.5-4.6l4.5-3.7 4.3.6 4.3.6v3.2c0 1.8.3 5 .8 7.2l.8 4-2.3 1c-1.3.6-2.5 1.9-2.6 3.1l-.3 2.1 2.5 1.1 2.5 1.1 1.1-1.3h2zm-16.1 13.6c1.1-1.1 2-2.7 2-3.5 0-.8-.9-1.9-2-2.5l-2-1.1-1.8 1c-1 .5-2.4 1.7-3.1 2.6l-1.3 1.6 1.8 2c2.3 2.5 4 2.5 6.5 0l-.1-.1zm-.36-.4c.97-.98 1.76-2.4 1.76-3.1 0-.7-.8-1.68-1.76-2.2l-1.77-.98-1.6.9c-.87.43-2.1 1.5-2.72 2.28l-1.15 1.4 1.6 1.78c2.02 2.2 3.52 2.2 5.72 0l-.08-.1v.02zm10.86-14l-1.8-1.3.6-1.6c.4-1 1.3-1.7 2.1-1.7h1.4l.5 2.5c.6 3.1-.4 3.8-2.8 2.1zm-42.1-4.2v-3.6l-1.7-1.2-1.7-1.2v-3.1c0-1.7 1.1-5.7 2.5-8.8l2.5-5.7v-10.6l4-.7c2.2-.4 4.8-.4 5.8-.1 1 .3 3-.1 4.6-.9l2.8-1.4 1.9 3.2c2.8 4.8 7.2 10.6 10.2 13.5l2.7 2.6-5.7 5.3c-3.2 2.9-6.1 5.3-6.6 5.3-.4 0-1.3 1.1-1.9 2.4-1.5 3.3-3.4 3.8-7 2l-3-1.6-1.4 1.2c-.8.7-1.4 1.8-1.4 2.5 0 1.5-1.8 3-4.5 3.9l-2 .6v-3.6h-.1zm37.2-18.1c-2.7-.4-4.5-1.4-6.6-3.8-2.9-3.2-6.9-8.5-8.6-11.6l-2-3.5h7l4.3-4.7 4.3-4.7 4.3 1.2c6.2 1.7 9.3 3.5 10.5 6.3l1.1 2.5-1.5 5.8c-1.7 6.3-4 11.5-5.7 12.6-1.1.8-2.1.8-7 0l-.1-.1zm20.7-26.2c-.7-.4-1.1-2-1-3.6l.2-2.9-3.2-2.2c-1.8-1.2-3-2.4-2.8-2.7.2-.2.9-2.8 1.5-5.7l1-5.3-1-2c-1.3-2.1-.4-5.7 1.4-5.7 2.8 0 4.5 6.4 3.2 11.8l-.8 3.3 2.5 2.7c1.4 1.5 2.8 4.2 3.2 6.2l.6 3.5-1.8 1.7-1.8 1.7-1.2-.7v-.1zm-18.6-6.9c-.2-.4-.7-2-1.1-3.6l-.7-2.8 1.3-1.5 1.3-1.5-2-1.5c-1.1-.8-2.6-1.8-3.4-2.3l-1.4-.8.1-4.3c.1-2.4.2-5.3.3-6.5l.2-2.2 2.6-1c1.5-.5 3.3-1.2 4.2-1.5l1.6-.5 4.4 3.3 4.4 3.3.3 3.3c.5 6.8.5 8.4-.1 11.8l-.7 3.5-4.9 2.8c-5.3 3-5.8 3.1-6.4 2zm35.4-48.5c-1.1-1.9-2.1-3.9-2.1-4.5 0-.6-4.3-3.2-9.5-5.7l-9.5-4.7-4.5.7c-2.5.4-4.7 1.1-5 1.6-1 1.6-3.3-.1-4.4-3.2l-1-3 3-5.3 3-5.3-.6-2.4-.6-2.4 6.3-.7c3.5-.4 6.8-1.2 7.3-1.9.6-.7 2.4-1.7 4.1-2.3l3.1-1.1 1.9 1.4c1.1.8 3.7 2.3 5.8 3.4l3.9 2 4.5-1.7 4.5-1.7 2.3 1 2.3 1 .9-.9.9-.9.1 6.4.1 6.4 1.7 1.8 1.7 1.8-2.2 2.9c-1.2 1.6-4.7 5.6-7.6 8.9-3 3.3-6 7.3-6.7 8.9l-1.2 2.9-2.1-3.5-.4.1zm-34.8-37.4l-3-2.3-2.7 1.2-2.7 1.2-1.8-2.4c-1-1.3-1.6-2.9-1.3-3.6.3-.7-.6-2-2-2.9-1.4-.9-3.6-3.4-5-5.5s-3.4-4.1-4.5-4.5l-1.9-.6-1.2-5-1.2-5-1.6-1c-.9-.5-1.3-1-.9-1s-.2-1.9-1.3-4.2l-2.1-4.1.7-3.6c.5-4.4 2.8-8 4.7-8h1.5V92.6l-9.2-5.3-9.2-5.3 34.4-.3 34.4-.3 1.4 1.1c.8.6 1.4 2.7 1.4 4.6 0 3.8 1.2 6.7 4.3 10.1l2.1 2.3-3.7 3.4c-2 1.9-3.7 4.2-3.8 5.2-.1 1-.2 4.2-.3 6.9l-.2 5.1-3.1 4.4c-4 5.8-6.4 11.8-5.7 14l.6 1.8-3.1 1.6c-3.9 2-3.8 3.2.4 5.2 1.9.9 3.5 2.2 3.5 2.9 0 .7 1.4 2.7 3.1 4.4l3.1 3.2-1.3.9c-.7.5-2.1.9-3 .9-.9 0-2.1.7-2.5 1.4l-.8 1.4-6.6.9-6.6.9-3-2.3h-.3zm-101.6-4.1l-.6-3.1-4.1-2.1c-2.3-1.2-4.8-1.9-5.5-1.6l-1.4.5v-4.5c0-2.5.9-7.2 2-10.6l2-6.1-1.1-1.4-1.1-1.4 2.2-3.9c1.2-2.2 3.3-4.4 4.6-5l2.4-1.1 3.7 1.9c2 1 5.7 2.4 8.2 2.9l4.5 1 2.9-1.5 2.9-1.5 2.4 1.1 2.4 1.1 2.6-1.2 2.6-1.2 1.9 2.3 1.9 2.3-3.5 6.2c-1.9 3.4-3.5 7.2-3.5 8.4 0 5.1-5.8 10.7-8.9 8.7-.6-.4-2.4.3-4 1.5l-3 2.1-1.1 3.9-1.1 3.9H112c-1 0-3.2.3-4.8.6l-3 .6-.6-3.1-.1.3zM68 154.1l-1.1-4.4 1-5.1c.5-2.8.8-6.9.5-9.1l-.6-4.1h8.8l.7 7.2c.8 7.9 2.4 12.1 5.1 13.2l1.7.7-.9.9c-.9.9-11.9 5-13.4 5-.4 0-1.2-2-1.8-4.4v.1zm-39.6-7.8c-5.1-6 0-14.3 5.4-8.9 2.4 2.4 2.5 3.2.4 7.6-2.2 4.7-2.8 4.8-5.8 1.3zm249-1.9c-.3-.4-3.1-1.3-6.3-2-3.2-.7-7.2-2.1-9-3.2l-3.2-1.9-1-2.9-1-2.9 1.4-1.2 1.4-1.2v1.1c0 .6 1.4 1.8 3.1 2.7l3.1 1.6 6.9-1.6c3.8-.8 7.1-1.5 7.4-1.5.3 0 .5 1.5.4 3.2-.1 1.8.2 4.6.6 6.4l.7 3.1-2.1.5c-1.2.3-2.3.2-2.6-.2h.2zM14.5 119.1l3.3-1 2.1 1 2.1 1H11.2l3.3-1zm141.6-39.8c-.6-.6-3.5-1.9-6.4-2.8l-5.2-1.7 2-1.9c2.8-2.7 5.7-7.3 7.3-11.4 3-7.7 9-11.3 13.7-8.3 2.8 1.8 8.3 2.6 12 1.8l2.2-.5v-8c0-4.4.3-8 .8-8 .4 0 4.2.7 8.4 1.5l7.6 1.5 3.7-1 3.7-1 3.3 1.1c1.8.6 4 .8 4.8.5l1.5-.6 1.7 4.8c1 2.4 2 5.7 2.2 7.1l.5 2.5-3.9-4.4-3.9-4.4-.7 1.1c-.4.6 1.2 4.1 3.5 7.9 2.3 3.7 6.3 11 8.9 16.1l4.7 9.2h-71.3l-1.1-1.1zm46.7 166.3l-1-3.9-2.5-1.1c-1.4-.6-3.3-2.3-4.2-3.7l-1.7-2.6-1.4.5c-.8.3-2.7-.1-4.3-.9-1.6-.8-4-1.5-5.4-1.5h-2.5v2.8c0 3.5-1.6 5.2-5.1 5.2H172l-.6 1.6c-.3.9-.6 3.8-.6 6.4v4.8l2 2.5c1.1 1.4 2 2.9 2 3.3l7.84 1.17c.16.08.34.16.55.23l-.4-.2 5.4.8 4-.2 4.1-4.7c2.2-2.6 4.6-4.7 5.2-4.7 2 0 2.4-1.8 1.3-5.8h.01z"/>
    <path fill="#E79100" d="M153 310.5c-1.4-.8-3.3-1.2-4.2-.9l-1.7.5-1.5-2.3c-.8-1.3-1.8-5.2-2.1-8.8-1-10-4.2-20.8-8.5-28.6-5.9-10.7-4.9-12.6 5.6-10.4l5.5 1.1 4-.7 4-.7 6.9 1.7 6.9 1.7 5.1-1.1c1.6-1.1 5.3-1.6 7-1.6h3.2l-1.1 1.1c-.6.6-2.4 1.1-4 1.1s-5 .2-7.6.5l-4.8.5v11.6l-2.5 5.7-2.5 5.7v22.6l-2.5 1.2c-3.1 1.4-3.4 1.4-6.5-.3l1.3.4zm93.7-80.7c-.2-.2-3.1.5-6.3 1.6l-5.9 2-5.2-.7-5.2-.7v-1.9c0-1.1-.7-3-1.6-4.4l-1.6-2.5-1.6.3c-.9.2-3.6-1.1-5.9-2.7l-4.3-3-2.9-5.7c-2.1-3.1-3.4-6.8-3.4-8.1 0-1.4-.5-3.6-1.1-5l-1.1-2.5 1.1-1.4 1.1-1.4-1.1-1.1-1.1-1.1.6-2c.7-2.3 3.6-3.3 5.9-2.1l1.6.9.6-1c.3-.5 2.6-1.3 5-1.6l4.5-.7 9 4.4c5 2.4 9 4.8 9 5.4 0 .6 1.1 2.6 2.4 4.6l2.4 3.6-.5 6-.5 6 3.6 7.8 3.6 7.8-1.1-.8zm-97.1-46.9c-1-1.3-1.8-3-1.8-3.7 0-.8-.9-2.2-2.1-3.3l-2.1-1.9-3.2 1.4c-1.8.8-5.2 1.4-7.7 1.5l-4.5.1-.3-3.2-.3-3.2h-6.8v-1.9c0-2.6-3.2-8.1-4.8-8.1-1.5 0-1.5-.5-.2-5.2l1-3.6 2.5-1.6c1.4-.9 3-1.4 3.5-1 3.3 2 9.9-4.5 9.9-9.7 0-1.2 1.6-5 3.5-8.4l3.5-6.2-2.1-2.7-2.1-2.7 3.3.3 3.3.3 2.6 4.5c1.4 2.5 3.4 7.2 4.4 10.5 1.9 6.5 4.4 11.7 8.6 18.1l2.7 4.1-1.6 1c-.9.6-2.3 2.5-3.2 4.4-5.1 10.4-5.3 12-2.1 14.6l1.5 1.2-1.3 3.1c-1.7 4.1-2.2 4.2-4.3 1.5l.2-.2zm-65.2-31c-.3-.8-1.2-1.5-1.9-1.5-2 0-3.4-4.3-4.2-12.2l-.7-6.8h1c.6 0 1.7-.2 2.5-.5l1.4-.5 1.6 4.3c2.7 7.4 3.1 24.3.4 17.3l-.1-.1z"/>
    <path fill="#732071" d="M211 300.5c-.1-1.1-.4-4-.6-6.5-1.1-10.5-1.1-13-.3-13 1.3 0 4.6-7 6.2-13.4l1.5-5.9-1.5-2.9-1.5-2.9-4.2-1.9c-2.3-1-5-1.9-6-1.9-2.7 0-1.3-1.5 4.9-5l5.6-3.1 3.2 1.9 3.2 1.9-.2 3.1-.2 3.1 1.9 1 1.9 1 2.2-2.4 2.2-2.4-.7-3.3c-.4-1.8-1.8-4.5-3.2-6l-2.5-2.7.7-3.2.7-3.2 5.2.7 5.2.7 6.7-2.4 6.7-2.4-.6 3.1c-.3 1.7-.1 5.3.5 7.9l1.1 4.8-1.9 3.7c-2.4 4.7-4.3 6.3-10.9 9.6-2.9 1.4-5.2 3.1-5.2 3.6s-2 3.2-4.5 6c-5.2 5.8-5.2 5.8-2.4 11.1l2.1 4-.6 2.9c-.7 3.1-3.7 5.9-8.3 7.9l-2.9 1.2-1.5 3.7-1.5 3.7-.2-2-.3-.1zm-77.9-42.3h-4.2v-1.9c0-3.1 3-11.9 6.2-18.1l3-5.8-1.7-5-1.7-5 .6-2.4.6-2.4-2.4-4.8c-1.3-2.7-1.88-3.87-1.88-3.87L140 208l8.7.3 1.1 3.3c.6 1.8 1.9 4.1 2.9 5l1.8 1.7 2.7-.7 2.7-.7 1.1-2.4 1.1-2.4 3.1.7c4.5 1 4.6 1.1 4.6 6.2 0 2.6.6 6.3 1.3 8.2l1.2 3.5h7l-.3 3.5c-.5 4.6-.8 5-4.2 5h-2.9l-1 1.9c-.6 1.3-1.1 4.4-1.1 7v4.9l2.5 3.4 2.5 3.4-2.8.6c-4.1.9-7.4.8-10.8-.3-2.6-.8-16.8-1.8-28.1-1.9zm-.8-55.6c-.3-.3-2.3-2.1-3-1.4l.83 2.6h.97c1-.4 1.5-.9 1.2-1.2zm-117-75l-3-1.5 3-1.3c1.6-.7 4.3-1.3 5.8-1.3l2.8-.1-1.1 2c-.6 1.1-1.8 2.4-2.8 2.8l-1.7.9-3-1.5z"/>
    <path fill="#302E77" d="M197.5 237.4l-3.3-3.6-1.1.6c-.6.4-2.4 0-4-.9-2.9-1.4-5.3-2.1-6.7-2.1-1.4 0-2.8-.5-3.1-1.1l-.7-1.1-2.8.6-2.8.6-1.1-3.8c-.6-2.1-1.1-5.9-1.1-8.5v-4.7l-4.2-1.1-4.2-1.1-1.3 1.7c-.7 1-1.4 2.1-1.6 2.6-.2.5-1.6 1-3.3 1.1l-2.9.3-2.3-4.8-2.3-4.8-9 .3-9 .3v-1.7c0-2.2 3.5-4.1 6-3.3l1.9.6 2.9-1.5c3.2-1.7 5.8-5.1 6.7-8.9.3-1.4 2.2-4.9 4.1-7.9l3.4-5.3-.6-2.6-.6-2.6 2.1-4.9 2.1-4.9-.6-2.8-.6-2.8 1.4-.5c.8-.3 3.7.5 6.5 1.7l5.2 2.2 5.7-1.8c3.1-1 7.3-1.8 9.2-1.9 1.9-.1 4.1-.5 4.9-1l1.4-.9 2.3 2.8 2.3 2.8 2.7-1.2 2.7-1.2 2.8 2c1.5 1.1 3.1 3.2 3.5 4.6l.7 2.6-3 5.4-3 5.4 1 2.6c1.3 3.4 1.3 3.5-.5 3.5-.8 0-2 1.1-2.6 2.5l-1.1 2.5 1.1 1.4 1.1 1.4-1.1 1.1-1.1 1.1 1.2 2.6c.6 1.4 1.2 3.7 1.2 5.1 0 1.4 1.1 4.7 2.5 7.4 3 5.9 3 6 .8 6-1 0-2.9.7-4.2 1.4l-2.5 1.4-.3 2.8c-.2 1.6-.4 4.6-.4 6.7l-.1 3.9 1.9 1.4c1.1.8 2.6 1.9 3.4 2.4l1.5.9-1.5 1c-2.3 1.6-3 1.3-6.5-2.6l.9.6z"/>
    <path fill="#0B74DE" d="M258.8 127.3v-1.9h-1.9c-1 0-2.4.6-2.9 1.4l-1.2 1.4 1.6 1.6v.1l1.6 1.6 1.4-1.2c.8-.6 1.4-2 1.4-3zm-74 19.1c0-.6-1.3-1.7-2.9-2.5l-2.9-1.5-1.2-5-1.2-5-1.6-.6c-.9-.3-1.3-.9-1-1.2.4-.3-.3-2.4-1.4-4.6l-2-4 .7-3.6c.8-4.5 3.5-9.1 5.2-9.1h1.3V92.9l-12.6-7.4c-6.9-4-14.5-7.9-16.9-8.6l-4.4-1.3-1.2 1.5-1.2 1.5 2 4.2 2 4.2-.3 7.9-.3 7.9-3.9 5.6c-2.1 3-4.2 6.6-4.6 7.8l-.7 2.2h5.8l1.5 1.8c2.7 3.3 5.4 8.8 7.2 14.8 1.9 6.4 4.3 11.4 8.9 18.5l2.9 4.5 3.7 1.6h.1c4.9 2.2 6.2 2.2 13.2-.2 3.3-1.1 7-1.8 8.2-1.5l2.2.5 1.8-1.4 1.8-1.4-4.1-4.1c-2.3-2.3-4.1-4.6-4.1-5.1zm101.3 99.1c-.4-1.9-1.1-4.3-1.7-5.4l-1-1.9-1.6 3.1c-2.3 4.4-11.1 11.9-14.8 12.7l-3.2.7-1.2 2.9-1.2 2.9.7 5.5.7 5.5-3.1 5.1-3.1 5.1.7 5.2c.8 5.9 1.2 6.7 4 8.3h-.2c2.4 1.4 2 1.4 6.5.1l3.8-1.1 1.5-3.6c.9-2 2.2-6.3 3-9.6.8-3.3 3.6-11.9 6.2-19l4.7-13-.7-3.5zM115.8 19.3l-2.2 4.5-2.2 4.5 3.2 4.3c1.8 2.3 3.7 5.5 4.3 7 1.2 3 2.9 2.8 2.9-.4 0-1.1 1.4-3.3 3.1-4.9l3.1-2.9-2.7-2.8-2.7-2.8 1.1-2.8 1.1-2.8-1-1.3c-.5-.7-.7-1.9-.4-2.8l.6-1.6-2-1.1-2-1.1-3 1.1-3 1.1.9 2.4.9 2.4zM76.7 33.9l-1.1 1.3-1.1 1.3-1.8-.6c-1-.3-2.7 0-3.9.6l-2.1 1.1.5 1.3.5 1.3-5 3.1c-2.8 1.7-5.7 3.1-6.5 3.1-.8 0-3.3.9-5.4 2l-4 2V57l23.5 17.4C83.2 84 93.8 92.2 93.8 92.6c0 .4 2 .8 4.5.8h4.5l12.9-9.8 13-9.7v-6.4l-4.2-.3-4.2-.3-.3-2.1-.3-2.1 6-3.9 6-3.9-6.4-6.5c-3.5-3.5-6.9-7.7-7.7-9.2-.8-1.5-2.7-4.6-4.3-6.8l-2.9-4.1 2.1-4.3 2.1-4.3-.5-2-.5-2-9.6-.5-9.6-.5-4.7 1.2c-2.6.7-7 2.5-9.7 4l-4.9 2.8.8 5.6.8 5.6zm67.3 68.8l.3-7.9.3-7.9-1.9-3.7-3.9-9.6-4.5-1.9-4 2.5c-2.2 1.4-9.3 6.5-15.8 11.4l-11.7 8.8h-10v-1.2c0-.7-10.3-8.9-22.8-18.1L47.3 58.3l-.4 2.6-.3 2.5H32.8v12l-2.5 1.3-2.5 1.1v6.6h-8c-4.4 0-8 .2-8 .5 0 .4.7 2 1.6 3.7l1.6 3 .2 5.6c.1 6.8-.1 7.7-3.1 11.9l-2.3 3.2 1.5 3 1.5 3 2.9-.6 2.9-.6 2.2 1.2c3.1 1.7 1.8 2.5-4.1 2.7-5.5.2-6.8.8-5.1 2.5l1.1 1.1 3.2-1.1c7.7-2.7 10.7-.7 6 4l-3.1 3.1 3.3 4.3 3.3 4.3 2.2-2.4c3.1-3.4 9.3-.8 9.3 3.8 0 .8.9 1.9 2 2.6 1.1.7 2 1.9 2 2.6v1.3l2.2-.1 2.2-.1v2.1c0 1.2.8 3.1 1.9 4.3l1.9 2.1-.5 2.5h-.1c-.2 1.4-.3 2.5-.1 2.5.2 0 3.8-.9 8-2.2l7.5-2.1 2 .6 2 .6-.8-2.8c-.4-1.5-.7-3.9-.6-5.3.1-1.4.3-6 .5-10.2.4-9.3-.3-8.5 8.7-8.9l7.4-.3 1.8 4c.9 2.2 1.8 5.8 1.8 8.1.1 2.3.4 5.5.7 7.2l.6 3.1 1.4-.5 1.4-.5v-4.4c0-2.5.9-7.2 2.1-10.5l2-6.1-1.1-1.4-1.1-1.4 2.3-4.1c1.3-2.3 3.6-4.8 5.1-5.6l2.8-1.4 3.7 1.9c2.1 1 5.7 2.3 8.2 2.9l4.5 1 2.9-1.5 2.9-1.5 2.3 1.1 2.3 1.1 2.8-1.2 2.8-1.2.3-2.3c.1-1.3 2.1-4.9 4.3-8.1l4.1-5.8zm-112.2-49c1.3-.9 3.8-1.7 5.5-1.8h3v-2.2c0-1.2.6-2.8 1.2-3.5.8-.7 1.3-2.2 1.3-3.5 0-1.3.7-4.1 1.6-6.2l1.6-4 4.6-3 4.6-3 1.8 1.6c2 1.8 5.2 1.9 12.2.3 5.7-1.3 5.5-1.4 5.8 3l.3 3.5-2.4-.3c-2.8-.3-7.4 2.4-6.8 4.1.5 1.4-7.5 6.7-10.1 6.7-.9 0-3.5 1-5.7 2.3l-4 2.3-.3 2.7-.3 2.7H29.3l2.4-1.7h.1zm120.8 120.9c-.5-1.8.2-4 3.6-11.1l1.1-2.4.3 1.9c.2 1.1-.8 4.6-2.1 7.8l-2.4 5.9-.5-2v-.1zM128.9 200l-4.1-4c-2.3-2.2-4.8-5.3-5.6-6.8l-1.5-2.8 1.2-4.9 1.2-4.9h3.8c2.1 0 4.1.5 4.5 1 1 1.6 7.1 1.2 11-.7l3.6-1.7 1.7 1.1c.9.6 1.9 1.9 2.1 3 .2 1 1.2 2.9 2.2 4.2l1.8 2.3-2 4.7c-3.5 8.2-4.2 9.3-7.1 10.9l-2.8 1.5-3.4-1.1-6.6-1.8z"/>
  </g>
</svg>
