<svg xmlns="http://www.w3.org/2000/svg" width="250" height="250">
  <g fill="none" fill-rule="evenodd" transform="translate(52 35)">
    <path fill="#DBE1E8" fill-rule="nonzero" d="M92.3456 139.6059v-5.644c0-9.92 4.0246-19.45 11.0433-26.146 8.7803-8.378 13.6159-19.678 13.6159-31.818 0-24.238-19.6918-43.956-43.8976-43.956-1.6518 0-3.3296.092-4.9854.276-20.972 2.322-37.6698 20.026-38.8423 41.182-.707 12.758 4.1265 25.166 13.2624 34.04 7.1984 6.992 11.327 16.62 11.327 26.416v5.648c0 5.998 4.8714 10.876 10.8615 10.876H81.482c5.99.004 10.8635-4.876 10.8635-10.874z"/>
    <path fill="#ADB4BB" fill-rule="nonzero" d="M86.4782 154.555H60.4768c-1.6558 0-2.996 1.342-2.996 3s1.3402 3 2.996 3h26.0034c1.6558 0 2.996-1.342 2.996-3s-1.3422-3-2.998-3zM89.4742 166.979c0-1.658-1.3402-3-2.996-3H60.4768c-1.6558 0-2.996 1.342-2.996 3s1.3402 3 2.996 3h26.0034c1.6538 0 2.994-1.344 2.994-3z"/>
    <path fill="#F0F7FF" fill-rule="nonzero" d="M2.996 76.6806h17.263c1.6558 0 2.996-1.342 2.996-3s-1.3402-3-2.996-3H2.996c-1.6558 0-2.996 1.342-2.996 3s1.3402 3 2.996 3zM146.6974 73.6806c0-1.658-1.3403-3-2.996-3h-17.263c-1.6559 0-2.996 1.342-2.996 3s1.3401 3 2.996 3h17.263c1.6557 0 2.996-1.342 2.996-3zM69.7308 3v17.286c0 1.658 1.3402 3 2.996 3s2.996-1.342 2.996-3V3c0-1.658-1.3402-3-2.996-3s-2.996 1.342-2.996 3zM120.5067 21.612l-12.2058 12.222c-1.1704 1.17-1.1704 3.072 0 4.242.5852.586 1.3522.878 2.1192.878.767 0 1.534-.292 2.1192-.878l12.2057-12.222c1.1705-1.17 1.1705-3.072 0-4.242-1.1724-1.172-3.0679-1.172-4.2383 0zM37.1084 109.256c-1.1704-1.172-3.066-1.172-4.2364 0l-12.2057 12.222c-1.1704 1.17-1.1704 3.07 0 4.242.5852.586 1.3522.878 2.1192.878.767 0 1.534-.292 2.1192-.878l12.2057-12.222c1.1685-1.17 1.1685-3.07-.002-4.242zM32.87 38.076c.5853.586 1.3523.878 2.1192.878.767 0 1.534-.292 2.1192-.878 1.1705-1.17 1.1705-3.072 0-4.242L24.9027 21.612c-1.1705-1.172-3.066-1.172-4.2364 0-1.1704 1.17-1.1704 3.072 0 4.242L32.87 38.076zM120.5047 125.72c.5852.586 1.3522.878 2.1191.878.767 0 1.534-.292 2.1192-.878 1.1705-1.172 1.1705-3.072 0-4.242l-12.2057-12.222c-1.1705-1.172-3.066-1.172-4.2364 0-1.1704 1.172-1.1704 3.072 0 4.242l12.2038 12.222z"/>
    <path fill="#ADB4BB" fill-rule="nonzero" d="M82.1273 176.4031c0-1.658-1.3402-3-2.996-3H66.1306c-1.6558 0-2.996 1.342-2.996 3s1.3402 3 2.996 3h13.0007c1.6558 0 2.996-1.342 2.996-3z"/>
    <ellipse cx="52.7246" cy="61.7372" fill="#F2F8FF" rx="15.9977" ry="17.4346" transform="rotate(30 52.7246 61.7372)"/>
  </g>
</svg>
