<svg xmlns="http://www.w3.org/2000/svg" width="501" height="507">
  <g fill="none" fill-rule="evenodd" stroke="#4F0229" stroke-width="8">
    <path fill="#B2055C" d="M247.7926 414.0717c-50.3616 62.8322-143.8508 41.0334-143.8508 41.0334s-57.227-82.6076-4.8233-149.1695C19.236 277.2546 16 182.0242 16 182.0242s51.185-75.0252 139.6502-50.926C155.6502 48.1067 247.7926 13 247.7926 13s92.6 35.2938 92.6 118.0983c87.233-17.1445 139.6386 50.9259 139.6386 50.9259s-8.2837 106.0696-83.0907 123.9114c47.0072 62.6527-4.8903 149.1695-4.8903 149.1695s-99.2074 23.2175-144.2576-41.0334z"/>
    <path fill="#FA56A8" d="M390.5267 210.2158c76.335 24.8028 81.0883 120.0465 81.0883 120.0465s-60.2835 75.008-136.3 49.878c-45.3502-14.992-25.232-160.4212 55.2117-169.9245z"/>
    <path fill="#E30775" d="M335.9093 379.6196c-10.3011 85.36-88.5735 113.2188-88.5735 113.2188s-95.0863-39.3191-89.1403-113.4581c6.5539-81.7192 140.9273-77.3046 177.7138.2393z"/>
    <path fill="#FB88C2" d="M248.6515 105.4516C298.9056 40.548 387.465 66.032 387.465 66.032s53.7104 69.5013 5.1056 143.6686-103.6762-17.3422-143.919-104.249z"/>
    <path fill="#FDB9DB" d="M101.6693 209.4353c-42.7415-65.1 5.2488-144.5759 5.2488-144.5759s93.0846-27.949 138.6464 40.1441c45.5617 68.093-37.975 92.5623-143.8952 104.4318z"/>
    <path fill="#FA56A8" d="M101.5236 210.4714C182.2114 189.2164 162 368.5 158 379.5c-71.6759 24.5126-137.3313-48.6049-137.3313-48.6049s8.2938-98.1889 80.8549-120.4237z"/>
    <path fill="#E30775" d="M168.543 365.932c26.768 5.6898 104.0442-23.3229 64.7907-41.5696-39.2534-18.2468-97.801-117.8484-116.5103-114.8347-11.8903 31.26 4.0695 73.4584 7.8345 85.9095 3.765 12.451 17.117 64.8051 43.885 70.4949z"/>
    <path fill="#FB88C2" d="M326.2813 365.8965c2.4398-11.4783 6.313-77.7758 7.4254-83.0088 1.1123-5.233-27.447-51.8548-21.3937-6.295 6.0533 45.5598-138.6463 27.2282-151.3226 86.8656 39.135 18.8041 148.9798 10.622 165.2909 2.4382z"/>
    <path fill="#E30775" d="M326.337 365.3853c24.9478-10.4258 48.5923-103.9344 49.887-137.4466.0777-2.0128-4.4965-25.4562-13.5174-37.8594-9.0209-12.4031-68.8028-5.367-70.8297 4.1686 24.514 82.106 16.7913 86.9911 34.4601 171.1374z"/>
    <path fill="#FDB9DB" d="M164.8469 204.6274c24.9478-10.4258 111.5719-18.5897 210.7124 22.2897 3.9147-54.2931-89.0438-100.6264-122.7409-106.6239-22.9684 3.856-63.5911 27.2188-64.7688 32.7596-1.1778 5.5407-54.3542 66.5071-23.2027 51.5746z"/>
    <path fill="#FB88C2" d="M173.091 264.747c-2.5802-18.0247 75.068-141.3795 81.5925-144.653-34.1016-9.5787-131.7196 71.4107-137.4206 90.0053 7.2844-1.3643 33.334 30.1924 55.8281 54.6477z"/>
  </g>
</svg>
