<svg xmlns="http://www.w3.org/2000/svg" width="501" height="507">
  <g fill="none" fill-rule="evenodd" stroke="#4F0229" stroke-width="8">
    <path fill="#B2055C" d="M247.7926 414.0717c-50.3616 62.8322-143.8508 41.0334-143.8508 41.0334s-57.227-82.6076-4.8233-149.1695C19.236 277.2546 16 182.0242 16 182.0242s51.185-75.0252 139.6502-50.926C155.6502 48.1067 247.7926 13 247.7926 13s92.6 35.2938 92.6 118.0983c87.233-17.1445 139.6386 50.9259 139.6386 50.9259s-8.2837 106.0696-83.0907 123.9114c47.0072 62.6527-4.8903 149.1695-4.8903 149.1695s-99.2074 23.2175-144.2576-41.0334z"/>
    <path fill="#FA56A8" d="M392.3028 211.1135c78.331 36.332 80.7625 119.1592 80.7625 119.1592s-66.5713 77.622-135.5363 48.9318c-28.3874-68.0543 2.9573-147.6024 54.7738-168.091z"/>
    <path fill="#FB88C2" d="M247.8645 103.9262c47.3706-65.2 139.2908-40.252 139.2908-40.252s51.8123 81.1513 4.5485 146.2042c-23.4838 30.533-103.678-34.6003-143.8393-105.9522z"/>
    <path fill="#FDB9DB" d="M103.0212 210.5278c-46.3986-68.137 5.3631-144.7245 5.3631-144.7245s84.3029-29.8714 140.0607 39.5659c-5.6774 81.9223-57.967 89.2693-145.4238 105.1586z"/>
    <path fill="#E30775" d="M157.948 379.772c73.1208-60.8846 97.9769-38.6593 178.8264-.3983 1.1755 76.0575-88.7974 115.4315-88.7974 115.4315s-91.3035-38.8374-90.029-115.0332z"/>
    <path fill="#FA56A8" d="M159.101 379.7544c-75.4366 20.6112-136.3582-49.4466-136.3582-49.4466s2.236-97.644 81.406-120.0193c92.1462 55.8217 38.5814 112.4917 54.9521 169.466z"/>
    <path fill="#E30775" d="M165.0573 381.9434c30.0612 5.8433 115.9625-28.156 71.6877-47.8115-44.2748-19.6554-112.4223-127.146-133.2977-123.4043-12.6974 35.2295 6.6846 79.2945 11.1388 93.1595 4.4543 13.865 20.41 72.213 50.4712 78.0563z"/>
    <path fill="#FB88C2" d="M337.5574 378.6287c2.5071-12.8979 7.9849-87.8895 9.1279-93.7697 1.143-5.8802-31.7168-57.5118-24.0595-6.6265 7.6572 50.8853-150.9636 34.3516-163.9898 101.3652 44.1531 20.2817 160.8298 8.5135 178.9214-.969z"/>
    <path fill="#E30775" d="M337.507 379.4343c27.7117-12.1623 53.9736-130.5497 54.7717-168.0922.048-2.2549-4.7153-15.8656-15.0495-29.5736-10.3342-13.708-77.0877-4.6556-79.1704 6.0595 29.0222 91.4359 18.0454 97.7517 39.4482 191.6063z"/>
    <path fill="#FDB9DB" d="M156.6094 201.9882c27.7117-12.1623 123.6861-34.4542 235.408 9.361-2.386-47.9109-106.019-99.903-143.839-105.9546-25.6245 4.7685-65.3982 32.1733-66.6085 38.3994-1.2102 6.226-59.526 75.5238-24.9605 58.1942z"/>
    <path fill="#FB88C2" d="M168.0837 272.2627c-3.2369-20.128 72.064-163.431 79.3006-167.224C209.0422 94.986 108.079 189.7535 102.061 210.6823c8.124-1.6706 54.8362 52.2565 66.0226 61.5804z"/>
  </g>
</svg>
