<svg xmlns="http://www.w3.org/2000/svg" width="250" height="250">
  <g fill="none" fill-rule="evenodd" stroke="#ADB4BB" stroke-width="4">
    <path fill="#C4CAD2" d="M123.0978 182.8615c-19.0477 23.8286-54.407 15.5616-54.407 15.5616s-21.6442-31.3282-1.8242-56.5713c-30.213-10.877-31.4369-46.9923-31.4369-46.9923s19.359-28.4527 52.8182-19.3133c0-31.4738 34.8499-44.7877 34.8499-44.7877s35.023 13.3849 35.023 44.7877c32.993-6.5018 52.8138 19.3133 52.8138 19.3133s-3.133 40.226-31.4264 46.9923c17.779 23.7605-1.8496 56.5713-1.8496 56.5713s-37.522 8.805-54.5608-15.5616z"/>
    <path fill="#DBE1E8" d="M177.804 105.928c29.6361 13.7277 30.5163 45.1087 30.5163 45.1087s-25.2398 29.4424-51.334 18.6057c-10.7135-25.7712 1.1914-55.9262 20.8176-63.7143z"/>
    <path fill="#DBE1E8" d="M123.099 65.2952c17.9648-24.7265 52.751-15.3188 52.751-15.3188s19.5752 30.722 1.6508 55.3928c-8.9051 11.58-39.2327-13.0592-54.4019-40.074z"/>
    <path fill="#DBE1E8" d="M68.29 105.6674c-17.532-25.7937 2.1008-54.837 2.1008-54.837s31.9292-11.359 53.0037 14.9229c-2.1892 31.0421-21.9882 33.8512-55.1045 39.914zM89.0985 169.9029c27.711-23.104 37.11-14.6952 67.6987-.238.408 28.8167-33.6723 43.7789-33.6723 43.7789s-34.546-14.6706-34.0264-43.5409z"/>
    <path fill="#DBE1E8" d="M89.5344 169.7972c-28.5682 7.846-51.5972-18.6684-51.5972-18.6684s.894-36.9971 30.8763-45.5134c34.8568 21.1053 14.5511 42.603 20.7209 64.1818z"/>
    <path fill="#F2F8FF" d="M91.7905 170.6754c11.3697 2.21 43.8688-10.6991 27.1254-18.144-16.7434-7.445-42.5-48.1928-50.3969-46.77-4.8096 13.3617 2.5133 30.0676 4.1955 35.3244 1.6822 5.2568 7.7063 27.3795 19.076 29.5896z"/>
    <path fill="#F2F8FF" d="M157.0406 169.403c.9508-4.8915 3.0371-33.3297 3.4706-35.5597.4335-2.23-11.986-21.8026-9.0994-2.5082 2.8867 19.2945-57.1093 13.0552-62.0493 38.4696 16.6972 7.6824 60.833 3.1975 67.678-.4018z"/>
    <path fill="#F2F8FF" d="M157.0094 169.7206c10.4844-4.6173 20.4408-49.5153 20.7499-63.7517.0185-.8551-1.7806-6.0154-5.6869-11.2116-3.9063-5.1962-29.158-1.7506-29.9478 2.313 10.9603 34.6673 6.807 37.0644 14.8848 72.6503z"/>
    <path fill="#F2F8FF" d="M88.6002 102.4523c10.4844-4.6173 46.7915-13.0888 89.0424 3.5046-.8933-18.1675-40.083-37.8633-54.3875-40.1508-9.6935 1.8131-24.7434 12.2128-25.2024 14.574-.459 2.3612-22.5305 28.6503-9.4525 22.0722z"/>
    <path fill="#F2F8FF" d="M92.933 129.0787c-1.2206-7.632 27.2898-61.9876 30.0279-63.4273-14.5012-3.8047-52.7092 32.151-54.9895 40.0884 3.0732-.635 20.732 19.8053 24.9615 23.3389z"/>
  </g>
</svg>
