<svg xmlns="http://www.w3.org/2000/svg" width="250" height="250">
  <g fill="none" fill-rule="evenodd">
    <path fill="#C4CAD2" stroke="#ADB4BB" stroke-width="6" d="M187.3283 85.407c8.1056 0 14.6717 6.5747 14.6717 14.6908v71.1576c0 8.6509-7.006 15.666-15.6456 15.666H64.6456c-8.6396 0-15.6456-7.0151-15.6456-15.666v-71.1576c0-8.116 6.5661-14.6908 14.6717-14.6908H93.015l1.3823-5.8511c2.105-9.0599 10.179-15.4773 19.4785-15.4773h23.2798c9.2994 0 17.3736 6.4174 19.4785 15.4773l1.351 5.8511h29.3432z"/>
    <path fill="#DBE1E8" stroke="#ADB4BB" stroke-width="6" d="M161.6922 136.3372c0-20.0071-16.211-36.2394-36.1922-36.2394-19.9811 0-36.1922 16.2323-36.1922 36.2394 0 20.0072 16.211 36.2394 36.1922 36.2394 19.9811 0 36.1922-16.2322 36.1922-36.2394z"/>
    <path fill="#F2F8FF" d="M136.551 128.3588c0 11.2304-9.0795 20.3217-20.2953 20.3217-11.2158 0-20.2953-9.0913-20.2953-20.3217 0-11.2305 9.0795-20.3218 20.2953-20.3218 11.2158 0 20.2953 9.0913 20.2953 20.3218z"/>
  </g>
</svg>
